<svg xmlns="http://www.w3.org/2000/svg" xmlns:xlink="http://www.w3.org/1999/xlink" width="500" zoomAndPan="magnify" viewBox="0 0 375 374.999991" height="500" preserveAspectRatio="xMidYMid meet" version="1.0"><defs><g/><clipPath id="ed32e371aa"><path d="M 112.5 193.328125 L 262.5 193.328125 L 262.5 245.078125 L 112.5 245.078125 Z M 112.5 193.328125 " clip-rule="nonzero"/></clipPath></defs><path fill="#1f3a68" d="M 251.824219 241.082031 L 251.824219 198.484375 L 255.890625 198.484375 L 255.890625 241.082031 L 251.824219 241.082031 " fill-opacity="1" fill-rule="nonzero"/><path fill="#1f3a68" d="M 240.730469 241.082031 L 240.730469 198.484375 L 244.796875 198.484375 L 244.796875 241.082031 L 240.730469 241.082031 " fill-opacity="1" fill-rule="nonzero"/><path fill="#1f3a68" d="M 129.832031 239.621094 L 129.832031 197.015625 L 133.898438 197.015625 L 133.898438 239.621094 L 129.832031 239.621094 " fill-opacity="1" fill-rule="nonzero"/><path fill="#1f3a68" d="M 118.738281 239.621094 L 118.738281 197.015625 L 122.804688 197.015625 L 122.804688 239.621094 L 118.738281 239.621094 " fill-opacity="1" fill-rule="nonzero"/><path fill="#1f3a68" d="M 205.015625 237.566406 C 205.972656 236.914062 206.96875 236.222656 208.019531 235.632812 L 208.019531 200.863281 C 206.597656 200.242188 205.273438 199.453125 203.953125 198.628906 L 203.953125 238.25 C 204.308594 238.035156 204.664062 237.804688 205.015625 237.566406 " fill-opacity="1" fill-rule="nonzero"/><path fill="#1f3a68" d="M 192.074219 239.164062 L 192.074219 196.554688 L 196.140625 196.554688 L 196.140625 239.164062 L 192.074219 239.164062 " fill-opacity="1" fill-rule="nonzero"/><path fill="#1f3a68" d="M 180.199219 240.53125 L 180.199219 197.933594 L 184.265625 197.933594 L 184.265625 240.53125 L 180.199219 240.53125 " fill-opacity="1" fill-rule="nonzero"/><path fill="#1f3a68" d="M 172.386719 239.1875 L 172.386719 200.503906 C 171.015625 201.488281 169.695312 202.550781 168.328125 203.515625 L 168.328125 236.800781 C 169.667969 237.609375 171.027344 238.40625 172.386719 239.1875 " fill-opacity="1" fill-rule="nonzero"/><g clip-path="url(#ed32e371aa)"><path fill="#1f3a68" d="M 112.644531 241.253906 C 112.644531 239.121094 114.375 237.398438 116.519531 237.398438 C 132.40625 237.398438 140.453125 227.402344 148.984375 216.828125 C 157.84375 205.828125 167.890625 193.359375 187.5 193.359375 C 207.105469 193.359375 217.15625 205.828125 226.015625 216.828125 C 234.546875 227.402344 242.601562 237.398438 258.476562 237.398438 C 260.617188 237.398438 262.355469 239.121094 262.355469 241.253906 C 262.355469 243.386719 260.617188 245.109375 258.476562 245.109375 C 238.871094 245.109375 228.820312 232.644531 219.953125 221.644531 C 211.433594 211.0625 203.378906 201.074219 187.5 201.074219 C 171.621094 201.074219 163.566406 211.0625 155.039062 221.644531 C 146.175781 232.644531 136.128906 245.109375 116.519531 245.109375 C 114.375 245.109375 112.644531 243.386719 112.644531 241.253906 " fill-opacity="1" fill-rule="nonzero"/><path fill="#4eb1cb" d="M 112.644531 197.21875 C 112.644531 195.085938 114.375 193.359375 116.519531 193.359375 C 136.128906 193.359375 146.175781 205.828125 155.039062 216.828125 C 163.566406 227.402344 171.621094 237.398438 187.5 237.398438 C 203.378906 237.398438 211.433594 227.402344 219.953125 216.828125 C 228.820312 205.828125 238.871094 193.359375 258.476562 193.359375 C 260.617188 193.359375 262.355469 195.085938 262.355469 197.21875 C 262.355469 199.347656 260.617188 201.074219 258.476562 201.074219 C 242.601562 201.074219 234.546875 211.0625 226.015625 221.644531 C 217.15625 232.644531 207.105469 245.109375 187.5 245.109375 C 167.890625 245.109375 157.84375 232.644531 148.984375 221.644531 C 140.453125 211.0625 132.40625 201.074219 116.519531 201.074219 C 114.375 201.074219 112.644531 199.347656 112.644531 197.21875 " fill-opacity="1" fill-rule="nonzero"/></g><g fill="#1f3a68" fill-opacity="1"><g transform="translate(118.394528, 165.36116)"><g><path d="M 5.625 0.171875 C 4.78125 0.171875 4.023438 -0.03125 3.359375 -0.4375 C 2.691406 -0.84375 2.160156 -1.484375 1.765625 -2.359375 C 1.367188 -3.242188 1.171875 -4.363281 1.171875 -5.71875 C 1.171875 -7.070312 1.367188 -8.1875 1.765625 -9.0625 C 2.160156 -9.9375 2.691406 -10.578125 3.359375 -10.984375 C 4.023438 -11.390625 4.78125 -11.59375 5.625 -11.59375 C 6.457031 -11.59375 7.207031 -11.390625 7.875 -10.984375 C 8.539062 -10.578125 9.070312 -9.9375 9.46875 -9.0625 C 9.863281 -8.1875 10.0625 -7.070312 10.0625 -5.71875 C 10.0625 -4.363281 9.863281 -3.242188 9.46875 -2.359375 C 9.070312 -1.484375 8.539062 -0.84375 7.875 -0.4375 C 7.207031 -0.03125 6.457031 0.171875 5.625 0.171875 Z M 5.625 -1.078125 C 6.613281 -1.078125 7.363281 -1.4375 7.875 -2.15625 C 8.394531 -2.875 8.65625 -4.0625 8.65625 -5.71875 C 8.65625 -7.375 8.394531 -8.554688 7.875 -9.265625 C 7.363281 -9.984375 6.613281 -10.34375 5.625 -10.34375 C 4.96875 -10.34375 4.414062 -10.191406 3.96875 -9.890625 C 3.519531 -9.585938 3.175781 -9.09375 2.9375 -8.40625 C 2.695312 -7.726562 2.578125 -6.832031 2.578125 -5.71875 C 2.578125 -4.59375 2.695312 -3.6875 2.9375 -3 C 3.175781 -2.320312 3.519531 -1.832031 3.96875 -1.53125 C 4.414062 -1.226562 4.96875 -1.078125 5.625 -1.078125 Z M 5.625 -1.078125 "/></g></g></g><g fill="#1f3a68" fill-opacity="1"><g transform="translate(129.62616, 165.36116)"><g><path d="M 0.8125 0 L 0.8125 -1.109375 L 3.9375 -1.109375 L 3.9375 -9.84375 L 3.75 -9.890625 C 3.25 -9.640625 2.804688 -9.445312 2.421875 -9.3125 C 2.046875 -9.1875 1.5625 -9.0625 0.96875 -8.9375 L 0.96875 -10.171875 C 1.550781 -10.296875 2.128906 -10.460938 2.703125 -10.671875 C 3.285156 -10.890625 3.8125 -11.140625 4.28125 -11.421875 L 5.25 -11.421875 L 5.25 -1.109375 L 8.03125 -1.109375 L 8.03125 0 Z M 0.8125 0 "/></g></g></g><g fill="#1f3a68" fill-opacity="1"><g transform="translate(138.139705, 165.36116)"><g><path d="M 5.625 0.171875 C 4.78125 0.171875 4.023438 -0.03125 3.359375 -0.4375 C 2.691406 -0.84375 2.160156 -1.484375 1.765625 -2.359375 C 1.367188 -3.242188 1.171875 -4.363281 1.171875 -5.71875 C 1.171875 -7.070312 1.367188 -8.1875 1.765625 -9.0625 C 2.160156 -9.9375 2.691406 -10.578125 3.359375 -10.984375 C 4.023438 -11.390625 4.78125 -11.59375 5.625 -11.59375 C 6.457031 -11.59375 7.207031 -11.390625 7.875 -10.984375 C 8.539062 -10.578125 9.070312 -9.9375 9.46875 -9.0625 C 9.863281 -8.1875 10.0625 -7.070312 10.0625 -5.71875 C 10.0625 -4.363281 9.863281 -3.242188 9.46875 -2.359375 C 9.070312 -1.484375 8.539062 -0.84375 7.875 -0.4375 C 7.207031 -0.03125 6.457031 0.171875 5.625 0.171875 Z M 5.625 -1.078125 C 6.613281 -1.078125 7.363281 -1.4375 7.875 -2.15625 C 8.394531 -2.875 8.65625 -4.0625 8.65625 -5.71875 C 8.65625 -7.375 8.394531 -8.554688 7.875 -9.265625 C 7.363281 -9.984375 6.613281 -10.34375 5.625 -10.34375 C 4.96875 -10.34375 4.414062 -10.191406 3.96875 -9.890625 C 3.519531 -9.585938 3.175781 -9.09375 2.9375 -8.40625 C 2.695312 -7.726562 2.578125 -6.832031 2.578125 -5.71875 C 2.578125 -4.59375 2.695312 -3.6875 2.9375 -3 C 3.175781 -2.320312 3.519531 -1.832031 3.96875 -1.53125 C 4.414062 -1.226562 4.96875 -1.078125 5.625 -1.078125 Z M 5.625 -1.078125 "/></g></g></g><g fill="#1f3a68" fill-opacity="1"><g transform="translate(149.371337, 165.36116)"><g><path d="M 0.8125 0 L 0.8125 -1.109375 L 3.9375 -1.109375 L 3.9375 -9.84375 L 3.75 -9.890625 C 3.25 -9.640625 2.804688 -9.445312 2.421875 -9.3125 C 2.046875 -9.1875 1.5625 -9.0625 0.96875 -8.9375 L 0.96875 -10.171875 C 1.550781 -10.296875 2.128906 -10.460938 2.703125 -10.671875 C 3.285156 -10.890625 3.8125 -11.140625 4.28125 -11.421875 L 5.25 -11.421875 L 5.25 -1.109375 L 8.03125 -1.109375 L 8.03125 0 Z M 0.8125 0 "/></g></g></g><g fill="#1f3a68" fill-opacity="1"><g transform="translate(157.884882, 165.36116)"><g><path d="M 5.625 0.171875 C 4.78125 0.171875 4.023438 -0.03125 3.359375 -0.4375 C 2.691406 -0.84375 2.160156 -1.484375 1.765625 -2.359375 C 1.367188 -3.242188 1.171875 -4.363281 1.171875 -5.71875 C 1.171875 -7.070312 1.367188 -8.1875 1.765625 -9.0625 C 2.160156 -9.9375 2.691406 -10.578125 3.359375 -10.984375 C 4.023438 -11.390625 4.78125 -11.59375 5.625 -11.59375 C 6.457031 -11.59375 7.207031 -11.390625 7.875 -10.984375 C 8.539062 -10.578125 9.070312 -9.9375 9.46875 -9.0625 C 9.863281 -8.1875 10.0625 -7.070312 10.0625 -5.71875 C 10.0625 -4.363281 9.863281 -3.242188 9.46875 -2.359375 C 9.070312 -1.484375 8.539062 -0.84375 7.875 -0.4375 C 7.207031 -0.03125 6.457031 0.171875 5.625 0.171875 Z M 5.625 -1.078125 C 6.613281 -1.078125 7.363281 -1.4375 7.875 -2.15625 C 8.394531 -2.875 8.65625 -4.0625 8.65625 -5.71875 C 8.65625 -7.375 8.394531 -8.554688 7.875 -9.265625 C 7.363281 -9.984375 6.613281 -10.34375 5.625 -10.34375 C 4.96875 -10.34375 4.414062 -10.191406 3.96875 -9.890625 C 3.519531 -9.585938 3.175781 -9.09375 2.9375 -8.40625 C 2.695312 -7.726562 2.578125 -6.832031 2.578125 -5.71875 C 2.578125 -4.59375 2.695312 -3.6875 2.9375 -3 C 3.175781 -2.320312 3.519531 -1.832031 3.96875 -1.53125 C 4.414062 -1.226562 4.96875 -1.078125 5.625 -1.078125 Z M 5.625 -1.078125 "/></g></g></g><g fill="#1f3a68" fill-opacity="1"><g transform="translate(169.116514, 165.36116)"><g><path d="M 0.8125 0 L 0.8125 -1.109375 L 3.9375 -1.109375 L 3.9375 -9.84375 L 3.75 -9.890625 C 3.25 -9.640625 2.804688 -9.445312 2.421875 -9.3125 C 2.046875 -9.1875 1.5625 -9.0625 0.96875 -8.9375 L 0.96875 -10.171875 C 1.550781 -10.296875 2.128906 -10.460938 2.703125 -10.671875 C 3.285156 -10.890625 3.8125 -11.140625 4.28125 -11.421875 L 5.25 -11.421875 L 5.25 -1.109375 L 8.03125 -1.109375 L 8.03125 0 Z M 0.8125 0 "/></g></g></g><g fill="#1f3a68" fill-opacity="1"><g transform="translate(177.630059, 165.36116)"><g><path d="M 5.625 0.171875 C 4.78125 0.171875 4.023438 -0.03125 3.359375 -0.4375 C 2.691406 -0.84375 2.160156 -1.484375 1.765625 -2.359375 C 1.367188 -3.242188 1.171875 -4.363281 1.171875 -5.71875 C 1.171875 -7.070312 1.367188 -8.1875 1.765625 -9.0625 C 2.160156 -9.9375 2.691406 -10.578125 3.359375 -10.984375 C 4.023438 -11.390625 4.78125 -11.59375 5.625 -11.59375 C 6.457031 -11.59375 7.207031 -11.390625 7.875 -10.984375 C 8.539062 -10.578125 9.070312 -9.9375 9.46875 -9.0625 C 9.863281 -8.1875 10.0625 -7.070312 10.0625 -5.71875 C 10.0625 -4.363281 9.863281 -3.242188 9.46875 -2.359375 C 9.070312 -1.484375 8.539062 -0.84375 7.875 -0.4375 C 7.207031 -0.03125 6.457031 0.171875 5.625 0.171875 Z M 5.625 -1.078125 C 6.613281 -1.078125 7.363281 -1.4375 7.875 -2.15625 C 8.394531 -2.875 8.65625 -4.0625 8.65625 -5.71875 C 8.65625 -7.375 8.394531 -8.554688 7.875 -9.265625 C 7.363281 -9.984375 6.613281 -10.34375 5.625 -10.34375 C 4.96875 -10.34375 4.414062 -10.191406 3.96875 -9.890625 C 3.519531 -9.585938 3.175781 -9.09375 2.9375 -8.40625 C 2.695312 -7.726562 2.578125 -6.832031 2.578125 -5.71875 C 2.578125 -4.59375 2.695312 -3.6875 2.9375 -3 C 3.175781 -2.320312 3.519531 -1.832031 3.96875 -1.53125 C 4.414062 -1.226562 4.96875 -1.078125 5.625 -1.078125 Z M 5.625 -1.078125 "/></g></g></g><g fill="#1f3a68" fill-opacity="1"><g transform="translate(188.861691, 165.36116)"><g><path d="M 0.8125 0 L 0.8125 -1.109375 L 3.9375 -1.109375 L 3.9375 -9.84375 L 3.75 -9.890625 C 3.25 -9.640625 2.804688 -9.445312 2.421875 -9.3125 C 2.046875 -9.1875 1.5625 -9.0625 0.96875 -8.9375 L 0.96875 -10.171875 C 1.550781 -10.296875 2.128906 -10.460938 2.703125 -10.671875 C 3.285156 -10.890625 3.8125 -11.140625 4.28125 -11.421875 L 5.25 -11.421875 L 5.25 -1.109375 L 8.03125 -1.109375 L 8.03125 0 Z M 0.8125 0 "/></g></g></g><g fill="#1f3a68" fill-opacity="1"><g transform="translate(197.375236, 165.36116)"><g><path d="M 0.8125 0 L 0.8125 -1.109375 L 3.9375 -1.109375 L 3.9375 -9.84375 L 3.75 -9.890625 C 3.25 -9.640625 2.804688 -9.445312 2.421875 -9.3125 C 2.046875 -9.1875 1.5625 -9.0625 0.96875 -8.9375 L 0.96875 -10.171875 C 1.550781 -10.296875 2.128906 -10.460938 2.703125 -10.671875 C 3.285156 -10.890625 3.8125 -11.140625 4.28125 -11.421875 L 5.25 -11.421875 L 5.25 -1.109375 L 8.03125 -1.109375 L 8.03125 0 Z M 0.8125 0 "/></g></g></g><g fill="#1f3a68" fill-opacity="1"><g transform="translate(205.888781, 165.36116)"><g><path d="M 0.8125 0 L 0.8125 -1.109375 L 3.9375 -1.109375 L 3.9375 -9.84375 L 3.75 -9.890625 C 3.25 -9.640625 2.804688 -9.445312 2.421875 -9.3125 C 2.046875 -9.1875 1.5625 -9.0625 0.96875 -8.9375 L 0.96875 -10.171875 C 1.550781 -10.296875 2.128906 -10.460938 2.703125 -10.671875 C 3.285156 -10.890625 3.8125 -11.140625 4.28125 -11.421875 L 5.25 -11.421875 L 5.25 -1.109375 L 8.03125 -1.109375 L 8.03125 0 Z M 0.8125 0 "/></g></g></g><g fill="#1f3a68" fill-opacity="1"><g transform="translate(214.402327, 165.36116)"><g><path d="M 5.625 0.171875 C 4.78125 0.171875 4.023438 -0.03125 3.359375 -0.4375 C 2.691406 -0.84375 2.160156 -1.484375 1.765625 -2.359375 C 1.367188 -3.242188 1.171875 -4.363281 1.171875 -5.71875 C 1.171875 -7.070312 1.367188 -8.1875 1.765625 -9.0625 C 2.160156 -9.9375 2.691406 -10.578125 3.359375 -10.984375 C 4.023438 -11.390625 4.78125 -11.59375 5.625 -11.59375 C 6.457031 -11.59375 7.207031 -11.390625 7.875 -10.984375 C 8.539062 -10.578125 9.070312 -9.9375 9.46875 -9.0625 C 9.863281 -8.1875 10.0625 -7.070312 10.0625 -5.71875 C 10.0625 -4.363281 9.863281 -3.242188 9.46875 -2.359375 C 9.070312 -1.484375 8.539062 -0.84375 7.875 -0.4375 C 7.207031 -0.03125 6.457031 0.171875 5.625 0.171875 Z M 5.625 -1.078125 C 6.613281 -1.078125 7.363281 -1.4375 7.875 -2.15625 C 8.394531 -2.875 8.65625 -4.0625 8.65625 -5.71875 C 8.65625 -7.375 8.394531 -8.554688 7.875 -9.265625 C 7.363281 -9.984375 6.613281 -10.34375 5.625 -10.34375 C 4.96875 -10.34375 4.414062 -10.191406 3.96875 -9.890625 C 3.519531 -9.585938 3.175781 -9.09375 2.9375 -8.40625 C 2.695312 -7.726562 2.578125 -6.832031 2.578125 -5.71875 C 2.578125 -4.59375 2.695312 -3.6875 2.9375 -3 C 3.175781 -2.320312 3.519531 -1.832031 3.96875 -1.53125 C 4.414062 -1.226562 4.96875 -1.078125 5.625 -1.078125 Z M 5.625 -1.078125 "/></g></g></g><g fill="#1f3a68" fill-opacity="1"><g transform="translate(225.633958, 165.36116)"><g><path d="M 5.625 0.171875 C 4.78125 0.171875 4.023438 -0.03125 3.359375 -0.4375 C 2.691406 -0.84375 2.160156 -1.484375 1.765625 -2.359375 C 1.367188 -3.242188 1.171875 -4.363281 1.171875 -5.71875 C 1.171875 -7.070312 1.367188 -8.1875 1.765625 -9.0625 C 2.160156 -9.9375 2.691406 -10.578125 3.359375 -10.984375 C 4.023438 -11.390625 4.78125 -11.59375 5.625 -11.59375 C 6.457031 -11.59375 7.207031 -11.390625 7.875 -10.984375 C 8.539062 -10.578125 9.070312 -9.9375 9.46875 -9.0625 C 9.863281 -8.1875 10.0625 -7.070312 10.0625 -5.71875 C 10.0625 -4.363281 9.863281 -3.242188 9.46875 -2.359375 C 9.070312 -1.484375 8.539062 -0.84375 7.875 -0.4375 C 7.207031 -0.03125 6.457031 0.171875 5.625 0.171875 Z M 5.625 -1.078125 C 6.613281 -1.078125 7.363281 -1.4375 7.875 -2.15625 C 8.394531 -2.875 8.65625 -4.0625 8.65625 -5.71875 C 8.65625 -7.375 8.394531 -8.554688 7.875 -9.265625 C 7.363281 -9.984375 6.613281 -10.34375 5.625 -10.34375 C 4.96875 -10.34375 4.414062 -10.191406 3.96875 -9.890625 C 3.519531 -9.585938 3.175781 -9.09375 2.9375 -8.40625 C 2.695312 -7.726562 2.578125 -6.832031 2.578125 -5.71875 C 2.578125 -4.59375 2.695312 -3.6875 2.9375 -3 C 3.175781 -2.320312 3.519531 -1.832031 3.96875 -1.53125 C 4.414062 -1.226562 4.96875 -1.078125 5.625 -1.078125 Z M 5.625 -1.078125 "/></g></g></g><g fill="#1f3a68" fill-opacity="1"><g transform="translate(236.86559, 165.36116)"><g><path d="M 0.8125 0 L 0.8125 -1.109375 L 3.9375 -1.109375 L 3.9375 -9.84375 L 3.75 -9.890625 C 3.25 -9.640625 2.804688 -9.445312 2.421875 -9.3125 C 2.046875 -9.1875 1.5625 -9.0625 0.96875 -8.9375 L 0.96875 -10.171875 C 1.550781 -10.296875 2.128906 -10.460938 2.703125 -10.671875 C 3.285156 -10.890625 3.8125 -11.140625 4.28125 -11.421875 L 5.25 -11.421875 L 5.25 -1.109375 L 8.03125 -1.109375 L 8.03125 0 Z M 0.8125 0 "/></g></g></g><g fill="#1f3a68" fill-opacity="1"><g transform="translate(245.379135, 165.36116)"><g><path d="M 5.625 0.171875 C 4.78125 0.171875 4.023438 -0.03125 3.359375 -0.4375 C 2.691406 -0.84375 2.160156 -1.484375 1.765625 -2.359375 C 1.367188 -3.242188 1.171875 -4.363281 1.171875 -5.71875 C 1.171875 -7.070312 1.367188 -8.1875 1.765625 -9.0625 C 2.160156 -9.9375 2.691406 -10.578125 3.359375 -10.984375 C 4.023438 -11.390625 4.78125 -11.59375 5.625 -11.59375 C 6.457031 -11.59375 7.207031 -11.390625 7.875 -10.984375 C 8.539062 -10.578125 9.070312 -9.9375 9.46875 -9.0625 C 9.863281 -8.1875 10.0625 -7.070312 10.0625 -5.71875 C 10.0625 -4.363281 9.863281 -3.242188 9.46875 -2.359375 C 9.070312 -1.484375 8.539062 -0.84375 7.875 -0.4375 C 7.207031 -0.03125 6.457031 0.171875 5.625 0.171875 Z M 5.625 -1.078125 C 6.613281 -1.078125 7.363281 -1.4375 7.875 -2.15625 C 8.394531 -2.875 8.65625 -4.0625 8.65625 -5.71875 C 8.65625 -7.375 8.394531 -8.554688 7.875 -9.265625 C 7.363281 -9.984375 6.613281 -10.34375 5.625 -10.34375 C 4.96875 -10.34375 4.414062 -10.191406 3.96875 -9.890625 C 3.519531 -9.585938 3.175781 -9.09375 2.9375 -8.40625 C 2.695312 -7.726562 2.578125 -6.832031 2.578125 -5.71875 C 2.578125 -4.59375 2.695312 -3.6875 2.9375 -3 C 3.175781 -2.320312 3.519531 -1.832031 3.96875 -1.53125 C 4.414062 -1.226562 4.96875 -1.078125 5.625 -1.078125 Z M 5.625 -1.078125 "/></g></g></g><g fill="#1f3a68" fill-opacity="1"><g transform="translate(117.035154, 184.599993)"><g><path d="M 5.625 0.171875 C 4.78125 0.171875 4.023438 -0.03125 3.359375 -0.4375 C 2.691406 -0.84375 2.160156 -1.484375 1.765625 -2.359375 C 1.367188 -3.242188 1.171875 -4.363281 1.171875 -5.71875 C 1.171875 -7.070312 1.367188 -8.1875 1.765625 -9.0625 C 2.160156 -9.9375 2.691406 -10.578125 3.359375 -10.984375 C 4.023438 -11.390625 4.78125 -11.59375 5.625 -11.59375 C 6.457031 -11.59375 7.207031 -11.390625 7.875 -10.984375 C 8.539062 -10.578125 9.070312 -9.9375 9.46875 -9.0625 C 9.863281 -8.1875 10.0625 -7.070312 10.0625 -5.71875 C 10.0625 -4.363281 9.863281 -3.242188 9.46875 -2.359375 C 9.070312 -1.484375 8.539062 -0.84375 7.875 -0.4375 C 7.207031 -0.03125 6.457031 0.171875 5.625 0.171875 Z M 5.625 -1.078125 C 6.613281 -1.078125 7.363281 -1.4375 7.875 -2.15625 C 8.394531 -2.875 8.65625 -4.0625 8.65625 -5.71875 C 8.65625 -7.375 8.394531 -8.554688 7.875 -9.265625 C 7.363281 -9.984375 6.613281 -10.34375 5.625 -10.34375 C 4.96875 -10.34375 4.414062 -10.191406 3.96875 -9.890625 C 3.519531 -9.585938 3.175781 -9.09375 2.9375 -8.40625 C 2.695312 -7.726562 2.578125 -6.832031 2.578125 -5.71875 C 2.578125 -4.59375 2.695312 -3.6875 2.9375 -3 C 3.175781 -2.320312 3.519531 -1.832031 3.96875 -1.53125 C 4.414062 -1.226562 4.96875 -1.078125 5.625 -1.078125 Z M 5.625 -1.078125 "/></g></g></g><g fill="#1f3a68" fill-opacity="1"><g transform="translate(128.266785, 184.599993)"><g><path d="M 0.8125 0 L 0.8125 -1.109375 L 3.9375 -1.109375 L 3.9375 -9.84375 L 3.75 -9.890625 C 3.25 -9.640625 2.804688 -9.445312 2.421875 -9.3125 C 2.046875 -9.1875 1.5625 -9.0625 0.96875 -8.9375 L 0.96875 -10.171875 C 1.550781 -10.296875 2.128906 -10.460938 2.703125 -10.671875 C 3.285156 -10.890625 3.8125 -11.140625 4.28125 -11.421875 L 5.25 -11.421875 L 5.25 -1.109375 L 8.03125 -1.109375 L 8.03125 0 Z M 0.8125 0 "/></g></g></g><g fill="#1f3a68" fill-opacity="1"><g transform="translate(136.780331, 184.599993)"><g><path d="M 5.625 0.171875 C 4.78125 0.171875 4.023438 -0.03125 3.359375 -0.4375 C 2.691406 -0.84375 2.160156 -1.484375 1.765625 -2.359375 C 1.367188 -3.242188 1.171875 -4.363281 1.171875 -5.71875 C 1.171875 -7.070312 1.367188 -8.1875 1.765625 -9.0625 C 2.160156 -9.9375 2.691406 -10.578125 3.359375 -10.984375 C 4.023438 -11.390625 4.78125 -11.59375 5.625 -11.59375 C 6.457031 -11.59375 7.207031 -11.390625 7.875 -10.984375 C 8.539062 -10.578125 9.070312 -9.9375 9.46875 -9.0625 C 9.863281 -8.1875 10.0625 -7.070312 10.0625 -5.71875 C 10.0625 -4.363281 9.863281 -3.242188 9.46875 -2.359375 C 9.070312 -1.484375 8.539062 -0.84375 7.875 -0.4375 C 7.207031 -0.03125 6.457031 0.171875 5.625 0.171875 Z M 5.625 -1.078125 C 6.613281 -1.078125 7.363281 -1.4375 7.875 -2.15625 C 8.394531 -2.875 8.65625 -4.0625 8.65625 -5.71875 C 8.65625 -7.375 8.394531 -8.554688 7.875 -9.265625 C 7.363281 -9.984375 6.613281 -10.34375 5.625 -10.34375 C 4.96875 -10.34375 4.414062 -10.191406 3.96875 -9.890625 C 3.519531 -9.585938 3.175781 -9.09375 2.9375 -8.40625 C 2.695312 -7.726562 2.578125 -6.832031 2.578125 -5.71875 C 2.578125 -4.59375 2.695312 -3.6875 2.9375 -3 C 3.175781 -2.320312 3.519531 -1.832031 3.96875 -1.53125 C 4.414062 -1.226562 4.96875 -1.078125 5.625 -1.078125 Z M 5.625 -1.078125 "/></g></g></g><g fill="#1f3a68" fill-opacity="1"><g transform="translate(148.011962, 184.599993)"><g><path d="M 0.8125 0 L 0.8125 -1.109375 L 3.9375 -1.109375 L 3.9375 -9.84375 L 3.75 -9.890625 C 3.25 -9.640625 2.804688 -9.445312 2.421875 -9.3125 C 2.046875 -9.1875 1.5625 -9.0625 0.96875 -8.9375 L 0.96875 -10.171875 C 1.550781 -10.296875 2.128906 -10.460938 2.703125 -10.671875 C 3.285156 -10.890625 3.8125 -11.140625 4.28125 -11.421875 L 5.25 -11.421875 L 5.25 -1.109375 L 8.03125 -1.109375 L 8.03125 0 Z M 0.8125 0 "/></g></g></g><g fill="#1f3a68" fill-opacity="1"><g transform="translate(156.525508, 184.599993)"><g><path d="M 5.625 0.171875 C 4.78125 0.171875 4.023438 -0.03125 3.359375 -0.4375 C 2.691406 -0.84375 2.160156 -1.484375 1.765625 -2.359375 C 1.367188 -3.242188 1.171875 -4.363281 1.171875 -5.71875 C 1.171875 -7.070312 1.367188 -8.1875 1.765625 -9.0625 C 2.160156 -9.9375 2.691406 -10.578125 3.359375 -10.984375 C 4.023438 -11.390625 4.78125 -11.59375 5.625 -11.59375 C 6.457031 -11.59375 7.207031 -11.390625 7.875 -10.984375 C 8.539062 -10.578125 9.070312 -9.9375 9.46875 -9.0625 C 9.863281 -8.1875 10.0625 -7.070312 10.0625 -5.71875 C 10.0625 -4.363281 9.863281 -3.242188 9.46875 -2.359375 C 9.070312 -1.484375 8.539062 -0.84375 7.875 -0.4375 C 7.207031 -0.03125 6.457031 0.171875 5.625 0.171875 Z M 5.625 -1.078125 C 6.613281 -1.078125 7.363281 -1.4375 7.875 -2.15625 C 8.394531 -2.875 8.65625 -4.0625 8.65625 -5.71875 C 8.65625 -7.375 8.394531 -8.554688 7.875 -9.265625 C 7.363281 -9.984375 6.613281 -10.34375 5.625 -10.34375 C 4.96875 -10.34375 4.414062 -10.191406 3.96875 -9.890625 C 3.519531 -9.585938 3.175781 -9.09375 2.9375 -8.40625 C 2.695312 -7.726562 2.578125 -6.832031 2.578125 -5.71875 C 2.578125 -4.59375 2.695312 -3.6875 2.9375 -3 C 3.175781 -2.320312 3.519531 -1.832031 3.96875 -1.53125 C 4.414062 -1.226562 4.96875 -1.078125 5.625 -1.078125 Z M 5.625 -1.078125 "/></g></g></g><g fill="#1f3a68" fill-opacity="1"><g transform="translate(167.757139, 184.599993)"><g><path d="M 0.8125 0 L 0.8125 -1.109375 L 3.9375 -1.109375 L 3.9375 -9.84375 L 3.75 -9.890625 C 3.25 -9.640625 2.804688 -9.445312 2.421875 -9.3125 C 2.046875 -9.1875 1.5625 -9.0625 0.96875 -8.9375 L 0.96875 -10.171875 C 1.550781 -10.296875 2.128906 -10.460938 2.703125 -10.671875 C 3.285156 -10.890625 3.8125 -11.140625 4.28125 -11.421875 L 5.25 -11.421875 L 5.25 -1.109375 L 8.03125 -1.109375 L 8.03125 0 Z M 0.8125 0 "/></g></g></g><g fill="#1f3a68" fill-opacity="1"><g transform="translate(176.270685, 184.599993)"><g><path d="M 5.625 0.171875 C 4.78125 0.171875 4.023438 -0.03125 3.359375 -0.4375 C 2.691406 -0.84375 2.160156 -1.484375 1.765625 -2.359375 C 1.367188 -3.242188 1.171875 -4.363281 1.171875 -5.71875 C 1.171875 -7.070312 1.367188 -8.1875 1.765625 -9.0625 C 2.160156 -9.9375 2.691406 -10.578125 3.359375 -10.984375 C 4.023438 -11.390625 4.78125 -11.59375 5.625 -11.59375 C 6.457031 -11.59375 7.207031 -11.390625 7.875 -10.984375 C 8.539062 -10.578125 9.070312 -9.9375 9.46875 -9.0625 C 9.863281 -8.1875 10.0625 -7.070312 10.0625 -5.71875 C 10.0625 -4.363281 9.863281 -3.242188 9.46875 -2.359375 C 9.070312 -1.484375 8.539062 -0.84375 7.875 -0.4375 C 7.207031 -0.03125 6.457031 0.171875 5.625 0.171875 Z M 5.625 -1.078125 C 6.613281 -1.078125 7.363281 -1.4375 7.875 -2.15625 C 8.394531 -2.875 8.65625 -4.0625 8.65625 -5.71875 C 8.65625 -7.375 8.394531 -8.554688 7.875 -9.265625 C 7.363281 -9.984375 6.613281 -10.34375 5.625 -10.34375 C 4.96875 -10.34375 4.414062 -10.191406 3.96875 -9.890625 C 3.519531 -9.585938 3.175781 -9.09375 2.9375 -8.40625 C 2.695312 -7.726562 2.578125 -6.832031 2.578125 -5.71875 C 2.578125 -4.59375 2.695312 -3.6875 2.9375 -3 C 3.175781 -2.320312 3.519531 -1.832031 3.96875 -1.53125 C 4.414062 -1.226562 4.96875 -1.078125 5.625 -1.078125 Z M 5.625 -1.078125 "/></g></g></g><g fill="#1f3a68" fill-opacity="1"><g transform="translate(187.502316, 184.599993)"><g><path d="M 0.8125 0 L 0.8125 -1.109375 L 3.9375 -1.109375 L 3.9375 -9.84375 L 3.75 -9.890625 C 3.25 -9.640625 2.804688 -9.445312 2.421875 -9.3125 C 2.046875 -9.1875 1.5625 -9.0625 0.96875 -8.9375 L 0.96875 -10.171875 C 1.550781 -10.296875 2.128906 -10.460938 2.703125 -10.671875 C 3.285156 -10.890625 3.8125 -11.140625 4.28125 -11.421875 L 5.25 -11.421875 L 5.25 -1.109375 L 8.03125 -1.109375 L 8.03125 0 Z M 0.8125 0 "/></g></g></g><g fill="#1f3a68" fill-opacity="1"><g transform="translate(196.015862, 184.599993)"><g><path d="M 0.8125 0 L 0.8125 -1.109375 L 3.9375 -1.109375 L 3.9375 -9.84375 L 3.75 -9.890625 C 3.25 -9.640625 2.804688 -9.445312 2.421875 -9.3125 C 2.046875 -9.1875 1.5625 -9.0625 0.96875 -8.9375 L 0.96875 -10.171875 C 1.550781 -10.296875 2.128906 -10.460938 2.703125 -10.671875 C 3.285156 -10.890625 3.8125 -11.140625 4.28125 -11.421875 L 5.25 -11.421875 L 5.25 -1.109375 L 8.03125 -1.109375 L 8.03125 0 Z M 0.8125 0 "/></g></g></g><g fill="#1f3a68" fill-opacity="1"><g transform="translate(204.529407, 184.599993)"><g><path d="M 5.625 0.171875 C 4.78125 0.171875 4.023438 -0.03125 3.359375 -0.4375 C 2.691406 -0.84375 2.160156 -1.484375 1.765625 -2.359375 C 1.367188 -3.242188 1.171875 -4.363281 1.171875 -5.71875 C 1.171875 -7.070312 1.367188 -8.1875 1.765625 -9.0625 C 2.160156 -9.9375 2.691406 -10.578125 3.359375 -10.984375 C 4.023438 -11.390625 4.78125 -11.59375 5.625 -11.59375 C 6.457031 -11.59375 7.207031 -11.390625 7.875 -10.984375 C 8.539062 -10.578125 9.070312 -9.9375 9.46875 -9.0625 C 9.863281 -8.1875 10.0625 -7.070312 10.0625 -5.71875 C 10.0625 -4.363281 9.863281 -3.242188 9.46875 -2.359375 C 9.070312 -1.484375 8.539062 -0.84375 7.875 -0.4375 C 7.207031 -0.03125 6.457031 0.171875 5.625 0.171875 Z M 5.625 -1.078125 C 6.613281 -1.078125 7.363281 -1.4375 7.875 -2.15625 C 8.394531 -2.875 8.65625 -4.0625 8.65625 -5.71875 C 8.65625 -7.375 8.394531 -8.554688 7.875 -9.265625 C 7.363281 -9.984375 6.613281 -10.34375 5.625 -10.34375 C 4.96875 -10.34375 4.414062 -10.191406 3.96875 -9.890625 C 3.519531 -9.585938 3.175781 -9.09375 2.9375 -8.40625 C 2.695312 -7.726562 2.578125 -6.832031 2.578125 -5.71875 C 2.578125 -4.59375 2.695312 -3.6875 2.9375 -3 C 3.175781 -2.320312 3.519531 -1.832031 3.96875 -1.53125 C 4.414062 -1.226562 4.96875 -1.078125 5.625 -1.078125 Z M 5.625 -1.078125 "/></g></g></g><g fill="#1f3a68" fill-opacity="1"><g transform="translate(215.761039, 184.599993)"><g><path d="M 5.625 0.171875 C 4.78125 0.171875 4.023438 -0.03125 3.359375 -0.4375 C 2.691406 -0.84375 2.160156 -1.484375 1.765625 -2.359375 C 1.367188 -3.242188 1.171875 -4.363281 1.171875 -5.71875 C 1.171875 -7.070312 1.367188 -8.1875 1.765625 -9.0625 C 2.160156 -9.9375 2.691406 -10.578125 3.359375 -10.984375 C 4.023438 -11.390625 4.78125 -11.59375 5.625 -11.59375 C 6.457031 -11.59375 7.207031 -11.390625 7.875 -10.984375 C 8.539062 -10.578125 9.070312 -9.9375 9.46875 -9.0625 C 9.863281 -8.1875 10.0625 -7.070312 10.0625 -5.71875 C 10.0625 -4.363281 9.863281 -3.242188 9.46875 -2.359375 C 9.070312 -1.484375 8.539062 -0.84375 7.875 -0.4375 C 7.207031 -0.03125 6.457031 0.171875 5.625 0.171875 Z M 5.625 -1.078125 C 6.613281 -1.078125 7.363281 -1.4375 7.875 -2.15625 C 8.394531 -2.875 8.65625 -4.0625 8.65625 -5.71875 C 8.65625 -7.375 8.394531 -8.554688 7.875 -9.265625 C 7.363281 -9.984375 6.613281 -10.34375 5.625 -10.34375 C 4.96875 -10.34375 4.414062 -10.191406 3.96875 -9.890625 C 3.519531 -9.585938 3.175781 -9.09375 2.9375 -8.40625 C 2.695312 -7.726562 2.578125 -6.832031 2.578125 -5.71875 C 2.578125 -4.59375 2.695312 -3.6875 2.9375 -3 C 3.175781 -2.320312 3.519531 -1.832031 3.96875 -1.53125 C 4.414062 -1.226562 4.96875 -1.078125 5.625 -1.078125 Z M 5.625 -1.078125 "/></g></g></g><g fill="#1f3a68" fill-opacity="1"><g transform="translate(226.99267, 184.599993)"><g><path d="M 5.625 0.171875 C 4.78125 0.171875 4.023438 -0.03125 3.359375 -0.4375 C 2.691406 -0.84375 2.160156 -1.484375 1.765625 -2.359375 C 1.367188 -3.242188 1.171875 -4.363281 1.171875 -5.71875 C 1.171875 -7.070312 1.367188 -8.1875 1.765625 -9.0625 C 2.160156 -9.9375 2.691406 -10.578125 3.359375 -10.984375 C 4.023438 -11.390625 4.78125 -11.59375 5.625 -11.59375 C 6.457031 -11.59375 7.207031 -11.390625 7.875 -10.984375 C 8.539062 -10.578125 9.070312 -9.9375 9.46875 -9.0625 C 9.863281 -8.1875 10.0625 -7.070312 10.0625 -5.71875 C 10.0625 -4.363281 9.863281 -3.242188 9.46875 -2.359375 C 9.070312 -1.484375 8.539062 -0.84375 7.875 -0.4375 C 7.207031 -0.03125 6.457031 0.171875 5.625 0.171875 Z M 5.625 -1.078125 C 6.613281 -1.078125 7.363281 -1.4375 7.875 -2.15625 C 8.394531 -2.875 8.65625 -4.0625 8.65625 -5.71875 C 8.65625 -7.375 8.394531 -8.554688 7.875 -9.265625 C 7.363281 -9.984375 6.613281 -10.34375 5.625 -10.34375 C 4.96875 -10.34375 4.414062 -10.191406 3.96875 -9.890625 C 3.519531 -9.585938 3.175781 -9.09375 2.9375 -8.40625 C 2.695312 -7.726562 2.578125 -6.832031 2.578125 -5.71875 C 2.578125 -4.59375 2.695312 -3.6875 2.9375 -3 C 3.175781 -2.320312 3.519531 -1.832031 3.96875 -1.53125 C 4.414062 -1.226562 4.96875 -1.078125 5.625 -1.078125 Z M 5.625 -1.078125 "/></g></g></g><g fill="#1f3a68" fill-opacity="1"><g transform="translate(238.224302, 184.599993)"><g><path d="M 0.8125 0 L 0.8125 -1.109375 L 3.9375 -1.109375 L 3.9375 -9.84375 L 3.75 -9.890625 C 3.25 -9.640625 2.804688 -9.445312 2.421875 -9.3125 C 2.046875 -9.1875 1.5625 -9.0625 0.96875 -8.9375 L 0.96875 -10.171875 C 1.550781 -10.296875 2.128906 -10.460938 2.703125 -10.671875 C 3.285156 -10.890625 3.8125 -11.140625 4.28125 -11.421875 L 5.25 -11.421875 L 5.25 -1.109375 L 8.03125 -1.109375 L 8.03125 0 Z M 0.8125 0 "/></g></g></g><g fill="#1f3a68" fill-opacity="1"><g transform="translate(246.737847, 184.599993)"><g><path d="M 5.625 0.171875 C 4.78125 0.171875 4.023438 -0.03125 3.359375 -0.4375 C 2.691406 -0.84375 2.160156 -1.484375 1.765625 -2.359375 C 1.367188 -3.242188 1.171875 -4.363281 1.171875 -5.71875 C 1.171875 -7.070312 1.367188 -8.1875 1.765625 -9.0625 C 2.160156 -9.9375 2.691406 -10.578125 3.359375 -10.984375 C 4.023438 -11.390625 4.78125 -11.59375 5.625 -11.59375 C 6.457031 -11.59375 7.207031 -11.390625 7.875 -10.984375 C 8.539062 -10.578125 9.070312 -9.9375 9.46875 -9.0625 C 9.863281 -8.1875 10.0625 -7.070312 10.0625 -5.71875 C 10.0625 -4.363281 9.863281 -3.242188 9.46875 -2.359375 C 9.070312 -1.484375 8.539062 -0.84375 7.875 -0.4375 C 7.207031 -0.03125 6.457031 0.171875 5.625 0.171875 Z M 5.625 -1.078125 C 6.613281 -1.078125 7.363281 -1.4375 7.875 -2.15625 C 8.394531 -2.875 8.65625 -4.0625 8.65625 -5.71875 C 8.65625 -7.375 8.394531 -8.554688 7.875 -9.265625 C 7.363281 -9.984375 6.613281 -10.34375 5.625 -10.34375 C 4.96875 -10.34375 4.414062 -10.191406 3.96875 -9.890625 C 3.519531 -9.585938 3.175781 -9.09375 2.9375 -8.40625 C 2.695312 -7.726562 2.578125 -6.832031 2.578125 -5.71875 C 2.578125 -4.59375 2.695312 -3.6875 2.9375 -3 C 3.175781 -2.320312 3.519531 -1.832031 3.96875 -1.53125 C 4.414062 -1.226562 4.96875 -1.078125 5.625 -1.078125 Z M 5.625 -1.078125 "/></g></g></g><g fill="#1f3a68" fill-opacity="1"><g transform="translate(117.035154, 128.261161)"><g><path d="M 5.625 0.171875 C 4.78125 0.171875 4.023438 -0.03125 3.359375 -0.4375 C 2.691406 -0.84375 2.160156 -1.484375 1.765625 -2.359375 C 1.367188 -3.242188 1.171875 -4.363281 1.171875 -5.71875 C 1.171875 -7.070312 1.367188 -8.1875 1.765625 -9.0625 C 2.160156 -9.9375 2.691406 -10.578125 3.359375 -10.984375 C 4.023438 -11.390625 4.78125 -11.59375 5.625 -11.59375 C 6.457031 -11.59375 7.207031 -11.390625 7.875 -10.984375 C 8.539062 -10.578125 9.070312 -9.9375 9.46875 -9.0625 C 9.863281 -8.1875 10.0625 -7.070312 10.0625 -5.71875 C 10.0625 -4.363281 9.863281 -3.242188 9.46875 -2.359375 C 9.070312 -1.484375 8.539062 -0.84375 7.875 -0.4375 C 7.207031 -0.03125 6.457031 0.171875 5.625 0.171875 Z M 5.625 -1.078125 C 6.613281 -1.078125 7.363281 -1.4375 7.875 -2.15625 C 8.394531 -2.875 8.65625 -4.0625 8.65625 -5.71875 C 8.65625 -7.375 8.394531 -8.554688 7.875 -9.265625 C 7.363281 -9.984375 6.613281 -10.34375 5.625 -10.34375 C 4.96875 -10.34375 4.414062 -10.191406 3.96875 -9.890625 C 3.519531 -9.585938 3.175781 -9.09375 2.9375 -8.40625 C 2.695312 -7.726562 2.578125 -6.832031 2.578125 -5.71875 C 2.578125 -4.59375 2.695312 -3.6875 2.9375 -3 C 3.175781 -2.320312 3.519531 -1.832031 3.96875 -1.53125 C 4.414062 -1.226562 4.96875 -1.078125 5.625 -1.078125 Z M 5.625 -1.078125 "/></g></g></g><g fill="#1f3a68" fill-opacity="1"><g transform="translate(128.266785, 128.261161)"><g><path d="M 0.8125 0 L 0.8125 -1.109375 L 3.9375 -1.109375 L 3.9375 -9.84375 L 3.75 -9.890625 C 3.25 -9.640625 2.804688 -9.445312 2.421875 -9.3125 C 2.046875 -9.1875 1.5625 -9.0625 0.96875 -8.9375 L 0.96875 -10.171875 C 1.550781 -10.296875 2.128906 -10.460938 2.703125 -10.671875 C 3.285156 -10.890625 3.8125 -11.140625 4.28125 -11.421875 L 5.25 -11.421875 L 5.25 -1.109375 L 8.03125 -1.109375 L 8.03125 0 Z M 0.8125 0 "/></g></g></g><g fill="#1f3a68" fill-opacity="1"><g transform="translate(136.780331, 128.261161)"><g><path d="M 5.625 0.171875 C 4.78125 0.171875 4.023438 -0.03125 3.359375 -0.4375 C 2.691406 -0.84375 2.160156 -1.484375 1.765625 -2.359375 C 1.367188 -3.242188 1.171875 -4.363281 1.171875 -5.71875 C 1.171875 -7.070312 1.367188 -8.1875 1.765625 -9.0625 C 2.160156 -9.9375 2.691406 -10.578125 3.359375 -10.984375 C 4.023438 -11.390625 4.78125 -11.59375 5.625 -11.59375 C 6.457031 -11.59375 7.207031 -11.390625 7.875 -10.984375 C 8.539062 -10.578125 9.070312 -9.9375 9.46875 -9.0625 C 9.863281 -8.1875 10.0625 -7.070312 10.0625 -5.71875 C 10.0625 -4.363281 9.863281 -3.242188 9.46875 -2.359375 C 9.070312 -1.484375 8.539062 -0.84375 7.875 -0.4375 C 7.207031 -0.03125 6.457031 0.171875 5.625 0.171875 Z M 5.625 -1.078125 C 6.613281 -1.078125 7.363281 -1.4375 7.875 -2.15625 C 8.394531 -2.875 8.65625 -4.0625 8.65625 -5.71875 C 8.65625 -7.375 8.394531 -8.554688 7.875 -9.265625 C 7.363281 -9.984375 6.613281 -10.34375 5.625 -10.34375 C 4.96875 -10.34375 4.414062 -10.191406 3.96875 -9.890625 C 3.519531 -9.585938 3.175781 -9.09375 2.9375 -8.40625 C 2.695312 -7.726562 2.578125 -6.832031 2.578125 -5.71875 C 2.578125 -4.59375 2.695312 -3.6875 2.9375 -3 C 3.175781 -2.320312 3.519531 -1.832031 3.96875 -1.53125 C 4.414062 -1.226562 4.96875 -1.078125 5.625 -1.078125 Z M 5.625 -1.078125 "/></g></g></g><g fill="#1f3a68" fill-opacity="1"><g transform="translate(148.011962, 128.261161)"><g><path d="M 5.625 0.171875 C 4.78125 0.171875 4.023438 -0.03125 3.359375 -0.4375 C 2.691406 -0.84375 2.160156 -1.484375 1.765625 -2.359375 C 1.367188 -3.242188 1.171875 -4.363281 1.171875 -5.71875 C 1.171875 -7.070312 1.367188 -8.1875 1.765625 -9.0625 C 2.160156 -9.9375 2.691406 -10.578125 3.359375 -10.984375 C 4.023438 -11.390625 4.78125 -11.59375 5.625 -11.59375 C 6.457031 -11.59375 7.207031 -11.390625 7.875 -10.984375 C 8.539062 -10.578125 9.070312 -9.9375 9.46875 -9.0625 C 9.863281 -8.1875 10.0625 -7.070312 10.0625 -5.71875 C 10.0625 -4.363281 9.863281 -3.242188 9.46875 -2.359375 C 9.070312 -1.484375 8.539062 -0.84375 7.875 -0.4375 C 7.207031 -0.03125 6.457031 0.171875 5.625 0.171875 Z M 5.625 -1.078125 C 6.613281 -1.078125 7.363281 -1.4375 7.875 -2.15625 C 8.394531 -2.875 8.65625 -4.0625 8.65625 -5.71875 C 8.65625 -7.375 8.394531 -8.554688 7.875 -9.265625 C 7.363281 -9.984375 6.613281 -10.34375 5.625 -10.34375 C 4.96875 -10.34375 4.414062 -10.191406 3.96875 -9.890625 C 3.519531 -9.585938 3.175781 -9.09375 2.9375 -8.40625 C 2.695312 -7.726562 2.578125 -6.832031 2.578125 -5.71875 C 2.578125 -4.59375 2.695312 -3.6875 2.9375 -3 C 3.175781 -2.320312 3.519531 -1.832031 3.96875 -1.53125 C 4.414062 -1.226562 4.96875 -1.078125 5.625 -1.078125 Z M 5.625 -1.078125 "/></g></g></g><g fill="#1f3a68" fill-opacity="1"><g transform="translate(159.243594, 128.261161)"><g><path d="M 0.8125 0 L 0.8125 -1.109375 L 3.9375 -1.109375 L 3.9375 -9.84375 L 3.75 -9.890625 C 3.25 -9.640625 2.804688 -9.445312 2.421875 -9.3125 C 2.046875 -9.1875 1.5625 -9.0625 0.96875 -8.9375 L 0.96875 -10.171875 C 1.550781 -10.296875 2.128906 -10.460938 2.703125 -10.671875 C 3.285156 -10.890625 3.8125 -11.140625 4.28125 -11.421875 L 5.25 -11.421875 L 5.25 -1.109375 L 8.03125 -1.109375 L 8.03125 0 Z M 0.8125 0 "/></g></g></g><g fill="#1f3a68" fill-opacity="1"><g transform="translate(167.757139, 128.261161)"><g><path d="M 5.625 0.171875 C 4.78125 0.171875 4.023438 -0.03125 3.359375 -0.4375 C 2.691406 -0.84375 2.160156 -1.484375 1.765625 -2.359375 C 1.367188 -3.242188 1.171875 -4.363281 1.171875 -5.71875 C 1.171875 -7.070312 1.367188 -8.1875 1.765625 -9.0625 C 2.160156 -9.9375 2.691406 -10.578125 3.359375 -10.984375 C 4.023438 -11.390625 4.78125 -11.59375 5.625 -11.59375 C 6.457031 -11.59375 7.207031 -11.390625 7.875 -10.984375 C 8.539062 -10.578125 9.070312 -9.9375 9.46875 -9.0625 C 9.863281 -8.1875 10.0625 -7.070312 10.0625 -5.71875 C 10.0625 -4.363281 9.863281 -3.242188 9.46875 -2.359375 C 9.070312 -1.484375 8.539062 -0.84375 7.875 -0.4375 C 7.207031 -0.03125 6.457031 0.171875 5.625 0.171875 Z M 5.625 -1.078125 C 6.613281 -1.078125 7.363281 -1.4375 7.875 -2.15625 C 8.394531 -2.875 8.65625 -4.0625 8.65625 -5.71875 C 8.65625 -7.375 8.394531 -8.554688 7.875 -9.265625 C 7.363281 -9.984375 6.613281 -10.34375 5.625 -10.34375 C 4.96875 -10.34375 4.414062 -10.191406 3.96875 -9.890625 C 3.519531 -9.585938 3.175781 -9.09375 2.9375 -8.40625 C 2.695312 -7.726562 2.578125 -6.832031 2.578125 -5.71875 C 2.578125 -4.59375 2.695312 -3.6875 2.9375 -3 C 3.175781 -2.320312 3.519531 -1.832031 3.96875 -1.53125 C 4.414062 -1.226562 4.96875 -1.078125 5.625 -1.078125 Z M 5.625 -1.078125 "/></g></g></g><g fill="#1f3a68" fill-opacity="1"><g transform="translate(178.988771, 128.261161)"><g><path d="M 0.8125 0 L 0.8125 -1.109375 L 3.9375 -1.109375 L 3.9375 -9.84375 L 3.75 -9.890625 C 3.25 -9.640625 2.804688 -9.445312 2.421875 -9.3125 C 2.046875 -9.1875 1.5625 -9.0625 0.96875 -8.9375 L 0.96875 -10.171875 C 1.550781 -10.296875 2.128906 -10.460938 2.703125 -10.671875 C 3.285156 -10.890625 3.8125 -11.140625 4.28125 -11.421875 L 5.25 -11.421875 L 5.25 -1.109375 L 8.03125 -1.109375 L 8.03125 0 Z M 0.8125 0 "/></g></g></g><g fill="#1f3a68" fill-opacity="1"><g transform="translate(187.502316, 128.261161)"><g><path d="M 5.625 0.171875 C 4.78125 0.171875 4.023438 -0.03125 3.359375 -0.4375 C 2.691406 -0.84375 2.160156 -1.484375 1.765625 -2.359375 C 1.367188 -3.242188 1.171875 -4.363281 1.171875 -5.71875 C 1.171875 -7.070312 1.367188 -8.1875 1.765625 -9.0625 C 2.160156 -9.9375 2.691406 -10.578125 3.359375 -10.984375 C 4.023438 -11.390625 4.78125 -11.59375 5.625 -11.59375 C 6.457031 -11.59375 7.207031 -11.390625 7.875 -10.984375 C 8.539062 -10.578125 9.070312 -9.9375 9.46875 -9.0625 C 9.863281 -8.1875 10.0625 -7.070312 10.0625 -5.71875 C 10.0625 -4.363281 9.863281 -3.242188 9.46875 -2.359375 C 9.070312 -1.484375 8.539062 -0.84375 7.875 -0.4375 C 7.207031 -0.03125 6.457031 0.171875 5.625 0.171875 Z M 5.625 -1.078125 C 6.613281 -1.078125 7.363281 -1.4375 7.875 -2.15625 C 8.394531 -2.875 8.65625 -4.0625 8.65625 -5.71875 C 8.65625 -7.375 8.394531 -8.554688 7.875 -9.265625 C 7.363281 -9.984375 6.613281 -10.34375 5.625 -10.34375 C 4.96875 -10.34375 4.414062 -10.191406 3.96875 -9.890625 C 3.519531 -9.585938 3.175781 -9.09375 2.9375 -8.40625 C 2.695312 -7.726562 2.578125 -6.832031 2.578125 -5.71875 C 2.578125 -4.59375 2.695312 -3.6875 2.9375 -3 C 3.175781 -2.320312 3.519531 -1.832031 3.96875 -1.53125 C 4.414062 -1.226562 4.96875 -1.078125 5.625 -1.078125 Z M 5.625 -1.078125 "/></g></g></g><g fill="#1f3a68" fill-opacity="1"><g transform="translate(198.733948, 128.261161)"><g><path d="M 0.8125 0 L 0.8125 -1.109375 L 3.9375 -1.109375 L 3.9375 -9.84375 L 3.75 -9.890625 C 3.25 -9.640625 2.804688 -9.445312 2.421875 -9.3125 C 2.046875 -9.1875 1.5625 -9.0625 0.96875 -8.9375 L 0.96875 -10.171875 C 1.550781 -10.296875 2.128906 -10.460938 2.703125 -10.671875 C 3.285156 -10.890625 3.8125 -11.140625 4.28125 -11.421875 L 5.25 -11.421875 L 5.25 -1.109375 L 8.03125 -1.109375 L 8.03125 0 Z M 0.8125 0 "/></g></g></g><g fill="#1f3a68" fill-opacity="1"><g transform="translate(207.247493, 128.261161)"><g><path d="M 0.8125 0 L 0.8125 -1.109375 L 3.9375 -1.109375 L 3.9375 -9.84375 L 3.75 -9.890625 C 3.25 -9.640625 2.804688 -9.445312 2.421875 -9.3125 C 2.046875 -9.1875 1.5625 -9.0625 0.96875 -8.9375 L 0.96875 -10.171875 C 1.550781 -10.296875 2.128906 -10.460938 2.703125 -10.671875 C 3.285156 -10.890625 3.8125 -11.140625 4.28125 -11.421875 L 5.25 -11.421875 L 5.25 -1.109375 L 8.03125 -1.109375 L 8.03125 0 Z M 0.8125 0 "/></g></g></g><g fill="#1f3a68" fill-opacity="1"><g transform="translate(215.761039, 128.261161)"><g><path d="M 5.625 0.171875 C 4.78125 0.171875 4.023438 -0.03125 3.359375 -0.4375 C 2.691406 -0.84375 2.160156 -1.484375 1.765625 -2.359375 C 1.367188 -3.242188 1.171875 -4.363281 1.171875 -5.71875 C 1.171875 -7.070312 1.367188 -8.1875 1.765625 -9.0625 C 2.160156 -9.9375 2.691406 -10.578125 3.359375 -10.984375 C 4.023438 -11.390625 4.78125 -11.59375 5.625 -11.59375 C 6.457031 -11.59375 7.207031 -11.390625 7.875 -10.984375 C 8.539062 -10.578125 9.070312 -9.9375 9.46875 -9.0625 C 9.863281 -8.1875 10.0625 -7.070312 10.0625 -5.71875 C 10.0625 -4.363281 9.863281 -3.242188 9.46875 -2.359375 C 9.070312 -1.484375 8.539062 -0.84375 7.875 -0.4375 C 7.207031 -0.03125 6.457031 0.171875 5.625 0.171875 Z M 5.625 -1.078125 C 6.613281 -1.078125 7.363281 -1.4375 7.875 -2.15625 C 8.394531 -2.875 8.65625 -4.0625 8.65625 -5.71875 C 8.65625 -7.375 8.394531 -8.554688 7.875 -9.265625 C 7.363281 -9.984375 6.613281 -10.34375 5.625 -10.34375 C 4.96875 -10.34375 4.414062 -10.191406 3.96875 -9.890625 C 3.519531 -9.585938 3.175781 -9.09375 2.9375 -8.40625 C 2.695312 -7.726562 2.578125 -6.832031 2.578125 -5.71875 C 2.578125 -4.59375 2.695312 -3.6875 2.9375 -3 C 3.175781 -2.320312 3.519531 -1.832031 3.96875 -1.53125 C 4.414062 -1.226562 4.96875 -1.078125 5.625 -1.078125 Z M 5.625 -1.078125 "/></g></g></g><g fill="#1f3a68" fill-opacity="1"><g transform="translate(226.99267, 128.261161)"><g><path d="M 5.625 0.171875 C 4.78125 0.171875 4.023438 -0.03125 3.359375 -0.4375 C 2.691406 -0.84375 2.160156 -1.484375 1.765625 -2.359375 C 1.367188 -3.242188 1.171875 -4.363281 1.171875 -5.71875 C 1.171875 -7.070312 1.367188 -8.1875 1.765625 -9.0625 C 2.160156 -9.9375 2.691406 -10.578125 3.359375 -10.984375 C 4.023438 -11.390625 4.78125 -11.59375 5.625 -11.59375 C 6.457031 -11.59375 7.207031 -11.390625 7.875 -10.984375 C 8.539062 -10.578125 9.070312 -9.9375 9.46875 -9.0625 C 9.863281 -8.1875 10.0625 -7.070312 10.0625 -5.71875 C 10.0625 -4.363281 9.863281 -3.242188 9.46875 -2.359375 C 9.070312 -1.484375 8.539062 -0.84375 7.875 -0.4375 C 7.207031 -0.03125 6.457031 0.171875 5.625 0.171875 Z M 5.625 -1.078125 C 6.613281 -1.078125 7.363281 -1.4375 7.875 -2.15625 C 8.394531 -2.875 8.65625 -4.0625 8.65625 -5.71875 C 8.65625 -7.375 8.394531 -8.554688 7.875 -9.265625 C 7.363281 -9.984375 6.613281 -10.34375 5.625 -10.34375 C 4.96875 -10.34375 4.414062 -10.191406 3.96875 -9.890625 C 3.519531 -9.585938 3.175781 -9.09375 2.9375 -8.40625 C 2.695312 -7.726562 2.578125 -6.832031 2.578125 -5.71875 C 2.578125 -4.59375 2.695312 -3.6875 2.9375 -3 C 3.175781 -2.320312 3.519531 -1.832031 3.96875 -1.53125 C 4.414062 -1.226562 4.96875 -1.078125 5.625 -1.078125 Z M 5.625 -1.078125 "/></g></g></g><g fill="#1f3a68" fill-opacity="1"><g transform="translate(238.224302, 128.261161)"><g><path d="M 0.8125 0 L 0.8125 -1.109375 L 3.9375 -1.109375 L 3.9375 -9.84375 L 3.75 -9.890625 C 3.25 -9.640625 2.804688 -9.445312 2.421875 -9.3125 C 2.046875 -9.1875 1.5625 -9.0625 0.96875 -8.9375 L 0.96875 -10.171875 C 1.550781 -10.296875 2.128906 -10.460938 2.703125 -10.671875 C 3.285156 -10.890625 3.8125 -11.140625 4.28125 -11.421875 L 5.25 -11.421875 L 5.25 -1.109375 L 8.03125 -1.109375 L 8.03125 0 Z M 0.8125 0 "/></g></g></g><g fill="#1f3a68" fill-opacity="1"><g transform="translate(246.737847, 128.261161)"><g><path d="M 5.625 0.171875 C 4.78125 0.171875 4.023438 -0.03125 3.359375 -0.4375 C 2.691406 -0.84375 2.160156 -1.484375 1.765625 -2.359375 C 1.367188 -3.242188 1.171875 -4.363281 1.171875 -5.71875 C 1.171875 -7.070312 1.367188 -8.1875 1.765625 -9.0625 C 2.160156 -9.9375 2.691406 -10.578125 3.359375 -10.984375 C 4.023438 -11.390625 4.78125 -11.59375 5.625 -11.59375 C 6.457031 -11.59375 7.207031 -11.390625 7.875 -10.984375 C 8.539062 -10.578125 9.070312 -9.9375 9.46875 -9.0625 C 9.863281 -8.1875 10.0625 -7.070312 10.0625 -5.71875 C 10.0625 -4.363281 9.863281 -3.242188 9.46875 -2.359375 C 9.070312 -1.484375 8.539062 -0.84375 7.875 -0.4375 C 7.207031 -0.03125 6.457031 0.171875 5.625 0.171875 Z M 5.625 -1.078125 C 6.613281 -1.078125 7.363281 -1.4375 7.875 -2.15625 C 8.394531 -2.875 8.65625 -4.0625 8.65625 -5.71875 C 8.65625 -7.375 8.394531 -8.554688 7.875 -9.265625 C 7.363281 -9.984375 6.613281 -10.34375 5.625 -10.34375 C 4.96875 -10.34375 4.414062 -10.191406 3.96875 -9.890625 C 3.519531 -9.585938 3.175781 -9.09375 2.9375 -8.40625 C 2.695312 -7.726562 2.578125 -6.832031 2.578125 -5.71875 C 2.578125 -4.59375 2.695312 -3.6875 2.9375 -3 C 3.175781 -2.320312 3.519531 -1.832031 3.96875 -1.53125 C 4.414062 -1.226562 4.96875 -1.078125 5.625 -1.078125 Z M 5.625 -1.078125 "/></g></g></g><g fill="#1f3a68" fill-opacity="1"><g transform="translate(117.035154, 146.811158)"><g><path d="M 5.625 0.171875 C 4.78125 0.171875 4.023438 -0.03125 3.359375 -0.4375 C 2.691406 -0.84375 2.160156 -1.484375 1.765625 -2.359375 C 1.367188 -3.242188 1.171875 -4.363281 1.171875 -5.71875 C 1.171875 -7.070312 1.367188 -8.1875 1.765625 -9.0625 C 2.160156 -9.9375 2.691406 -10.578125 3.359375 -10.984375 C 4.023438 -11.390625 4.78125 -11.59375 5.625 -11.59375 C 6.457031 -11.59375 7.207031 -11.390625 7.875 -10.984375 C 8.539062 -10.578125 9.070312 -9.9375 9.46875 -9.0625 C 9.863281 -8.1875 10.0625 -7.070312 10.0625 -5.71875 C 10.0625 -4.363281 9.863281 -3.242188 9.46875 -2.359375 C 9.070312 -1.484375 8.539062 -0.84375 7.875 -0.4375 C 7.207031 -0.03125 6.457031 0.171875 5.625 0.171875 Z M 5.625 -1.078125 C 6.613281 -1.078125 7.363281 -1.4375 7.875 -2.15625 C 8.394531 -2.875 8.65625 -4.0625 8.65625 -5.71875 C 8.65625 -7.375 8.394531 -8.554688 7.875 -9.265625 C 7.363281 -9.984375 6.613281 -10.34375 5.625 -10.34375 C 4.96875 -10.34375 4.414062 -10.191406 3.96875 -9.890625 C 3.519531 -9.585938 3.175781 -9.09375 2.9375 -8.40625 C 2.695312 -7.726562 2.578125 -6.832031 2.578125 -5.71875 C 2.578125 -4.59375 2.695312 -3.6875 2.9375 -3 C 3.175781 -2.320312 3.519531 -1.832031 3.96875 -1.53125 C 4.414062 -1.226562 4.96875 -1.078125 5.625 -1.078125 Z M 5.625 -1.078125 "/></g></g></g><g fill="#1f3a68" fill-opacity="1"><g transform="translate(128.266785, 146.811158)"><g><path d="M 0.8125 0 L 0.8125 -1.109375 L 3.9375 -1.109375 L 3.9375 -9.84375 L 3.75 -9.890625 C 3.25 -9.640625 2.804688 -9.445312 2.421875 -9.3125 C 2.046875 -9.1875 1.5625 -9.0625 0.96875 -8.9375 L 0.96875 -10.171875 C 1.550781 -10.296875 2.128906 -10.460938 2.703125 -10.671875 C 3.285156 -10.890625 3.8125 -11.140625 4.28125 -11.421875 L 5.25 -11.421875 L 5.25 -1.109375 L 8.03125 -1.109375 L 8.03125 0 Z M 0.8125 0 "/></g></g></g><g fill="#1f3a68" fill-opacity="1"><g transform="translate(136.780331, 146.811158)"><g><path d="M 5.625 0.171875 C 4.78125 0.171875 4.023438 -0.03125 3.359375 -0.4375 C 2.691406 -0.84375 2.160156 -1.484375 1.765625 -2.359375 C 1.367188 -3.242188 1.171875 -4.363281 1.171875 -5.71875 C 1.171875 -7.070312 1.367188 -8.1875 1.765625 -9.0625 C 2.160156 -9.9375 2.691406 -10.578125 3.359375 -10.984375 C 4.023438 -11.390625 4.78125 -11.59375 5.625 -11.59375 C 6.457031 -11.59375 7.207031 -11.390625 7.875 -10.984375 C 8.539062 -10.578125 9.070312 -9.9375 9.46875 -9.0625 C 9.863281 -8.1875 10.0625 -7.070312 10.0625 -5.71875 C 10.0625 -4.363281 9.863281 -3.242188 9.46875 -2.359375 C 9.070312 -1.484375 8.539062 -0.84375 7.875 -0.4375 C 7.207031 -0.03125 6.457031 0.171875 5.625 0.171875 Z M 5.625 -1.078125 C 6.613281 -1.078125 7.363281 -1.4375 7.875 -2.15625 C 8.394531 -2.875 8.65625 -4.0625 8.65625 -5.71875 C 8.65625 -7.375 8.394531 -8.554688 7.875 -9.265625 C 7.363281 -9.984375 6.613281 -10.34375 5.625 -10.34375 C 4.96875 -10.34375 4.414062 -10.191406 3.96875 -9.890625 C 3.519531 -9.585938 3.175781 -9.09375 2.9375 -8.40625 C 2.695312 -7.726562 2.578125 -6.832031 2.578125 -5.71875 C 2.578125 -4.59375 2.695312 -3.6875 2.9375 -3 C 3.175781 -2.320312 3.519531 -1.832031 3.96875 -1.53125 C 4.414062 -1.226562 4.96875 -1.078125 5.625 -1.078125 Z M 5.625 -1.078125 "/></g></g></g><g fill="#1f3a68" fill-opacity="1"><g transform="translate(148.011962, 146.811158)"><g><path d="M 5.625 0.171875 C 4.78125 0.171875 4.023438 -0.03125 3.359375 -0.4375 C 2.691406 -0.84375 2.160156 -1.484375 1.765625 -2.359375 C 1.367188 -3.242188 1.171875 -4.363281 1.171875 -5.71875 C 1.171875 -7.070312 1.367188 -8.1875 1.765625 -9.0625 C 2.160156 -9.9375 2.691406 -10.578125 3.359375 -10.984375 C 4.023438 -11.390625 4.78125 -11.59375 5.625 -11.59375 C 6.457031 -11.59375 7.207031 -11.390625 7.875 -10.984375 C 8.539062 -10.578125 9.070312 -9.9375 9.46875 -9.0625 C 9.863281 -8.1875 10.0625 -7.070312 10.0625 -5.71875 C 10.0625 -4.363281 9.863281 -3.242188 9.46875 -2.359375 C 9.070312 -1.484375 8.539062 -0.84375 7.875 -0.4375 C 7.207031 -0.03125 6.457031 0.171875 5.625 0.171875 Z M 5.625 -1.078125 C 6.613281 -1.078125 7.363281 -1.4375 7.875 -2.15625 C 8.394531 -2.875 8.65625 -4.0625 8.65625 -5.71875 C 8.65625 -7.375 8.394531 -8.554688 7.875 -9.265625 C 7.363281 -9.984375 6.613281 -10.34375 5.625 -10.34375 C 4.96875 -10.34375 4.414062 -10.191406 3.96875 -9.890625 C 3.519531 -9.585938 3.175781 -9.09375 2.9375 -8.40625 C 2.695312 -7.726562 2.578125 -6.832031 2.578125 -5.71875 C 2.578125 -4.59375 2.695312 -3.6875 2.9375 -3 C 3.175781 -2.320312 3.519531 -1.832031 3.96875 -1.53125 C 4.414062 -1.226562 4.96875 -1.078125 5.625 -1.078125 Z M 5.625 -1.078125 "/></g></g></g><g fill="#1f3a68" fill-opacity="1"><g transform="translate(159.243594, 146.811158)"><g><path d="M 0.8125 0 L 0.8125 -1.109375 L 3.9375 -1.109375 L 3.9375 -9.84375 L 3.75 -9.890625 C 3.25 -9.640625 2.804688 -9.445312 2.421875 -9.3125 C 2.046875 -9.1875 1.5625 -9.0625 0.96875 -8.9375 L 0.96875 -10.171875 C 1.550781 -10.296875 2.128906 -10.460938 2.703125 -10.671875 C 3.285156 -10.890625 3.8125 -11.140625 4.28125 -11.421875 L 5.25 -11.421875 L 5.25 -1.109375 L 8.03125 -1.109375 L 8.03125 0 Z M 0.8125 0 "/></g></g></g><g fill="#1f3a68" fill-opacity="1"><g transform="translate(167.757139, 146.811158)"><g><path d="M 5.625 0.171875 C 4.78125 0.171875 4.023438 -0.03125 3.359375 -0.4375 C 2.691406 -0.84375 2.160156 -1.484375 1.765625 -2.359375 C 1.367188 -3.242188 1.171875 -4.363281 1.171875 -5.71875 C 1.171875 -7.070312 1.367188 -8.1875 1.765625 -9.0625 C 2.160156 -9.9375 2.691406 -10.578125 3.359375 -10.984375 C 4.023438 -11.390625 4.78125 -11.59375 5.625 -11.59375 C 6.457031 -11.59375 7.207031 -11.390625 7.875 -10.984375 C 8.539062 -10.578125 9.070312 -9.9375 9.46875 -9.0625 C 9.863281 -8.1875 10.0625 -7.070312 10.0625 -5.71875 C 10.0625 -4.363281 9.863281 -3.242188 9.46875 -2.359375 C 9.070312 -1.484375 8.539062 -0.84375 7.875 -0.4375 C 7.207031 -0.03125 6.457031 0.171875 5.625 0.171875 Z M 5.625 -1.078125 C 6.613281 -1.078125 7.363281 -1.4375 7.875 -2.15625 C 8.394531 -2.875 8.65625 -4.0625 8.65625 -5.71875 C 8.65625 -7.375 8.394531 -8.554688 7.875 -9.265625 C 7.363281 -9.984375 6.613281 -10.34375 5.625 -10.34375 C 4.96875 -10.34375 4.414062 -10.191406 3.96875 -9.890625 C 3.519531 -9.585938 3.175781 -9.09375 2.9375 -8.40625 C 2.695312 -7.726562 2.578125 -6.832031 2.578125 -5.71875 C 2.578125 -4.59375 2.695312 -3.6875 2.9375 -3 C 3.175781 -2.320312 3.519531 -1.832031 3.96875 -1.53125 C 4.414062 -1.226562 4.96875 -1.078125 5.625 -1.078125 Z M 5.625 -1.078125 "/></g></g></g><g fill="#1f3a68" fill-opacity="1"><g transform="translate(178.988771, 146.811158)"><g><path d="M 0.8125 0 L 0.8125 -1.109375 L 3.9375 -1.109375 L 3.9375 -9.84375 L 3.75 -9.890625 C 3.25 -9.640625 2.804688 -9.445312 2.421875 -9.3125 C 2.046875 -9.1875 1.5625 -9.0625 0.96875 -8.9375 L 0.96875 -10.171875 C 1.550781 -10.296875 2.128906 -10.460938 2.703125 -10.671875 C 3.285156 -10.890625 3.8125 -11.140625 4.28125 -11.421875 L 5.25 -11.421875 L 5.25 -1.109375 L 8.03125 -1.109375 L 8.03125 0 Z M 0.8125 0 "/></g></g></g><g fill="#1f3a68" fill-opacity="1"><g transform="translate(187.502316, 146.811158)"><g><path d="M 5.625 0.171875 C 4.78125 0.171875 4.023438 -0.03125 3.359375 -0.4375 C 2.691406 -0.84375 2.160156 -1.484375 1.765625 -2.359375 C 1.367188 -3.242188 1.171875 -4.363281 1.171875 -5.71875 C 1.171875 -7.070312 1.367188 -8.1875 1.765625 -9.0625 C 2.160156 -9.9375 2.691406 -10.578125 3.359375 -10.984375 C 4.023438 -11.390625 4.78125 -11.59375 5.625 -11.59375 C 6.457031 -11.59375 7.207031 -11.390625 7.875 -10.984375 C 8.539062 -10.578125 9.070312 -9.9375 9.46875 -9.0625 C 9.863281 -8.1875 10.0625 -7.070312 10.0625 -5.71875 C 10.0625 -4.363281 9.863281 -3.242188 9.46875 -2.359375 C 9.070312 -1.484375 8.539062 -0.84375 7.875 -0.4375 C 7.207031 -0.03125 6.457031 0.171875 5.625 0.171875 Z M 5.625 -1.078125 C 6.613281 -1.078125 7.363281 -1.4375 7.875 -2.15625 C 8.394531 -2.875 8.65625 -4.0625 8.65625 -5.71875 C 8.65625 -7.375 8.394531 -8.554688 7.875 -9.265625 C 7.363281 -9.984375 6.613281 -10.34375 5.625 -10.34375 C 4.96875 -10.34375 4.414062 -10.191406 3.96875 -9.890625 C 3.519531 -9.585938 3.175781 -9.09375 2.9375 -8.40625 C 2.695312 -7.726562 2.578125 -6.832031 2.578125 -5.71875 C 2.578125 -4.59375 2.695312 -3.6875 2.9375 -3 C 3.175781 -2.320312 3.519531 -1.832031 3.96875 -1.53125 C 4.414062 -1.226562 4.96875 -1.078125 5.625 -1.078125 Z M 5.625 -1.078125 "/></g></g></g><g fill="#1f3a68" fill-opacity="1"><g transform="translate(198.733948, 146.811158)"><g><path d="M 0.8125 0 L 0.8125 -1.109375 L 3.9375 -1.109375 L 3.9375 -9.84375 L 3.75 -9.890625 C 3.25 -9.640625 2.804688 -9.445312 2.421875 -9.3125 C 2.046875 -9.1875 1.5625 -9.0625 0.96875 -8.9375 L 0.96875 -10.171875 C 1.550781 -10.296875 2.128906 -10.460938 2.703125 -10.671875 C 3.285156 -10.890625 3.8125 -11.140625 4.28125 -11.421875 L 5.25 -11.421875 L 5.25 -1.109375 L 8.03125 -1.109375 L 8.03125 0 Z M 0.8125 0 "/></g></g></g><g fill="#1f3a68" fill-opacity="1"><g transform="translate(207.247493, 146.811158)"><g><path d="M 0.8125 0 L 0.8125 -1.109375 L 3.9375 -1.109375 L 3.9375 -9.84375 L 3.75 -9.890625 C 3.25 -9.640625 2.804688 -9.445312 2.421875 -9.3125 C 2.046875 -9.1875 1.5625 -9.0625 0.96875 -8.9375 L 0.96875 -10.171875 C 1.550781 -10.296875 2.128906 -10.460938 2.703125 -10.671875 C 3.285156 -10.890625 3.8125 -11.140625 4.28125 -11.421875 L 5.25 -11.421875 L 5.25 -1.109375 L 8.03125 -1.109375 L 8.03125 0 Z M 0.8125 0 "/></g></g></g><g fill="#1f3a68" fill-opacity="1"><g transform="translate(215.761039, 146.811158)"><g><path d="M 5.625 0.171875 C 4.78125 0.171875 4.023438 -0.03125 3.359375 -0.4375 C 2.691406 -0.84375 2.160156 -1.484375 1.765625 -2.359375 C 1.367188 -3.242188 1.171875 -4.363281 1.171875 -5.71875 C 1.171875 -7.070312 1.367188 -8.1875 1.765625 -9.0625 C 2.160156 -9.9375 2.691406 -10.578125 3.359375 -10.984375 C 4.023438 -11.390625 4.78125 -11.59375 5.625 -11.59375 C 6.457031 -11.59375 7.207031 -11.390625 7.875 -10.984375 C 8.539062 -10.578125 9.070312 -9.9375 9.46875 -9.0625 C 9.863281 -8.1875 10.0625 -7.070312 10.0625 -5.71875 C 10.0625 -4.363281 9.863281 -3.242188 9.46875 -2.359375 C 9.070312 -1.484375 8.539062 -0.84375 7.875 -0.4375 C 7.207031 -0.03125 6.457031 0.171875 5.625 0.171875 Z M 5.625 -1.078125 C 6.613281 -1.078125 7.363281 -1.4375 7.875 -2.15625 C 8.394531 -2.875 8.65625 -4.0625 8.65625 -5.71875 C 8.65625 -7.375 8.394531 -8.554688 7.875 -9.265625 C 7.363281 -9.984375 6.613281 -10.34375 5.625 -10.34375 C 4.96875 -10.34375 4.414062 -10.191406 3.96875 -9.890625 C 3.519531 -9.585938 3.175781 -9.09375 2.9375 -8.40625 C 2.695312 -7.726562 2.578125 -6.832031 2.578125 -5.71875 C 2.578125 -4.59375 2.695312 -3.6875 2.9375 -3 C 3.175781 -2.320312 3.519531 -1.832031 3.96875 -1.53125 C 4.414062 -1.226562 4.96875 -1.078125 5.625 -1.078125 Z M 5.625 -1.078125 "/></g></g></g><g fill="#1f3a68" fill-opacity="1"><g transform="translate(226.99267, 146.811158)"><g><path d="M 5.625 0.171875 C 4.78125 0.171875 4.023438 -0.03125 3.359375 -0.4375 C 2.691406 -0.84375 2.160156 -1.484375 1.765625 -2.359375 C 1.367188 -3.242188 1.171875 -4.363281 1.171875 -5.71875 C 1.171875 -7.070312 1.367188 -8.1875 1.765625 -9.0625 C 2.160156 -9.9375 2.691406 -10.578125 3.359375 -10.984375 C 4.023438 -11.390625 4.78125 -11.59375 5.625 -11.59375 C 6.457031 -11.59375 7.207031 -11.390625 7.875 -10.984375 C 8.539062 -10.578125 9.070312 -9.9375 9.46875 -9.0625 C 9.863281 -8.1875 10.0625 -7.070312 10.0625 -5.71875 C 10.0625 -4.363281 9.863281 -3.242188 9.46875 -2.359375 C 9.070312 -1.484375 8.539062 -0.84375 7.875 -0.4375 C 7.207031 -0.03125 6.457031 0.171875 5.625 0.171875 Z M 5.625 -1.078125 C 6.613281 -1.078125 7.363281 -1.4375 7.875 -2.15625 C 8.394531 -2.875 8.65625 -4.0625 8.65625 -5.71875 C 8.65625 -7.375 8.394531 -8.554688 7.875 -9.265625 C 7.363281 -9.984375 6.613281 -10.34375 5.625 -10.34375 C 4.96875 -10.34375 4.414062 -10.191406 3.96875 -9.890625 C 3.519531 -9.585938 3.175781 -9.09375 2.9375 -8.40625 C 2.695312 -7.726562 2.578125 -6.832031 2.578125 -5.71875 C 2.578125 -4.59375 2.695312 -3.6875 2.9375 -3 C 3.175781 -2.320312 3.519531 -1.832031 3.96875 -1.53125 C 4.414062 -1.226562 4.96875 -1.078125 5.625 -1.078125 Z M 5.625 -1.078125 "/></g></g></g><g fill="#1f3a68" fill-opacity="1"><g transform="translate(238.224302, 146.811158)"><g><path d="M 0.8125 0 L 0.8125 -1.109375 L 3.9375 -1.109375 L 3.9375 -9.84375 L 3.75 -9.890625 C 3.25 -9.640625 2.804688 -9.445312 2.421875 -9.3125 C 2.046875 -9.1875 1.5625 -9.0625 0.96875 -8.9375 L 0.96875 -10.171875 C 1.550781 -10.296875 2.128906 -10.460938 2.703125 -10.671875 C 3.285156 -10.890625 3.8125 -11.140625 4.28125 -11.421875 L 5.25 -11.421875 L 5.25 -1.109375 L 8.03125 -1.109375 L 8.03125 0 Z M 0.8125 0 "/></g></g></g><g fill="#1f3a68" fill-opacity="1"><g transform="translate(246.737847, 146.811158)"><g><path d="M 5.625 0.171875 C 4.78125 0.171875 4.023438 -0.03125 3.359375 -0.4375 C 2.691406 -0.84375 2.160156 -1.484375 1.765625 -2.359375 C 1.367188 -3.242188 1.171875 -4.363281 1.171875 -5.71875 C 1.171875 -7.070312 1.367188 -8.1875 1.765625 -9.0625 C 2.160156 -9.9375 2.691406 -10.578125 3.359375 -10.984375 C 4.023438 -11.390625 4.78125 -11.59375 5.625 -11.59375 C 6.457031 -11.59375 7.207031 -11.390625 7.875 -10.984375 C 8.539062 -10.578125 9.070312 -9.9375 9.46875 -9.0625 C 9.863281 -8.1875 10.0625 -7.070312 10.0625 -5.71875 C 10.0625 -4.363281 9.863281 -3.242188 9.46875 -2.359375 C 9.070312 -1.484375 8.539062 -0.84375 7.875 -0.4375 C 7.207031 -0.03125 6.457031 0.171875 5.625 0.171875 Z M 5.625 -1.078125 C 6.613281 -1.078125 7.363281 -1.4375 7.875 -2.15625 C 8.394531 -2.875 8.65625 -4.0625 8.65625 -5.71875 C 8.65625 -7.375 8.394531 -8.554688 7.875 -9.265625 C 7.363281 -9.984375 6.613281 -10.34375 5.625 -10.34375 C 4.96875 -10.34375 4.414062 -10.191406 3.96875 -9.890625 C 3.519531 -9.585938 3.175781 -9.09375 2.9375 -8.40625 C 2.695312 -7.726562 2.578125 -6.832031 2.578125 -5.71875 C 2.578125 -4.59375 2.695312 -3.6875 2.9375 -3 C 3.175781 -2.320312 3.519531 -1.832031 3.96875 -1.53125 C 4.414062 -1.226562 4.96875 -1.078125 5.625 -1.078125 Z M 5.625 -1.078125 "/></g></g></g></svg>