<svg xmlns="http://www.w3.org/2000/svg" xmlns:xlink="http://www.w3.org/1999/xlink" width="5000" zoomAndPan="magnify" viewBox="0 0 3750 3749.999967" height="5000" preserveAspectRatio="xMidYMid meet" version="1.0"><defs><g/><clipPath id="0f1ba4a3ec"><path d="M 102 2460 L 3648 2460 L 3648 3692.527344 L 102 3692.527344 Z M 102 2460 " clip-rule="nonzero"/></clipPath></defs><path fill="#1f3a68" d="M 3397.742188 3597.355469 L 3397.742188 2582.355469 L 3494.027344 2582.355469 L 3494.027344 3597.355469 L 3397.742188 3597.355469 " fill-opacity="1" fill-rule="nonzero"/><path fill="#1f3a68" d="M 3135.148438 3597.355469 L 3135.148438 2582.355469 L 3231.433594 2582.355469 L 3231.433594 3597.355469 L 3135.148438 3597.355469 " fill-opacity="1" fill-rule="nonzero"/><path fill="#1f3a68" d="M 509.53125 3562.503906 L 509.53125 2547.351562 L 605.8125 2547.351562 L 605.8125 3562.503906 L 509.53125 3562.503906 " fill-opacity="1" fill-rule="nonzero"/><path fill="#1f3a68" d="M 246.9375 3562.503906 L 246.9375 2547.351562 L 343.21875 2547.351562 L 343.21875 3562.503906 L 246.9375 3562.503906 " fill-opacity="1" fill-rule="nonzero"/><path fill="#1f3a68" d="M 2289.535156 3513.59375 C 2312.199219 3497.964844 2335.800781 3481.554688 2360.65625 3467.492188 L 2360.65625 2639.085938 C 2327.050781 2624.238281 2295.632812 2605.484375 2264.371094 2585.792969 L 2264.371094 3529.84375 C 2272.8125 3524.6875 2281.25 3519.21875 2289.535156 3513.59375 " fill-opacity="1" fill-rule="nonzero"/><path fill="#1f3a68" d="M 1983.175781 3551.566406 L 1983.175781 2536.410156 L 2079.460938 2536.410156 L 2079.460938 3551.566406 L 1983.175781 3551.566406 " fill-opacity="1" fill-rule="nonzero"/><path fill="#1f3a68" d="M 1701.984375 3584.226562 L 1701.984375 2569.230469 L 1798.269531 2569.230469 L 1798.269531 3584.226562 L 1701.984375 3584.226562 " fill-opacity="1" fill-rule="nonzero"/><path fill="#1f3a68" d="M 1517.074219 3552.191406 L 1517.074219 2630.488281 C 1484.5625 2653.929688 1453.300781 2679.246094 1420.945312 2702.21875 L 1420.945312 3495.308594 C 1452.675781 3514.53125 1484.875 3533.59375 1517.074219 3552.191406 " fill-opacity="1" fill-rule="nonzero"/><g clip-path="url(#0f1ba4a3ec)"><path fill="#1f3a68" d="M 102.667969 3601.417969 C 102.667969 3550.628906 143.617188 3509.527344 194.417969 3509.527344 C 570.488281 3509.527344 761.023438 3271.367188 962.972656 3019.453125 C 1172.734375 2757.382812 1410.628906 2460.308594 1874.855469 2460.308594 C 2339.085938 2460.308594 2576.980469 2757.382812 2786.742188 3019.453125 C 2988.691406 3271.367188 3179.382812 3509.527344 3555.296875 3509.527344 C 3605.941406 3509.527344 3647.125 3550.628906 3647.125 3601.417969 C 3647.125 3652.207031 3605.941406 3693.304688 3555.296875 3693.304688 C 3091.070312 3693.304688 2853.171875 3396.230469 2643.253906 3134.160156 C 2441.464844 2882.089844 2250.773438 2644.085938 1874.855469 2644.085938 C 1498.941406 2644.085938 1308.25 2882.089844 1106.304688 3134.160156 C 896.542969 3396.230469 658.644531 3693.304688 194.417969 3693.304688 C 143.617188 3693.304688 102.667969 3652.207031 102.667969 3601.417969 " fill-opacity="1" fill-rule="nonzero"/><path fill="#4eb1cb" d="M 102.667969 2552.195312 C 102.667969 2501.40625 143.617188 2460.308594 194.417969 2460.308594 C 658.644531 2460.308594 896.542969 2757.382812 1106.304688 3019.453125 C 1308.25 3271.367188 1498.941406 3509.527344 1874.855469 3509.527344 C 2250.773438 3509.527344 2441.464844 3271.367188 2643.253906 3019.453125 C 2853.171875 2757.382812 3091.070312 2460.308594 3555.296875 2460.308594 C 3605.941406 2460.308594 3647.125 2501.40625 3647.125 2552.195312 C 3647.125 2602.984375 3605.941406 2644.085938 3555.296875 2644.085938 C 3179.382812 2644.085938 2988.691406 2882.089844 2786.742188 3134.160156 C 2576.980469 3396.230469 2339.085938 3693.304688 1874.855469 3693.304688 C 1410.628906 3693.304688 1172.734375 3396.230469 962.972656 3134.160156 C 761.023438 2882.089844 570.488281 2644.085938 194.417969 2644.085938 C 143.617188 2644.085938 102.667969 2602.984375 102.667969 2552.195312 " fill-opacity="1" fill-rule="nonzero"/></g><g fill="#1f3a68" fill-opacity="1"><g transform="translate(255.089301, 649.190693)"><g><path d="M 204.21875 5.96875 C 173.738281 5.96875 146.378906 -1.367188 122.140625 -16.046875 C 97.898438 -30.722656 78.582031 -54.015625 64.1875 -85.921875 C 49.800781 -117.828125 42.609375 -158.398438 42.609375 -207.640625 C 42.609375 -256.867188 49.800781 -297.4375 64.1875 -329.34375 C 78.582031 -361.25 97.898438 -384.539062 122.140625 -399.21875 C 146.378906 -413.894531 173.738281 -421.234375 204.21875 -421.234375 C 234.707031 -421.234375 262.070312 -413.894531 286.3125 -399.21875 C 310.550781 -384.539062 329.816406 -361.25 344.109375 -329.34375 C 358.410156 -297.4375 365.5625 -256.867188 365.5625 -207.640625 C 365.5625 -158.398438 358.410156 -117.828125 344.109375 -85.921875 C 329.816406 -54.015625 310.550781 -30.722656 286.3125 -16.046875 C 262.070312 -1.367188 234.707031 5.96875 204.21875 5.96875 Z M 204.21875 -39.203125 C 240.394531 -39.203125 267.804688 -52.21875 286.453125 -78.25 C 305.109375 -104.289062 314.4375 -147.421875 314.4375 -207.640625 C 314.4375 -267.847656 305.109375 -310.972656 286.453125 -337.015625 C 267.804688 -363.054688 240.394531 -376.078125 204.21875 -376.078125 C 180.363281 -376.078125 160.289062 -370.582031 144 -359.59375 C 127.71875 -348.613281 115.269531 -330.71875 106.65625 -305.90625 C 98.039062 -281.101562 93.734375 -248.347656 93.734375 -207.640625 C 93.734375 -166.921875 98.039062 -134.15625 106.65625 -109.34375 C 115.269531 -84.539062 127.71875 -66.648438 144 -55.671875 C 160.289062 -44.691406 180.363281 -39.203125 204.21875 -39.203125 Z M 204.21875 -39.203125 "/></g></g></g><g fill="#1f3a68" fill-opacity="1"><g transform="translate(701.932948, 649.190693)"><g><path d="M 29.546875 0 L 29.546875 -40.328125 L 142.875 -40.328125 L 142.875 -357.890625 L 136.34375 -359.59375 C 117.96875 -350.507812 101.867188 -343.550781 88.046875 -338.71875 C 74.222656 -333.894531 56.519531 -329.207031 34.9375 -324.65625 L 34.9375 -369.546875 C 56.332031 -374.085938 77.492188 -380.238281 98.421875 -388 C 119.347656 -395.757812 138.332031 -404.847656 155.375 -415.265625 L 190.59375 -415.265625 L 190.59375 -40.328125 L 292 -40.328125 L 292 0 Z M 29.546875 0 "/></g></g></g><g fill="#1f3a68" fill-opacity="1"><g transform="translate(1049.930508, 649.190693)"><g><path d="M 204.21875 5.96875 C 173.738281 5.96875 146.378906 -1.367188 122.140625 -16.046875 C 97.898438 -30.722656 78.582031 -54.015625 64.1875 -85.921875 C 49.800781 -117.828125 42.609375 -158.398438 42.609375 -207.640625 C 42.609375 -256.867188 49.800781 -297.4375 64.1875 -329.34375 C 78.582031 -361.25 97.898438 -384.539062 122.140625 -399.21875 C 146.378906 -413.894531 173.738281 -421.234375 204.21875 -421.234375 C 234.707031 -421.234375 262.070312 -413.894531 286.3125 -399.21875 C 310.550781 -384.539062 329.816406 -361.25 344.109375 -329.34375 C 358.410156 -297.4375 365.5625 -256.867188 365.5625 -207.640625 C 365.5625 -158.398438 358.410156 -117.828125 344.109375 -85.921875 C 329.816406 -54.015625 310.550781 -30.722656 286.3125 -16.046875 C 262.070312 -1.367188 234.707031 5.96875 204.21875 5.96875 Z M 204.21875 -39.203125 C 240.394531 -39.203125 267.804688 -52.21875 286.453125 -78.25 C 305.109375 -104.289062 314.4375 -147.421875 314.4375 -207.640625 C 314.4375 -267.847656 305.109375 -310.972656 286.453125 -337.015625 C 267.804688 -363.054688 240.394531 -376.078125 204.21875 -376.078125 C 180.363281 -376.078125 160.289062 -370.582031 144 -359.59375 C 127.71875 -348.613281 115.269531 -330.71875 106.65625 -305.90625 C 98.039062 -281.101562 93.734375 -248.347656 93.734375 -207.640625 C 93.734375 -166.921875 98.039062 -134.15625 106.65625 -109.34375 C 115.269531 -84.539062 127.71875 -66.648438 144 -55.671875 C 160.289062 -44.691406 180.363281 -39.203125 204.21875 -39.203125 Z M 204.21875 -39.203125 "/></g></g></g><g fill="#1f3a68" fill-opacity="1"><g transform="translate(1496.77411, 649.190693)"><g><path d="M 204.21875 5.96875 C 173.738281 5.96875 146.378906 -1.367188 122.140625 -16.046875 C 97.898438 -30.722656 78.582031 -54.015625 64.1875 -85.921875 C 49.800781 -117.828125 42.609375 -158.398438 42.609375 -207.640625 C 42.609375 -256.867188 49.800781 -297.4375 64.1875 -329.34375 C 78.582031 -361.25 97.898438 -384.539062 122.140625 -399.21875 C 146.378906 -413.894531 173.738281 -421.234375 204.21875 -421.234375 C 234.707031 -421.234375 262.070312 -413.894531 286.3125 -399.21875 C 310.550781 -384.539062 329.816406 -361.25 344.109375 -329.34375 C 358.410156 -297.4375 365.5625 -256.867188 365.5625 -207.640625 C 365.5625 -158.398438 358.410156 -117.828125 344.109375 -85.921875 C 329.816406 -54.015625 310.550781 -30.722656 286.3125 -16.046875 C 262.070312 -1.367188 234.707031 5.96875 204.21875 5.96875 Z M 204.21875 -39.203125 C 240.394531 -39.203125 267.804688 -52.21875 286.453125 -78.25 C 305.109375 -104.289062 314.4375 -147.421875 314.4375 -207.640625 C 314.4375 -267.847656 305.109375 -310.972656 286.453125 -337.015625 C 267.804688 -363.054688 240.394531 -376.078125 204.21875 -376.078125 C 180.363281 -376.078125 160.289062 -370.582031 144 -359.59375 C 127.71875 -348.613281 115.269531 -330.71875 106.65625 -305.90625 C 98.039062 -281.101562 93.734375 -248.347656 93.734375 -207.640625 C 93.734375 -166.921875 98.039062 -134.15625 106.65625 -109.34375 C 115.269531 -84.539062 127.71875 -66.648438 144 -55.671875 C 160.289062 -44.691406 180.363281 -39.203125 204.21875 -39.203125 Z M 204.21875 -39.203125 "/></g></g></g><g fill="#1f3a68" fill-opacity="1"><g transform="translate(1943.617713, 649.190693)"><g><path d="M 29.546875 0 L 29.546875 -40.328125 L 142.875 -40.328125 L 142.875 -357.890625 L 136.34375 -359.59375 C 117.96875 -350.507812 101.867188 -343.550781 88.046875 -338.71875 C 74.222656 -333.894531 56.519531 -329.207031 34.9375 -324.65625 L 34.9375 -369.546875 C 56.332031 -374.085938 77.492188 -380.238281 98.421875 -388 C 119.347656 -395.757812 138.332031 -404.847656 155.375 -415.265625 L 190.59375 -415.265625 L 190.59375 -40.328125 L 292 -40.328125 L 292 0 Z M 29.546875 0 "/></g></g></g><g fill="#1f3a68" fill-opacity="1"><g transform="translate(2291.615318, 649.190693)"><g><path d="M 204.21875 5.96875 C 173.738281 5.96875 146.378906 -1.367188 122.140625 -16.046875 C 97.898438 -30.722656 78.582031 -54.015625 64.1875 -85.921875 C 49.800781 -117.828125 42.609375 -158.398438 42.609375 -207.640625 C 42.609375 -256.867188 49.800781 -297.4375 64.1875 -329.34375 C 78.582031 -361.25 97.898438 -384.539062 122.140625 -399.21875 C 146.378906 -413.894531 173.738281 -421.234375 204.21875 -421.234375 C 234.707031 -421.234375 262.070312 -413.894531 286.3125 -399.21875 C 310.550781 -384.539062 329.816406 -361.25 344.109375 -329.34375 C 358.410156 -297.4375 365.5625 -256.867188 365.5625 -207.640625 C 365.5625 -158.398438 358.410156 -117.828125 344.109375 -85.921875 C 329.816406 -54.015625 310.550781 -30.722656 286.3125 -16.046875 C 262.070312 -1.367188 234.707031 5.96875 204.21875 5.96875 Z M 204.21875 -39.203125 C 240.394531 -39.203125 267.804688 -52.21875 286.453125 -78.25 C 305.109375 -104.289062 314.4375 -147.421875 314.4375 -207.640625 C 314.4375 -267.847656 305.109375 -310.972656 286.453125 -337.015625 C 267.804688 -363.054688 240.394531 -376.078125 204.21875 -376.078125 C 180.363281 -376.078125 160.289062 -370.582031 144 -359.59375 C 127.71875 -348.613281 115.269531 -330.71875 106.65625 -305.90625 C 98.039062 -281.101562 93.734375 -248.347656 93.734375 -207.640625 C 93.734375 -166.921875 98.039062 -134.15625 106.65625 -109.34375 C 115.269531 -84.539062 127.71875 -66.648438 144 -55.671875 C 160.289062 -44.691406 180.363281 -39.203125 204.21875 -39.203125 Z M 204.21875 -39.203125 "/></g></g></g><g fill="#1f3a68" fill-opacity="1"><g transform="translate(2738.45892, 649.190693)"><g><path d="M 29.546875 0 L 29.546875 -40.328125 L 142.875 -40.328125 L 142.875 -357.890625 L 136.34375 -359.59375 C 117.96875 -350.507812 101.867188 -343.550781 88.046875 -338.71875 C 74.222656 -333.894531 56.519531 -329.207031 34.9375 -324.65625 L 34.9375 -369.546875 C 56.332031 -374.085938 77.492188 -380.238281 98.421875 -388 C 119.347656 -395.757812 138.332031 -404.847656 155.375 -415.265625 L 190.59375 -415.265625 L 190.59375 -40.328125 L 292 -40.328125 L 292 0 Z M 29.546875 0 "/></g></g></g><g fill="#1f3a68" fill-opacity="1"><g transform="translate(3086.456525, 649.190693)"><g><path d="M 204.21875 5.96875 C 173.738281 5.96875 146.378906 -1.367188 122.140625 -16.046875 C 97.898438 -30.722656 78.582031 -54.015625 64.1875 -85.921875 C 49.800781 -117.828125 42.609375 -158.398438 42.609375 -207.640625 C 42.609375 -256.867188 49.800781 -297.4375 64.1875 -329.34375 C 78.582031 -361.25 97.898438 -384.539062 122.140625 -399.21875 C 146.378906 -413.894531 173.738281 -421.234375 204.21875 -421.234375 C 234.707031 -421.234375 262.070312 -413.894531 286.3125 -399.21875 C 310.550781 -384.539062 329.816406 -361.25 344.109375 -329.34375 C 358.410156 -297.4375 365.5625 -256.867188 365.5625 -207.640625 C 365.5625 -158.398438 358.410156 -117.828125 344.109375 -85.921875 C 329.816406 -54.015625 310.550781 -30.722656 286.3125 -16.046875 C 262.070312 -1.367188 234.707031 5.96875 204.21875 5.96875 Z M 204.21875 -39.203125 C 240.394531 -39.203125 267.804688 -52.21875 286.453125 -78.25 C 305.109375 -104.289062 314.4375 -147.421875 314.4375 -207.640625 C 314.4375 -267.847656 305.109375 -310.972656 286.453125 -337.015625 C 267.804688 -363.054688 240.394531 -376.078125 204.21875 -376.078125 C 180.363281 -376.078125 160.289062 -370.582031 144 -359.59375 C 127.71875 -348.613281 115.269531 -330.71875 106.65625 -305.90625 C 98.039062 -281.101562 93.734375 -248.347656 93.734375 -207.640625 C 93.734375 -166.921875 98.039062 -134.15625 106.65625 -109.34375 C 115.269531 -84.539062 127.71875 -66.648438 144 -55.671875 C 160.289062 -44.691406 180.363281 -39.203125 204.21875 -39.203125 Z M 204.21875 -39.203125 "/></g></g></g><g fill="#1f3a68" fill-opacity="1"><g transform="translate(255.089301, 1183.940666)"><g><path d="M 204.21875 5.96875 C 173.738281 5.96875 146.378906 -1.367188 122.140625 -16.046875 C 97.898438 -30.722656 78.582031 -54.015625 64.1875 -85.921875 C 49.800781 -117.828125 42.609375 -158.398438 42.609375 -207.640625 C 42.609375 -256.867188 49.800781 -297.4375 64.1875 -329.34375 C 78.582031 -361.25 97.898438 -384.539062 122.140625 -399.21875 C 146.378906 -413.894531 173.738281 -421.234375 204.21875 -421.234375 C 234.707031 -421.234375 262.070312 -413.894531 286.3125 -399.21875 C 310.550781 -384.539062 329.816406 -361.25 344.109375 -329.34375 C 358.410156 -297.4375 365.5625 -256.867188 365.5625 -207.640625 C 365.5625 -158.398438 358.410156 -117.828125 344.109375 -85.921875 C 329.816406 -54.015625 310.550781 -30.722656 286.3125 -16.046875 C 262.070312 -1.367188 234.707031 5.96875 204.21875 5.96875 Z M 204.21875 -39.203125 C 240.394531 -39.203125 267.804688 -52.21875 286.453125 -78.25 C 305.109375 -104.289062 314.4375 -147.421875 314.4375 -207.640625 C 314.4375 -267.847656 305.109375 -310.972656 286.453125 -337.015625 C 267.804688 -363.054688 240.394531 -376.078125 204.21875 -376.078125 C 180.363281 -376.078125 160.289062 -370.582031 144 -359.59375 C 127.71875 -348.613281 115.269531 -330.71875 106.65625 -305.90625 C 98.039062 -281.101562 93.734375 -248.347656 93.734375 -207.640625 C 93.734375 -166.921875 98.039062 -134.15625 106.65625 -109.34375 C 115.269531 -84.539062 127.71875 -66.648438 144 -55.671875 C 160.289062 -44.691406 180.363281 -39.203125 204.21875 -39.203125 Z M 204.21875 -39.203125 "/></g></g></g><g fill="#1f3a68" fill-opacity="1"><g transform="translate(701.932948, 1183.940666)"><g><path d="M 29.546875 0 L 29.546875 -40.328125 L 142.875 -40.328125 L 142.875 -357.890625 L 136.34375 -359.59375 C 117.96875 -350.507812 101.867188 -343.550781 88.046875 -338.71875 C 74.222656 -333.894531 56.519531 -329.207031 34.9375 -324.65625 L 34.9375 -369.546875 C 56.332031 -374.085938 77.492188 -380.238281 98.421875 -388 C 119.347656 -395.757812 138.332031 -404.847656 155.375 -415.265625 L 190.59375 -415.265625 L 190.59375 -40.328125 L 292 -40.328125 L 292 0 Z M 29.546875 0 "/></g></g></g><g fill="#1f3a68" fill-opacity="1"><g transform="translate(1049.930508, 1183.940666)"><g><path d="M 204.21875 5.96875 C 173.738281 5.96875 146.378906 -1.367188 122.140625 -16.046875 C 97.898438 -30.722656 78.582031 -54.015625 64.1875 -85.921875 C 49.800781 -117.828125 42.609375 -158.398438 42.609375 -207.640625 C 42.609375 -256.867188 49.800781 -297.4375 64.1875 -329.34375 C 78.582031 -361.25 97.898438 -384.539062 122.140625 -399.21875 C 146.378906 -413.894531 173.738281 -421.234375 204.21875 -421.234375 C 234.707031 -421.234375 262.070312 -413.894531 286.3125 -399.21875 C 310.550781 -384.539062 329.816406 -361.25 344.109375 -329.34375 C 358.410156 -297.4375 365.5625 -256.867188 365.5625 -207.640625 C 365.5625 -158.398438 358.410156 -117.828125 344.109375 -85.921875 C 329.816406 -54.015625 310.550781 -30.722656 286.3125 -16.046875 C 262.070312 -1.367188 234.707031 5.96875 204.21875 5.96875 Z M 204.21875 -39.203125 C 240.394531 -39.203125 267.804688 -52.21875 286.453125 -78.25 C 305.109375 -104.289062 314.4375 -147.421875 314.4375 -207.640625 C 314.4375 -267.847656 305.109375 -310.972656 286.453125 -337.015625 C 267.804688 -363.054688 240.394531 -376.078125 204.21875 -376.078125 C 180.363281 -376.078125 160.289062 -370.582031 144 -359.59375 C 127.71875 -348.613281 115.269531 -330.71875 106.65625 -305.90625 C 98.039062 -281.101562 93.734375 -248.347656 93.734375 -207.640625 C 93.734375 -166.921875 98.039062 -134.15625 106.65625 -109.34375 C 115.269531 -84.539062 127.71875 -66.648438 144 -55.671875 C 160.289062 -44.691406 180.363281 -39.203125 204.21875 -39.203125 Z M 204.21875 -39.203125 "/></g></g></g><g fill="#1f3a68" fill-opacity="1"><g transform="translate(1496.77411, 1183.940666)"><g><path d="M 204.21875 5.96875 C 173.738281 5.96875 146.378906 -1.367188 122.140625 -16.046875 C 97.898438 -30.722656 78.582031 -54.015625 64.1875 -85.921875 C 49.800781 -117.828125 42.609375 -158.398438 42.609375 -207.640625 C 42.609375 -256.867188 49.800781 -297.4375 64.1875 -329.34375 C 78.582031 -361.25 97.898438 -384.539062 122.140625 -399.21875 C 146.378906 -413.894531 173.738281 -421.234375 204.21875 -421.234375 C 234.707031 -421.234375 262.070312 -413.894531 286.3125 -399.21875 C 310.550781 -384.539062 329.816406 -361.25 344.109375 -329.34375 C 358.410156 -297.4375 365.5625 -256.867188 365.5625 -207.640625 C 365.5625 -158.398438 358.410156 -117.828125 344.109375 -85.921875 C 329.816406 -54.015625 310.550781 -30.722656 286.3125 -16.046875 C 262.070312 -1.367188 234.707031 5.96875 204.21875 5.96875 Z M 204.21875 -39.203125 C 240.394531 -39.203125 267.804688 -52.21875 286.453125 -78.25 C 305.109375 -104.289062 314.4375 -147.421875 314.4375 -207.640625 C 314.4375 -267.847656 305.109375 -310.972656 286.453125 -337.015625 C 267.804688 -363.054688 240.394531 -376.078125 204.21875 -376.078125 C 180.363281 -376.078125 160.289062 -370.582031 144 -359.59375 C 127.71875 -348.613281 115.269531 -330.71875 106.65625 -305.90625 C 98.039062 -281.101562 93.734375 -248.347656 93.734375 -207.640625 C 93.734375 -166.921875 98.039062 -134.15625 106.65625 -109.34375 C 115.269531 -84.539062 127.71875 -66.648438 144 -55.671875 C 160.289062 -44.691406 180.363281 -39.203125 204.21875 -39.203125 Z M 204.21875 -39.203125 "/></g></g></g><g fill="#1f3a68" fill-opacity="1"><g transform="translate(1943.617713, 1183.940666)"><g><path d="M 29.546875 0 L 29.546875 -40.328125 L 142.875 -40.328125 L 142.875 -357.890625 L 136.34375 -359.59375 C 117.96875 -350.507812 101.867188 -343.550781 88.046875 -338.71875 C 74.222656 -333.894531 56.519531 -329.207031 34.9375 -324.65625 L 34.9375 -369.546875 C 56.332031 -374.085938 77.492188 -380.238281 98.421875 -388 C 119.347656 -395.757812 138.332031 -404.847656 155.375 -415.265625 L 190.59375 -415.265625 L 190.59375 -40.328125 L 292 -40.328125 L 292 0 Z M 29.546875 0 "/></g></g></g><g fill="#1f3a68" fill-opacity="1"><g transform="translate(2291.615318, 1183.940666)"><g><path d="M 204.21875 5.96875 C 173.738281 5.96875 146.378906 -1.367188 122.140625 -16.046875 C 97.898438 -30.722656 78.582031 -54.015625 64.1875 -85.921875 C 49.800781 -117.828125 42.609375 -158.398438 42.609375 -207.640625 C 42.609375 -256.867188 49.800781 -297.4375 64.1875 -329.34375 C 78.582031 -361.25 97.898438 -384.539062 122.140625 -399.21875 C 146.378906 -413.894531 173.738281 -421.234375 204.21875 -421.234375 C 234.707031 -421.234375 262.070312 -413.894531 286.3125 -399.21875 C 310.550781 -384.539062 329.816406 -361.25 344.109375 -329.34375 C 358.410156 -297.4375 365.5625 -256.867188 365.5625 -207.640625 C 365.5625 -158.398438 358.410156 -117.828125 344.109375 -85.921875 C 329.816406 -54.015625 310.550781 -30.722656 286.3125 -16.046875 C 262.070312 -1.367188 234.707031 5.96875 204.21875 5.96875 Z M 204.21875 -39.203125 C 240.394531 -39.203125 267.804688 -52.21875 286.453125 -78.25 C 305.109375 -104.289062 314.4375 -147.421875 314.4375 -207.640625 C 314.4375 -267.847656 305.109375 -310.972656 286.453125 -337.015625 C 267.804688 -363.054688 240.394531 -376.078125 204.21875 -376.078125 C 180.363281 -376.078125 160.289062 -370.582031 144 -359.59375 C 127.71875 -348.613281 115.269531 -330.71875 106.65625 -305.90625 C 98.039062 -281.101562 93.734375 -248.347656 93.734375 -207.640625 C 93.734375 -166.921875 98.039062 -134.15625 106.65625 -109.34375 C 115.269531 -84.539062 127.71875 -66.648438 144 -55.671875 C 160.289062 -44.691406 180.363281 -39.203125 204.21875 -39.203125 Z M 204.21875 -39.203125 "/></g></g></g><g fill="#1f3a68" fill-opacity="1"><g transform="translate(2738.45892, 1183.940666)"><g><path d="M 29.546875 0 L 29.546875 -40.328125 L 142.875 -40.328125 L 142.875 -357.890625 L 136.34375 -359.59375 C 117.96875 -350.507812 101.867188 -343.550781 88.046875 -338.71875 C 74.222656 -333.894531 56.519531 -329.207031 34.9375 -324.65625 L 34.9375 -369.546875 C 56.332031 -374.085938 77.492188 -380.238281 98.421875 -388 C 119.347656 -395.757812 138.332031 -404.847656 155.375 -415.265625 L 190.59375 -415.265625 L 190.59375 -40.328125 L 292 -40.328125 L 292 0 Z M 29.546875 0 "/></g></g></g><g fill="#1f3a68" fill-opacity="1"><g transform="translate(3086.456525, 1183.940666)"><g><path d="M 204.21875 5.96875 C 173.738281 5.96875 146.378906 -1.367188 122.140625 -16.046875 C 97.898438 -30.722656 78.582031 -54.015625 64.1875 -85.921875 C 49.800781 -117.828125 42.609375 -158.398438 42.609375 -207.640625 C 42.609375 -256.867188 49.800781 -297.4375 64.1875 -329.34375 C 78.582031 -361.25 97.898438 -384.539062 122.140625 -399.21875 C 146.378906 -413.894531 173.738281 -421.234375 204.21875 -421.234375 C 234.707031 -421.234375 262.070312 -413.894531 286.3125 -399.21875 C 310.550781 -384.539062 329.816406 -361.25 344.109375 -329.34375 C 358.410156 -297.4375 365.5625 -256.867188 365.5625 -207.640625 C 365.5625 -158.398438 358.410156 -117.828125 344.109375 -85.921875 C 329.816406 -54.015625 310.550781 -30.722656 286.3125 -16.046875 C 262.070312 -1.367188 234.707031 5.96875 204.21875 5.96875 Z M 204.21875 -39.203125 C 240.394531 -39.203125 267.804688 -52.21875 286.453125 -78.25 C 305.109375 -104.289062 314.4375 -147.421875 314.4375 -207.640625 C 314.4375 -267.847656 305.109375 -310.972656 286.453125 -337.015625 C 267.804688 -363.054688 240.394531 -376.078125 204.21875 -376.078125 C 180.363281 -376.078125 160.289062 -370.582031 144 -359.59375 C 127.71875 -348.613281 115.269531 -330.71875 106.65625 -305.90625 C 98.039062 -281.101562 93.734375 -248.347656 93.734375 -207.640625 C 93.734375 -166.921875 98.039062 -134.15625 106.65625 -109.34375 C 115.269531 -84.539062 127.71875 -66.648438 144 -55.671875 C 160.289062 -44.691406 180.363281 -39.203125 204.21875 -39.203125 Z M 204.21875 -39.203125 "/></g></g></g><g fill="#1f3a68" fill-opacity="1"><g transform="translate(255.089301, 1718.690639)"><g><path d="M 204.21875 5.96875 C 173.738281 5.96875 146.378906 -1.367188 122.140625 -16.046875 C 97.898438 -30.722656 78.582031 -54.015625 64.1875 -85.921875 C 49.800781 -117.828125 42.609375 -158.398438 42.609375 -207.640625 C 42.609375 -256.867188 49.800781 -297.4375 64.1875 -329.34375 C 78.582031 -361.25 97.898438 -384.539062 122.140625 -399.21875 C 146.378906 -413.894531 173.738281 -421.234375 204.21875 -421.234375 C 234.707031 -421.234375 262.070312 -413.894531 286.3125 -399.21875 C 310.550781 -384.539062 329.816406 -361.25 344.109375 -329.34375 C 358.410156 -297.4375 365.5625 -256.867188 365.5625 -207.640625 C 365.5625 -158.398438 358.410156 -117.828125 344.109375 -85.921875 C 329.816406 -54.015625 310.550781 -30.722656 286.3125 -16.046875 C 262.070312 -1.367188 234.707031 5.96875 204.21875 5.96875 Z M 204.21875 -39.203125 C 240.394531 -39.203125 267.804688 -52.21875 286.453125 -78.25 C 305.109375 -104.289062 314.4375 -147.421875 314.4375 -207.640625 C 314.4375 -267.847656 305.109375 -310.972656 286.453125 -337.015625 C 267.804688 -363.054688 240.394531 -376.078125 204.21875 -376.078125 C 180.363281 -376.078125 160.289062 -370.582031 144 -359.59375 C 127.71875 -348.613281 115.269531 -330.71875 106.65625 -305.90625 C 98.039062 -281.101562 93.734375 -248.347656 93.734375 -207.640625 C 93.734375 -166.921875 98.039062 -134.15625 106.65625 -109.34375 C 115.269531 -84.539062 127.71875 -66.648438 144 -55.671875 C 160.289062 -44.691406 180.363281 -39.203125 204.21875 -39.203125 Z M 204.21875 -39.203125 "/></g></g></g><g fill="#1f3a68" fill-opacity="1"><g transform="translate(701.932948, 1718.690639)"><g><path d="M 204.21875 5.96875 C 173.738281 5.96875 146.378906 -1.367188 122.140625 -16.046875 C 97.898438 -30.722656 78.582031 -54.015625 64.1875 -85.921875 C 49.800781 -117.828125 42.609375 -158.398438 42.609375 -207.640625 C 42.609375 -256.867188 49.800781 -297.4375 64.1875 -329.34375 C 78.582031 -361.25 97.898438 -384.539062 122.140625 -399.21875 C 146.378906 -413.894531 173.738281 -421.234375 204.21875 -421.234375 C 234.707031 -421.234375 262.070312 -413.894531 286.3125 -399.21875 C 310.550781 -384.539062 329.816406 -361.25 344.109375 -329.34375 C 358.410156 -297.4375 365.5625 -256.867188 365.5625 -207.640625 C 365.5625 -158.398438 358.410156 -117.828125 344.109375 -85.921875 C 329.816406 -54.015625 310.550781 -30.722656 286.3125 -16.046875 C 262.070312 -1.367188 234.707031 5.96875 204.21875 5.96875 Z M 204.21875 -39.203125 C 240.394531 -39.203125 267.804688 -52.21875 286.453125 -78.25 C 305.109375 -104.289062 314.4375 -147.421875 314.4375 -207.640625 C 314.4375 -267.847656 305.109375 -310.972656 286.453125 -337.015625 C 267.804688 -363.054688 240.394531 -376.078125 204.21875 -376.078125 C 180.363281 -376.078125 160.289062 -370.582031 144 -359.59375 C 127.71875 -348.613281 115.269531 -330.71875 106.65625 -305.90625 C 98.039062 -281.101562 93.734375 -248.347656 93.734375 -207.640625 C 93.734375 -166.921875 98.039062 -134.15625 106.65625 -109.34375 C 115.269531 -84.539062 127.71875 -66.648438 144 -55.671875 C 160.289062 -44.691406 180.363281 -39.203125 204.21875 -39.203125 Z M 204.21875 -39.203125 "/></g></g></g><g fill="#1f3a68" fill-opacity="1"><g transform="translate(1148.776595, 1718.690639)"><g><path d="M 204.21875 5.96875 C 173.738281 5.96875 146.378906 -1.367188 122.140625 -16.046875 C 97.898438 -30.722656 78.582031 -54.015625 64.1875 -85.921875 C 49.800781 -117.828125 42.609375 -158.398438 42.609375 -207.640625 C 42.609375 -256.867188 49.800781 -297.4375 64.1875 -329.34375 C 78.582031 -361.25 97.898438 -384.539062 122.140625 -399.21875 C 146.378906 -413.894531 173.738281 -421.234375 204.21875 -421.234375 C 234.707031 -421.234375 262.070312 -413.894531 286.3125 -399.21875 C 310.550781 -384.539062 329.816406 -361.25 344.109375 -329.34375 C 358.410156 -297.4375 365.5625 -256.867188 365.5625 -207.640625 C 365.5625 -158.398438 358.410156 -117.828125 344.109375 -85.921875 C 329.816406 -54.015625 310.550781 -30.722656 286.3125 -16.046875 C 262.070312 -1.367188 234.707031 5.96875 204.21875 5.96875 Z M 204.21875 -39.203125 C 240.394531 -39.203125 267.804688 -52.21875 286.453125 -78.25 C 305.109375 -104.289062 314.4375 -147.421875 314.4375 -207.640625 C 314.4375 -267.847656 305.109375 -310.972656 286.453125 -337.015625 C 267.804688 -363.054688 240.394531 -376.078125 204.21875 -376.078125 C 180.363281 -376.078125 160.289062 -370.582031 144 -359.59375 C 127.71875 -348.613281 115.269531 -330.71875 106.65625 -305.90625 C 98.039062 -281.101562 93.734375 -248.347656 93.734375 -207.640625 C 93.734375 -166.921875 98.039062 -134.15625 106.65625 -109.34375 C 115.269531 -84.539062 127.71875 -66.648438 144 -55.671875 C 160.289062 -44.691406 180.363281 -39.203125 204.21875 -39.203125 Z M 204.21875 -39.203125 "/></g></g></g><g fill="#1f3a68" fill-opacity="1"><g transform="translate(1595.620295, 1718.690639)"><g><path d="M 29.546875 0 L 29.546875 -40.328125 L 142.875 -40.328125 L 142.875 -357.890625 L 136.34375 -359.59375 C 117.96875 -350.507812 101.867188 -343.550781 88.046875 -338.71875 C 74.222656 -333.894531 56.519531 -329.207031 34.9375 -324.65625 L 34.9375 -369.546875 C 56.332031 -374.085938 77.492188 -380.238281 98.421875 -388 C 119.347656 -395.757812 138.332031 -404.847656 155.375 -415.265625 L 190.59375 -415.265625 L 190.59375 -40.328125 L 292 -40.328125 L 292 0 Z M 29.546875 0 "/></g></g></g><g fill="#1f3a68" fill-opacity="1"><g transform="translate(1943.6179, 1718.690639)"><g><path d="M 204.21875 5.96875 C 173.738281 5.96875 146.378906 -1.367188 122.140625 -16.046875 C 97.898438 -30.722656 78.582031 -54.015625 64.1875 -85.921875 C 49.800781 -117.828125 42.609375 -158.398438 42.609375 -207.640625 C 42.609375 -256.867188 49.800781 -297.4375 64.1875 -329.34375 C 78.582031 -361.25 97.898438 -384.539062 122.140625 -399.21875 C 146.378906 -413.894531 173.738281 -421.234375 204.21875 -421.234375 C 234.707031 -421.234375 262.070312 -413.894531 286.3125 -399.21875 C 310.550781 -384.539062 329.816406 -361.25 344.109375 -329.34375 C 358.410156 -297.4375 365.5625 -256.867188 365.5625 -207.640625 C 365.5625 -158.398438 358.410156 -117.828125 344.109375 -85.921875 C 329.816406 -54.015625 310.550781 -30.722656 286.3125 -16.046875 C 262.070312 -1.367188 234.707031 5.96875 204.21875 5.96875 Z M 204.21875 -39.203125 C 240.394531 -39.203125 267.804688 -52.21875 286.453125 -78.25 C 305.109375 -104.289062 314.4375 -147.421875 314.4375 -207.640625 C 314.4375 -267.847656 305.109375 -310.972656 286.453125 -337.015625 C 267.804688 -363.054688 240.394531 -376.078125 204.21875 -376.078125 C 180.363281 -376.078125 160.289062 -370.582031 144 -359.59375 C 127.71875 -348.613281 115.269531 -330.71875 106.65625 -305.90625 C 98.039062 -281.101562 93.734375 -248.347656 93.734375 -207.640625 C 93.734375 -166.921875 98.039062 -134.15625 106.65625 -109.34375 C 115.269531 -84.539062 127.71875 -66.648438 144 -55.671875 C 160.289062 -44.691406 180.363281 -39.203125 204.21875 -39.203125 Z M 204.21875 -39.203125 "/></g></g></g><g fill="#1f3a68" fill-opacity="1"><g transform="translate(2390.461503, 1718.690639)"><g><path d="M 29.546875 0 L 29.546875 -40.328125 L 142.875 -40.328125 L 142.875 -357.890625 L 136.34375 -359.59375 C 117.96875 -350.507812 101.867188 -343.550781 88.046875 -338.71875 C 74.222656 -333.894531 56.519531 -329.207031 34.9375 -324.65625 L 34.9375 -369.546875 C 56.332031 -374.085938 77.492188 -380.238281 98.421875 -388 C 119.347656 -395.757812 138.332031 -404.847656 155.375 -415.265625 L 190.59375 -415.265625 L 190.59375 -40.328125 L 292 -40.328125 L 292 0 Z M 29.546875 0 "/></g></g></g><g fill="#1f3a68" fill-opacity="1"><g transform="translate(2738.459107, 1718.690639)"><g><path d="M 204.21875 5.96875 C 173.738281 5.96875 146.378906 -1.367188 122.140625 -16.046875 C 97.898438 -30.722656 78.582031 -54.015625 64.1875 -85.921875 C 49.800781 -117.828125 42.609375 -158.398438 42.609375 -207.640625 C 42.609375 -256.867188 49.800781 -297.4375 64.1875 -329.34375 C 78.582031 -361.25 97.898438 -384.539062 122.140625 -399.21875 C 146.378906 -413.894531 173.738281 -421.234375 204.21875 -421.234375 C 234.707031 -421.234375 262.070312 -413.894531 286.3125 -399.21875 C 310.550781 -384.539062 329.816406 -361.25 344.109375 -329.34375 C 358.410156 -297.4375 365.5625 -256.867188 365.5625 -207.640625 C 365.5625 -158.398438 358.410156 -117.828125 344.109375 -85.921875 C 329.816406 -54.015625 310.550781 -30.722656 286.3125 -16.046875 C 262.070312 -1.367188 234.707031 5.96875 204.21875 5.96875 Z M 204.21875 -39.203125 C 240.394531 -39.203125 267.804688 -52.21875 286.453125 -78.25 C 305.109375 -104.289062 314.4375 -147.421875 314.4375 -207.640625 C 314.4375 -267.847656 305.109375 -310.972656 286.453125 -337.015625 C 267.804688 -363.054688 240.394531 -376.078125 204.21875 -376.078125 C 180.363281 -376.078125 160.289062 -370.582031 144 -359.59375 C 127.71875 -348.613281 115.269531 -330.71875 106.65625 -305.90625 C 98.039062 -281.101562 93.734375 -248.347656 93.734375 -207.640625 C 93.734375 -166.921875 98.039062 -134.15625 106.65625 -109.34375 C 115.269531 -84.539062 127.71875 -66.648438 144 -55.671875 C 160.289062 -44.691406 180.363281 -39.203125 204.21875 -39.203125 Z M 204.21875 -39.203125 "/></g></g></g><g fill="#1f3a68" fill-opacity="1"><g transform="translate(3185.30271, 1718.690639)"><g><path d="M 29.546875 0 L 29.546875 -40.328125 L 142.875 -40.328125 L 142.875 -357.890625 L 136.34375 -359.59375 C 117.96875 -350.507812 101.867188 -343.550781 88.046875 -338.71875 C 74.222656 -333.894531 56.519531 -329.207031 34.9375 -324.65625 L 34.9375 -369.546875 C 56.332031 -374.085938 77.492188 -380.238281 98.421875 -388 C 119.347656 -395.757812 138.332031 -404.847656 155.375 -415.265625 L 190.59375 -415.265625 L 190.59375 -40.328125 L 292 -40.328125 L 292 0 Z M 29.546875 0 "/></g></g></g><g fill="#1f3a68" fill-opacity="1"><g transform="translate(255.089301, 2253.440612)"><g><path d="M 204.21875 5.96875 C 173.738281 5.96875 146.378906 -1.367188 122.140625 -16.046875 C 97.898438 -30.722656 78.582031 -54.015625 64.1875 -85.921875 C 49.800781 -117.828125 42.609375 -158.398438 42.609375 -207.640625 C 42.609375 -256.867188 49.800781 -297.4375 64.1875 -329.34375 C 78.582031 -361.25 97.898438 -384.539062 122.140625 -399.21875 C 146.378906 -413.894531 173.738281 -421.234375 204.21875 -421.234375 C 234.707031 -421.234375 262.070312 -413.894531 286.3125 -399.21875 C 310.550781 -384.539062 329.816406 -361.25 344.109375 -329.34375 C 358.410156 -297.4375 365.5625 -256.867188 365.5625 -207.640625 C 365.5625 -158.398438 358.410156 -117.828125 344.109375 -85.921875 C 329.816406 -54.015625 310.550781 -30.722656 286.3125 -16.046875 C 262.070312 -1.367188 234.707031 5.96875 204.21875 5.96875 Z M 204.21875 -39.203125 C 240.394531 -39.203125 267.804688 -52.21875 286.453125 -78.25 C 305.109375 -104.289062 314.4375 -147.421875 314.4375 -207.640625 C 314.4375 -267.847656 305.109375 -310.972656 286.453125 -337.015625 C 267.804688 -363.054688 240.394531 -376.078125 204.21875 -376.078125 C 180.363281 -376.078125 160.289062 -370.582031 144 -359.59375 C 127.71875 -348.613281 115.269531 -330.71875 106.65625 -305.90625 C 98.039062 -281.101562 93.734375 -248.347656 93.734375 -207.640625 C 93.734375 -166.921875 98.039062 -134.15625 106.65625 -109.34375 C 115.269531 -84.539062 127.71875 -66.648438 144 -55.671875 C 160.289062 -44.691406 180.363281 -39.203125 204.21875 -39.203125 Z M 204.21875 -39.203125 "/></g></g></g><g fill="#1f3a68" fill-opacity="1"><g transform="translate(701.932948, 2253.440612)"><g><path d="M 29.546875 0 L 29.546875 -40.328125 L 142.875 -40.328125 L 142.875 -357.890625 L 136.34375 -359.59375 C 117.96875 -350.507812 101.867188 -343.550781 88.046875 -338.71875 C 74.222656 -333.894531 56.519531 -329.207031 34.9375 -324.65625 L 34.9375 -369.546875 C 56.332031 -374.085938 77.492188 -380.238281 98.421875 -388 C 119.347656 -395.757812 138.332031 -404.847656 155.375 -415.265625 L 190.59375 -415.265625 L 190.59375 -40.328125 L 292 -40.328125 L 292 0 Z M 29.546875 0 "/></g></g></g><g fill="#1f3a68" fill-opacity="1"><g transform="translate(1049.930508, 2253.440612)"><g><path d="M 204.21875 5.96875 C 173.738281 5.96875 146.378906 -1.367188 122.140625 -16.046875 C 97.898438 -30.722656 78.582031 -54.015625 64.1875 -85.921875 C 49.800781 -117.828125 42.609375 -158.398438 42.609375 -207.640625 C 42.609375 -256.867188 49.800781 -297.4375 64.1875 -329.34375 C 78.582031 -361.25 97.898438 -384.539062 122.140625 -399.21875 C 146.378906 -413.894531 173.738281 -421.234375 204.21875 -421.234375 C 234.707031 -421.234375 262.070312 -413.894531 286.3125 -399.21875 C 310.550781 -384.539062 329.816406 -361.25 344.109375 -329.34375 C 358.410156 -297.4375 365.5625 -256.867188 365.5625 -207.640625 C 365.5625 -158.398438 358.410156 -117.828125 344.109375 -85.921875 C 329.816406 -54.015625 310.550781 -30.722656 286.3125 -16.046875 C 262.070312 -1.367188 234.707031 5.96875 204.21875 5.96875 Z M 204.21875 -39.203125 C 240.394531 -39.203125 267.804688 -52.21875 286.453125 -78.25 C 305.109375 -104.289062 314.4375 -147.421875 314.4375 -207.640625 C 314.4375 -267.847656 305.109375 -310.972656 286.453125 -337.015625 C 267.804688 -363.054688 240.394531 -376.078125 204.21875 -376.078125 C 180.363281 -376.078125 160.289062 -370.582031 144 -359.59375 C 127.71875 -348.613281 115.269531 -330.71875 106.65625 -305.90625 C 98.039062 -281.101562 93.734375 -248.347656 93.734375 -207.640625 C 93.734375 -166.921875 98.039062 -134.15625 106.65625 -109.34375 C 115.269531 -84.539062 127.71875 -66.648438 144 -55.671875 C 160.289062 -44.691406 180.363281 -39.203125 204.21875 -39.203125 Z M 204.21875 -39.203125 "/></g></g></g><g fill="#1f3a68" fill-opacity="1"><g transform="translate(1496.77411, 2253.440612)"><g><path d="M 204.21875 5.96875 C 173.738281 5.96875 146.378906 -1.367188 122.140625 -16.046875 C 97.898438 -30.722656 78.582031 -54.015625 64.1875 -85.921875 C 49.800781 -117.828125 42.609375 -158.398438 42.609375 -207.640625 C 42.609375 -256.867188 49.800781 -297.4375 64.1875 -329.34375 C 78.582031 -361.25 97.898438 -384.539062 122.140625 -399.21875 C 146.378906 -413.894531 173.738281 -421.234375 204.21875 -421.234375 C 234.707031 -421.234375 262.070312 -413.894531 286.3125 -399.21875 C 310.550781 -384.539062 329.816406 -361.25 344.109375 -329.34375 C 358.410156 -297.4375 365.5625 -256.867188 365.5625 -207.640625 C 365.5625 -158.398438 358.410156 -117.828125 344.109375 -85.921875 C 329.816406 -54.015625 310.550781 -30.722656 286.3125 -16.046875 C 262.070312 -1.367188 234.707031 5.96875 204.21875 5.96875 Z M 204.21875 -39.203125 C 240.394531 -39.203125 267.804688 -52.21875 286.453125 -78.25 C 305.109375 -104.289062 314.4375 -147.421875 314.4375 -207.640625 C 314.4375 -267.847656 305.109375 -310.972656 286.453125 -337.015625 C 267.804688 -363.054688 240.394531 -376.078125 204.21875 -376.078125 C 180.363281 -376.078125 160.289062 -370.582031 144 -359.59375 C 127.71875 -348.613281 115.269531 -330.71875 106.65625 -305.90625 C 98.039062 -281.101562 93.734375 -248.347656 93.734375 -207.640625 C 93.734375 -166.921875 98.039062 -134.15625 106.65625 -109.34375 C 115.269531 -84.539062 127.71875 -66.648438 144 -55.671875 C 160.289062 -44.691406 180.363281 -39.203125 204.21875 -39.203125 Z M 204.21875 -39.203125 "/></g></g></g><g fill="#1f3a68" fill-opacity="1"><g transform="translate(1943.617713, 2253.440612)"><g><path d="M 204.21875 5.96875 C 173.738281 5.96875 146.378906 -1.367188 122.140625 -16.046875 C 97.898438 -30.722656 78.582031 -54.015625 64.1875 -85.921875 C 49.800781 -117.828125 42.609375 -158.398438 42.609375 -207.640625 C 42.609375 -256.867188 49.800781 -297.4375 64.1875 -329.34375 C 78.582031 -361.25 97.898438 -384.539062 122.140625 -399.21875 C 146.378906 -413.894531 173.738281 -421.234375 204.21875 -421.234375 C 234.707031 -421.234375 262.070312 -413.894531 286.3125 -399.21875 C 310.550781 -384.539062 329.816406 -361.25 344.109375 -329.34375 C 358.410156 -297.4375 365.5625 -256.867188 365.5625 -207.640625 C 365.5625 -158.398438 358.410156 -117.828125 344.109375 -85.921875 C 329.816406 -54.015625 310.550781 -30.722656 286.3125 -16.046875 C 262.070312 -1.367188 234.707031 5.96875 204.21875 5.96875 Z M 204.21875 -39.203125 C 240.394531 -39.203125 267.804688 -52.21875 286.453125 -78.25 C 305.109375 -104.289062 314.4375 -147.421875 314.4375 -207.640625 C 314.4375 -267.847656 305.109375 -310.972656 286.453125 -337.015625 C 267.804688 -363.054688 240.394531 -376.078125 204.21875 -376.078125 C 180.363281 -376.078125 160.289062 -370.582031 144 -359.59375 C 127.71875 -348.613281 115.269531 -330.71875 106.65625 -305.90625 C 98.039062 -281.101562 93.734375 -248.347656 93.734375 -207.640625 C 93.734375 -166.921875 98.039062 -134.15625 106.65625 -109.34375 C 115.269531 -84.539062 127.71875 -66.648438 144 -55.671875 C 160.289062 -44.691406 180.363281 -39.203125 204.21875 -39.203125 Z M 204.21875 -39.203125 "/></g></g></g><g fill="#1f3a68" fill-opacity="1"><g transform="translate(2390.461315, 2253.440612)"><g><path d="M 29.546875 0 L 29.546875 -40.328125 L 142.875 -40.328125 L 142.875 -357.890625 L 136.34375 -359.59375 C 117.96875 -350.507812 101.867188 -343.550781 88.046875 -338.71875 C 74.222656 -333.894531 56.519531 -329.207031 34.9375 -324.65625 L 34.9375 -369.546875 C 56.332031 -374.085938 77.492188 -380.238281 98.421875 -388 C 119.347656 -395.757812 138.332031 -404.847656 155.375 -415.265625 L 190.59375 -415.265625 L 190.59375 -40.328125 L 292 -40.328125 L 292 0 Z M 29.546875 0 "/></g></g></g><g fill="#1f3a68" fill-opacity="1"><g transform="translate(2738.45892, 2253.440612)"><g><path d="M 204.21875 5.96875 C 173.738281 5.96875 146.378906 -1.367188 122.140625 -16.046875 C 97.898438 -30.722656 78.582031 -54.015625 64.1875 -85.921875 C 49.800781 -117.828125 42.609375 -158.398438 42.609375 -207.640625 C 42.609375 -256.867188 49.800781 -297.4375 64.1875 -329.34375 C 78.582031 -361.25 97.898438 -384.539062 122.140625 -399.21875 C 146.378906 -413.894531 173.738281 -421.234375 204.21875 -421.234375 C 234.707031 -421.234375 262.070312 -413.894531 286.3125 -399.21875 C 310.550781 -384.539062 329.816406 -361.25 344.109375 -329.34375 C 358.410156 -297.4375 365.5625 -256.867188 365.5625 -207.640625 C 365.5625 -158.398438 358.410156 -117.828125 344.109375 -85.921875 C 329.816406 -54.015625 310.550781 -30.722656 286.3125 -16.046875 C 262.070312 -1.367188 234.707031 5.96875 204.21875 5.96875 Z M 204.21875 -39.203125 C 240.394531 -39.203125 267.804688 -52.21875 286.453125 -78.25 C 305.109375 -104.289062 314.4375 -147.421875 314.4375 -207.640625 C 314.4375 -267.847656 305.109375 -310.972656 286.453125 -337.015625 C 267.804688 -363.054688 240.394531 -376.078125 204.21875 -376.078125 C 180.363281 -376.078125 160.289062 -370.582031 144 -359.59375 C 127.71875 -348.613281 115.269531 -330.71875 106.65625 -305.90625 C 98.039062 -281.101562 93.734375 -248.347656 93.734375 -207.640625 C 93.734375 -166.921875 98.039062 -134.15625 106.65625 -109.34375 C 115.269531 -84.539062 127.71875 -66.648438 144 -55.671875 C 160.289062 -44.691406 180.363281 -39.203125 204.21875 -39.203125 Z M 204.21875 -39.203125 "/></g></g></g><g fill="#1f3a68" fill-opacity="1"><g transform="translate(3185.302522, 2253.440612)"><g><path d="M 29.546875 0 L 29.546875 -40.328125 L 142.875 -40.328125 L 142.875 -357.890625 L 136.34375 -359.59375 C 117.96875 -350.507812 101.867188 -343.550781 88.046875 -338.71875 C 74.222656 -333.894531 56.519531 -329.207031 34.9375 -324.65625 L 34.9375 -369.546875 C 56.332031 -374.085938 77.492188 -380.238281 98.421875 -388 C 119.347656 -395.757812 138.332031 -404.847656 155.375 -415.265625 L 190.59375 -415.265625 L 190.59375 -40.328125 L 292 -40.328125 L 292 0 Z M 29.546875 0 "/></g></g></g></svg>