<svg xmlns="http://www.w3.org/2000/svg" xmlns:xlink="http://www.w3.org/1999/xlink" width="5000" zoomAndPan="magnify" viewBox="0 0 3750 3749.999967" height="5000" preserveAspectRatio="xMidYMid meet" version="1.0"><defs><g/><clipPath id="910a0768c7"><path d="M 102 2214 L 3648 2214 L 3648 3446.832031 L 102 3446.832031 Z M 102 2214 " clip-rule="nonzero"/></clipPath></defs><path fill="#ffffff" d="M 3397.742188 3351.660156 L 3397.742188 2336.660156 L 3494.027344 2336.660156 L 3494.027344 3351.660156 L 3397.742188 3351.660156 " fill-opacity="1" fill-rule="nonzero"/><path fill="#ffffff" d="M 3135.148438 3351.660156 L 3135.148438 2336.660156 L 3231.433594 2336.660156 L 3231.433594 3351.660156 L 3135.148438 3351.660156 " fill-opacity="1" fill-rule="nonzero"/><path fill="#ffffff" d="M 509.53125 3316.808594 L 509.53125 2301.65625 L 605.8125 2301.65625 L 605.8125 3316.808594 L 509.53125 3316.808594 " fill-opacity="1" fill-rule="nonzero"/><path fill="#ffffff" d="M 246.9375 3316.808594 L 246.9375 2301.65625 L 343.21875 2301.65625 L 343.21875 3316.808594 L 246.9375 3316.808594 " fill-opacity="1" fill-rule="nonzero"/><path fill="#ffffff" d="M 2289.535156 3267.898438 C 2312.199219 3252.269531 2335.800781 3235.859375 2360.65625 3221.796875 L 2360.65625 2393.390625 C 2327.050781 2378.542969 2295.632812 2359.789062 2264.371094 2340.097656 L 2264.371094 3284.148438 C 2272.8125 3278.992188 2281.25 3273.523438 2289.535156 3267.898438 " fill-opacity="1" fill-rule="nonzero"/><path fill="#ffffff" d="M 1983.175781 3305.871094 L 1983.175781 2290.714844 L 2079.460938 2290.714844 L 2079.460938 3305.871094 L 1983.175781 3305.871094 " fill-opacity="1" fill-rule="nonzero"/><path fill="#ffffff" d="M 1701.984375 3338.53125 L 1701.984375 2323.535156 L 1798.269531 2323.535156 L 1798.269531 3338.53125 L 1701.984375 3338.53125 " fill-opacity="1" fill-rule="nonzero"/><path fill="#ffffff" d="M 1517.074219 3306.496094 L 1517.074219 2384.792969 C 1484.5625 2408.234375 1453.300781 2433.550781 1420.945312 2456.523438 L 1420.945312 3249.613281 C 1452.675781 3268.835938 1484.875 3287.898438 1517.074219 3306.496094 " fill-opacity="1" fill-rule="nonzero"/><g clip-path="url(#910a0768c7)"><path fill="#ffffff" d="M 102.667969 3355.722656 C 102.667969 3304.933594 143.617188 3263.832031 194.417969 3263.832031 C 570.488281 3263.832031 761.023438 3025.671875 962.972656 2773.757812 C 1172.734375 2511.6875 1410.628906 2214.613281 1874.855469 2214.613281 C 2339.085938 2214.613281 2576.980469 2511.6875 2786.742188 2773.757812 C 2988.691406 3025.671875 3179.382812 3263.832031 3555.296875 3263.832031 C 3605.941406 3263.832031 3647.125 3304.933594 3647.125 3355.722656 C 3647.125 3406.511719 3605.941406 3447.609375 3555.296875 3447.609375 C 3091.070312 3447.609375 2853.171875 3150.535156 2643.253906 2888.464844 C 2441.464844 2636.394531 2250.773438 2398.390625 1874.855469 2398.390625 C 1498.941406 2398.390625 1308.25 2636.394531 1106.304688 2888.464844 C 896.542969 3150.535156 658.644531 3447.609375 194.417969 3447.609375 C 143.617188 3447.609375 102.667969 3406.511719 102.667969 3355.722656 " fill-opacity="1" fill-rule="nonzero"/><path fill="#4eb1cb" d="M 102.667969 2306.5 C 102.667969 2255.710938 143.617188 2214.613281 194.417969 2214.613281 C 658.644531 2214.613281 896.542969 2511.6875 1106.304688 2773.757812 C 1308.25 3025.671875 1498.941406 3263.832031 1874.855469 3263.832031 C 2250.773438 3263.832031 2441.464844 3025.671875 2643.253906 2773.757812 C 2853.171875 2511.6875 3091.070312 2214.613281 3555.296875 2214.613281 C 3605.941406 2214.613281 3647.125 2255.710938 3647.125 2306.5 C 3647.125 2357.289062 3605.941406 2398.390625 3555.296875 2398.390625 C 3179.382812 2398.390625 2988.691406 2636.394531 2786.742188 2888.464844 C 2576.980469 3150.535156 2339.085938 3447.609375 1874.855469 3447.609375 C 1410.628906 3447.609375 1172.734375 3150.535156 962.972656 2888.464844 C 761.023438 2636.394531 570.488281 2398.390625 194.417969 2398.390625 C 143.617188 2398.390625 102.667969 2357.289062 102.667969 2306.5 " fill-opacity="1" fill-rule="nonzero"/></g><g fill="#ffffff" fill-opacity="1"><g transform="translate(206.461838, 1554.862395)"><g><path d="M 132.96875 3.890625 C 113.125 3.890625 95.3125 -0.882812 79.53125 -10.4375 C 63.75 -20 51.171875 -35.164062 41.796875 -55.9375 C 32.421875 -76.71875 27.734375 -103.132812 27.734375 -135.1875 C 27.734375 -167.25 32.421875 -193.664062 41.796875 -214.4375 C 51.171875 -235.21875 63.75 -250.382812 79.53125 -259.9375 C 95.3125 -269.488281 113.125 -274.265625 132.96875 -274.265625 C 152.820312 -274.265625 170.640625 -269.488281 186.421875 -259.9375 C 202.203125 -250.382812 214.742188 -235.21875 224.046875 -214.4375 C 233.359375 -193.664062 238.015625 -167.25 238.015625 -135.1875 C 238.015625 -103.132812 233.359375 -76.71875 224.046875 -55.9375 C 214.742188 -35.164062 202.203125 -20 186.421875 -10.4375 C 170.640625 -0.882812 152.820312 3.890625 132.96875 3.890625 Z M 132.96875 -25.515625 C 156.519531 -25.515625 174.367188 -33.988281 186.515625 -50.9375 C 198.660156 -67.894531 204.734375 -95.976562 204.734375 -135.1875 C 204.734375 -174.394531 198.660156 -202.472656 186.515625 -219.421875 C 174.367188 -236.378906 156.519531 -244.859375 132.96875 -244.859375 C 117.4375 -244.859375 104.367188 -241.28125 93.765625 -234.125 C 83.160156 -226.976562 75.050781 -215.328125 69.4375 -199.171875 C 63.832031 -183.023438 61.03125 -161.695312 61.03125 -135.1875 C 61.03125 -108.6875 63.832031 -87.359375 69.4375 -71.203125 C 75.050781 -55.046875 83.160156 -43.390625 93.765625 -36.234375 C 104.367188 -29.085938 117.4375 -25.515625 132.96875 -25.515625 Z M 132.96875 -25.515625 "/></g></g><g transform="translate(472.406484, 1554.862395)"><g><path d="M 132.96875 3.890625 C 113.125 3.890625 95.3125 -0.882812 79.53125 -10.4375 C 63.75 -20 51.171875 -35.164062 41.796875 -55.9375 C 32.421875 -76.71875 27.734375 -103.132812 27.734375 -135.1875 C 27.734375 -167.25 32.421875 -193.664062 41.796875 -214.4375 C 51.171875 -235.21875 63.75 -250.382812 79.53125 -259.9375 C 95.3125 -269.488281 113.125 -274.265625 132.96875 -274.265625 C 152.820312 -274.265625 170.640625 -269.488281 186.421875 -259.9375 C 202.203125 -250.382812 214.742188 -235.21875 224.046875 -214.4375 C 233.359375 -193.664062 238.015625 -167.25 238.015625 -135.1875 C 238.015625 -103.132812 233.359375 -76.71875 224.046875 -55.9375 C 214.742188 -35.164062 202.203125 -20 186.421875 -10.4375 C 170.640625 -0.882812 152.820312 3.890625 132.96875 3.890625 Z M 132.96875 -25.515625 C 156.519531 -25.515625 174.367188 -33.988281 186.515625 -50.9375 C 198.660156 -67.894531 204.734375 -95.976562 204.734375 -135.1875 C 204.734375 -174.394531 198.660156 -202.472656 186.515625 -219.421875 C 174.367188 -236.378906 156.519531 -244.859375 132.96875 -244.859375 C 117.4375 -244.859375 104.367188 -241.28125 93.765625 -234.125 C 83.160156 -226.976562 75.050781 -215.328125 69.4375 -199.171875 C 63.832031 -183.023438 61.03125 -161.695312 61.03125 -135.1875 C 61.03125 -108.6875 63.832031 -87.359375 69.4375 -71.203125 C 75.050781 -55.046875 83.160156 -43.390625 93.765625 -36.234375 C 104.367188 -29.085938 117.4375 -25.515625 132.96875 -25.515625 Z M 132.96875 -25.515625 "/></g></g><g transform="translate(738.351131, 1554.862395)"><g><path d="M 132.96875 3.890625 C 113.125 3.890625 95.3125 -0.882812 79.53125 -10.4375 C 63.75 -20 51.171875 -35.164062 41.796875 -55.9375 C 32.421875 -76.71875 27.734375 -103.132812 27.734375 -135.1875 C 27.734375 -167.25 32.421875 -193.664062 41.796875 -214.4375 C 51.171875 -235.21875 63.75 -250.382812 79.53125 -259.9375 C 95.3125 -269.488281 113.125 -274.265625 132.96875 -274.265625 C 152.820312 -274.265625 170.640625 -269.488281 186.421875 -259.9375 C 202.203125 -250.382812 214.742188 -235.21875 224.046875 -214.4375 C 233.359375 -193.664062 238.015625 -167.25 238.015625 -135.1875 C 238.015625 -103.132812 233.359375 -76.71875 224.046875 -55.9375 C 214.742188 -35.164062 202.203125 -20 186.421875 -10.4375 C 170.640625 -0.882812 152.820312 3.890625 132.96875 3.890625 Z M 132.96875 -25.515625 C 156.519531 -25.515625 174.367188 -33.988281 186.515625 -50.9375 C 198.660156 -67.894531 204.734375 -95.976562 204.734375 -135.1875 C 204.734375 -174.394531 198.660156 -202.472656 186.515625 -219.421875 C 174.367188 -236.378906 156.519531 -244.859375 132.96875 -244.859375 C 117.4375 -244.859375 104.367188 -241.28125 93.765625 -234.125 C 83.160156 -226.976562 75.050781 -215.328125 69.4375 -199.171875 C 63.832031 -183.023438 61.03125 -161.695312 61.03125 -135.1875 C 61.03125 -108.6875 63.832031 -87.359375 69.4375 -71.203125 C 75.050781 -55.046875 83.160156 -43.390625 93.765625 -36.234375 C 104.367188 -29.085938 117.4375 -25.515625 132.96875 -25.515625 Z M 132.96875 -25.515625 "/></g></g><g transform="translate(1004.295777, 1554.862395)"><g><path d="M 19.234375 0 L 19.234375 -26.265625 L 93.03125 -26.265625 L 93.03125 -233.03125 L 88.765625 -234.140625 C 76.804688 -228.222656 66.328125 -223.691406 57.328125 -220.546875 C 48.328125 -217.398438 36.800781 -214.347656 22.75 -211.390625 L 22.75 -240.609375 C 36.675781 -243.566406 50.453125 -247.570312 64.078125 -252.625 C 77.703125 -257.6875 90.066406 -263.609375 101.171875 -270.390625 L 124.09375 -270.390625 L 124.09375 -26.265625 L 190.125 -26.265625 L 190.125 0 Z M 19.234375 0 "/></g></g><g transform="translate(1205.881078, 1554.862395)"><g><path d="M 132.96875 3.890625 C 113.125 3.890625 95.3125 -0.882812 79.53125 -10.4375 C 63.75 -20 51.171875 -35.164062 41.796875 -55.9375 C 32.421875 -76.71875 27.734375 -103.132812 27.734375 -135.1875 C 27.734375 -167.25 32.421875 -193.664062 41.796875 -214.4375 C 51.171875 -235.21875 63.75 -250.382812 79.53125 -259.9375 C 95.3125 -269.488281 113.125 -274.265625 132.96875 -274.265625 C 152.820312 -274.265625 170.640625 -269.488281 186.421875 -259.9375 C 202.203125 -250.382812 214.742188 -235.21875 224.046875 -214.4375 C 233.359375 -193.664062 238.015625 -167.25 238.015625 -135.1875 C 238.015625 -103.132812 233.359375 -76.71875 224.046875 -55.9375 C 214.742188 -35.164062 202.203125 -20 186.421875 -10.4375 C 170.640625 -0.882812 152.820312 3.890625 132.96875 3.890625 Z M 132.96875 -25.515625 C 156.519531 -25.515625 174.367188 -33.988281 186.515625 -50.9375 C 198.660156 -67.894531 204.734375 -95.976562 204.734375 -135.1875 C 204.734375 -174.394531 198.660156 -202.472656 186.515625 -219.421875 C 174.367188 -236.378906 156.519531 -244.859375 132.96875 -244.859375 C 117.4375 -244.859375 104.367188 -241.28125 93.765625 -234.125 C 83.160156 -226.976562 75.050781 -215.328125 69.4375 -199.171875 C 63.832031 -183.023438 61.03125 -161.695312 61.03125 -135.1875 C 61.03125 -108.6875 63.832031 -87.359375 69.4375 -71.203125 C 75.050781 -55.046875 83.160156 -43.390625 93.765625 -36.234375 C 104.367188 -29.085938 117.4375 -25.515625 132.96875 -25.515625 Z M 132.96875 -25.515625 "/></g></g><g transform="translate(1471.825725, 1554.862395)"><g><path d="M 19.234375 0 L 19.234375 -26.265625 L 93.03125 -26.265625 L 93.03125 -233.03125 L 88.765625 -234.140625 C 76.804688 -228.222656 66.328125 -223.691406 57.328125 -220.546875 C 48.328125 -217.398438 36.800781 -214.347656 22.75 -211.390625 L 22.75 -240.609375 C 36.675781 -243.566406 50.453125 -247.570312 64.078125 -252.625 C 77.703125 -257.6875 90.066406 -263.609375 101.171875 -270.390625 L 124.09375 -270.390625 L 124.09375 -26.265625 L 190.125 -26.265625 L 190.125 0 Z M 19.234375 0 "/></g></g><g transform="translate(1673.411025, 1554.862395)"><g><path d="M 132.96875 3.890625 C 113.125 3.890625 95.3125 -0.882812 79.53125 -10.4375 C 63.75 -20 51.171875 -35.164062 41.796875 -55.9375 C 32.421875 -76.71875 27.734375 -103.132812 27.734375 -135.1875 C 27.734375 -167.25 32.421875 -193.664062 41.796875 -214.4375 C 51.171875 -235.21875 63.75 -250.382812 79.53125 -259.9375 C 95.3125 -269.488281 113.125 -274.265625 132.96875 -274.265625 C 152.820312 -274.265625 170.640625 -269.488281 186.421875 -259.9375 C 202.203125 -250.382812 214.742188 -235.21875 224.046875 -214.4375 C 233.359375 -193.664062 238.015625 -167.25 238.015625 -135.1875 C 238.015625 -103.132812 233.359375 -76.71875 224.046875 -55.9375 C 214.742188 -35.164062 202.203125 -20 186.421875 -10.4375 C 170.640625 -0.882812 152.820312 3.890625 132.96875 3.890625 Z M 132.96875 -25.515625 C 156.519531 -25.515625 174.367188 -33.988281 186.515625 -50.9375 C 198.660156 -67.894531 204.734375 -95.976562 204.734375 -135.1875 C 204.734375 -174.394531 198.660156 -202.472656 186.515625 -219.421875 C 174.367188 -236.378906 156.519531 -244.859375 132.96875 -244.859375 C 117.4375 -244.859375 104.367188 -241.28125 93.765625 -234.125 C 83.160156 -226.976562 75.050781 -215.328125 69.4375 -199.171875 C 63.832031 -183.023438 61.03125 -161.695312 61.03125 -135.1875 C 61.03125 -108.6875 63.832031 -87.359375 69.4375 -71.203125 C 75.050781 -55.046875 83.160156 -43.390625 93.765625 -36.234375 C 104.367188 -29.085938 117.4375 -25.515625 132.96875 -25.515625 Z M 132.96875 -25.515625 "/></g></g><g transform="translate(1939.355672, 1554.862395)"><g><path d="M 19.234375 0 L 19.234375 -26.265625 L 93.03125 -26.265625 L 93.03125 -233.03125 L 88.765625 -234.140625 C 76.804688 -228.222656 66.328125 -223.691406 57.328125 -220.546875 C 48.328125 -217.398438 36.800781 -214.347656 22.75 -211.390625 L 22.75 -240.609375 C 36.675781 -243.566406 50.453125 -247.570312 64.078125 -252.625 C 77.703125 -257.6875 90.066406 -263.609375 101.171875 -270.390625 L 124.09375 -270.390625 L 124.09375 -26.265625 L 190.125 -26.265625 L 190.125 0 Z M 19.234375 0 "/></g></g><g transform="translate(2140.940973, 1554.862395)"><g><path d="M 19.234375 0 L 19.234375 -26.265625 L 93.03125 -26.265625 L 93.03125 -233.03125 L 88.765625 -234.140625 C 76.804688 -228.222656 66.328125 -223.691406 57.328125 -220.546875 C 48.328125 -217.398438 36.800781 -214.347656 22.75 -211.390625 L 22.75 -240.609375 C 36.675781 -243.566406 50.453125 -247.570312 64.078125 -252.625 C 77.703125 -257.6875 90.066406 -263.609375 101.171875 -270.390625 L 124.09375 -270.390625 L 124.09375 -26.265625 L 190.125 -26.265625 L 190.125 0 Z M 19.234375 0 "/></g></g><g transform="translate(2342.526273, 1554.862395)"><g><path d="M 19.234375 0 L 19.234375 -26.265625 L 93.03125 -26.265625 L 93.03125 -233.03125 L 88.765625 -234.140625 C 76.804688 -228.222656 66.328125 -223.691406 57.328125 -220.546875 C 48.328125 -217.398438 36.800781 -214.347656 22.75 -211.390625 L 22.75 -240.609375 C 36.675781 -243.566406 50.453125 -247.570312 64.078125 -252.625 C 77.703125 -257.6875 90.066406 -263.609375 101.171875 -270.390625 L 124.09375 -270.390625 L 124.09375 -26.265625 L 190.125 -26.265625 L 190.125 0 Z M 19.234375 0 "/></g></g><g transform="translate(2544.111574, 1554.862395)"><g><path d="M 132.96875 3.890625 C 113.125 3.890625 95.3125 -0.882812 79.53125 -10.4375 C 63.75 -20 51.171875 -35.164062 41.796875 -55.9375 C 32.421875 -76.71875 27.734375 -103.132812 27.734375 -135.1875 C 27.734375 -167.25 32.421875 -193.664062 41.796875 -214.4375 C 51.171875 -235.21875 63.75 -250.382812 79.53125 -259.9375 C 95.3125 -269.488281 113.125 -274.265625 132.96875 -274.265625 C 152.820312 -274.265625 170.640625 -269.488281 186.421875 -259.9375 C 202.203125 -250.382812 214.742188 -235.21875 224.046875 -214.4375 C 233.359375 -193.664062 238.015625 -167.25 238.015625 -135.1875 C 238.015625 -103.132812 233.359375 -76.71875 224.046875 -55.9375 C 214.742188 -35.164062 202.203125 -20 186.421875 -10.4375 C 170.640625 -0.882812 152.820312 3.890625 132.96875 3.890625 Z M 132.96875 -25.515625 C 156.519531 -25.515625 174.367188 -33.988281 186.515625 -50.9375 C 198.660156 -67.894531 204.734375 -95.976562 204.734375 -135.1875 C 204.734375 -174.394531 198.660156 -202.472656 186.515625 -219.421875 C 174.367188 -236.378906 156.519531 -244.859375 132.96875 -244.859375 C 117.4375 -244.859375 104.367188 -241.28125 93.765625 -234.125 C 83.160156 -226.976562 75.050781 -215.328125 69.4375 -199.171875 C 63.832031 -183.023438 61.03125 -161.695312 61.03125 -135.1875 C 61.03125 -108.6875 63.832031 -87.359375 69.4375 -71.203125 C 75.050781 -55.046875 83.160156 -43.390625 93.765625 -36.234375 C 104.367188 -29.085938 117.4375 -25.515625 132.96875 -25.515625 Z M 132.96875 -25.515625 "/></g></g><g transform="translate(2810.056221, 1554.862395)"><g><path d="M 132.96875 3.890625 C 113.125 3.890625 95.3125 -0.882812 79.53125 -10.4375 C 63.75 -20 51.171875 -35.164062 41.796875 -55.9375 C 32.421875 -76.71875 27.734375 -103.132812 27.734375 -135.1875 C 27.734375 -167.25 32.421875 -193.664062 41.796875 -214.4375 C 51.171875 -235.21875 63.75 -250.382812 79.53125 -259.9375 C 95.3125 -269.488281 113.125 -274.265625 132.96875 -274.265625 C 152.820312 -274.265625 170.640625 -269.488281 186.421875 -259.9375 C 202.203125 -250.382812 214.742188 -235.21875 224.046875 -214.4375 C 233.359375 -193.664062 238.015625 -167.25 238.015625 -135.1875 C 238.015625 -103.132812 233.359375 -76.71875 224.046875 -55.9375 C 214.742188 -35.164062 202.203125 -20 186.421875 -10.4375 C 170.640625 -0.882812 152.820312 3.890625 132.96875 3.890625 Z M 132.96875 -25.515625 C 156.519531 -25.515625 174.367188 -33.988281 186.515625 -50.9375 C 198.660156 -67.894531 204.734375 -95.976562 204.734375 -135.1875 C 204.734375 -174.394531 198.660156 -202.472656 186.515625 -219.421875 C 174.367188 -236.378906 156.519531 -244.859375 132.96875 -244.859375 C 117.4375 -244.859375 104.367188 -241.28125 93.765625 -234.125 C 83.160156 -226.976562 75.050781 -215.328125 69.4375 -199.171875 C 63.832031 -183.023438 61.03125 -161.695312 61.03125 -135.1875 C 61.03125 -108.6875 63.832031 -87.359375 69.4375 -71.203125 C 75.050781 -55.046875 83.160156 -43.390625 93.765625 -36.234375 C 104.367188 -29.085938 117.4375 -25.515625 132.96875 -25.515625 Z M 132.96875 -25.515625 "/></g></g><g transform="translate(3076.000867, 1554.862395)"><g><path d="M 19.234375 0 L 19.234375 -26.265625 L 93.03125 -26.265625 L 93.03125 -233.03125 L 88.765625 -234.140625 C 76.804688 -228.222656 66.328125 -223.691406 57.328125 -220.546875 C 48.328125 -217.398438 36.800781 -214.347656 22.75 -211.390625 L 22.75 -240.609375 C 36.675781 -243.566406 50.453125 -247.570312 64.078125 -252.625 C 77.703125 -257.6875 90.066406 -263.609375 101.171875 -270.390625 L 124.09375 -270.390625 L 124.09375 -26.265625 L 190.125 -26.265625 L 190.125 0 Z M 19.234375 0 "/></g></g><g transform="translate(3277.586168, 1554.862395)"><g><path d="M 132.96875 3.890625 C 113.125 3.890625 95.3125 -0.882812 79.53125 -10.4375 C 63.75 -20 51.171875 -35.164062 41.796875 -55.9375 C 32.421875 -76.71875 27.734375 -103.132812 27.734375 -135.1875 C 27.734375 -167.25 32.421875 -193.664062 41.796875 -214.4375 C 51.171875 -235.21875 63.75 -250.382812 79.53125 -259.9375 C 95.3125 -269.488281 113.125 -274.265625 132.96875 -274.265625 C 152.820312 -274.265625 170.640625 -269.488281 186.421875 -259.9375 C 202.203125 -250.382812 214.742188 -235.21875 224.046875 -214.4375 C 233.359375 -193.664062 238.015625 -167.25 238.015625 -135.1875 C 238.015625 -103.132812 233.359375 -76.71875 224.046875 -55.9375 C 214.742188 -35.164062 202.203125 -20 186.421875 -10.4375 C 170.640625 -0.882812 152.820312 3.890625 132.96875 3.890625 Z M 132.96875 -25.515625 C 156.519531 -25.515625 174.367188 -33.988281 186.515625 -50.9375 C 198.660156 -67.894531 204.734375 -95.976562 204.734375 -135.1875 C 204.734375 -174.394531 198.660156 -202.472656 186.515625 -219.421875 C 174.367188 -236.378906 156.519531 -244.859375 132.96875 -244.859375 C 117.4375 -244.859375 104.367188 -241.28125 93.765625 -234.125 C 83.160156 -226.976562 75.050781 -215.328125 69.4375 -199.171875 C 63.832031 -183.023438 61.03125 -161.695312 61.03125 -135.1875 C 61.03125 -108.6875 63.832031 -87.359375 69.4375 -71.203125 C 75.050781 -55.046875 83.160156 -43.390625 93.765625 -36.234375 C 104.367188 -29.085938 117.4375 -25.515625 132.96875 -25.515625 Z M 132.96875 -25.515625 "/></g></g></g><g fill="#ffffff" fill-opacity="1"><g transform="translate(174.284554, 2010.306076)"><g><path d="M 132.96875 3.890625 C 113.125 3.890625 95.3125 -0.882812 79.53125 -10.4375 C 63.75 -20 51.171875 -35.164062 41.796875 -55.9375 C 32.421875 -76.71875 27.734375 -103.132812 27.734375 -135.1875 C 27.734375 -167.25 32.421875 -193.664062 41.796875 -214.4375 C 51.171875 -235.21875 63.75 -250.382812 79.53125 -259.9375 C 95.3125 -269.488281 113.125 -274.265625 132.96875 -274.265625 C 152.820312 -274.265625 170.640625 -269.488281 186.421875 -259.9375 C 202.203125 -250.382812 214.742188 -235.21875 224.046875 -214.4375 C 233.359375 -193.664062 238.015625 -167.25 238.015625 -135.1875 C 238.015625 -103.132812 233.359375 -76.71875 224.046875 -55.9375 C 214.742188 -35.164062 202.203125 -20 186.421875 -10.4375 C 170.640625 -0.882812 152.820312 3.890625 132.96875 3.890625 Z M 132.96875 -25.515625 C 156.519531 -25.515625 174.367188 -33.988281 186.515625 -50.9375 C 198.660156 -67.894531 204.734375 -95.976562 204.734375 -135.1875 C 204.734375 -174.394531 198.660156 -202.472656 186.515625 -219.421875 C 174.367188 -236.378906 156.519531 -244.859375 132.96875 -244.859375 C 117.4375 -244.859375 104.367188 -241.28125 93.765625 -234.125 C 83.160156 -226.976562 75.050781 -215.328125 69.4375 -199.171875 C 63.832031 -183.023438 61.03125 -161.695312 61.03125 -135.1875 C 61.03125 -108.6875 63.832031 -87.359375 69.4375 -71.203125 C 75.050781 -55.046875 83.160156 -43.390625 93.765625 -36.234375 C 104.367188 -29.085938 117.4375 -25.515625 132.96875 -25.515625 Z M 132.96875 -25.515625 "/></g></g><g transform="translate(440.229201, 2010.306076)"><g><path d="M 19.234375 0 L 19.234375 -26.265625 L 93.03125 -26.265625 L 93.03125 -233.03125 L 88.765625 -234.140625 C 76.804688 -228.222656 66.328125 -223.691406 57.328125 -220.546875 C 48.328125 -217.398438 36.800781 -214.347656 22.75 -211.390625 L 22.75 -240.609375 C 36.675781 -243.566406 50.453125 -247.570312 64.078125 -252.625 C 77.703125 -257.6875 90.066406 -263.609375 101.171875 -270.390625 L 124.09375 -270.390625 L 124.09375 -26.265625 L 190.125 -26.265625 L 190.125 0 Z M 19.234375 0 "/></g></g><g transform="translate(641.814502, 2010.306076)"><g><path d="M 132.96875 3.890625 C 113.125 3.890625 95.3125 -0.882812 79.53125 -10.4375 C 63.75 -20 51.171875 -35.164062 41.796875 -55.9375 C 32.421875 -76.71875 27.734375 -103.132812 27.734375 -135.1875 C 27.734375 -167.25 32.421875 -193.664062 41.796875 -214.4375 C 51.171875 -235.21875 63.75 -250.382812 79.53125 -259.9375 C 95.3125 -269.488281 113.125 -274.265625 132.96875 -274.265625 C 152.820312 -274.265625 170.640625 -269.488281 186.421875 -259.9375 C 202.203125 -250.382812 214.742188 -235.21875 224.046875 -214.4375 C 233.359375 -193.664062 238.015625 -167.25 238.015625 -135.1875 C 238.015625 -103.132812 233.359375 -76.71875 224.046875 -55.9375 C 214.742188 -35.164062 202.203125 -20 186.421875 -10.4375 C 170.640625 -0.882812 152.820312 3.890625 132.96875 3.890625 Z M 132.96875 -25.515625 C 156.519531 -25.515625 174.367188 -33.988281 186.515625 -50.9375 C 198.660156 -67.894531 204.734375 -95.976562 204.734375 -135.1875 C 204.734375 -174.394531 198.660156 -202.472656 186.515625 -219.421875 C 174.367188 -236.378906 156.519531 -244.859375 132.96875 -244.859375 C 117.4375 -244.859375 104.367188 -241.28125 93.765625 -234.125 C 83.160156 -226.976562 75.050781 -215.328125 69.4375 -199.171875 C 63.832031 -183.023438 61.03125 -161.695312 61.03125 -135.1875 C 61.03125 -108.6875 63.832031 -87.359375 69.4375 -71.203125 C 75.050781 -55.046875 83.160156 -43.390625 93.765625 -36.234375 C 104.367188 -29.085938 117.4375 -25.515625 132.96875 -25.515625 Z M 132.96875 -25.515625 "/></g></g><g transform="translate(907.759148, 2010.306076)"><g><path d="M 132.96875 3.890625 C 113.125 3.890625 95.3125 -0.882812 79.53125 -10.4375 C 63.75 -20 51.171875 -35.164062 41.796875 -55.9375 C 32.421875 -76.71875 27.734375 -103.132812 27.734375 -135.1875 C 27.734375 -167.25 32.421875 -193.664062 41.796875 -214.4375 C 51.171875 -235.21875 63.75 -250.382812 79.53125 -259.9375 C 95.3125 -269.488281 113.125 -274.265625 132.96875 -274.265625 C 152.820312 -274.265625 170.640625 -269.488281 186.421875 -259.9375 C 202.203125 -250.382812 214.742188 -235.21875 224.046875 -214.4375 C 233.359375 -193.664062 238.015625 -167.25 238.015625 -135.1875 C 238.015625 -103.132812 233.359375 -76.71875 224.046875 -55.9375 C 214.742188 -35.164062 202.203125 -20 186.421875 -10.4375 C 170.640625 -0.882812 152.820312 3.890625 132.96875 3.890625 Z M 132.96875 -25.515625 C 156.519531 -25.515625 174.367188 -33.988281 186.515625 -50.9375 C 198.660156 -67.894531 204.734375 -95.976562 204.734375 -135.1875 C 204.734375 -174.394531 198.660156 -202.472656 186.515625 -219.421875 C 174.367188 -236.378906 156.519531 -244.859375 132.96875 -244.859375 C 117.4375 -244.859375 104.367188 -241.28125 93.765625 -234.125 C 83.160156 -226.976562 75.050781 -215.328125 69.4375 -199.171875 C 63.832031 -183.023438 61.03125 -161.695312 61.03125 -135.1875 C 61.03125 -108.6875 63.832031 -87.359375 69.4375 -71.203125 C 75.050781 -55.046875 83.160156 -43.390625 93.765625 -36.234375 C 104.367188 -29.085938 117.4375 -25.515625 132.96875 -25.515625 Z M 132.96875 -25.515625 "/></g></g><g transform="translate(1173.703795, 2010.306076)"><g><path d="M 132.96875 3.890625 C 113.125 3.890625 95.3125 -0.882812 79.53125 -10.4375 C 63.75 -20 51.171875 -35.164062 41.796875 -55.9375 C 32.421875 -76.71875 27.734375 -103.132812 27.734375 -135.1875 C 27.734375 -167.25 32.421875 -193.664062 41.796875 -214.4375 C 51.171875 -235.21875 63.75 -250.382812 79.53125 -259.9375 C 95.3125 -269.488281 113.125 -274.265625 132.96875 -274.265625 C 152.820312 -274.265625 170.640625 -269.488281 186.421875 -259.9375 C 202.203125 -250.382812 214.742188 -235.21875 224.046875 -214.4375 C 233.359375 -193.664062 238.015625 -167.25 238.015625 -135.1875 C 238.015625 -103.132812 233.359375 -76.71875 224.046875 -55.9375 C 214.742188 -35.164062 202.203125 -20 186.421875 -10.4375 C 170.640625 -0.882812 152.820312 3.890625 132.96875 3.890625 Z M 132.96875 -25.515625 C 156.519531 -25.515625 174.367188 -33.988281 186.515625 -50.9375 C 198.660156 -67.894531 204.734375 -95.976562 204.734375 -135.1875 C 204.734375 -174.394531 198.660156 -202.472656 186.515625 -219.421875 C 174.367188 -236.378906 156.519531 -244.859375 132.96875 -244.859375 C 117.4375 -244.859375 104.367188 -241.28125 93.765625 -234.125 C 83.160156 -226.976562 75.050781 -215.328125 69.4375 -199.171875 C 63.832031 -183.023438 61.03125 -161.695312 61.03125 -135.1875 C 61.03125 -108.6875 63.832031 -87.359375 69.4375 -71.203125 C 75.050781 -55.046875 83.160156 -43.390625 93.765625 -36.234375 C 104.367188 -29.085938 117.4375 -25.515625 132.96875 -25.515625 Z M 132.96875 -25.515625 "/></g></g><g transform="translate(1439.648442, 2010.306076)"><g><path d="M 19.234375 0 L 19.234375 -26.265625 L 93.03125 -26.265625 L 93.03125 -233.03125 L 88.765625 -234.140625 C 76.804688 -228.222656 66.328125 -223.691406 57.328125 -220.546875 C 48.328125 -217.398438 36.800781 -214.347656 22.75 -211.390625 L 22.75 -240.609375 C 36.675781 -243.566406 50.453125 -247.570312 64.078125 -252.625 C 77.703125 -257.6875 90.066406 -263.609375 101.171875 -270.390625 L 124.09375 -270.390625 L 124.09375 -26.265625 L 190.125 -26.265625 L 190.125 0 Z M 19.234375 0 "/></g></g><g transform="translate(1641.233742, 2010.306076)"><g><path d="M 132.96875 3.890625 C 113.125 3.890625 95.3125 -0.882812 79.53125 -10.4375 C 63.75 -20 51.171875 -35.164062 41.796875 -55.9375 C 32.421875 -76.71875 27.734375 -103.132812 27.734375 -135.1875 C 27.734375 -167.25 32.421875 -193.664062 41.796875 -214.4375 C 51.171875 -235.21875 63.75 -250.382812 79.53125 -259.9375 C 95.3125 -269.488281 113.125 -274.265625 132.96875 -274.265625 C 152.820312 -274.265625 170.640625 -269.488281 186.421875 -259.9375 C 202.203125 -250.382812 214.742188 -235.21875 224.046875 -214.4375 C 233.359375 -193.664062 238.015625 -167.25 238.015625 -135.1875 C 238.015625 -103.132812 233.359375 -76.71875 224.046875 -55.9375 C 214.742188 -35.164062 202.203125 -20 186.421875 -10.4375 C 170.640625 -0.882812 152.820312 3.890625 132.96875 3.890625 Z M 132.96875 -25.515625 C 156.519531 -25.515625 174.367188 -33.988281 186.515625 -50.9375 C 198.660156 -67.894531 204.734375 -95.976562 204.734375 -135.1875 C 204.734375 -174.394531 198.660156 -202.472656 186.515625 -219.421875 C 174.367188 -236.378906 156.519531 -244.859375 132.96875 -244.859375 C 117.4375 -244.859375 104.367188 -241.28125 93.765625 -234.125 C 83.160156 -226.976562 75.050781 -215.328125 69.4375 -199.171875 C 63.832031 -183.023438 61.03125 -161.695312 61.03125 -135.1875 C 61.03125 -108.6875 63.832031 -87.359375 69.4375 -71.203125 C 75.050781 -55.046875 83.160156 -43.390625 93.765625 -36.234375 C 104.367188 -29.085938 117.4375 -25.515625 132.96875 -25.515625 Z M 132.96875 -25.515625 "/></g></g><g transform="translate(1907.178389, 2010.306076)"><g><path d="M 19.234375 0 L 19.234375 -26.265625 L 93.03125 -26.265625 L 93.03125 -233.03125 L 88.765625 -234.140625 C 76.804688 -228.222656 66.328125 -223.691406 57.328125 -220.546875 C 48.328125 -217.398438 36.800781 -214.347656 22.75 -211.390625 L 22.75 -240.609375 C 36.675781 -243.566406 50.453125 -247.570312 64.078125 -252.625 C 77.703125 -257.6875 90.066406 -263.609375 101.171875 -270.390625 L 124.09375 -270.390625 L 124.09375 -26.265625 L 190.125 -26.265625 L 190.125 0 Z M 19.234375 0 "/></g></g><g transform="translate(2108.76369, 2010.306076)"><g><path d="M 19.234375 0 L 19.234375 -26.265625 L 93.03125 -26.265625 L 93.03125 -233.03125 L 88.765625 -234.140625 C 76.804688 -228.222656 66.328125 -223.691406 57.328125 -220.546875 C 48.328125 -217.398438 36.800781 -214.347656 22.75 -211.390625 L 22.75 -240.609375 C 36.675781 -243.566406 50.453125 -247.570312 64.078125 -252.625 C 77.703125 -257.6875 90.066406 -263.609375 101.171875 -270.390625 L 124.09375 -270.390625 L 124.09375 -26.265625 L 190.125 -26.265625 L 190.125 0 Z M 19.234375 0 "/></g></g><g transform="translate(2310.34899, 2010.306076)"><g><path d="M 132.96875 3.890625 C 113.125 3.890625 95.3125 -0.882812 79.53125 -10.4375 C 63.75 -20 51.171875 -35.164062 41.796875 -55.9375 C 32.421875 -76.71875 27.734375 -103.132812 27.734375 -135.1875 C 27.734375 -167.25 32.421875 -193.664062 41.796875 -214.4375 C 51.171875 -235.21875 63.75 -250.382812 79.53125 -259.9375 C 95.3125 -269.488281 113.125 -274.265625 132.96875 -274.265625 C 152.820312 -274.265625 170.640625 -269.488281 186.421875 -259.9375 C 202.203125 -250.382812 214.742188 -235.21875 224.046875 -214.4375 C 233.359375 -193.664062 238.015625 -167.25 238.015625 -135.1875 C 238.015625 -103.132812 233.359375 -76.71875 224.046875 -55.9375 C 214.742188 -35.164062 202.203125 -20 186.421875 -10.4375 C 170.640625 -0.882812 152.820312 3.890625 132.96875 3.890625 Z M 132.96875 -25.515625 C 156.519531 -25.515625 174.367188 -33.988281 186.515625 -50.9375 C 198.660156 -67.894531 204.734375 -95.976562 204.734375 -135.1875 C 204.734375 -174.394531 198.660156 -202.472656 186.515625 -219.421875 C 174.367188 -236.378906 156.519531 -244.859375 132.96875 -244.859375 C 117.4375 -244.859375 104.367188 -241.28125 93.765625 -234.125 C 83.160156 -226.976562 75.050781 -215.328125 69.4375 -199.171875 C 63.832031 -183.023438 61.03125 -161.695312 61.03125 -135.1875 C 61.03125 -108.6875 63.832031 -87.359375 69.4375 -71.203125 C 75.050781 -55.046875 83.160156 -43.390625 93.765625 -36.234375 C 104.367188 -29.085938 117.4375 -25.515625 132.96875 -25.515625 Z M 132.96875 -25.515625 "/></g></g><g transform="translate(2576.293637, 2010.306076)"><g><path d="M 132.96875 3.890625 C 113.125 3.890625 95.3125 -0.882812 79.53125 -10.4375 C 63.75 -20 51.171875 -35.164062 41.796875 -55.9375 C 32.421875 -76.71875 27.734375 -103.132812 27.734375 -135.1875 C 27.734375 -167.25 32.421875 -193.664062 41.796875 -214.4375 C 51.171875 -235.21875 63.75 -250.382812 79.53125 -259.9375 C 95.3125 -269.488281 113.125 -274.265625 132.96875 -274.265625 C 152.820312 -274.265625 170.640625 -269.488281 186.421875 -259.9375 C 202.203125 -250.382812 214.742188 -235.21875 224.046875 -214.4375 C 233.359375 -193.664062 238.015625 -167.25 238.015625 -135.1875 C 238.015625 -103.132812 233.359375 -76.71875 224.046875 -55.9375 C 214.742188 -35.164062 202.203125 -20 186.421875 -10.4375 C 170.640625 -0.882812 152.820312 3.890625 132.96875 3.890625 Z M 132.96875 -25.515625 C 156.519531 -25.515625 174.367188 -33.988281 186.515625 -50.9375 C 198.660156 -67.894531 204.734375 -95.976562 204.734375 -135.1875 C 204.734375 -174.394531 198.660156 -202.472656 186.515625 -219.421875 C 174.367188 -236.378906 156.519531 -244.859375 132.96875 -244.859375 C 117.4375 -244.859375 104.367188 -241.28125 93.765625 -234.125 C 83.160156 -226.976562 75.050781 -215.328125 69.4375 -199.171875 C 63.832031 -183.023438 61.03125 -161.695312 61.03125 -135.1875 C 61.03125 -108.6875 63.832031 -87.359375 69.4375 -71.203125 C 75.050781 -55.046875 83.160156 -43.390625 93.765625 -36.234375 C 104.367188 -29.085938 117.4375 -25.515625 132.96875 -25.515625 Z M 132.96875 -25.515625 "/></g></g><g transform="translate(2842.238284, 2010.306076)"><g><path d="M 132.96875 3.890625 C 113.125 3.890625 95.3125 -0.882812 79.53125 -10.4375 C 63.75 -20 51.171875 -35.164062 41.796875 -55.9375 C 32.421875 -76.71875 27.734375 -103.132812 27.734375 -135.1875 C 27.734375 -167.25 32.421875 -193.664062 41.796875 -214.4375 C 51.171875 -235.21875 63.75 -250.382812 79.53125 -259.9375 C 95.3125 -269.488281 113.125 -274.265625 132.96875 -274.265625 C 152.820312 -274.265625 170.640625 -269.488281 186.421875 -259.9375 C 202.203125 -250.382812 214.742188 -235.21875 224.046875 -214.4375 C 233.359375 -193.664062 238.015625 -167.25 238.015625 -135.1875 C 238.015625 -103.132812 233.359375 -76.71875 224.046875 -55.9375 C 214.742188 -35.164062 202.203125 -20 186.421875 -10.4375 C 170.640625 -0.882812 152.820312 3.890625 132.96875 3.890625 Z M 132.96875 -25.515625 C 156.519531 -25.515625 174.367188 -33.988281 186.515625 -50.9375 C 198.660156 -67.894531 204.734375 -95.976562 204.734375 -135.1875 C 204.734375 -174.394531 198.660156 -202.472656 186.515625 -219.421875 C 174.367188 -236.378906 156.519531 -244.859375 132.96875 -244.859375 C 117.4375 -244.859375 104.367188 -241.28125 93.765625 -234.125 C 83.160156 -226.976562 75.050781 -215.328125 69.4375 -199.171875 C 63.832031 -183.023438 61.03125 -161.695312 61.03125 -135.1875 C 61.03125 -108.6875 63.832031 -87.359375 69.4375 -71.203125 C 75.050781 -55.046875 83.160156 -43.390625 93.765625 -36.234375 C 104.367188 -29.085938 117.4375 -25.515625 132.96875 -25.515625 Z M 132.96875 -25.515625 "/></g></g><g transform="translate(3108.18293, 2010.306076)"><g><path d="M 19.234375 0 L 19.234375 -26.265625 L 93.03125 -26.265625 L 93.03125 -233.03125 L 88.765625 -234.140625 C 76.804688 -228.222656 66.328125 -223.691406 57.328125 -220.546875 C 48.328125 -217.398438 36.800781 -214.347656 22.75 -211.390625 L 22.75 -240.609375 C 36.675781 -243.566406 50.453125 -247.570312 64.078125 -252.625 C 77.703125 -257.6875 90.066406 -263.609375 101.171875 -270.390625 L 124.09375 -270.390625 L 124.09375 -26.265625 L 190.125 -26.265625 L 190.125 0 Z M 19.234375 0 "/></g></g><g transform="translate(3309.768231, 2010.306076)"><g><path d="M 132.96875 3.890625 C 113.125 3.890625 95.3125 -0.882812 79.53125 -10.4375 C 63.75 -20 51.171875 -35.164062 41.796875 -55.9375 C 32.421875 -76.71875 27.734375 -103.132812 27.734375 -135.1875 C 27.734375 -167.25 32.421875 -193.664062 41.796875 -214.4375 C 51.171875 -235.21875 63.75 -250.382812 79.53125 -259.9375 C 95.3125 -269.488281 113.125 -274.265625 132.96875 -274.265625 C 152.820312 -274.265625 170.640625 -269.488281 186.421875 -259.9375 C 202.203125 -250.382812 214.742188 -235.21875 224.046875 -214.4375 C 233.359375 -193.664062 238.015625 -167.25 238.015625 -135.1875 C 238.015625 -103.132812 233.359375 -76.71875 224.046875 -55.9375 C 214.742188 -35.164062 202.203125 -20 186.421875 -10.4375 C 170.640625 -0.882812 152.820312 3.890625 132.96875 3.890625 Z M 132.96875 -25.515625 C 156.519531 -25.515625 174.367188 -33.988281 186.515625 -50.9375 C 198.660156 -67.894531 204.734375 -95.976562 204.734375 -135.1875 C 204.734375 -174.394531 198.660156 -202.472656 186.515625 -219.421875 C 174.367188 -236.378906 156.519531 -244.859375 132.96875 -244.859375 C 117.4375 -244.859375 104.367188 -241.28125 93.765625 -234.125 C 83.160156 -226.976562 75.050781 -215.328125 69.4375 -199.171875 C 63.832031 -183.023438 61.03125 -161.695312 61.03125 -135.1875 C 61.03125 -108.6875 63.832031 -87.359375 69.4375 -71.203125 C 75.050781 -55.046875 83.160156 -43.390625 93.765625 -36.234375 C 104.367188 -29.085938 117.4375 -25.515625 132.96875 -25.515625 Z M 132.96875 -25.515625 "/></g></g></g><g fill="#ffffff" fill-opacity="1"><g transform="translate(206.461838, 676.587943)"><g><path d="M 132.96875 3.890625 C 113.125 3.890625 95.3125 -0.882812 79.53125 -10.4375 C 63.75 -20 51.171875 -35.164062 41.796875 -55.9375 C 32.421875 -76.71875 27.734375 -103.132812 27.734375 -135.1875 C 27.734375 -167.25 32.421875 -193.664062 41.796875 -214.4375 C 51.171875 -235.21875 63.75 -250.382812 79.53125 -259.9375 C 95.3125 -269.488281 113.125 -274.265625 132.96875 -274.265625 C 152.820312 -274.265625 170.640625 -269.488281 186.421875 -259.9375 C 202.203125 -250.382812 214.742188 -235.21875 224.046875 -214.4375 C 233.359375 -193.664062 238.015625 -167.25 238.015625 -135.1875 C 238.015625 -103.132812 233.359375 -76.71875 224.046875 -55.9375 C 214.742188 -35.164062 202.203125 -20 186.421875 -10.4375 C 170.640625 -0.882812 152.820312 3.890625 132.96875 3.890625 Z M 132.96875 -25.515625 C 156.519531 -25.515625 174.367188 -33.988281 186.515625 -50.9375 C 198.660156 -67.894531 204.734375 -95.976562 204.734375 -135.1875 C 204.734375 -174.394531 198.660156 -202.472656 186.515625 -219.421875 C 174.367188 -236.378906 156.519531 -244.859375 132.96875 -244.859375 C 117.4375 -244.859375 104.367188 -241.28125 93.765625 -234.125 C 83.160156 -226.976562 75.050781 -215.328125 69.4375 -199.171875 C 63.832031 -183.023438 61.03125 -161.695312 61.03125 -135.1875 C 61.03125 -108.6875 63.832031 -87.359375 69.4375 -71.203125 C 75.050781 -55.046875 83.160156 -43.390625 93.765625 -36.234375 C 104.367188 -29.085938 117.4375 -25.515625 132.96875 -25.515625 Z M 132.96875 -25.515625 "/></g></g><g transform="translate(472.406484, 676.587943)"><g><path d="M 19.234375 0 L 19.234375 -26.265625 L 93.03125 -26.265625 L 93.03125 -233.03125 L 88.765625 -234.140625 C 76.804688 -228.222656 66.328125 -223.691406 57.328125 -220.546875 C 48.328125 -217.398438 36.800781 -214.347656 22.75 -211.390625 L 22.75 -240.609375 C 36.675781 -243.566406 50.453125 -247.570312 64.078125 -252.625 C 77.703125 -257.6875 90.066406 -263.609375 101.171875 -270.390625 L 124.09375 -270.390625 L 124.09375 -26.265625 L 190.125 -26.265625 L 190.125 0 Z M 19.234375 0 "/></g></g><g transform="translate(673.991785, 676.587943)"><g><path d="M 132.96875 3.890625 C 113.125 3.890625 95.3125 -0.882812 79.53125 -10.4375 C 63.75 -20 51.171875 -35.164062 41.796875 -55.9375 C 32.421875 -76.71875 27.734375 -103.132812 27.734375 -135.1875 C 27.734375 -167.25 32.421875 -193.664062 41.796875 -214.4375 C 51.171875 -235.21875 63.75 -250.382812 79.53125 -259.9375 C 95.3125 -269.488281 113.125 -274.265625 132.96875 -274.265625 C 152.820312 -274.265625 170.640625 -269.488281 186.421875 -259.9375 C 202.203125 -250.382812 214.742188 -235.21875 224.046875 -214.4375 C 233.359375 -193.664062 238.015625 -167.25 238.015625 -135.1875 C 238.015625 -103.132812 233.359375 -76.71875 224.046875 -55.9375 C 214.742188 -35.164062 202.203125 -20 186.421875 -10.4375 C 170.640625 -0.882812 152.820312 3.890625 132.96875 3.890625 Z M 132.96875 -25.515625 C 156.519531 -25.515625 174.367188 -33.988281 186.515625 -50.9375 C 198.660156 -67.894531 204.734375 -95.976562 204.734375 -135.1875 C 204.734375 -174.394531 198.660156 -202.472656 186.515625 -219.421875 C 174.367188 -236.378906 156.519531 -244.859375 132.96875 -244.859375 C 117.4375 -244.859375 104.367188 -241.28125 93.765625 -234.125 C 83.160156 -226.976562 75.050781 -215.328125 69.4375 -199.171875 C 63.832031 -183.023438 61.03125 -161.695312 61.03125 -135.1875 C 61.03125 -108.6875 63.832031 -87.359375 69.4375 -71.203125 C 75.050781 -55.046875 83.160156 -43.390625 93.765625 -36.234375 C 104.367188 -29.085938 117.4375 -25.515625 132.96875 -25.515625 Z M 132.96875 -25.515625 "/></g></g><g transform="translate(939.936431, 676.587943)"><g><path d="M 132.96875 3.890625 C 113.125 3.890625 95.3125 -0.882812 79.53125 -10.4375 C 63.75 -20 51.171875 -35.164062 41.796875 -55.9375 C 32.421875 -76.71875 27.734375 -103.132812 27.734375 -135.1875 C 27.734375 -167.25 32.421875 -193.664062 41.796875 -214.4375 C 51.171875 -235.21875 63.75 -250.382812 79.53125 -259.9375 C 95.3125 -269.488281 113.125 -274.265625 132.96875 -274.265625 C 152.820312 -274.265625 170.640625 -269.488281 186.421875 -259.9375 C 202.203125 -250.382812 214.742188 -235.21875 224.046875 -214.4375 C 233.359375 -193.664062 238.015625 -167.25 238.015625 -135.1875 C 238.015625 -103.132812 233.359375 -76.71875 224.046875 -55.9375 C 214.742188 -35.164062 202.203125 -20 186.421875 -10.4375 C 170.640625 -0.882812 152.820312 3.890625 132.96875 3.890625 Z M 132.96875 -25.515625 C 156.519531 -25.515625 174.367188 -33.988281 186.515625 -50.9375 C 198.660156 -67.894531 204.734375 -95.976562 204.734375 -135.1875 C 204.734375 -174.394531 198.660156 -202.472656 186.515625 -219.421875 C 174.367188 -236.378906 156.519531 -244.859375 132.96875 -244.859375 C 117.4375 -244.859375 104.367188 -241.28125 93.765625 -234.125 C 83.160156 -226.976562 75.050781 -215.328125 69.4375 -199.171875 C 63.832031 -183.023438 61.03125 -161.695312 61.03125 -135.1875 C 61.03125 -108.6875 63.832031 -87.359375 69.4375 -71.203125 C 75.050781 -55.046875 83.160156 -43.390625 93.765625 -36.234375 C 104.367188 -29.085938 117.4375 -25.515625 132.96875 -25.515625 Z M 132.96875 -25.515625 "/></g></g><g transform="translate(1205.881078, 676.587943)"><g><path d="M 19.234375 0 L 19.234375 -26.265625 L 93.03125 -26.265625 L 93.03125 -233.03125 L 88.765625 -234.140625 C 76.804688 -228.222656 66.328125 -223.691406 57.328125 -220.546875 C 48.328125 -217.398438 36.800781 -214.347656 22.75 -211.390625 L 22.75 -240.609375 C 36.675781 -243.566406 50.453125 -247.570312 64.078125 -252.625 C 77.703125 -257.6875 90.066406 -263.609375 101.171875 -270.390625 L 124.09375 -270.390625 L 124.09375 -26.265625 L 190.125 -26.265625 L 190.125 0 Z M 19.234375 0 "/></g></g><g transform="translate(1407.466379, 676.587943)"><g><path d="M 132.96875 3.890625 C 113.125 3.890625 95.3125 -0.882812 79.53125 -10.4375 C 63.75 -20 51.171875 -35.164062 41.796875 -55.9375 C 32.421875 -76.71875 27.734375 -103.132812 27.734375 -135.1875 C 27.734375 -167.25 32.421875 -193.664062 41.796875 -214.4375 C 51.171875 -235.21875 63.75 -250.382812 79.53125 -259.9375 C 95.3125 -269.488281 113.125 -274.265625 132.96875 -274.265625 C 152.820312 -274.265625 170.640625 -269.488281 186.421875 -259.9375 C 202.203125 -250.382812 214.742188 -235.21875 224.046875 -214.4375 C 233.359375 -193.664062 238.015625 -167.25 238.015625 -135.1875 C 238.015625 -103.132812 233.359375 -76.71875 224.046875 -55.9375 C 214.742188 -35.164062 202.203125 -20 186.421875 -10.4375 C 170.640625 -0.882812 152.820312 3.890625 132.96875 3.890625 Z M 132.96875 -25.515625 C 156.519531 -25.515625 174.367188 -33.988281 186.515625 -50.9375 C 198.660156 -67.894531 204.734375 -95.976562 204.734375 -135.1875 C 204.734375 -174.394531 198.660156 -202.472656 186.515625 -219.421875 C 174.367188 -236.378906 156.519531 -244.859375 132.96875 -244.859375 C 117.4375 -244.859375 104.367188 -241.28125 93.765625 -234.125 C 83.160156 -226.976562 75.050781 -215.328125 69.4375 -199.171875 C 63.832031 -183.023438 61.03125 -161.695312 61.03125 -135.1875 C 61.03125 -108.6875 63.832031 -87.359375 69.4375 -71.203125 C 75.050781 -55.046875 83.160156 -43.390625 93.765625 -36.234375 C 104.367188 -29.085938 117.4375 -25.515625 132.96875 -25.515625 Z M 132.96875 -25.515625 "/></g></g><g transform="translate(1673.411025, 676.587943)"><g><path d="M 19.234375 0 L 19.234375 -26.265625 L 93.03125 -26.265625 L 93.03125 -233.03125 L 88.765625 -234.140625 C 76.804688 -228.222656 66.328125 -223.691406 57.328125 -220.546875 C 48.328125 -217.398438 36.800781 -214.347656 22.75 -211.390625 L 22.75 -240.609375 C 36.675781 -243.566406 50.453125 -247.570312 64.078125 -252.625 C 77.703125 -257.6875 90.066406 -263.609375 101.171875 -270.390625 L 124.09375 -270.390625 L 124.09375 -26.265625 L 190.125 -26.265625 L 190.125 0 Z M 19.234375 0 "/></g></g><g transform="translate(1874.996326, 676.587943)"><g><path d="M 132.96875 3.890625 C 113.125 3.890625 95.3125 -0.882812 79.53125 -10.4375 C 63.75 -20 51.171875 -35.164062 41.796875 -55.9375 C 32.421875 -76.71875 27.734375 -103.132812 27.734375 -135.1875 C 27.734375 -167.25 32.421875 -193.664062 41.796875 -214.4375 C 51.171875 -235.21875 63.75 -250.382812 79.53125 -259.9375 C 95.3125 -269.488281 113.125 -274.265625 132.96875 -274.265625 C 152.820312 -274.265625 170.640625 -269.488281 186.421875 -259.9375 C 202.203125 -250.382812 214.742188 -235.21875 224.046875 -214.4375 C 233.359375 -193.664062 238.015625 -167.25 238.015625 -135.1875 C 238.015625 -103.132812 233.359375 -76.71875 224.046875 -55.9375 C 214.742188 -35.164062 202.203125 -20 186.421875 -10.4375 C 170.640625 -0.882812 152.820312 3.890625 132.96875 3.890625 Z M 132.96875 -25.515625 C 156.519531 -25.515625 174.367188 -33.988281 186.515625 -50.9375 C 198.660156 -67.894531 204.734375 -95.976562 204.734375 -135.1875 C 204.734375 -174.394531 198.660156 -202.472656 186.515625 -219.421875 C 174.367188 -236.378906 156.519531 -244.859375 132.96875 -244.859375 C 117.4375 -244.859375 104.367188 -241.28125 93.765625 -234.125 C 83.160156 -226.976562 75.050781 -215.328125 69.4375 -199.171875 C 63.832031 -183.023438 61.03125 -161.695312 61.03125 -135.1875 C 61.03125 -108.6875 63.832031 -87.359375 69.4375 -71.203125 C 75.050781 -55.046875 83.160156 -43.390625 93.765625 -36.234375 C 104.367188 -29.085938 117.4375 -25.515625 132.96875 -25.515625 Z M 132.96875 -25.515625 "/></g></g><g transform="translate(2140.940973, 676.587943)"><g><path d="M 19.234375 0 L 19.234375 -26.265625 L 93.03125 -26.265625 L 93.03125 -233.03125 L 88.765625 -234.140625 C 76.804688 -228.222656 66.328125 -223.691406 57.328125 -220.546875 C 48.328125 -217.398438 36.800781 -214.347656 22.75 -211.390625 L 22.75 -240.609375 C 36.675781 -243.566406 50.453125 -247.570312 64.078125 -252.625 C 77.703125 -257.6875 90.066406 -263.609375 101.171875 -270.390625 L 124.09375 -270.390625 L 124.09375 -26.265625 L 190.125 -26.265625 L 190.125 0 Z M 19.234375 0 "/></g></g><g transform="translate(2342.526273, 676.587943)"><g><path d="M 19.234375 0 L 19.234375 -26.265625 L 93.03125 -26.265625 L 93.03125 -233.03125 L 88.765625 -234.140625 C 76.804688 -228.222656 66.328125 -223.691406 57.328125 -220.546875 C 48.328125 -217.398438 36.800781 -214.347656 22.75 -211.390625 L 22.75 -240.609375 C 36.675781 -243.566406 50.453125 -247.570312 64.078125 -252.625 C 77.703125 -257.6875 90.066406 -263.609375 101.171875 -270.390625 L 124.09375 -270.390625 L 124.09375 -26.265625 L 190.125 -26.265625 L 190.125 0 Z M 19.234375 0 "/></g></g><g transform="translate(2544.111574, 676.587943)"><g><path d="M 132.96875 3.890625 C 113.125 3.890625 95.3125 -0.882812 79.53125 -10.4375 C 63.75 -20 51.171875 -35.164062 41.796875 -55.9375 C 32.421875 -76.71875 27.734375 -103.132812 27.734375 -135.1875 C 27.734375 -167.25 32.421875 -193.664062 41.796875 -214.4375 C 51.171875 -235.21875 63.75 -250.382812 79.53125 -259.9375 C 95.3125 -269.488281 113.125 -274.265625 132.96875 -274.265625 C 152.820312 -274.265625 170.640625 -269.488281 186.421875 -259.9375 C 202.203125 -250.382812 214.742188 -235.21875 224.046875 -214.4375 C 233.359375 -193.664062 238.015625 -167.25 238.015625 -135.1875 C 238.015625 -103.132812 233.359375 -76.71875 224.046875 -55.9375 C 214.742188 -35.164062 202.203125 -20 186.421875 -10.4375 C 170.640625 -0.882812 152.820312 3.890625 132.96875 3.890625 Z M 132.96875 -25.515625 C 156.519531 -25.515625 174.367188 -33.988281 186.515625 -50.9375 C 198.660156 -67.894531 204.734375 -95.976562 204.734375 -135.1875 C 204.734375 -174.394531 198.660156 -202.472656 186.515625 -219.421875 C 174.367188 -236.378906 156.519531 -244.859375 132.96875 -244.859375 C 117.4375 -244.859375 104.367188 -241.28125 93.765625 -234.125 C 83.160156 -226.976562 75.050781 -215.328125 69.4375 -199.171875 C 63.832031 -183.023438 61.03125 -161.695312 61.03125 -135.1875 C 61.03125 -108.6875 63.832031 -87.359375 69.4375 -71.203125 C 75.050781 -55.046875 83.160156 -43.390625 93.765625 -36.234375 C 104.367188 -29.085938 117.4375 -25.515625 132.96875 -25.515625 Z M 132.96875 -25.515625 "/></g></g><g transform="translate(2810.056221, 676.587943)"><g><path d="M 132.96875 3.890625 C 113.125 3.890625 95.3125 -0.882812 79.53125 -10.4375 C 63.75 -20 51.171875 -35.164062 41.796875 -55.9375 C 32.421875 -76.71875 27.734375 -103.132812 27.734375 -135.1875 C 27.734375 -167.25 32.421875 -193.664062 41.796875 -214.4375 C 51.171875 -235.21875 63.75 -250.382812 79.53125 -259.9375 C 95.3125 -269.488281 113.125 -274.265625 132.96875 -274.265625 C 152.820312 -274.265625 170.640625 -269.488281 186.421875 -259.9375 C 202.203125 -250.382812 214.742188 -235.21875 224.046875 -214.4375 C 233.359375 -193.664062 238.015625 -167.25 238.015625 -135.1875 C 238.015625 -103.132812 233.359375 -76.71875 224.046875 -55.9375 C 214.742188 -35.164062 202.203125 -20 186.421875 -10.4375 C 170.640625 -0.882812 152.820312 3.890625 132.96875 3.890625 Z M 132.96875 -25.515625 C 156.519531 -25.515625 174.367188 -33.988281 186.515625 -50.9375 C 198.660156 -67.894531 204.734375 -95.976562 204.734375 -135.1875 C 204.734375 -174.394531 198.660156 -202.472656 186.515625 -219.421875 C 174.367188 -236.378906 156.519531 -244.859375 132.96875 -244.859375 C 117.4375 -244.859375 104.367188 -241.28125 93.765625 -234.125 C 83.160156 -226.976562 75.050781 -215.328125 69.4375 -199.171875 C 63.832031 -183.023438 61.03125 -161.695312 61.03125 -135.1875 C 61.03125 -108.6875 63.832031 -87.359375 69.4375 -71.203125 C 75.050781 -55.046875 83.160156 -43.390625 93.765625 -36.234375 C 104.367188 -29.085938 117.4375 -25.515625 132.96875 -25.515625 Z M 132.96875 -25.515625 "/></g></g><g transform="translate(3076.000867, 676.587943)"><g><path d="M 19.234375 0 L 19.234375 -26.265625 L 93.03125 -26.265625 L 93.03125 -233.03125 L 88.765625 -234.140625 C 76.804688 -228.222656 66.328125 -223.691406 57.328125 -220.546875 C 48.328125 -217.398438 36.800781 -214.347656 22.75 -211.390625 L 22.75 -240.609375 C 36.675781 -243.566406 50.453125 -247.570312 64.078125 -252.625 C 77.703125 -257.6875 90.066406 -263.609375 101.171875 -270.390625 L 124.09375 -270.390625 L 124.09375 -26.265625 L 190.125 -26.265625 L 190.125 0 Z M 19.234375 0 "/></g></g><g transform="translate(3277.586168, 676.587943)"><g><path d="M 132.96875 3.890625 C 113.125 3.890625 95.3125 -0.882812 79.53125 -10.4375 C 63.75 -20 51.171875 -35.164062 41.796875 -55.9375 C 32.421875 -76.71875 27.734375 -103.132812 27.734375 -135.1875 C 27.734375 -167.25 32.421875 -193.664062 41.796875 -214.4375 C 51.171875 -235.21875 63.75 -250.382812 79.53125 -259.9375 C 95.3125 -269.488281 113.125 -274.265625 132.96875 -274.265625 C 152.820312 -274.265625 170.640625 -269.488281 186.421875 -259.9375 C 202.203125 -250.382812 214.742188 -235.21875 224.046875 -214.4375 C 233.359375 -193.664062 238.015625 -167.25 238.015625 -135.1875 C 238.015625 -103.132812 233.359375 -76.71875 224.046875 -55.9375 C 214.742188 -35.164062 202.203125 -20 186.421875 -10.4375 C 170.640625 -0.882812 152.820312 3.890625 132.96875 3.890625 Z M 132.96875 -25.515625 C 156.519531 -25.515625 174.367188 -33.988281 186.515625 -50.9375 C 198.660156 -67.894531 204.734375 -95.976562 204.734375 -135.1875 C 204.734375 -174.394531 198.660156 -202.472656 186.515625 -219.421875 C 174.367188 -236.378906 156.519531 -244.859375 132.96875 -244.859375 C 117.4375 -244.859375 104.367188 -241.28125 93.765625 -234.125 C 83.160156 -226.976562 75.050781 -215.328125 69.4375 -199.171875 C 63.832031 -183.023438 61.03125 -161.695312 61.03125 -135.1875 C 61.03125 -108.6875 63.832031 -87.359375 69.4375 -71.203125 C 75.050781 -55.046875 83.160156 -43.390625 93.765625 -36.234375 C 104.367188 -29.085938 117.4375 -25.515625 132.96875 -25.515625 Z M 132.96875 -25.515625 "/></g></g></g><g fill="#ffffff" fill-opacity="1"><g transform="translate(206.461838, 1115.725178)"><g><path d="M 132.96875 3.890625 C 113.125 3.890625 95.3125 -0.882812 79.53125 -10.4375 C 63.75 -20 51.171875 -35.164062 41.796875 -55.9375 C 32.421875 -76.71875 27.734375 -103.132812 27.734375 -135.1875 C 27.734375 -167.25 32.421875 -193.664062 41.796875 -214.4375 C 51.171875 -235.21875 63.75 -250.382812 79.53125 -259.9375 C 95.3125 -269.488281 113.125 -274.265625 132.96875 -274.265625 C 152.820312 -274.265625 170.640625 -269.488281 186.421875 -259.9375 C 202.203125 -250.382812 214.742188 -235.21875 224.046875 -214.4375 C 233.359375 -193.664062 238.015625 -167.25 238.015625 -135.1875 C 238.015625 -103.132812 233.359375 -76.71875 224.046875 -55.9375 C 214.742188 -35.164062 202.203125 -20 186.421875 -10.4375 C 170.640625 -0.882812 152.820312 3.890625 132.96875 3.890625 Z M 132.96875 -25.515625 C 156.519531 -25.515625 174.367188 -33.988281 186.515625 -50.9375 C 198.660156 -67.894531 204.734375 -95.976562 204.734375 -135.1875 C 204.734375 -174.394531 198.660156 -202.472656 186.515625 -219.421875 C 174.367188 -236.378906 156.519531 -244.859375 132.96875 -244.859375 C 117.4375 -244.859375 104.367188 -241.28125 93.765625 -234.125 C 83.160156 -226.976562 75.050781 -215.328125 69.4375 -199.171875 C 63.832031 -183.023438 61.03125 -161.695312 61.03125 -135.1875 C 61.03125 -108.6875 63.832031 -87.359375 69.4375 -71.203125 C 75.050781 -55.046875 83.160156 -43.390625 93.765625 -36.234375 C 104.367188 -29.085938 117.4375 -25.515625 132.96875 -25.515625 Z M 132.96875 -25.515625 "/></g></g><g transform="translate(472.406484, 1115.725178)"><g><path d="M 19.234375 0 L 19.234375 -26.265625 L 93.03125 -26.265625 L 93.03125 -233.03125 L 88.765625 -234.140625 C 76.804688 -228.222656 66.328125 -223.691406 57.328125 -220.546875 C 48.328125 -217.398438 36.800781 -214.347656 22.75 -211.390625 L 22.75 -240.609375 C 36.675781 -243.566406 50.453125 -247.570312 64.078125 -252.625 C 77.703125 -257.6875 90.066406 -263.609375 101.171875 -270.390625 L 124.09375 -270.390625 L 124.09375 -26.265625 L 190.125 -26.265625 L 190.125 0 Z M 19.234375 0 "/></g></g><g transform="translate(673.991785, 1115.725178)"><g><path d="M 132.96875 3.890625 C 113.125 3.890625 95.3125 -0.882812 79.53125 -10.4375 C 63.75 -20 51.171875 -35.164062 41.796875 -55.9375 C 32.421875 -76.71875 27.734375 -103.132812 27.734375 -135.1875 C 27.734375 -167.25 32.421875 -193.664062 41.796875 -214.4375 C 51.171875 -235.21875 63.75 -250.382812 79.53125 -259.9375 C 95.3125 -269.488281 113.125 -274.265625 132.96875 -274.265625 C 152.820312 -274.265625 170.640625 -269.488281 186.421875 -259.9375 C 202.203125 -250.382812 214.742188 -235.21875 224.046875 -214.4375 C 233.359375 -193.664062 238.015625 -167.25 238.015625 -135.1875 C 238.015625 -103.132812 233.359375 -76.71875 224.046875 -55.9375 C 214.742188 -35.164062 202.203125 -20 186.421875 -10.4375 C 170.640625 -0.882812 152.820312 3.890625 132.96875 3.890625 Z M 132.96875 -25.515625 C 156.519531 -25.515625 174.367188 -33.988281 186.515625 -50.9375 C 198.660156 -67.894531 204.734375 -95.976562 204.734375 -135.1875 C 204.734375 -174.394531 198.660156 -202.472656 186.515625 -219.421875 C 174.367188 -236.378906 156.519531 -244.859375 132.96875 -244.859375 C 117.4375 -244.859375 104.367188 -241.28125 93.765625 -234.125 C 83.160156 -226.976562 75.050781 -215.328125 69.4375 -199.171875 C 63.832031 -183.023438 61.03125 -161.695312 61.03125 -135.1875 C 61.03125 -108.6875 63.832031 -87.359375 69.4375 -71.203125 C 75.050781 -55.046875 83.160156 -43.390625 93.765625 -36.234375 C 104.367188 -29.085938 117.4375 -25.515625 132.96875 -25.515625 Z M 132.96875 -25.515625 "/></g></g><g transform="translate(939.936431, 1115.725178)"><g><path d="M 132.96875 3.890625 C 113.125 3.890625 95.3125 -0.882812 79.53125 -10.4375 C 63.75 -20 51.171875 -35.164062 41.796875 -55.9375 C 32.421875 -76.71875 27.734375 -103.132812 27.734375 -135.1875 C 27.734375 -167.25 32.421875 -193.664062 41.796875 -214.4375 C 51.171875 -235.21875 63.75 -250.382812 79.53125 -259.9375 C 95.3125 -269.488281 113.125 -274.265625 132.96875 -274.265625 C 152.820312 -274.265625 170.640625 -269.488281 186.421875 -259.9375 C 202.203125 -250.382812 214.742188 -235.21875 224.046875 -214.4375 C 233.359375 -193.664062 238.015625 -167.25 238.015625 -135.1875 C 238.015625 -103.132812 233.359375 -76.71875 224.046875 -55.9375 C 214.742188 -35.164062 202.203125 -20 186.421875 -10.4375 C 170.640625 -0.882812 152.820312 3.890625 132.96875 3.890625 Z M 132.96875 -25.515625 C 156.519531 -25.515625 174.367188 -33.988281 186.515625 -50.9375 C 198.660156 -67.894531 204.734375 -95.976562 204.734375 -135.1875 C 204.734375 -174.394531 198.660156 -202.472656 186.515625 -219.421875 C 174.367188 -236.378906 156.519531 -244.859375 132.96875 -244.859375 C 117.4375 -244.859375 104.367188 -241.28125 93.765625 -234.125 C 83.160156 -226.976562 75.050781 -215.328125 69.4375 -199.171875 C 63.832031 -183.023438 61.03125 -161.695312 61.03125 -135.1875 C 61.03125 -108.6875 63.832031 -87.359375 69.4375 -71.203125 C 75.050781 -55.046875 83.160156 -43.390625 93.765625 -36.234375 C 104.367188 -29.085938 117.4375 -25.515625 132.96875 -25.515625 Z M 132.96875 -25.515625 "/></g></g><g transform="translate(1205.881078, 1115.725178)"><g><path d="M 19.234375 0 L 19.234375 -26.265625 L 93.03125 -26.265625 L 93.03125 -233.03125 L 88.765625 -234.140625 C 76.804688 -228.222656 66.328125 -223.691406 57.328125 -220.546875 C 48.328125 -217.398438 36.800781 -214.347656 22.75 -211.390625 L 22.75 -240.609375 C 36.675781 -243.566406 50.453125 -247.570312 64.078125 -252.625 C 77.703125 -257.6875 90.066406 -263.609375 101.171875 -270.390625 L 124.09375 -270.390625 L 124.09375 -26.265625 L 190.125 -26.265625 L 190.125 0 Z M 19.234375 0 "/></g></g><g transform="translate(1407.466379, 1115.725178)"><g><path d="M 132.96875 3.890625 C 113.125 3.890625 95.3125 -0.882812 79.53125 -10.4375 C 63.75 -20 51.171875 -35.164062 41.796875 -55.9375 C 32.421875 -76.71875 27.734375 -103.132812 27.734375 -135.1875 C 27.734375 -167.25 32.421875 -193.664062 41.796875 -214.4375 C 51.171875 -235.21875 63.75 -250.382812 79.53125 -259.9375 C 95.3125 -269.488281 113.125 -274.265625 132.96875 -274.265625 C 152.820312 -274.265625 170.640625 -269.488281 186.421875 -259.9375 C 202.203125 -250.382812 214.742188 -235.21875 224.046875 -214.4375 C 233.359375 -193.664062 238.015625 -167.25 238.015625 -135.1875 C 238.015625 -103.132812 233.359375 -76.71875 224.046875 -55.9375 C 214.742188 -35.164062 202.203125 -20 186.421875 -10.4375 C 170.640625 -0.882812 152.820312 3.890625 132.96875 3.890625 Z M 132.96875 -25.515625 C 156.519531 -25.515625 174.367188 -33.988281 186.515625 -50.9375 C 198.660156 -67.894531 204.734375 -95.976562 204.734375 -135.1875 C 204.734375 -174.394531 198.660156 -202.472656 186.515625 -219.421875 C 174.367188 -236.378906 156.519531 -244.859375 132.96875 -244.859375 C 117.4375 -244.859375 104.367188 -241.28125 93.765625 -234.125 C 83.160156 -226.976562 75.050781 -215.328125 69.4375 -199.171875 C 63.832031 -183.023438 61.03125 -161.695312 61.03125 -135.1875 C 61.03125 -108.6875 63.832031 -87.359375 69.4375 -71.203125 C 75.050781 -55.046875 83.160156 -43.390625 93.765625 -36.234375 C 104.367188 -29.085938 117.4375 -25.515625 132.96875 -25.515625 Z M 132.96875 -25.515625 "/></g></g><g transform="translate(1673.411025, 1115.725178)"><g><path d="M 19.234375 0 L 19.234375 -26.265625 L 93.03125 -26.265625 L 93.03125 -233.03125 L 88.765625 -234.140625 C 76.804688 -228.222656 66.328125 -223.691406 57.328125 -220.546875 C 48.328125 -217.398438 36.800781 -214.347656 22.75 -211.390625 L 22.75 -240.609375 C 36.675781 -243.566406 50.453125 -247.570312 64.078125 -252.625 C 77.703125 -257.6875 90.066406 -263.609375 101.171875 -270.390625 L 124.09375 -270.390625 L 124.09375 -26.265625 L 190.125 -26.265625 L 190.125 0 Z M 19.234375 0 "/></g></g><g transform="translate(1874.996326, 1115.725178)"><g><path d="M 132.96875 3.890625 C 113.125 3.890625 95.3125 -0.882812 79.53125 -10.4375 C 63.75 -20 51.171875 -35.164062 41.796875 -55.9375 C 32.421875 -76.71875 27.734375 -103.132812 27.734375 -135.1875 C 27.734375 -167.25 32.421875 -193.664062 41.796875 -214.4375 C 51.171875 -235.21875 63.75 -250.382812 79.53125 -259.9375 C 95.3125 -269.488281 113.125 -274.265625 132.96875 -274.265625 C 152.820312 -274.265625 170.640625 -269.488281 186.421875 -259.9375 C 202.203125 -250.382812 214.742188 -235.21875 224.046875 -214.4375 C 233.359375 -193.664062 238.015625 -167.25 238.015625 -135.1875 C 238.015625 -103.132812 233.359375 -76.71875 224.046875 -55.9375 C 214.742188 -35.164062 202.203125 -20 186.421875 -10.4375 C 170.640625 -0.882812 152.820312 3.890625 132.96875 3.890625 Z M 132.96875 -25.515625 C 156.519531 -25.515625 174.367188 -33.988281 186.515625 -50.9375 C 198.660156 -67.894531 204.734375 -95.976562 204.734375 -135.1875 C 204.734375 -174.394531 198.660156 -202.472656 186.515625 -219.421875 C 174.367188 -236.378906 156.519531 -244.859375 132.96875 -244.859375 C 117.4375 -244.859375 104.367188 -241.28125 93.765625 -234.125 C 83.160156 -226.976562 75.050781 -215.328125 69.4375 -199.171875 C 63.832031 -183.023438 61.03125 -161.695312 61.03125 -135.1875 C 61.03125 -108.6875 63.832031 -87.359375 69.4375 -71.203125 C 75.050781 -55.046875 83.160156 -43.390625 93.765625 -36.234375 C 104.367188 -29.085938 117.4375 -25.515625 132.96875 -25.515625 Z M 132.96875 -25.515625 "/></g></g><g transform="translate(2140.940973, 1115.725178)"><g><path d="M 19.234375 0 L 19.234375 -26.265625 L 93.03125 -26.265625 L 93.03125 -233.03125 L 88.765625 -234.140625 C 76.804688 -228.222656 66.328125 -223.691406 57.328125 -220.546875 C 48.328125 -217.398438 36.800781 -214.347656 22.75 -211.390625 L 22.75 -240.609375 C 36.675781 -243.566406 50.453125 -247.570312 64.078125 -252.625 C 77.703125 -257.6875 90.066406 -263.609375 101.171875 -270.390625 L 124.09375 -270.390625 L 124.09375 -26.265625 L 190.125 -26.265625 L 190.125 0 Z M 19.234375 0 "/></g></g><g transform="translate(2342.526273, 1115.725178)"><g><path d="M 19.234375 0 L 19.234375 -26.265625 L 93.03125 -26.265625 L 93.03125 -233.03125 L 88.765625 -234.140625 C 76.804688 -228.222656 66.328125 -223.691406 57.328125 -220.546875 C 48.328125 -217.398438 36.800781 -214.347656 22.75 -211.390625 L 22.75 -240.609375 C 36.675781 -243.566406 50.453125 -247.570312 64.078125 -252.625 C 77.703125 -257.6875 90.066406 -263.609375 101.171875 -270.390625 L 124.09375 -270.390625 L 124.09375 -26.265625 L 190.125 -26.265625 L 190.125 0 Z M 19.234375 0 "/></g></g><g transform="translate(2544.111574, 1115.725178)"><g><path d="M 132.96875 3.890625 C 113.125 3.890625 95.3125 -0.882812 79.53125 -10.4375 C 63.75 -20 51.171875 -35.164062 41.796875 -55.9375 C 32.421875 -76.71875 27.734375 -103.132812 27.734375 -135.1875 C 27.734375 -167.25 32.421875 -193.664062 41.796875 -214.4375 C 51.171875 -235.21875 63.75 -250.382812 79.53125 -259.9375 C 95.3125 -269.488281 113.125 -274.265625 132.96875 -274.265625 C 152.820312 -274.265625 170.640625 -269.488281 186.421875 -259.9375 C 202.203125 -250.382812 214.742188 -235.21875 224.046875 -214.4375 C 233.359375 -193.664062 238.015625 -167.25 238.015625 -135.1875 C 238.015625 -103.132812 233.359375 -76.71875 224.046875 -55.9375 C 214.742188 -35.164062 202.203125 -20 186.421875 -10.4375 C 170.640625 -0.882812 152.820312 3.890625 132.96875 3.890625 Z M 132.96875 -25.515625 C 156.519531 -25.515625 174.367188 -33.988281 186.515625 -50.9375 C 198.660156 -67.894531 204.734375 -95.976562 204.734375 -135.1875 C 204.734375 -174.394531 198.660156 -202.472656 186.515625 -219.421875 C 174.367188 -236.378906 156.519531 -244.859375 132.96875 -244.859375 C 117.4375 -244.859375 104.367188 -241.28125 93.765625 -234.125 C 83.160156 -226.976562 75.050781 -215.328125 69.4375 -199.171875 C 63.832031 -183.023438 61.03125 -161.695312 61.03125 -135.1875 C 61.03125 -108.6875 63.832031 -87.359375 69.4375 -71.203125 C 75.050781 -55.046875 83.160156 -43.390625 93.765625 -36.234375 C 104.367188 -29.085938 117.4375 -25.515625 132.96875 -25.515625 Z M 132.96875 -25.515625 "/></g></g><g transform="translate(2810.056221, 1115.725178)"><g><path d="M 132.96875 3.890625 C 113.125 3.890625 95.3125 -0.882812 79.53125 -10.4375 C 63.75 -20 51.171875 -35.164062 41.796875 -55.9375 C 32.421875 -76.71875 27.734375 -103.132812 27.734375 -135.1875 C 27.734375 -167.25 32.421875 -193.664062 41.796875 -214.4375 C 51.171875 -235.21875 63.75 -250.382812 79.53125 -259.9375 C 95.3125 -269.488281 113.125 -274.265625 132.96875 -274.265625 C 152.820312 -274.265625 170.640625 -269.488281 186.421875 -259.9375 C 202.203125 -250.382812 214.742188 -235.21875 224.046875 -214.4375 C 233.359375 -193.664062 238.015625 -167.25 238.015625 -135.1875 C 238.015625 -103.132812 233.359375 -76.71875 224.046875 -55.9375 C 214.742188 -35.164062 202.203125 -20 186.421875 -10.4375 C 170.640625 -0.882812 152.820312 3.890625 132.96875 3.890625 Z M 132.96875 -25.515625 C 156.519531 -25.515625 174.367188 -33.988281 186.515625 -50.9375 C 198.660156 -67.894531 204.734375 -95.976562 204.734375 -135.1875 C 204.734375 -174.394531 198.660156 -202.472656 186.515625 -219.421875 C 174.367188 -236.378906 156.519531 -244.859375 132.96875 -244.859375 C 117.4375 -244.859375 104.367188 -241.28125 93.765625 -234.125 C 83.160156 -226.976562 75.050781 -215.328125 69.4375 -199.171875 C 63.832031 -183.023438 61.03125 -161.695312 61.03125 -135.1875 C 61.03125 -108.6875 63.832031 -87.359375 69.4375 -71.203125 C 75.050781 -55.046875 83.160156 -43.390625 93.765625 -36.234375 C 104.367188 -29.085938 117.4375 -25.515625 132.96875 -25.515625 Z M 132.96875 -25.515625 "/></g></g><g transform="translate(3076.000867, 1115.725178)"><g><path d="M 19.234375 0 L 19.234375 -26.265625 L 93.03125 -26.265625 L 93.03125 -233.03125 L 88.765625 -234.140625 C 76.804688 -228.222656 66.328125 -223.691406 57.328125 -220.546875 C 48.328125 -217.398438 36.800781 -214.347656 22.75 -211.390625 L 22.75 -240.609375 C 36.675781 -243.566406 50.453125 -247.570312 64.078125 -252.625 C 77.703125 -257.6875 90.066406 -263.609375 101.171875 -270.390625 L 124.09375 -270.390625 L 124.09375 -26.265625 L 190.125 -26.265625 L 190.125 0 Z M 19.234375 0 "/></g></g><g transform="translate(3277.586168, 1115.725178)"><g><path d="M 132.96875 3.890625 C 113.125 3.890625 95.3125 -0.882812 79.53125 -10.4375 C 63.75 -20 51.171875 -35.164062 41.796875 -55.9375 C 32.421875 -76.71875 27.734375 -103.132812 27.734375 -135.1875 C 27.734375 -167.25 32.421875 -193.664062 41.796875 -214.4375 C 51.171875 -235.21875 63.75 -250.382812 79.53125 -259.9375 C 95.3125 -269.488281 113.125 -274.265625 132.96875 -274.265625 C 152.820312 -274.265625 170.640625 -269.488281 186.421875 -259.9375 C 202.203125 -250.382812 214.742188 -235.21875 224.046875 -214.4375 C 233.359375 -193.664062 238.015625 -167.25 238.015625 -135.1875 C 238.015625 -103.132812 233.359375 -76.71875 224.046875 -55.9375 C 214.742188 -35.164062 202.203125 -20 186.421875 -10.4375 C 170.640625 -0.882812 152.820312 3.890625 132.96875 3.890625 Z M 132.96875 -25.515625 C 156.519531 -25.515625 174.367188 -33.988281 186.515625 -50.9375 C 198.660156 -67.894531 204.734375 -95.976562 204.734375 -135.1875 C 204.734375 -174.394531 198.660156 -202.472656 186.515625 -219.421875 C 174.367188 -236.378906 156.519531 -244.859375 132.96875 -244.859375 C 117.4375 -244.859375 104.367188 -241.28125 93.765625 -234.125 C 83.160156 -226.976562 75.050781 -215.328125 69.4375 -199.171875 C 63.832031 -183.023438 61.03125 -161.695312 61.03125 -135.1875 C 61.03125 -108.6875 63.832031 -87.359375 69.4375 -71.203125 C 75.050781 -55.046875 83.160156 -43.390625 93.765625 -36.234375 C 104.367188 -29.085938 117.4375 -25.515625 132.96875 -25.515625 Z M 132.96875 -25.515625 "/></g></g></g></svg>