<svg xmlns="http://www.w3.org/2000/svg" xmlns:xlink="http://www.w3.org/1999/xlink" width="3000" zoomAndPan="magnify" viewBox="0 0 2250 2250.000011" height="3000" preserveAspectRatio="xMidYMid meet" version="1.0"><defs><g/><clipPath id="ac6c635afd"><path d="M 676 1159.453125 L 1574 1159.453125 L 1574 1472.066406 L 676 1472.066406 Z M 676 1159.453125 " clip-rule="nonzero"/></clipPath></defs><path fill="#1f3a68" d="M 1510.765625 1447.9375 L 1510.765625 1190.597656 L 1535.15625 1190.597656 L 1535.15625 1447.9375 L 1510.765625 1447.9375 " fill-opacity="1" fill-rule="nonzero"/><path fill="#1f3a68" d="M 1444.246094 1447.9375 L 1444.246094 1190.597656 L 1468.636719 1190.597656 L 1468.636719 1447.9375 L 1444.246094 1447.9375 " fill-opacity="1" fill-rule="nonzero"/><path fill="#1f3a68" d="M 779.140625 1439.101562 L 779.140625 1181.722656 L 803.527344 1181.722656 L 803.527344 1439.101562 L 779.140625 1439.101562 " fill-opacity="1" fill-rule="nonzero"/><path fill="#1f3a68" d="M 712.621094 1439.101562 L 712.621094 1181.722656 L 737.011719 1181.722656 L 737.011719 1439.101562 L 712.621094 1439.101562 " fill-opacity="1" fill-rule="nonzero"/><path fill="#1f3a68" d="M 1230.039062 1426.699219 C 1235.78125 1422.738281 1241.761719 1418.578125 1248.054688 1415.011719 L 1248.054688 1204.980469 C 1239.542969 1201.214844 1231.585938 1196.460938 1223.664062 1191.46875 L 1223.664062 1430.820312 C 1225.804688 1429.511719 1227.941406 1428.125 1230.039062 1426.699219 " fill-opacity="1" fill-rule="nonzero"/><path fill="#1f3a68" d="M 1152.433594 1436.328125 L 1152.433594 1178.949219 L 1176.824219 1178.949219 L 1176.824219 1436.328125 L 1152.433594 1436.328125 " fill-opacity="1" fill-rule="nonzero"/><path fill="#1f3a68" d="M 1081.207031 1444.609375 L 1081.207031 1187.269531 L 1105.59375 1187.269531 L 1105.59375 1444.609375 L 1081.207031 1444.609375 " fill-opacity="1" fill-rule="nonzero"/><path fill="#1f3a68" d="M 1034.363281 1436.484375 L 1034.363281 1202.800781 C 1026.128906 1208.742188 1018.210938 1215.164062 1010.015625 1220.988281 L 1010.015625 1422.0625 C 1018.050781 1426.9375 1026.207031 1431.769531 1034.363281 1436.484375 " fill-opacity="1" fill-rule="nonzero"/><g clip-path="url(#ac6c635afd)"><path fill="#1f3a68" d="M 676.074219 1448.964844 C 676.074219 1436.089844 686.449219 1425.667969 699.316406 1425.667969 C 794.582031 1425.667969 842.847656 1365.285156 894.003906 1301.417969 C 947.136719 1234.972656 1007.402344 1159.652344 1124.996094 1159.652344 C 1242.59375 1159.652344 1302.855469 1234.972656 1355.992188 1301.417969 C 1407.148438 1365.285156 1455.453125 1425.667969 1550.675781 1425.667969 C 1563.503906 1425.667969 1573.9375 1436.089844 1573.9375 1448.964844 C 1573.9375 1461.84375 1563.503906 1472.265625 1550.675781 1472.265625 C 1433.082031 1472.265625 1372.816406 1396.945312 1319.644531 1330.5 C 1268.527344 1266.589844 1220.222656 1206.246094 1124.996094 1206.246094 C 1029.773438 1206.246094 981.464844 1266.589844 930.3125 1330.5 C 877.175781 1396.945312 816.910156 1472.265625 699.316406 1472.265625 C 686.449219 1472.265625 676.074219 1461.84375 676.074219 1448.964844 " fill-opacity="1" fill-rule="nonzero"/><path fill="#4eb1cb" d="M 676.074219 1182.949219 C 676.074219 1170.074219 686.449219 1159.652344 699.316406 1159.652344 C 816.914062 1159.652344 877.175781 1234.972656 930.3125 1301.417969 C 981.464844 1365.285156 1029.773438 1425.667969 1124.996094 1425.667969 C 1220.222656 1425.667969 1268.527344 1365.285156 1319.644531 1301.417969 C 1372.816406 1234.972656 1433.082031 1159.652344 1550.675781 1159.652344 C 1563.503906 1159.652344 1573.9375 1170.074219 1573.9375 1182.949219 C 1573.9375 1195.828125 1563.503906 1206.246094 1550.675781 1206.246094 C 1455.453125 1206.246094 1407.148438 1266.589844 1355.992188 1330.5 C 1302.855469 1396.945312 1242.59375 1472.265625 1124.996094 1472.265625 C 1007.402344 1472.265625 947.136719 1396.945312 894.003906 1330.5 C 842.847656 1266.589844 794.582031 1206.246094 699.316406 1206.246094 C 686.449219 1206.246094 676.074219 1195.828125 676.074219 1182.949219 " fill-opacity="1" fill-rule="nonzero"/></g><g fill="#1f3a68" fill-opacity="1"><g transform="translate(710.551352, 991.726328)"><g><path d="M 33.6875 0.984375 C 28.65625 0.984375 24.140625 -0.222656 20.140625 -2.640625 C 16.140625 -5.066406 12.953125 -8.910156 10.578125 -14.171875 C 8.210938 -19.429688 7.03125 -26.125 7.03125 -34.25 C 7.03125 -42.363281 8.210938 -49.050781 10.578125 -54.3125 C 12.953125 -59.570312 16.140625 -63.410156 20.140625 -65.828125 C 24.140625 -68.253906 28.65625 -69.46875 33.6875 -69.46875 C 38.707031 -69.46875 43.21875 -68.253906 47.21875 -65.828125 C 51.21875 -63.410156 54.394531 -59.570312 56.75 -54.3125 C 59.101562 -49.050781 60.28125 -42.363281 60.28125 -34.25 C 60.28125 -26.125 59.101562 -19.429688 56.75 -14.171875 C 54.394531 -8.910156 51.21875 -5.066406 47.21875 -2.640625 C 43.21875 -0.222656 38.707031 0.984375 33.6875 0.984375 Z M 33.6875 -6.46875 C 39.644531 -6.46875 44.160156 -8.613281 47.234375 -12.90625 C 50.316406 -17.195312 51.859375 -24.3125 51.859375 -34.25 C 51.859375 -44.175781 50.316406 -51.285156 47.234375 -55.578125 C 44.160156 -59.867188 39.644531 -62.015625 33.6875 -62.015625 C 29.75 -62.015625 26.4375 -61.109375 23.75 -59.296875 C 21.0625 -57.492188 19.003906 -54.546875 17.578125 -50.453125 C 16.160156 -46.359375 15.453125 -40.957031 15.453125 -34.25 C 15.453125 -27.53125 16.160156 -22.125 17.578125 -18.03125 C 19.003906 -13.945312 21.0625 -11 23.75 -9.1875 C 26.4375 -7.375 29.75 -6.46875 33.6875 -6.46875 Z M 33.6875 -6.46875 "/></g></g></g><g fill="#1f3a68" fill-opacity="1"><g transform="translate(777.911205, 991.726328)"><g><path d="M 4.875 0 L 4.875 -6.65625 L 23.5625 -6.65625 L 23.5625 -59.03125 L 22.484375 -59.3125 C 19.453125 -57.8125 16.796875 -56.660156 14.515625 -55.859375 C 12.242188 -55.066406 9.328125 -54.296875 5.765625 -53.546875 L 5.765625 -60.9375 C 9.296875 -61.6875 12.785156 -62.703125 16.234375 -63.984375 C 19.679688 -65.265625 22.8125 -66.765625 25.625 -68.484375 L 31.4375 -68.484375 L 31.4375 -6.65625 L 48.15625 -6.65625 L 48.15625 0 Z M 4.875 0 "/></g></g></g><g fill="#1f3a68" fill-opacity="1"><g transform="translate(828.969787, 991.726328)"><g><path d="M 33.6875 0.984375 C 28.65625 0.984375 24.140625 -0.222656 20.140625 -2.640625 C 16.140625 -5.066406 12.953125 -8.910156 10.578125 -14.171875 C 8.210938 -19.429688 7.03125 -26.125 7.03125 -34.25 C 7.03125 -42.363281 8.210938 -49.050781 10.578125 -54.3125 C 12.953125 -59.570312 16.140625 -63.410156 20.140625 -65.828125 C 24.140625 -68.253906 28.65625 -69.46875 33.6875 -69.46875 C 38.707031 -69.46875 43.21875 -68.253906 47.21875 -65.828125 C 51.21875 -63.410156 54.394531 -59.570312 56.75 -54.3125 C 59.101562 -49.050781 60.28125 -42.363281 60.28125 -34.25 C 60.28125 -26.125 59.101562 -19.429688 56.75 -14.171875 C 54.394531 -8.910156 51.21875 -5.066406 47.21875 -2.640625 C 43.21875 -0.222656 38.707031 0.984375 33.6875 0.984375 Z M 33.6875 -6.46875 C 39.644531 -6.46875 44.160156 -8.613281 47.234375 -12.90625 C 50.316406 -17.195312 51.859375 -24.3125 51.859375 -34.25 C 51.859375 -44.175781 50.316406 -51.285156 47.234375 -55.578125 C 44.160156 -59.867188 39.644531 -62.015625 33.6875 -62.015625 C 29.75 -62.015625 26.4375 -61.109375 23.75 -59.296875 C 21.0625 -57.492188 19.003906 -54.546875 17.578125 -50.453125 C 16.160156 -46.359375 15.453125 -40.957031 15.453125 -34.25 C 15.453125 -27.53125 16.160156 -22.125 17.578125 -18.03125 C 19.003906 -13.945312 21.0625 -11 23.75 -9.1875 C 26.4375 -7.375 29.75 -6.46875 33.6875 -6.46875 Z M 33.6875 -6.46875 "/></g></g></g><g fill="#1f3a68" fill-opacity="1"><g transform="translate(896.32964, 991.726328)"><g><path d="M 4.875 0 L 4.875 -6.65625 L 23.5625 -6.65625 L 23.5625 -59.03125 L 22.484375 -59.3125 C 19.453125 -57.8125 16.796875 -56.660156 14.515625 -55.859375 C 12.242188 -55.066406 9.328125 -54.296875 5.765625 -53.546875 L 5.765625 -60.9375 C 9.296875 -61.6875 12.785156 -62.703125 16.234375 -63.984375 C 19.679688 -65.265625 22.8125 -66.765625 25.625 -68.484375 L 31.4375 -68.484375 L 31.4375 -6.65625 L 48.15625 -6.65625 L 48.15625 0 Z M 4.875 0 "/></g></g></g><g fill="#1f3a68" fill-opacity="1"><g transform="translate(947.388221, 991.726328)"><g><path d="M 33.6875 0.984375 C 28.65625 0.984375 24.140625 -0.222656 20.140625 -2.640625 C 16.140625 -5.066406 12.953125 -8.910156 10.578125 -14.171875 C 8.210938 -19.429688 7.03125 -26.125 7.03125 -34.25 C 7.03125 -42.363281 8.210938 -49.050781 10.578125 -54.3125 C 12.953125 -59.570312 16.140625 -63.410156 20.140625 -65.828125 C 24.140625 -68.253906 28.65625 -69.46875 33.6875 -69.46875 C 38.707031 -69.46875 43.21875 -68.253906 47.21875 -65.828125 C 51.21875 -63.410156 54.394531 -59.570312 56.75 -54.3125 C 59.101562 -49.050781 60.28125 -42.363281 60.28125 -34.25 C 60.28125 -26.125 59.101562 -19.429688 56.75 -14.171875 C 54.394531 -8.910156 51.21875 -5.066406 47.21875 -2.640625 C 43.21875 -0.222656 38.707031 0.984375 33.6875 0.984375 Z M 33.6875 -6.46875 C 39.644531 -6.46875 44.160156 -8.613281 47.234375 -12.90625 C 50.316406 -17.195312 51.859375 -24.3125 51.859375 -34.25 C 51.859375 -44.175781 50.316406 -51.285156 47.234375 -55.578125 C 44.160156 -59.867188 39.644531 -62.015625 33.6875 -62.015625 C 29.75 -62.015625 26.4375 -61.109375 23.75 -59.296875 C 21.0625 -57.492188 19.003906 -54.546875 17.578125 -50.453125 C 16.160156 -46.359375 15.453125 -40.957031 15.453125 -34.25 C 15.453125 -27.53125 16.160156 -22.125 17.578125 -18.03125 C 19.003906 -13.945312 21.0625 -11 23.75 -9.1875 C 26.4375 -7.375 29.75 -6.46875 33.6875 -6.46875 Z M 33.6875 -6.46875 "/></g></g></g><g fill="#1f3a68" fill-opacity="1"><g transform="translate(1014.748074, 991.726328)"><g><path d="M 4.875 0 L 4.875 -6.65625 L 23.5625 -6.65625 L 23.5625 -59.03125 L 22.484375 -59.3125 C 19.453125 -57.8125 16.796875 -56.660156 14.515625 -55.859375 C 12.242188 -55.066406 9.328125 -54.296875 5.765625 -53.546875 L 5.765625 -60.9375 C 9.296875 -61.6875 12.785156 -62.703125 16.234375 -63.984375 C 19.679688 -65.265625 22.8125 -66.765625 25.625 -68.484375 L 31.4375 -68.484375 L 31.4375 -6.65625 L 48.15625 -6.65625 L 48.15625 0 Z M 4.875 0 "/></g></g></g><g fill="#1f3a68" fill-opacity="1"><g transform="translate(1065.806656, 991.726328)"><g><path d="M 33.6875 0.984375 C 28.65625 0.984375 24.140625 -0.222656 20.140625 -2.640625 C 16.140625 -5.066406 12.953125 -8.910156 10.578125 -14.171875 C 8.210938 -19.429688 7.03125 -26.125 7.03125 -34.25 C 7.03125 -42.363281 8.210938 -49.050781 10.578125 -54.3125 C 12.953125 -59.570312 16.140625 -63.410156 20.140625 -65.828125 C 24.140625 -68.253906 28.65625 -69.46875 33.6875 -69.46875 C 38.707031 -69.46875 43.21875 -68.253906 47.21875 -65.828125 C 51.21875 -63.410156 54.394531 -59.570312 56.75 -54.3125 C 59.101562 -49.050781 60.28125 -42.363281 60.28125 -34.25 C 60.28125 -26.125 59.101562 -19.429688 56.75 -14.171875 C 54.394531 -8.910156 51.21875 -5.066406 47.21875 -2.640625 C 43.21875 -0.222656 38.707031 0.984375 33.6875 0.984375 Z M 33.6875 -6.46875 C 39.644531 -6.46875 44.160156 -8.613281 47.234375 -12.90625 C 50.316406 -17.195312 51.859375 -24.3125 51.859375 -34.25 C 51.859375 -44.175781 50.316406 -51.285156 47.234375 -55.578125 C 44.160156 -59.867188 39.644531 -62.015625 33.6875 -62.015625 C 29.75 -62.015625 26.4375 -61.109375 23.75 -59.296875 C 21.0625 -57.492188 19.003906 -54.546875 17.578125 -50.453125 C 16.160156 -46.359375 15.453125 -40.957031 15.453125 -34.25 C 15.453125 -27.53125 16.160156 -22.125 17.578125 -18.03125 C 19.003906 -13.945312 21.0625 -11 23.75 -9.1875 C 26.4375 -7.375 29.75 -6.46875 33.6875 -6.46875 Z M 33.6875 -6.46875 "/></g></g></g><g fill="#1f3a68" fill-opacity="1"><g transform="translate(1133.166509, 991.726328)"><g><path d="M 4.875 0 L 4.875 -6.65625 L 23.5625 -6.65625 L 23.5625 -59.03125 L 22.484375 -59.3125 C 19.453125 -57.8125 16.796875 -56.660156 14.515625 -55.859375 C 12.242188 -55.066406 9.328125 -54.296875 5.765625 -53.546875 L 5.765625 -60.9375 C 9.296875 -61.6875 12.785156 -62.703125 16.234375 -63.984375 C 19.679688 -65.265625 22.8125 -66.765625 25.625 -68.484375 L 31.4375 -68.484375 L 31.4375 -6.65625 L 48.15625 -6.65625 L 48.15625 0 Z M 4.875 0 "/></g></g></g><g fill="#1f3a68" fill-opacity="1"><g transform="translate(1184.225091, 991.726328)"><g><path d="M 4.875 0 L 4.875 -6.65625 L 23.5625 -6.65625 L 23.5625 -59.03125 L 22.484375 -59.3125 C 19.453125 -57.8125 16.796875 -56.660156 14.515625 -55.859375 C 12.242188 -55.066406 9.328125 -54.296875 5.765625 -53.546875 L 5.765625 -60.9375 C 9.296875 -61.6875 12.785156 -62.703125 16.234375 -63.984375 C 19.679688 -65.265625 22.8125 -66.765625 25.625 -68.484375 L 31.4375 -68.484375 L 31.4375 -6.65625 L 48.15625 -6.65625 L 48.15625 0 Z M 4.875 0 "/></g></g></g><g fill="#1f3a68" fill-opacity="1"><g transform="translate(1235.283672, 991.726328)"><g><path d="M 4.875 0 L 4.875 -6.65625 L 23.5625 -6.65625 L 23.5625 -59.03125 L 22.484375 -59.3125 C 19.453125 -57.8125 16.796875 -56.660156 14.515625 -55.859375 C 12.242188 -55.066406 9.328125 -54.296875 5.765625 -53.546875 L 5.765625 -60.9375 C 9.296875 -61.6875 12.785156 -62.703125 16.234375 -63.984375 C 19.679688 -65.265625 22.8125 -66.765625 25.625 -68.484375 L 31.4375 -68.484375 L 31.4375 -6.65625 L 48.15625 -6.65625 L 48.15625 0 Z M 4.875 0 "/></g></g></g><g fill="#1f3a68" fill-opacity="1"><g transform="translate(1286.342254, 991.726328)"><g><path d="M 33.6875 0.984375 C 28.65625 0.984375 24.140625 -0.222656 20.140625 -2.640625 C 16.140625 -5.066406 12.953125 -8.910156 10.578125 -14.171875 C 8.210938 -19.429688 7.03125 -26.125 7.03125 -34.25 C 7.03125 -42.363281 8.210938 -49.050781 10.578125 -54.3125 C 12.953125 -59.570312 16.140625 -63.410156 20.140625 -65.828125 C 24.140625 -68.253906 28.65625 -69.46875 33.6875 -69.46875 C 38.707031 -69.46875 43.21875 -68.253906 47.21875 -65.828125 C 51.21875 -63.410156 54.394531 -59.570312 56.75 -54.3125 C 59.101562 -49.050781 60.28125 -42.363281 60.28125 -34.25 C 60.28125 -26.125 59.101562 -19.429688 56.75 -14.171875 C 54.394531 -8.910156 51.21875 -5.066406 47.21875 -2.640625 C 43.21875 -0.222656 38.707031 0.984375 33.6875 0.984375 Z M 33.6875 -6.46875 C 39.644531 -6.46875 44.160156 -8.613281 47.234375 -12.90625 C 50.316406 -17.195312 51.859375 -24.3125 51.859375 -34.25 C 51.859375 -44.175781 50.316406 -51.285156 47.234375 -55.578125 C 44.160156 -59.867188 39.644531 -62.015625 33.6875 -62.015625 C 29.75 -62.015625 26.4375 -61.109375 23.75 -59.296875 C 21.0625 -57.492188 19.003906 -54.546875 17.578125 -50.453125 C 16.160156 -46.359375 15.453125 -40.957031 15.453125 -34.25 C 15.453125 -27.53125 16.160156 -22.125 17.578125 -18.03125 C 19.003906 -13.945312 21.0625 -11 23.75 -9.1875 C 26.4375 -7.375 29.75 -6.46875 33.6875 -6.46875 Z M 33.6875 -6.46875 "/></g></g></g><g fill="#1f3a68" fill-opacity="1"><g transform="translate(1353.702107, 991.726328)"><g><path d="M 33.6875 0.984375 C 28.65625 0.984375 24.140625 -0.222656 20.140625 -2.640625 C 16.140625 -5.066406 12.953125 -8.910156 10.578125 -14.171875 C 8.210938 -19.429688 7.03125 -26.125 7.03125 -34.25 C 7.03125 -42.363281 8.210938 -49.050781 10.578125 -54.3125 C 12.953125 -59.570312 16.140625 -63.410156 20.140625 -65.828125 C 24.140625 -68.253906 28.65625 -69.46875 33.6875 -69.46875 C 38.707031 -69.46875 43.21875 -68.253906 47.21875 -65.828125 C 51.21875 -63.410156 54.394531 -59.570312 56.75 -54.3125 C 59.101562 -49.050781 60.28125 -42.363281 60.28125 -34.25 C 60.28125 -26.125 59.101562 -19.429688 56.75 -14.171875 C 54.394531 -8.910156 51.21875 -5.066406 47.21875 -2.640625 C 43.21875 -0.222656 38.707031 0.984375 33.6875 0.984375 Z M 33.6875 -6.46875 C 39.644531 -6.46875 44.160156 -8.613281 47.234375 -12.90625 C 50.316406 -17.195312 51.859375 -24.3125 51.859375 -34.25 C 51.859375 -44.175781 50.316406 -51.285156 47.234375 -55.578125 C 44.160156 -59.867188 39.644531 -62.015625 33.6875 -62.015625 C 29.75 -62.015625 26.4375 -61.109375 23.75 -59.296875 C 21.0625 -57.492188 19.003906 -54.546875 17.578125 -50.453125 C 16.160156 -46.359375 15.453125 -40.957031 15.453125 -34.25 C 15.453125 -27.53125 16.160156 -22.125 17.578125 -18.03125 C 19.003906 -13.945312 21.0625 -11 23.75 -9.1875 C 26.4375 -7.375 29.75 -6.46875 33.6875 -6.46875 Z M 33.6875 -6.46875 "/></g></g></g><g fill="#1f3a68" fill-opacity="1"><g transform="translate(1421.06196, 991.726328)"><g><path d="M 4.875 0 L 4.875 -6.65625 L 23.5625 -6.65625 L 23.5625 -59.03125 L 22.484375 -59.3125 C 19.453125 -57.8125 16.796875 -56.660156 14.515625 -55.859375 C 12.242188 -55.066406 9.328125 -54.296875 5.765625 -53.546875 L 5.765625 -60.9375 C 9.296875 -61.6875 12.785156 -62.703125 16.234375 -63.984375 C 19.679688 -65.265625 22.8125 -66.765625 25.625 -68.484375 L 31.4375 -68.484375 L 31.4375 -6.65625 L 48.15625 -6.65625 L 48.15625 0 Z M 4.875 0 "/></g></g></g><g fill="#1f3a68" fill-opacity="1"><g transform="translate(1472.120541, 991.726328)"><g><path d="M 33.6875 0.984375 C 28.65625 0.984375 24.140625 -0.222656 20.140625 -2.640625 C 16.140625 -5.066406 12.953125 -8.910156 10.578125 -14.171875 C 8.210938 -19.429688 7.03125 -26.125 7.03125 -34.25 C 7.03125 -42.363281 8.210938 -49.050781 10.578125 -54.3125 C 12.953125 -59.570312 16.140625 -63.410156 20.140625 -65.828125 C 24.140625 -68.253906 28.65625 -69.46875 33.6875 -69.46875 C 38.707031 -69.46875 43.21875 -68.253906 47.21875 -65.828125 C 51.21875 -63.410156 54.394531 -59.570312 56.75 -54.3125 C 59.101562 -49.050781 60.28125 -42.363281 60.28125 -34.25 C 60.28125 -26.125 59.101562 -19.429688 56.75 -14.171875 C 54.394531 -8.910156 51.21875 -5.066406 47.21875 -2.640625 C 43.21875 -0.222656 38.707031 0.984375 33.6875 0.984375 Z M 33.6875 -6.46875 C 39.644531 -6.46875 44.160156 -8.613281 47.234375 -12.90625 C 50.316406 -17.195312 51.859375 -24.3125 51.859375 -34.25 C 51.859375 -44.175781 50.316406 -51.285156 47.234375 -55.578125 C 44.160156 -59.867188 39.644531 -62.015625 33.6875 -62.015625 C 29.75 -62.015625 26.4375 -61.109375 23.75 -59.296875 C 21.0625 -57.492188 19.003906 -54.546875 17.578125 -50.453125 C 16.160156 -46.359375 15.453125 -40.957031 15.453125 -34.25 C 15.453125 -27.53125 16.160156 -22.125 17.578125 -18.03125 C 19.003906 -13.945312 21.0625 -11 23.75 -9.1875 C 26.4375 -7.375 29.75 -6.46875 33.6875 -6.46875 Z M 33.6875 -6.46875 "/></g></g></g><g fill="#1f3a68" fill-opacity="1"><g transform="translate(702.39872, 1107.108011)"><g><path d="M 33.6875 0.984375 C 28.65625 0.984375 24.140625 -0.222656 20.140625 -2.640625 C 16.140625 -5.066406 12.953125 -8.910156 10.578125 -14.171875 C 8.210938 -19.429688 7.03125 -26.125 7.03125 -34.25 C 7.03125 -42.363281 8.210938 -49.050781 10.578125 -54.3125 C 12.953125 -59.570312 16.140625 -63.410156 20.140625 -65.828125 C 24.140625 -68.253906 28.65625 -69.46875 33.6875 -69.46875 C 38.707031 -69.46875 43.21875 -68.253906 47.21875 -65.828125 C 51.21875 -63.410156 54.394531 -59.570312 56.75 -54.3125 C 59.101562 -49.050781 60.28125 -42.363281 60.28125 -34.25 C 60.28125 -26.125 59.101562 -19.429688 56.75 -14.171875 C 54.394531 -8.910156 51.21875 -5.066406 47.21875 -2.640625 C 43.21875 -0.222656 38.707031 0.984375 33.6875 0.984375 Z M 33.6875 -6.46875 C 39.644531 -6.46875 44.160156 -8.613281 47.234375 -12.90625 C 50.316406 -17.195312 51.859375 -24.3125 51.859375 -34.25 C 51.859375 -44.175781 50.316406 -51.285156 47.234375 -55.578125 C 44.160156 -59.867188 39.644531 -62.015625 33.6875 -62.015625 C 29.75 -62.015625 26.4375 -61.109375 23.75 -59.296875 C 21.0625 -57.492188 19.003906 -54.546875 17.578125 -50.453125 C 16.160156 -46.359375 15.453125 -40.957031 15.453125 -34.25 C 15.453125 -27.53125 16.160156 -22.125 17.578125 -18.03125 C 19.003906 -13.945312 21.0625 -11 23.75 -9.1875 C 26.4375 -7.375 29.75 -6.46875 33.6875 -6.46875 Z M 33.6875 -6.46875 "/></g></g></g><g fill="#1f3a68" fill-opacity="1"><g transform="translate(769.758573, 1107.108011)"><g><path d="M 4.875 0 L 4.875 -6.65625 L 23.5625 -6.65625 L 23.5625 -59.03125 L 22.484375 -59.3125 C 19.453125 -57.8125 16.796875 -56.660156 14.515625 -55.859375 C 12.242188 -55.066406 9.328125 -54.296875 5.765625 -53.546875 L 5.765625 -60.9375 C 9.296875 -61.6875 12.785156 -62.703125 16.234375 -63.984375 C 19.679688 -65.265625 22.8125 -66.765625 25.625 -68.484375 L 31.4375 -68.484375 L 31.4375 -6.65625 L 48.15625 -6.65625 L 48.15625 0 Z M 4.875 0 "/></g></g></g><g fill="#1f3a68" fill-opacity="1"><g transform="translate(820.817155, 1107.108011)"><g><path d="M 33.6875 0.984375 C 28.65625 0.984375 24.140625 -0.222656 20.140625 -2.640625 C 16.140625 -5.066406 12.953125 -8.910156 10.578125 -14.171875 C 8.210938 -19.429688 7.03125 -26.125 7.03125 -34.25 C 7.03125 -42.363281 8.210938 -49.050781 10.578125 -54.3125 C 12.953125 -59.570312 16.140625 -63.410156 20.140625 -65.828125 C 24.140625 -68.253906 28.65625 -69.46875 33.6875 -69.46875 C 38.707031 -69.46875 43.21875 -68.253906 47.21875 -65.828125 C 51.21875 -63.410156 54.394531 -59.570312 56.75 -54.3125 C 59.101562 -49.050781 60.28125 -42.363281 60.28125 -34.25 C 60.28125 -26.125 59.101562 -19.429688 56.75 -14.171875 C 54.394531 -8.910156 51.21875 -5.066406 47.21875 -2.640625 C 43.21875 -0.222656 38.707031 0.984375 33.6875 0.984375 Z M 33.6875 -6.46875 C 39.644531 -6.46875 44.160156 -8.613281 47.234375 -12.90625 C 50.316406 -17.195312 51.859375 -24.3125 51.859375 -34.25 C 51.859375 -44.175781 50.316406 -51.285156 47.234375 -55.578125 C 44.160156 -59.867188 39.644531 -62.015625 33.6875 -62.015625 C 29.75 -62.015625 26.4375 -61.109375 23.75 -59.296875 C 21.0625 -57.492188 19.003906 -54.546875 17.578125 -50.453125 C 16.160156 -46.359375 15.453125 -40.957031 15.453125 -34.25 C 15.453125 -27.53125 16.160156 -22.125 17.578125 -18.03125 C 19.003906 -13.945312 21.0625 -11 23.75 -9.1875 C 26.4375 -7.375 29.75 -6.46875 33.6875 -6.46875 Z M 33.6875 -6.46875 "/></g></g></g><g fill="#1f3a68" fill-opacity="1"><g transform="translate(888.177008, 1107.108011)"><g><path d="M 4.875 0 L 4.875 -6.65625 L 23.5625 -6.65625 L 23.5625 -59.03125 L 22.484375 -59.3125 C 19.453125 -57.8125 16.796875 -56.660156 14.515625 -55.859375 C 12.242188 -55.066406 9.328125 -54.296875 5.765625 -53.546875 L 5.765625 -60.9375 C 9.296875 -61.6875 12.785156 -62.703125 16.234375 -63.984375 C 19.679688 -65.265625 22.8125 -66.765625 25.625 -68.484375 L 31.4375 -68.484375 L 31.4375 -6.65625 L 48.15625 -6.65625 L 48.15625 0 Z M 4.875 0 "/></g></g></g><g fill="#1f3a68" fill-opacity="1"><g transform="translate(939.235589, 1107.108011)"><g><path d="M 33.6875 0.984375 C 28.65625 0.984375 24.140625 -0.222656 20.140625 -2.640625 C 16.140625 -5.066406 12.953125 -8.910156 10.578125 -14.171875 C 8.210938 -19.429688 7.03125 -26.125 7.03125 -34.25 C 7.03125 -42.363281 8.210938 -49.050781 10.578125 -54.3125 C 12.953125 -59.570312 16.140625 -63.410156 20.140625 -65.828125 C 24.140625 -68.253906 28.65625 -69.46875 33.6875 -69.46875 C 38.707031 -69.46875 43.21875 -68.253906 47.21875 -65.828125 C 51.21875 -63.410156 54.394531 -59.570312 56.75 -54.3125 C 59.101562 -49.050781 60.28125 -42.363281 60.28125 -34.25 C 60.28125 -26.125 59.101562 -19.429688 56.75 -14.171875 C 54.394531 -8.910156 51.21875 -5.066406 47.21875 -2.640625 C 43.21875 -0.222656 38.707031 0.984375 33.6875 0.984375 Z M 33.6875 -6.46875 C 39.644531 -6.46875 44.160156 -8.613281 47.234375 -12.90625 C 50.316406 -17.195312 51.859375 -24.3125 51.859375 -34.25 C 51.859375 -44.175781 50.316406 -51.285156 47.234375 -55.578125 C 44.160156 -59.867188 39.644531 -62.015625 33.6875 -62.015625 C 29.75 -62.015625 26.4375 -61.109375 23.75 -59.296875 C 21.0625 -57.492188 19.003906 -54.546875 17.578125 -50.453125 C 16.160156 -46.359375 15.453125 -40.957031 15.453125 -34.25 C 15.453125 -27.53125 16.160156 -22.125 17.578125 -18.03125 C 19.003906 -13.945312 21.0625 -11 23.75 -9.1875 C 26.4375 -7.375 29.75 -6.46875 33.6875 -6.46875 Z M 33.6875 -6.46875 "/></g></g></g><g fill="#1f3a68" fill-opacity="1"><g transform="translate(1006.595442, 1107.108011)"><g><path d="M 4.875 0 L 4.875 -6.65625 L 23.5625 -6.65625 L 23.5625 -59.03125 L 22.484375 -59.3125 C 19.453125 -57.8125 16.796875 -56.660156 14.515625 -55.859375 C 12.242188 -55.066406 9.328125 -54.296875 5.765625 -53.546875 L 5.765625 -60.9375 C 9.296875 -61.6875 12.785156 -62.703125 16.234375 -63.984375 C 19.679688 -65.265625 22.8125 -66.765625 25.625 -68.484375 L 31.4375 -68.484375 L 31.4375 -6.65625 L 48.15625 -6.65625 L 48.15625 0 Z M 4.875 0 "/></g></g></g><g fill="#1f3a68" fill-opacity="1"><g transform="translate(1057.654024, 1107.108011)"><g><path d="M 33.6875 0.984375 C 28.65625 0.984375 24.140625 -0.222656 20.140625 -2.640625 C 16.140625 -5.066406 12.953125 -8.910156 10.578125 -14.171875 C 8.210938 -19.429688 7.03125 -26.125 7.03125 -34.25 C 7.03125 -42.363281 8.210938 -49.050781 10.578125 -54.3125 C 12.953125 -59.570312 16.140625 -63.410156 20.140625 -65.828125 C 24.140625 -68.253906 28.65625 -69.46875 33.6875 -69.46875 C 38.707031 -69.46875 43.21875 -68.253906 47.21875 -65.828125 C 51.21875 -63.410156 54.394531 -59.570312 56.75 -54.3125 C 59.101562 -49.050781 60.28125 -42.363281 60.28125 -34.25 C 60.28125 -26.125 59.101562 -19.429688 56.75 -14.171875 C 54.394531 -8.910156 51.21875 -5.066406 47.21875 -2.640625 C 43.21875 -0.222656 38.707031 0.984375 33.6875 0.984375 Z M 33.6875 -6.46875 C 39.644531 -6.46875 44.160156 -8.613281 47.234375 -12.90625 C 50.316406 -17.195312 51.859375 -24.3125 51.859375 -34.25 C 51.859375 -44.175781 50.316406 -51.285156 47.234375 -55.578125 C 44.160156 -59.867188 39.644531 -62.015625 33.6875 -62.015625 C 29.75 -62.015625 26.4375 -61.109375 23.75 -59.296875 C 21.0625 -57.492188 19.003906 -54.546875 17.578125 -50.453125 C 16.160156 -46.359375 15.453125 -40.957031 15.453125 -34.25 C 15.453125 -27.53125 16.160156 -22.125 17.578125 -18.03125 C 19.003906 -13.945312 21.0625 -11 23.75 -9.1875 C 26.4375 -7.375 29.75 -6.46875 33.6875 -6.46875 Z M 33.6875 -6.46875 "/></g></g></g><g fill="#1f3a68" fill-opacity="1"><g transform="translate(1125.013877, 1107.108011)"><g><path d="M 4.875 0 L 4.875 -6.65625 L 23.5625 -6.65625 L 23.5625 -59.03125 L 22.484375 -59.3125 C 19.453125 -57.8125 16.796875 -56.660156 14.515625 -55.859375 C 12.242188 -55.066406 9.328125 -54.296875 5.765625 -53.546875 L 5.765625 -60.9375 C 9.296875 -61.6875 12.785156 -62.703125 16.234375 -63.984375 C 19.679688 -65.265625 22.8125 -66.765625 25.625 -68.484375 L 31.4375 -68.484375 L 31.4375 -6.65625 L 48.15625 -6.65625 L 48.15625 0 Z M 4.875 0 "/></g></g></g><g fill="#1f3a68" fill-opacity="1"><g transform="translate(1176.072458, 1107.108011)"><g><path d="M 4.875 0 L 4.875 -6.65625 L 23.5625 -6.65625 L 23.5625 -59.03125 L 22.484375 -59.3125 C 19.453125 -57.8125 16.796875 -56.660156 14.515625 -55.859375 C 12.242188 -55.066406 9.328125 -54.296875 5.765625 -53.546875 L 5.765625 -60.9375 C 9.296875 -61.6875 12.785156 -62.703125 16.234375 -63.984375 C 19.679688 -65.265625 22.8125 -66.765625 25.625 -68.484375 L 31.4375 -68.484375 L 31.4375 -6.65625 L 48.15625 -6.65625 L 48.15625 0 Z M 4.875 0 "/></g></g></g><g fill="#1f3a68" fill-opacity="1"><g transform="translate(1227.13104, 1107.108011)"><g><path d="M 33.6875 0.984375 C 28.65625 0.984375 24.140625 -0.222656 20.140625 -2.640625 C 16.140625 -5.066406 12.953125 -8.910156 10.578125 -14.171875 C 8.210938 -19.429688 7.03125 -26.125 7.03125 -34.25 C 7.03125 -42.363281 8.210938 -49.050781 10.578125 -54.3125 C 12.953125 -59.570312 16.140625 -63.410156 20.140625 -65.828125 C 24.140625 -68.253906 28.65625 -69.46875 33.6875 -69.46875 C 38.707031 -69.46875 43.21875 -68.253906 47.21875 -65.828125 C 51.21875 -63.410156 54.394531 -59.570312 56.75 -54.3125 C 59.101562 -49.050781 60.28125 -42.363281 60.28125 -34.25 C 60.28125 -26.125 59.101562 -19.429688 56.75 -14.171875 C 54.394531 -8.910156 51.21875 -5.066406 47.21875 -2.640625 C 43.21875 -0.222656 38.707031 0.984375 33.6875 0.984375 Z M 33.6875 -6.46875 C 39.644531 -6.46875 44.160156 -8.613281 47.234375 -12.90625 C 50.316406 -17.195312 51.859375 -24.3125 51.859375 -34.25 C 51.859375 -44.175781 50.316406 -51.285156 47.234375 -55.578125 C 44.160156 -59.867188 39.644531 -62.015625 33.6875 -62.015625 C 29.75 -62.015625 26.4375 -61.109375 23.75 -59.296875 C 21.0625 -57.492188 19.003906 -54.546875 17.578125 -50.453125 C 16.160156 -46.359375 15.453125 -40.957031 15.453125 -34.25 C 15.453125 -27.53125 16.160156 -22.125 17.578125 -18.03125 C 19.003906 -13.945312 21.0625 -11 23.75 -9.1875 C 26.4375 -7.375 29.75 -6.46875 33.6875 -6.46875 Z M 33.6875 -6.46875 "/></g></g></g><g fill="#1f3a68" fill-opacity="1"><g transform="translate(1294.490893, 1107.108011)"><g><path d="M 33.6875 0.984375 C 28.65625 0.984375 24.140625 -0.222656 20.140625 -2.640625 C 16.140625 -5.066406 12.953125 -8.910156 10.578125 -14.171875 C 8.210938 -19.429688 7.03125 -26.125 7.03125 -34.25 C 7.03125 -42.363281 8.210938 -49.050781 10.578125 -54.3125 C 12.953125 -59.570312 16.140625 -63.410156 20.140625 -65.828125 C 24.140625 -68.253906 28.65625 -69.46875 33.6875 -69.46875 C 38.707031 -69.46875 43.21875 -68.253906 47.21875 -65.828125 C 51.21875 -63.410156 54.394531 -59.570312 56.75 -54.3125 C 59.101562 -49.050781 60.28125 -42.363281 60.28125 -34.25 C 60.28125 -26.125 59.101562 -19.429688 56.75 -14.171875 C 54.394531 -8.910156 51.21875 -5.066406 47.21875 -2.640625 C 43.21875 -0.222656 38.707031 0.984375 33.6875 0.984375 Z M 33.6875 -6.46875 C 39.644531 -6.46875 44.160156 -8.613281 47.234375 -12.90625 C 50.316406 -17.195312 51.859375 -24.3125 51.859375 -34.25 C 51.859375 -44.175781 50.316406 -51.285156 47.234375 -55.578125 C 44.160156 -59.867188 39.644531 -62.015625 33.6875 -62.015625 C 29.75 -62.015625 26.4375 -61.109375 23.75 -59.296875 C 21.0625 -57.492188 19.003906 -54.546875 17.578125 -50.453125 C 16.160156 -46.359375 15.453125 -40.957031 15.453125 -34.25 C 15.453125 -27.53125 16.160156 -22.125 17.578125 -18.03125 C 19.003906 -13.945312 21.0625 -11 23.75 -9.1875 C 26.4375 -7.375 29.75 -6.46875 33.6875 -6.46875 Z M 33.6875 -6.46875 "/></g></g></g><g fill="#1f3a68" fill-opacity="1"><g transform="translate(1361.850746, 1107.108011)"><g><path d="M 33.6875 0.984375 C 28.65625 0.984375 24.140625 -0.222656 20.140625 -2.640625 C 16.140625 -5.066406 12.953125 -8.910156 10.578125 -14.171875 C 8.210938 -19.429688 7.03125 -26.125 7.03125 -34.25 C 7.03125 -42.363281 8.210938 -49.050781 10.578125 -54.3125 C 12.953125 -59.570312 16.140625 -63.410156 20.140625 -65.828125 C 24.140625 -68.253906 28.65625 -69.46875 33.6875 -69.46875 C 38.707031 -69.46875 43.21875 -68.253906 47.21875 -65.828125 C 51.21875 -63.410156 54.394531 -59.570312 56.75 -54.3125 C 59.101562 -49.050781 60.28125 -42.363281 60.28125 -34.25 C 60.28125 -26.125 59.101562 -19.429688 56.75 -14.171875 C 54.394531 -8.910156 51.21875 -5.066406 47.21875 -2.640625 C 43.21875 -0.222656 38.707031 0.984375 33.6875 0.984375 Z M 33.6875 -6.46875 C 39.644531 -6.46875 44.160156 -8.613281 47.234375 -12.90625 C 50.316406 -17.195312 51.859375 -24.3125 51.859375 -34.25 C 51.859375 -44.175781 50.316406 -51.285156 47.234375 -55.578125 C 44.160156 -59.867188 39.644531 -62.015625 33.6875 -62.015625 C 29.75 -62.015625 26.4375 -61.109375 23.75 -59.296875 C 21.0625 -57.492188 19.003906 -54.546875 17.578125 -50.453125 C 16.160156 -46.359375 15.453125 -40.957031 15.453125 -34.25 C 15.453125 -27.53125 16.160156 -22.125 17.578125 -18.03125 C 19.003906 -13.945312 21.0625 -11 23.75 -9.1875 C 26.4375 -7.375 29.75 -6.46875 33.6875 -6.46875 Z M 33.6875 -6.46875 "/></g></g></g><g fill="#1f3a68" fill-opacity="1"><g transform="translate(1429.210599, 1107.108011)"><g><path d="M 4.875 0 L 4.875 -6.65625 L 23.5625 -6.65625 L 23.5625 -59.03125 L 22.484375 -59.3125 C 19.453125 -57.8125 16.796875 -56.660156 14.515625 -55.859375 C 12.242188 -55.066406 9.328125 -54.296875 5.765625 -53.546875 L 5.765625 -60.9375 C 9.296875 -61.6875 12.785156 -62.703125 16.234375 -63.984375 C 19.679688 -65.265625 22.8125 -66.765625 25.625 -68.484375 L 31.4375 -68.484375 L 31.4375 -6.65625 L 48.15625 -6.65625 L 48.15625 0 Z M 4.875 0 "/></g></g></g><g fill="#1f3a68" fill-opacity="1"><g transform="translate(1480.26918, 1107.108011)"><g><path d="M 33.6875 0.984375 C 28.65625 0.984375 24.140625 -0.222656 20.140625 -2.640625 C 16.140625 -5.066406 12.953125 -8.910156 10.578125 -14.171875 C 8.210938 -19.429688 7.03125 -26.125 7.03125 -34.25 C 7.03125 -42.363281 8.210938 -49.050781 10.578125 -54.3125 C 12.953125 -59.570312 16.140625 -63.410156 20.140625 -65.828125 C 24.140625 -68.253906 28.65625 -69.46875 33.6875 -69.46875 C 38.707031 -69.46875 43.21875 -68.253906 47.21875 -65.828125 C 51.21875 -63.410156 54.394531 -59.570312 56.75 -54.3125 C 59.101562 -49.050781 60.28125 -42.363281 60.28125 -34.25 C 60.28125 -26.125 59.101562 -19.429688 56.75 -14.171875 C 54.394531 -8.910156 51.21875 -5.066406 47.21875 -2.640625 C 43.21875 -0.222656 38.707031 0.984375 33.6875 0.984375 Z M 33.6875 -6.46875 C 39.644531 -6.46875 44.160156 -8.613281 47.234375 -12.90625 C 50.316406 -17.195312 51.859375 -24.3125 51.859375 -34.25 C 51.859375 -44.175781 50.316406 -51.285156 47.234375 -55.578125 C 44.160156 -59.867188 39.644531 -62.015625 33.6875 -62.015625 C 29.75 -62.015625 26.4375 -61.109375 23.75 -59.296875 C 21.0625 -57.492188 19.003906 -54.546875 17.578125 -50.453125 C 16.160156 -46.359375 15.453125 -40.957031 15.453125 -34.25 C 15.453125 -27.53125 16.160156 -22.125 17.578125 -18.03125 C 19.003906 -13.945312 21.0625 -11 23.75 -9.1875 C 26.4375 -7.375 29.75 -6.46875 33.6875 -6.46875 Z M 33.6875 -6.46875 "/></g></g></g><g fill="#1f3a68" fill-opacity="1"><g transform="translate(702.39872, 769.225178)"><g><path d="M 33.6875 0.984375 C 28.65625 0.984375 24.140625 -0.222656 20.140625 -2.640625 C 16.140625 -5.066406 12.953125 -8.910156 10.578125 -14.171875 C 8.210938 -19.429688 7.03125 -26.125 7.03125 -34.25 C 7.03125 -42.363281 8.210938 -49.050781 10.578125 -54.3125 C 12.953125 -59.570312 16.140625 -63.410156 20.140625 -65.828125 C 24.140625 -68.253906 28.65625 -69.46875 33.6875 -69.46875 C 38.707031 -69.46875 43.21875 -68.253906 47.21875 -65.828125 C 51.21875 -63.410156 54.394531 -59.570312 56.75 -54.3125 C 59.101562 -49.050781 60.28125 -42.363281 60.28125 -34.25 C 60.28125 -26.125 59.101562 -19.429688 56.75 -14.171875 C 54.394531 -8.910156 51.21875 -5.066406 47.21875 -2.640625 C 43.21875 -0.222656 38.707031 0.984375 33.6875 0.984375 Z M 33.6875 -6.46875 C 39.644531 -6.46875 44.160156 -8.613281 47.234375 -12.90625 C 50.316406 -17.195312 51.859375 -24.3125 51.859375 -34.25 C 51.859375 -44.175781 50.316406 -51.285156 47.234375 -55.578125 C 44.160156 -59.867188 39.644531 -62.015625 33.6875 -62.015625 C 29.75 -62.015625 26.4375 -61.109375 23.75 -59.296875 C 21.0625 -57.492188 19.003906 -54.546875 17.578125 -50.453125 C 16.160156 -46.359375 15.453125 -40.957031 15.453125 -34.25 C 15.453125 -27.53125 16.160156 -22.125 17.578125 -18.03125 C 19.003906 -13.945312 21.0625 -11 23.75 -9.1875 C 26.4375 -7.375 29.75 -6.46875 33.6875 -6.46875 Z M 33.6875 -6.46875 "/></g></g></g><g fill="#1f3a68" fill-opacity="1"><g transform="translate(769.758573, 769.225178)"><g><path d="M 4.875 0 L 4.875 -6.65625 L 23.5625 -6.65625 L 23.5625 -59.03125 L 22.484375 -59.3125 C 19.453125 -57.8125 16.796875 -56.660156 14.515625 -55.859375 C 12.242188 -55.066406 9.328125 -54.296875 5.765625 -53.546875 L 5.765625 -60.9375 C 9.296875 -61.6875 12.785156 -62.703125 16.234375 -63.984375 C 19.679688 -65.265625 22.8125 -66.765625 25.625 -68.484375 L 31.4375 -68.484375 L 31.4375 -6.65625 L 48.15625 -6.65625 L 48.15625 0 Z M 4.875 0 "/></g></g></g><g fill="#1f3a68" fill-opacity="1"><g transform="translate(820.817155, 769.225178)"><g><path d="M 33.6875 0.984375 C 28.65625 0.984375 24.140625 -0.222656 20.140625 -2.640625 C 16.140625 -5.066406 12.953125 -8.910156 10.578125 -14.171875 C 8.210938 -19.429688 7.03125 -26.125 7.03125 -34.25 C 7.03125 -42.363281 8.210938 -49.050781 10.578125 -54.3125 C 12.953125 -59.570312 16.140625 -63.410156 20.140625 -65.828125 C 24.140625 -68.253906 28.65625 -69.46875 33.6875 -69.46875 C 38.707031 -69.46875 43.21875 -68.253906 47.21875 -65.828125 C 51.21875 -63.410156 54.394531 -59.570312 56.75 -54.3125 C 59.101562 -49.050781 60.28125 -42.363281 60.28125 -34.25 C 60.28125 -26.125 59.101562 -19.429688 56.75 -14.171875 C 54.394531 -8.910156 51.21875 -5.066406 47.21875 -2.640625 C 43.21875 -0.222656 38.707031 0.984375 33.6875 0.984375 Z M 33.6875 -6.46875 C 39.644531 -6.46875 44.160156 -8.613281 47.234375 -12.90625 C 50.316406 -17.195312 51.859375 -24.3125 51.859375 -34.25 C 51.859375 -44.175781 50.316406 -51.285156 47.234375 -55.578125 C 44.160156 -59.867188 39.644531 -62.015625 33.6875 -62.015625 C 29.75 -62.015625 26.4375 -61.109375 23.75 -59.296875 C 21.0625 -57.492188 19.003906 -54.546875 17.578125 -50.453125 C 16.160156 -46.359375 15.453125 -40.957031 15.453125 -34.25 C 15.453125 -27.53125 16.160156 -22.125 17.578125 -18.03125 C 19.003906 -13.945312 21.0625 -11 23.75 -9.1875 C 26.4375 -7.375 29.75 -6.46875 33.6875 -6.46875 Z M 33.6875 -6.46875 "/></g></g></g><g fill="#1f3a68" fill-opacity="1"><g transform="translate(888.177008, 769.225178)"><g><path d="M 33.6875 0.984375 C 28.65625 0.984375 24.140625 -0.222656 20.140625 -2.640625 C 16.140625 -5.066406 12.953125 -8.910156 10.578125 -14.171875 C 8.210938 -19.429688 7.03125 -26.125 7.03125 -34.25 C 7.03125 -42.363281 8.210938 -49.050781 10.578125 -54.3125 C 12.953125 -59.570312 16.140625 -63.410156 20.140625 -65.828125 C 24.140625 -68.253906 28.65625 -69.46875 33.6875 -69.46875 C 38.707031 -69.46875 43.21875 -68.253906 47.21875 -65.828125 C 51.21875 -63.410156 54.394531 -59.570312 56.75 -54.3125 C 59.101562 -49.050781 60.28125 -42.363281 60.28125 -34.25 C 60.28125 -26.125 59.101562 -19.429688 56.75 -14.171875 C 54.394531 -8.910156 51.21875 -5.066406 47.21875 -2.640625 C 43.21875 -0.222656 38.707031 0.984375 33.6875 0.984375 Z M 33.6875 -6.46875 C 39.644531 -6.46875 44.160156 -8.613281 47.234375 -12.90625 C 50.316406 -17.195312 51.859375 -24.3125 51.859375 -34.25 C 51.859375 -44.175781 50.316406 -51.285156 47.234375 -55.578125 C 44.160156 -59.867188 39.644531 -62.015625 33.6875 -62.015625 C 29.75 -62.015625 26.4375 -61.109375 23.75 -59.296875 C 21.0625 -57.492188 19.003906 -54.546875 17.578125 -50.453125 C 16.160156 -46.359375 15.453125 -40.957031 15.453125 -34.25 C 15.453125 -27.53125 16.160156 -22.125 17.578125 -18.03125 C 19.003906 -13.945312 21.0625 -11 23.75 -9.1875 C 26.4375 -7.375 29.75 -6.46875 33.6875 -6.46875 Z M 33.6875 -6.46875 "/></g></g></g><g fill="#1f3a68" fill-opacity="1"><g transform="translate(955.536861, 769.225178)"><g><path d="M 4.875 0 L 4.875 -6.65625 L 23.5625 -6.65625 L 23.5625 -59.03125 L 22.484375 -59.3125 C 19.453125 -57.8125 16.796875 -56.660156 14.515625 -55.859375 C 12.242188 -55.066406 9.328125 -54.296875 5.765625 -53.546875 L 5.765625 -60.9375 C 9.296875 -61.6875 12.785156 -62.703125 16.234375 -63.984375 C 19.679688 -65.265625 22.8125 -66.765625 25.625 -68.484375 L 31.4375 -68.484375 L 31.4375 -6.65625 L 48.15625 -6.65625 L 48.15625 0 Z M 4.875 0 "/></g></g></g><g fill="#1f3a68" fill-opacity="1"><g transform="translate(1006.595442, 769.225178)"><g><path d="M 33.6875 0.984375 C 28.65625 0.984375 24.140625 -0.222656 20.140625 -2.640625 C 16.140625 -5.066406 12.953125 -8.910156 10.578125 -14.171875 C 8.210938 -19.429688 7.03125 -26.125 7.03125 -34.25 C 7.03125 -42.363281 8.210938 -49.050781 10.578125 -54.3125 C 12.953125 -59.570312 16.140625 -63.410156 20.140625 -65.828125 C 24.140625 -68.253906 28.65625 -69.46875 33.6875 -69.46875 C 38.707031 -69.46875 43.21875 -68.253906 47.21875 -65.828125 C 51.21875 -63.410156 54.394531 -59.570312 56.75 -54.3125 C 59.101562 -49.050781 60.28125 -42.363281 60.28125 -34.25 C 60.28125 -26.125 59.101562 -19.429688 56.75 -14.171875 C 54.394531 -8.910156 51.21875 -5.066406 47.21875 -2.640625 C 43.21875 -0.222656 38.707031 0.984375 33.6875 0.984375 Z M 33.6875 -6.46875 C 39.644531 -6.46875 44.160156 -8.613281 47.234375 -12.90625 C 50.316406 -17.195312 51.859375 -24.3125 51.859375 -34.25 C 51.859375 -44.175781 50.316406 -51.285156 47.234375 -55.578125 C 44.160156 -59.867188 39.644531 -62.015625 33.6875 -62.015625 C 29.75 -62.015625 26.4375 -61.109375 23.75 -59.296875 C 21.0625 -57.492188 19.003906 -54.546875 17.578125 -50.453125 C 16.160156 -46.359375 15.453125 -40.957031 15.453125 -34.25 C 15.453125 -27.53125 16.160156 -22.125 17.578125 -18.03125 C 19.003906 -13.945312 21.0625 -11 23.75 -9.1875 C 26.4375 -7.375 29.75 -6.46875 33.6875 -6.46875 Z M 33.6875 -6.46875 "/></g></g></g><g fill="#1f3a68" fill-opacity="1"><g transform="translate(1073.955295, 769.225178)"><g><path d="M 4.875 0 L 4.875 -6.65625 L 23.5625 -6.65625 L 23.5625 -59.03125 L 22.484375 -59.3125 C 19.453125 -57.8125 16.796875 -56.660156 14.515625 -55.859375 C 12.242188 -55.066406 9.328125 -54.296875 5.765625 -53.546875 L 5.765625 -60.9375 C 9.296875 -61.6875 12.785156 -62.703125 16.234375 -63.984375 C 19.679688 -65.265625 22.8125 -66.765625 25.625 -68.484375 L 31.4375 -68.484375 L 31.4375 -6.65625 L 48.15625 -6.65625 L 48.15625 0 Z M 4.875 0 "/></g></g></g><g fill="#1f3a68" fill-opacity="1"><g transform="translate(1125.013877, 769.225178)"><g><path d="M 33.6875 0.984375 C 28.65625 0.984375 24.140625 -0.222656 20.140625 -2.640625 C 16.140625 -5.066406 12.953125 -8.910156 10.578125 -14.171875 C 8.210938 -19.429688 7.03125 -26.125 7.03125 -34.25 C 7.03125 -42.363281 8.210938 -49.050781 10.578125 -54.3125 C 12.953125 -59.570312 16.140625 -63.410156 20.140625 -65.828125 C 24.140625 -68.253906 28.65625 -69.46875 33.6875 -69.46875 C 38.707031 -69.46875 43.21875 -68.253906 47.21875 -65.828125 C 51.21875 -63.410156 54.394531 -59.570312 56.75 -54.3125 C 59.101562 -49.050781 60.28125 -42.363281 60.28125 -34.25 C 60.28125 -26.125 59.101562 -19.429688 56.75 -14.171875 C 54.394531 -8.910156 51.21875 -5.066406 47.21875 -2.640625 C 43.21875 -0.222656 38.707031 0.984375 33.6875 0.984375 Z M 33.6875 -6.46875 C 39.644531 -6.46875 44.160156 -8.613281 47.234375 -12.90625 C 50.316406 -17.195312 51.859375 -24.3125 51.859375 -34.25 C 51.859375 -44.175781 50.316406 -51.285156 47.234375 -55.578125 C 44.160156 -59.867188 39.644531 -62.015625 33.6875 -62.015625 C 29.75 -62.015625 26.4375 -61.109375 23.75 -59.296875 C 21.0625 -57.492188 19.003906 -54.546875 17.578125 -50.453125 C 16.160156 -46.359375 15.453125 -40.957031 15.453125 -34.25 C 15.453125 -27.53125 16.160156 -22.125 17.578125 -18.03125 C 19.003906 -13.945312 21.0625 -11 23.75 -9.1875 C 26.4375 -7.375 29.75 -6.46875 33.6875 -6.46875 Z M 33.6875 -6.46875 "/></g></g></g><g fill="#1f3a68" fill-opacity="1"><g transform="translate(1192.37373, 769.225178)"><g><path d="M 4.875 0 L 4.875 -6.65625 L 23.5625 -6.65625 L 23.5625 -59.03125 L 22.484375 -59.3125 C 19.453125 -57.8125 16.796875 -56.660156 14.515625 -55.859375 C 12.242188 -55.066406 9.328125 -54.296875 5.765625 -53.546875 L 5.765625 -60.9375 C 9.296875 -61.6875 12.785156 -62.703125 16.234375 -63.984375 C 19.679688 -65.265625 22.8125 -66.765625 25.625 -68.484375 L 31.4375 -68.484375 L 31.4375 -6.65625 L 48.15625 -6.65625 L 48.15625 0 Z M 4.875 0 "/></g></g></g><g fill="#1f3a68" fill-opacity="1"><g transform="translate(1243.432311, 769.225178)"><g><path d="M 4.875 0 L 4.875 -6.65625 L 23.5625 -6.65625 L 23.5625 -59.03125 L 22.484375 -59.3125 C 19.453125 -57.8125 16.796875 -56.660156 14.515625 -55.859375 C 12.242188 -55.066406 9.328125 -54.296875 5.765625 -53.546875 L 5.765625 -60.9375 C 9.296875 -61.6875 12.785156 -62.703125 16.234375 -63.984375 C 19.679688 -65.265625 22.8125 -66.765625 25.625 -68.484375 L 31.4375 -68.484375 L 31.4375 -6.65625 L 48.15625 -6.65625 L 48.15625 0 Z M 4.875 0 "/></g></g></g><g fill="#1f3a68" fill-opacity="1"><g transform="translate(1294.490893, 769.225178)"><g><path d="M 33.6875 0.984375 C 28.65625 0.984375 24.140625 -0.222656 20.140625 -2.640625 C 16.140625 -5.066406 12.953125 -8.910156 10.578125 -14.171875 C 8.210938 -19.429688 7.03125 -26.125 7.03125 -34.25 C 7.03125 -42.363281 8.210938 -49.050781 10.578125 -54.3125 C 12.953125 -59.570312 16.140625 -63.410156 20.140625 -65.828125 C 24.140625 -68.253906 28.65625 -69.46875 33.6875 -69.46875 C 38.707031 -69.46875 43.21875 -68.253906 47.21875 -65.828125 C 51.21875 -63.410156 54.394531 -59.570312 56.75 -54.3125 C 59.101562 -49.050781 60.28125 -42.363281 60.28125 -34.25 C 60.28125 -26.125 59.101562 -19.429688 56.75 -14.171875 C 54.394531 -8.910156 51.21875 -5.066406 47.21875 -2.640625 C 43.21875 -0.222656 38.707031 0.984375 33.6875 0.984375 Z M 33.6875 -6.46875 C 39.644531 -6.46875 44.160156 -8.613281 47.234375 -12.90625 C 50.316406 -17.195312 51.859375 -24.3125 51.859375 -34.25 C 51.859375 -44.175781 50.316406 -51.285156 47.234375 -55.578125 C 44.160156 -59.867188 39.644531 -62.015625 33.6875 -62.015625 C 29.75 -62.015625 26.4375 -61.109375 23.75 -59.296875 C 21.0625 -57.492188 19.003906 -54.546875 17.578125 -50.453125 C 16.160156 -46.359375 15.453125 -40.957031 15.453125 -34.25 C 15.453125 -27.53125 16.160156 -22.125 17.578125 -18.03125 C 19.003906 -13.945312 21.0625 -11 23.75 -9.1875 C 26.4375 -7.375 29.75 -6.46875 33.6875 -6.46875 Z M 33.6875 -6.46875 "/></g></g></g><g fill="#1f3a68" fill-opacity="1"><g transform="translate(1361.850746, 769.225178)"><g><path d="M 33.6875 0.984375 C 28.65625 0.984375 24.140625 -0.222656 20.140625 -2.640625 C 16.140625 -5.066406 12.953125 -8.910156 10.578125 -14.171875 C 8.210938 -19.429688 7.03125 -26.125 7.03125 -34.25 C 7.03125 -42.363281 8.210938 -49.050781 10.578125 -54.3125 C 12.953125 -59.570312 16.140625 -63.410156 20.140625 -65.828125 C 24.140625 -68.253906 28.65625 -69.46875 33.6875 -69.46875 C 38.707031 -69.46875 43.21875 -68.253906 47.21875 -65.828125 C 51.21875 -63.410156 54.394531 -59.570312 56.75 -54.3125 C 59.101562 -49.050781 60.28125 -42.363281 60.28125 -34.25 C 60.28125 -26.125 59.101562 -19.429688 56.75 -14.171875 C 54.394531 -8.910156 51.21875 -5.066406 47.21875 -2.640625 C 43.21875 -0.222656 38.707031 0.984375 33.6875 0.984375 Z M 33.6875 -6.46875 C 39.644531 -6.46875 44.160156 -8.613281 47.234375 -12.90625 C 50.316406 -17.195312 51.859375 -24.3125 51.859375 -34.25 C 51.859375 -44.175781 50.316406 -51.285156 47.234375 -55.578125 C 44.160156 -59.867188 39.644531 -62.015625 33.6875 -62.015625 C 29.75 -62.015625 26.4375 -61.109375 23.75 -59.296875 C 21.0625 -57.492188 19.003906 -54.546875 17.578125 -50.453125 C 16.160156 -46.359375 15.453125 -40.957031 15.453125 -34.25 C 15.453125 -27.53125 16.160156 -22.125 17.578125 -18.03125 C 19.003906 -13.945312 21.0625 -11 23.75 -9.1875 C 26.4375 -7.375 29.75 -6.46875 33.6875 -6.46875 Z M 33.6875 -6.46875 "/></g></g></g><g fill="#1f3a68" fill-opacity="1"><g transform="translate(1429.210599, 769.225178)"><g><path d="M 4.875 0 L 4.875 -6.65625 L 23.5625 -6.65625 L 23.5625 -59.03125 L 22.484375 -59.3125 C 19.453125 -57.8125 16.796875 -56.660156 14.515625 -55.859375 C 12.242188 -55.066406 9.328125 -54.296875 5.765625 -53.546875 L 5.765625 -60.9375 C 9.296875 -61.6875 12.785156 -62.703125 16.234375 -63.984375 C 19.679688 -65.265625 22.8125 -66.765625 25.625 -68.484375 L 31.4375 -68.484375 L 31.4375 -6.65625 L 48.15625 -6.65625 L 48.15625 0 Z M 4.875 0 "/></g></g></g><g fill="#1f3a68" fill-opacity="1"><g transform="translate(1480.26918, 769.225178)"><g><path d="M 33.6875 0.984375 C 28.65625 0.984375 24.140625 -0.222656 20.140625 -2.640625 C 16.140625 -5.066406 12.953125 -8.910156 10.578125 -14.171875 C 8.210938 -19.429688 7.03125 -26.125 7.03125 -34.25 C 7.03125 -42.363281 8.210938 -49.050781 10.578125 -54.3125 C 12.953125 -59.570312 16.140625 -63.410156 20.140625 -65.828125 C 24.140625 -68.253906 28.65625 -69.46875 33.6875 -69.46875 C 38.707031 -69.46875 43.21875 -68.253906 47.21875 -65.828125 C 51.21875 -63.410156 54.394531 -59.570312 56.75 -54.3125 C 59.101562 -49.050781 60.28125 -42.363281 60.28125 -34.25 C 60.28125 -26.125 59.101562 -19.429688 56.75 -14.171875 C 54.394531 -8.910156 51.21875 -5.066406 47.21875 -2.640625 C 43.21875 -0.222656 38.707031 0.984375 33.6875 0.984375 Z M 33.6875 -6.46875 C 39.644531 -6.46875 44.160156 -8.613281 47.234375 -12.90625 C 50.316406 -17.195312 51.859375 -24.3125 51.859375 -34.25 C 51.859375 -44.175781 50.316406 -51.285156 47.234375 -55.578125 C 44.160156 -59.867188 39.644531 -62.015625 33.6875 -62.015625 C 29.75 -62.015625 26.4375 -61.109375 23.75 -59.296875 C 21.0625 -57.492188 19.003906 -54.546875 17.578125 -50.453125 C 16.160156 -46.359375 15.453125 -40.957031 15.453125 -34.25 C 15.453125 -27.53125 16.160156 -22.125 17.578125 -18.03125 C 19.003906 -13.945312 21.0625 -11 23.75 -9.1875 C 26.4375 -7.375 29.75 -6.46875 33.6875 -6.46875 Z M 33.6875 -6.46875 "/></g></g></g><g fill="#1f3a68" fill-opacity="1"><g transform="translate(702.39872, 880.475777)"><g><path d="M 33.6875 0.984375 C 28.65625 0.984375 24.140625 -0.222656 20.140625 -2.640625 C 16.140625 -5.066406 12.953125 -8.910156 10.578125 -14.171875 C 8.210938 -19.429688 7.03125 -26.125 7.03125 -34.25 C 7.03125 -42.363281 8.210938 -49.050781 10.578125 -54.3125 C 12.953125 -59.570312 16.140625 -63.410156 20.140625 -65.828125 C 24.140625 -68.253906 28.65625 -69.46875 33.6875 -69.46875 C 38.707031 -69.46875 43.21875 -68.253906 47.21875 -65.828125 C 51.21875 -63.410156 54.394531 -59.570312 56.75 -54.3125 C 59.101562 -49.050781 60.28125 -42.363281 60.28125 -34.25 C 60.28125 -26.125 59.101562 -19.429688 56.75 -14.171875 C 54.394531 -8.910156 51.21875 -5.066406 47.21875 -2.640625 C 43.21875 -0.222656 38.707031 0.984375 33.6875 0.984375 Z M 33.6875 -6.46875 C 39.644531 -6.46875 44.160156 -8.613281 47.234375 -12.90625 C 50.316406 -17.195312 51.859375 -24.3125 51.859375 -34.25 C 51.859375 -44.175781 50.316406 -51.285156 47.234375 -55.578125 C 44.160156 -59.867188 39.644531 -62.015625 33.6875 -62.015625 C 29.75 -62.015625 26.4375 -61.109375 23.75 -59.296875 C 21.0625 -57.492188 19.003906 -54.546875 17.578125 -50.453125 C 16.160156 -46.359375 15.453125 -40.957031 15.453125 -34.25 C 15.453125 -27.53125 16.160156 -22.125 17.578125 -18.03125 C 19.003906 -13.945312 21.0625 -11 23.75 -9.1875 C 26.4375 -7.375 29.75 -6.46875 33.6875 -6.46875 Z M 33.6875 -6.46875 "/></g></g></g><g fill="#1f3a68" fill-opacity="1"><g transform="translate(769.758573, 880.475777)"><g><path d="M 4.875 0 L 4.875 -6.65625 L 23.5625 -6.65625 L 23.5625 -59.03125 L 22.484375 -59.3125 C 19.453125 -57.8125 16.796875 -56.660156 14.515625 -55.859375 C 12.242188 -55.066406 9.328125 -54.296875 5.765625 -53.546875 L 5.765625 -60.9375 C 9.296875 -61.6875 12.785156 -62.703125 16.234375 -63.984375 C 19.679688 -65.265625 22.8125 -66.765625 25.625 -68.484375 L 31.4375 -68.484375 L 31.4375 -6.65625 L 48.15625 -6.65625 L 48.15625 0 Z M 4.875 0 "/></g></g></g><g fill="#1f3a68" fill-opacity="1"><g transform="translate(820.817155, 880.475777)"><g><path d="M 33.6875 0.984375 C 28.65625 0.984375 24.140625 -0.222656 20.140625 -2.640625 C 16.140625 -5.066406 12.953125 -8.910156 10.578125 -14.171875 C 8.210938 -19.429688 7.03125 -26.125 7.03125 -34.25 C 7.03125 -42.363281 8.210938 -49.050781 10.578125 -54.3125 C 12.953125 -59.570312 16.140625 -63.410156 20.140625 -65.828125 C 24.140625 -68.253906 28.65625 -69.46875 33.6875 -69.46875 C 38.707031 -69.46875 43.21875 -68.253906 47.21875 -65.828125 C 51.21875 -63.410156 54.394531 -59.570312 56.75 -54.3125 C 59.101562 -49.050781 60.28125 -42.363281 60.28125 -34.25 C 60.28125 -26.125 59.101562 -19.429688 56.75 -14.171875 C 54.394531 -8.910156 51.21875 -5.066406 47.21875 -2.640625 C 43.21875 -0.222656 38.707031 0.984375 33.6875 0.984375 Z M 33.6875 -6.46875 C 39.644531 -6.46875 44.160156 -8.613281 47.234375 -12.90625 C 50.316406 -17.195312 51.859375 -24.3125 51.859375 -34.25 C 51.859375 -44.175781 50.316406 -51.285156 47.234375 -55.578125 C 44.160156 -59.867188 39.644531 -62.015625 33.6875 -62.015625 C 29.75 -62.015625 26.4375 -61.109375 23.75 -59.296875 C 21.0625 -57.492188 19.003906 -54.546875 17.578125 -50.453125 C 16.160156 -46.359375 15.453125 -40.957031 15.453125 -34.25 C 15.453125 -27.53125 16.160156 -22.125 17.578125 -18.03125 C 19.003906 -13.945312 21.0625 -11 23.75 -9.1875 C 26.4375 -7.375 29.75 -6.46875 33.6875 -6.46875 Z M 33.6875 -6.46875 "/></g></g></g><g fill="#1f3a68" fill-opacity="1"><g transform="translate(888.177008, 880.475777)"><g><path d="M 33.6875 0.984375 C 28.65625 0.984375 24.140625 -0.222656 20.140625 -2.640625 C 16.140625 -5.066406 12.953125 -8.910156 10.578125 -14.171875 C 8.210938 -19.429688 7.03125 -26.125 7.03125 -34.25 C 7.03125 -42.363281 8.210938 -49.050781 10.578125 -54.3125 C 12.953125 -59.570312 16.140625 -63.410156 20.140625 -65.828125 C 24.140625 -68.253906 28.65625 -69.46875 33.6875 -69.46875 C 38.707031 -69.46875 43.21875 -68.253906 47.21875 -65.828125 C 51.21875 -63.410156 54.394531 -59.570312 56.75 -54.3125 C 59.101562 -49.050781 60.28125 -42.363281 60.28125 -34.25 C 60.28125 -26.125 59.101562 -19.429688 56.75 -14.171875 C 54.394531 -8.910156 51.21875 -5.066406 47.21875 -2.640625 C 43.21875 -0.222656 38.707031 0.984375 33.6875 0.984375 Z M 33.6875 -6.46875 C 39.644531 -6.46875 44.160156 -8.613281 47.234375 -12.90625 C 50.316406 -17.195312 51.859375 -24.3125 51.859375 -34.25 C 51.859375 -44.175781 50.316406 -51.285156 47.234375 -55.578125 C 44.160156 -59.867188 39.644531 -62.015625 33.6875 -62.015625 C 29.75 -62.015625 26.4375 -61.109375 23.75 -59.296875 C 21.0625 -57.492188 19.003906 -54.546875 17.578125 -50.453125 C 16.160156 -46.359375 15.453125 -40.957031 15.453125 -34.25 C 15.453125 -27.53125 16.160156 -22.125 17.578125 -18.03125 C 19.003906 -13.945312 21.0625 -11 23.75 -9.1875 C 26.4375 -7.375 29.75 -6.46875 33.6875 -6.46875 Z M 33.6875 -6.46875 "/></g></g></g><g fill="#1f3a68" fill-opacity="1"><g transform="translate(955.536861, 880.475777)"><g><path d="M 4.875 0 L 4.875 -6.65625 L 23.5625 -6.65625 L 23.5625 -59.03125 L 22.484375 -59.3125 C 19.453125 -57.8125 16.796875 -56.660156 14.515625 -55.859375 C 12.242188 -55.066406 9.328125 -54.296875 5.765625 -53.546875 L 5.765625 -60.9375 C 9.296875 -61.6875 12.785156 -62.703125 16.234375 -63.984375 C 19.679688 -65.265625 22.8125 -66.765625 25.625 -68.484375 L 31.4375 -68.484375 L 31.4375 -6.65625 L 48.15625 -6.65625 L 48.15625 0 Z M 4.875 0 "/></g></g></g><g fill="#1f3a68" fill-opacity="1"><g transform="translate(1006.595442, 880.475777)"><g><path d="M 33.6875 0.984375 C 28.65625 0.984375 24.140625 -0.222656 20.140625 -2.640625 C 16.140625 -5.066406 12.953125 -8.910156 10.578125 -14.171875 C 8.210938 -19.429688 7.03125 -26.125 7.03125 -34.25 C 7.03125 -42.363281 8.210938 -49.050781 10.578125 -54.3125 C 12.953125 -59.570312 16.140625 -63.410156 20.140625 -65.828125 C 24.140625 -68.253906 28.65625 -69.46875 33.6875 -69.46875 C 38.707031 -69.46875 43.21875 -68.253906 47.21875 -65.828125 C 51.21875 -63.410156 54.394531 -59.570312 56.75 -54.3125 C 59.101562 -49.050781 60.28125 -42.363281 60.28125 -34.25 C 60.28125 -26.125 59.101562 -19.429688 56.75 -14.171875 C 54.394531 -8.910156 51.21875 -5.066406 47.21875 -2.640625 C 43.21875 -0.222656 38.707031 0.984375 33.6875 0.984375 Z M 33.6875 -6.46875 C 39.644531 -6.46875 44.160156 -8.613281 47.234375 -12.90625 C 50.316406 -17.195312 51.859375 -24.3125 51.859375 -34.25 C 51.859375 -44.175781 50.316406 -51.285156 47.234375 -55.578125 C 44.160156 -59.867188 39.644531 -62.015625 33.6875 -62.015625 C 29.75 -62.015625 26.4375 -61.109375 23.75 -59.296875 C 21.0625 -57.492188 19.003906 -54.546875 17.578125 -50.453125 C 16.160156 -46.359375 15.453125 -40.957031 15.453125 -34.25 C 15.453125 -27.53125 16.160156 -22.125 17.578125 -18.03125 C 19.003906 -13.945312 21.0625 -11 23.75 -9.1875 C 26.4375 -7.375 29.75 -6.46875 33.6875 -6.46875 Z M 33.6875 -6.46875 "/></g></g></g><g fill="#1f3a68" fill-opacity="1"><g transform="translate(1073.955295, 880.475777)"><g><path d="M 4.875 0 L 4.875 -6.65625 L 23.5625 -6.65625 L 23.5625 -59.03125 L 22.484375 -59.3125 C 19.453125 -57.8125 16.796875 -56.660156 14.515625 -55.859375 C 12.242188 -55.066406 9.328125 -54.296875 5.765625 -53.546875 L 5.765625 -60.9375 C 9.296875 -61.6875 12.785156 -62.703125 16.234375 -63.984375 C 19.679688 -65.265625 22.8125 -66.765625 25.625 -68.484375 L 31.4375 -68.484375 L 31.4375 -6.65625 L 48.15625 -6.65625 L 48.15625 0 Z M 4.875 0 "/></g></g></g><g fill="#1f3a68" fill-opacity="1"><g transform="translate(1125.013877, 880.475777)"><g><path d="M 33.6875 0.984375 C 28.65625 0.984375 24.140625 -0.222656 20.140625 -2.640625 C 16.140625 -5.066406 12.953125 -8.910156 10.578125 -14.171875 C 8.210938 -19.429688 7.03125 -26.125 7.03125 -34.25 C 7.03125 -42.363281 8.210938 -49.050781 10.578125 -54.3125 C 12.953125 -59.570312 16.140625 -63.410156 20.140625 -65.828125 C 24.140625 -68.253906 28.65625 -69.46875 33.6875 -69.46875 C 38.707031 -69.46875 43.21875 -68.253906 47.21875 -65.828125 C 51.21875 -63.410156 54.394531 -59.570312 56.75 -54.3125 C 59.101562 -49.050781 60.28125 -42.363281 60.28125 -34.25 C 60.28125 -26.125 59.101562 -19.429688 56.75 -14.171875 C 54.394531 -8.910156 51.21875 -5.066406 47.21875 -2.640625 C 43.21875 -0.222656 38.707031 0.984375 33.6875 0.984375 Z M 33.6875 -6.46875 C 39.644531 -6.46875 44.160156 -8.613281 47.234375 -12.90625 C 50.316406 -17.195312 51.859375 -24.3125 51.859375 -34.25 C 51.859375 -44.175781 50.316406 -51.285156 47.234375 -55.578125 C 44.160156 -59.867188 39.644531 -62.015625 33.6875 -62.015625 C 29.75 -62.015625 26.4375 -61.109375 23.75 -59.296875 C 21.0625 -57.492188 19.003906 -54.546875 17.578125 -50.453125 C 16.160156 -46.359375 15.453125 -40.957031 15.453125 -34.25 C 15.453125 -27.53125 16.160156 -22.125 17.578125 -18.03125 C 19.003906 -13.945312 21.0625 -11 23.75 -9.1875 C 26.4375 -7.375 29.75 -6.46875 33.6875 -6.46875 Z M 33.6875 -6.46875 "/></g></g></g><g fill="#1f3a68" fill-opacity="1"><g transform="translate(1192.37373, 880.475777)"><g><path d="M 4.875 0 L 4.875 -6.65625 L 23.5625 -6.65625 L 23.5625 -59.03125 L 22.484375 -59.3125 C 19.453125 -57.8125 16.796875 -56.660156 14.515625 -55.859375 C 12.242188 -55.066406 9.328125 -54.296875 5.765625 -53.546875 L 5.765625 -60.9375 C 9.296875 -61.6875 12.785156 -62.703125 16.234375 -63.984375 C 19.679688 -65.265625 22.8125 -66.765625 25.625 -68.484375 L 31.4375 -68.484375 L 31.4375 -6.65625 L 48.15625 -6.65625 L 48.15625 0 Z M 4.875 0 "/></g></g></g><g fill="#1f3a68" fill-opacity="1"><g transform="translate(1243.432311, 880.475777)"><g><path d="M 4.875 0 L 4.875 -6.65625 L 23.5625 -6.65625 L 23.5625 -59.03125 L 22.484375 -59.3125 C 19.453125 -57.8125 16.796875 -56.660156 14.515625 -55.859375 C 12.242188 -55.066406 9.328125 -54.296875 5.765625 -53.546875 L 5.765625 -60.9375 C 9.296875 -61.6875 12.785156 -62.703125 16.234375 -63.984375 C 19.679688 -65.265625 22.8125 -66.765625 25.625 -68.484375 L 31.4375 -68.484375 L 31.4375 -6.65625 L 48.15625 -6.65625 L 48.15625 0 Z M 4.875 0 "/></g></g></g><g fill="#1f3a68" fill-opacity="1"><g transform="translate(1294.490893, 880.475777)"><g><path d="M 33.6875 0.984375 C 28.65625 0.984375 24.140625 -0.222656 20.140625 -2.640625 C 16.140625 -5.066406 12.953125 -8.910156 10.578125 -14.171875 C 8.210938 -19.429688 7.03125 -26.125 7.03125 -34.25 C 7.03125 -42.363281 8.210938 -49.050781 10.578125 -54.3125 C 12.953125 -59.570312 16.140625 -63.410156 20.140625 -65.828125 C 24.140625 -68.253906 28.65625 -69.46875 33.6875 -69.46875 C 38.707031 -69.46875 43.21875 -68.253906 47.21875 -65.828125 C 51.21875 -63.410156 54.394531 -59.570312 56.75 -54.3125 C 59.101562 -49.050781 60.28125 -42.363281 60.28125 -34.25 C 60.28125 -26.125 59.101562 -19.429688 56.75 -14.171875 C 54.394531 -8.910156 51.21875 -5.066406 47.21875 -2.640625 C 43.21875 -0.222656 38.707031 0.984375 33.6875 0.984375 Z M 33.6875 -6.46875 C 39.644531 -6.46875 44.160156 -8.613281 47.234375 -12.90625 C 50.316406 -17.195312 51.859375 -24.3125 51.859375 -34.25 C 51.859375 -44.175781 50.316406 -51.285156 47.234375 -55.578125 C 44.160156 -59.867188 39.644531 -62.015625 33.6875 -62.015625 C 29.75 -62.015625 26.4375 -61.109375 23.75 -59.296875 C 21.0625 -57.492188 19.003906 -54.546875 17.578125 -50.453125 C 16.160156 -46.359375 15.453125 -40.957031 15.453125 -34.25 C 15.453125 -27.53125 16.160156 -22.125 17.578125 -18.03125 C 19.003906 -13.945312 21.0625 -11 23.75 -9.1875 C 26.4375 -7.375 29.75 -6.46875 33.6875 -6.46875 Z M 33.6875 -6.46875 "/></g></g></g><g fill="#1f3a68" fill-opacity="1"><g transform="translate(1361.850746, 880.475777)"><g><path d="M 33.6875 0.984375 C 28.65625 0.984375 24.140625 -0.222656 20.140625 -2.640625 C 16.140625 -5.066406 12.953125 -8.910156 10.578125 -14.171875 C 8.210938 -19.429688 7.03125 -26.125 7.03125 -34.25 C 7.03125 -42.363281 8.210938 -49.050781 10.578125 -54.3125 C 12.953125 -59.570312 16.140625 -63.410156 20.140625 -65.828125 C 24.140625 -68.253906 28.65625 -69.46875 33.6875 -69.46875 C 38.707031 -69.46875 43.21875 -68.253906 47.21875 -65.828125 C 51.21875 -63.410156 54.394531 -59.570312 56.75 -54.3125 C 59.101562 -49.050781 60.28125 -42.363281 60.28125 -34.25 C 60.28125 -26.125 59.101562 -19.429688 56.75 -14.171875 C 54.394531 -8.910156 51.21875 -5.066406 47.21875 -2.640625 C 43.21875 -0.222656 38.707031 0.984375 33.6875 0.984375 Z M 33.6875 -6.46875 C 39.644531 -6.46875 44.160156 -8.613281 47.234375 -12.90625 C 50.316406 -17.195312 51.859375 -24.3125 51.859375 -34.25 C 51.859375 -44.175781 50.316406 -51.285156 47.234375 -55.578125 C 44.160156 -59.867188 39.644531 -62.015625 33.6875 -62.015625 C 29.75 -62.015625 26.4375 -61.109375 23.75 -59.296875 C 21.0625 -57.492188 19.003906 -54.546875 17.578125 -50.453125 C 16.160156 -46.359375 15.453125 -40.957031 15.453125 -34.25 C 15.453125 -27.53125 16.160156 -22.125 17.578125 -18.03125 C 19.003906 -13.945312 21.0625 -11 23.75 -9.1875 C 26.4375 -7.375 29.75 -6.46875 33.6875 -6.46875 Z M 33.6875 -6.46875 "/></g></g></g><g fill="#1f3a68" fill-opacity="1"><g transform="translate(1429.210599, 880.475777)"><g><path d="M 4.875 0 L 4.875 -6.65625 L 23.5625 -6.65625 L 23.5625 -59.03125 L 22.484375 -59.3125 C 19.453125 -57.8125 16.796875 -56.660156 14.515625 -55.859375 C 12.242188 -55.066406 9.328125 -54.296875 5.765625 -53.546875 L 5.765625 -60.9375 C 9.296875 -61.6875 12.785156 -62.703125 16.234375 -63.984375 C 19.679688 -65.265625 22.8125 -66.765625 25.625 -68.484375 L 31.4375 -68.484375 L 31.4375 -6.65625 L 48.15625 -6.65625 L 48.15625 0 Z M 4.875 0 "/></g></g></g><g fill="#1f3a68" fill-opacity="1"><g transform="translate(1480.26918, 880.475777)"><g><path d="M 33.6875 0.984375 C 28.65625 0.984375 24.140625 -0.222656 20.140625 -2.640625 C 16.140625 -5.066406 12.953125 -8.910156 10.578125 -14.171875 C 8.210938 -19.429688 7.03125 -26.125 7.03125 -34.25 C 7.03125 -42.363281 8.210938 -49.050781 10.578125 -54.3125 C 12.953125 -59.570312 16.140625 -63.410156 20.140625 -65.828125 C 24.140625 -68.253906 28.65625 -69.46875 33.6875 -69.46875 C 38.707031 -69.46875 43.21875 -68.253906 47.21875 -65.828125 C 51.21875 -63.410156 54.394531 -59.570312 56.75 -54.3125 C 59.101562 -49.050781 60.28125 -42.363281 60.28125 -34.25 C 60.28125 -26.125 59.101562 -19.429688 56.75 -14.171875 C 54.394531 -8.910156 51.21875 -5.066406 47.21875 -2.640625 C 43.21875 -0.222656 38.707031 0.984375 33.6875 0.984375 Z M 33.6875 -6.46875 C 39.644531 -6.46875 44.160156 -8.613281 47.234375 -12.90625 C 50.316406 -17.195312 51.859375 -24.3125 51.859375 -34.25 C 51.859375 -44.175781 50.316406 -51.285156 47.234375 -55.578125 C 44.160156 -59.867188 39.644531 -62.015625 33.6875 -62.015625 C 29.75 -62.015625 26.4375 -61.109375 23.75 -59.296875 C 21.0625 -57.492188 19.003906 -54.546875 17.578125 -50.453125 C 16.160156 -46.359375 15.453125 -40.957031 15.453125 -34.25 C 15.453125 -27.53125 16.160156 -22.125 17.578125 -18.03125 C 19.003906 -13.945312 21.0625 -11 23.75 -9.1875 C 26.4375 -7.375 29.75 -6.46875 33.6875 -6.46875 Z M 33.6875 -6.46875 "/></g></g></g></svg>