<svg xmlns="http://www.w3.org/2000/svg" xmlns:xlink="http://www.w3.org/1999/xlink" width="3000" zoomAndPan="magnify" viewBox="0 0 2250 2250.000011" height="3000" preserveAspectRatio="xMidYMid meet" version="1.0"><defs><g/><clipPath id="f658d2be58"><path d="M 169 1359.046875 L 2081 1359.046875 L 2081 2024 L 169 2024 Z M 169 1359.046875 " clip-rule="nonzero"/></clipPath></defs><path fill="#1f3a68" d="M 1946.210938 1972.675781 L 1946.210938 1425.289062 L 1998.140625 1425.289062 L 1998.140625 1972.675781 L 1946.210938 1972.675781 " fill-opacity="1" fill-rule="nonzero"/><path fill="#1f3a68" d="M 1804.578125 1972.675781 L 1804.578125 1425.289062 L 1856.511719 1425.289062 L 1856.511719 1972.675781 L 1804.578125 1972.675781 " fill-opacity="1" fill-rule="nonzero"/><path fill="#1f3a68" d="M 388.441406 1953.882812 L 388.441406 1406.410156 L 440.375 1406.410156 L 440.375 1953.882812 L 388.441406 1953.882812 " fill-opacity="1" fill-rule="nonzero"/><path fill="#1f3a68" d="M 246.8125 1953.882812 L 246.8125 1406.410156 L 298.742188 1406.410156 L 298.742188 1953.882812 L 246.8125 1953.882812 " fill-opacity="1" fill-rule="nonzero"/><path fill="#1f3a68" d="M 1348.496094 1927.503906 C 1360.71875 1919.074219 1373.449219 1910.226562 1386.855469 1902.640625 L 1386.855469 1455.882812 C 1368.730469 1447.875 1351.785156 1437.761719 1334.921875 1427.144531 L 1334.921875 1936.269531 C 1339.476562 1933.488281 1344.027344 1930.535156 1348.496094 1927.503906 " fill-opacity="1" fill-rule="nonzero"/><path fill="#1f3a68" d="M 1183.261719 1947.980469 L 1183.261719 1400.511719 L 1235.191406 1400.511719 L 1235.191406 1947.980469 L 1183.261719 1947.980469 " fill-opacity="1" fill-rule="nonzero"/><path fill="#1f3a68" d="M 1031.597656 1965.597656 L 1031.597656 1418.210938 L 1083.527344 1418.210938 L 1083.527344 1965.597656 L 1031.597656 1965.597656 " fill-opacity="1" fill-rule="nonzero"/><path fill="#1f3a68" d="M 931.867188 1948.320312 L 931.867188 1451.246094 C 914.332031 1463.890625 897.46875 1477.542969 880.019531 1489.929688 L 880.019531 1917.640625 C 897.132812 1928.007812 914.5 1938.289062 931.867188 1948.320312 " fill-opacity="1" fill-rule="nonzero"/><g clip-path="url(#f658d2be58)"><path fill="#1f3a68" d="M 169 1974.867188 C 169 1947.476562 191.085938 1925.3125 218.484375 1925.3125 C 421.320312 1925.3125 524.085938 1796.871094 633.007812 1661.015625 C 746.144531 1519.679688 874.453125 1359.46875 1124.835938 1359.46875 C 1375.21875 1359.46875 1503.53125 1519.679688 1616.667969 1661.015625 C 1725.585938 1796.871094 1828.4375 1925.3125 2031.1875 1925.3125 C 2058.503906 1925.3125 2080.71875 1947.476562 2080.71875 1974.867188 C 2080.71875 2002.257812 2058.503906 2024.421875 2031.1875 2024.421875 C 1780.804688 2024.421875 1652.496094 1864.210938 1539.277344 1722.875 C 1430.4375 1586.933594 1327.589844 1458.578125 1124.835938 1458.578125 C 922.085938 1458.578125 819.234375 1586.933594 710.316406 1722.875 C 597.179688 1864.210938 468.867188 2024.421875 218.484375 2024.421875 C 191.085938 2024.421875 169 2002.257812 169 1974.867188 " fill-opacity="1" fill-rule="nonzero"/><path fill="#4eb1cb" d="M 169 1409.023438 C 169 1381.632812 191.085938 1359.46875 218.484375 1359.46875 C 468.867188 1359.46875 597.179688 1519.679688 710.316406 1661.015625 C 819.234375 1796.871094 922.085938 1925.3125 1124.835938 1925.3125 C 1327.589844 1925.3125 1430.4375 1796.871094 1539.277344 1661.015625 C 1652.496094 1519.679688 1780.804688 1359.46875 2031.1875 1359.46875 C 2058.503906 1359.46875 2080.71875 1381.632812 2080.71875 1409.023438 C 2080.71875 1436.414062 2058.503906 1458.578125 2031.1875 1458.578125 C 1828.4375 1458.578125 1725.585938 1586.933594 1616.667969 1722.875 C 1503.53125 1864.210938 1375.21875 2024.421875 1124.835938 2024.421875 C 874.453125 2024.421875 746.144531 1864.210938 633.007812 1722.875 C 524.085938 1586.933594 421.320312 1458.578125 218.484375 1458.578125 C 191.085938 1458.578125 169 1436.414062 169 1409.023438 " fill-opacity="1" fill-rule="nonzero"/></g><g fill="#1f3a68" fill-opacity="1"><g transform="translate(242.714246, 1001.987004)"><g><path d="M 71.703125 2.09375 C 61.003906 2.09375 51.398438 -0.476562 42.890625 -5.625 C 34.378906 -10.78125 27.59375 -18.957031 22.53125 -30.15625 C 17.476562 -41.363281 14.953125 -55.613281 14.953125 -72.90625 C 14.953125 -90.1875 17.476562 -104.425781 22.53125 -115.625 C 27.59375 -126.832031 34.378906 -135.015625 42.890625 -140.171875 C 51.398438 -145.328125 61.003906 -147.90625 71.703125 -147.90625 C 82.410156 -147.90625 92.019531 -145.328125 100.53125 -140.171875 C 109.039062 -135.015625 115.804688 -126.832031 120.828125 -115.625 C 125.847656 -104.425781 128.359375 -90.1875 128.359375 -72.90625 C 128.359375 -55.613281 125.847656 -41.363281 120.828125 -30.15625 C 115.804688 -18.957031 109.039062 -10.78125 100.53125 -5.625 C 92.019531 -0.476562 82.410156 2.09375 71.703125 2.09375 Z M 71.703125 -13.765625 C 84.398438 -13.765625 94.023438 -18.332031 100.578125 -27.46875 C 107.128906 -36.613281 110.40625 -51.757812 110.40625 -72.90625 C 110.40625 -94.050781 107.128906 -109.191406 100.578125 -118.328125 C 94.023438 -127.472656 84.398438 -132.046875 71.703125 -132.046875 C 63.328125 -132.046875 56.28125 -130.113281 50.5625 -126.25 C 44.84375 -122.394531 40.46875 -116.113281 37.4375 -107.40625 C 34.414062 -98.695312 32.90625 -87.195312 32.90625 -72.90625 C 32.90625 -58.613281 34.414062 -47.109375 37.4375 -38.390625 C 40.46875 -29.679688 44.84375 -23.398438 50.5625 -19.546875 C 56.28125 -15.691406 63.328125 -13.765625 71.703125 -13.765625 Z M 71.703125 -13.765625 "/></g></g></g><g fill="#1f3a68" fill-opacity="1"><g transform="translate(386.111123, 1001.987004)"><g><path d="M 10.375 0 L 10.375 -14.15625 L 50.171875 -14.15625 L 50.171875 -125.65625 L 47.875 -126.265625 C 41.425781 -123.066406 35.773438 -120.617188 30.921875 -118.921875 C 26.066406 -117.234375 19.847656 -115.59375 12.265625 -114 L 12.265625 -129.75 C 19.773438 -131.34375 27.203125 -133.503906 34.546875 -136.234375 C 41.898438 -138.960938 48.566406 -142.15625 54.546875 -145.8125 L 66.921875 -145.8125 L 66.921875 -14.15625 L 102.53125 -14.15625 L 102.53125 0 Z M 10.375 0 "/></g></g></g><g fill="#1f3a68" fill-opacity="1"><g transform="translate(494.805557, 1001.987004)"><g><path d="M 71.703125 2.09375 C 61.003906 2.09375 51.398438 -0.476562 42.890625 -5.625 C 34.378906 -10.78125 27.59375 -18.957031 22.53125 -30.15625 C 17.476562 -41.363281 14.953125 -55.613281 14.953125 -72.90625 C 14.953125 -90.1875 17.476562 -104.425781 22.53125 -115.625 C 27.59375 -126.832031 34.378906 -135.015625 42.890625 -140.171875 C 51.398438 -145.328125 61.003906 -147.90625 71.703125 -147.90625 C 82.410156 -147.90625 92.019531 -145.328125 100.53125 -140.171875 C 109.039062 -135.015625 115.804688 -126.832031 120.828125 -115.625 C 125.847656 -104.425781 128.359375 -90.1875 128.359375 -72.90625 C 128.359375 -55.613281 125.847656 -41.363281 120.828125 -30.15625 C 115.804688 -18.957031 109.039062 -10.78125 100.53125 -5.625 C 92.019531 -0.476562 82.410156 2.09375 71.703125 2.09375 Z M 71.703125 -13.765625 C 84.398438 -13.765625 94.023438 -18.332031 100.578125 -27.46875 C 107.128906 -36.613281 110.40625 -51.757812 110.40625 -72.90625 C 110.40625 -94.050781 107.128906 -109.191406 100.578125 -118.328125 C 94.023438 -127.472656 84.398438 -132.046875 71.703125 -132.046875 C 63.328125 -132.046875 56.28125 -130.113281 50.5625 -126.25 C 44.84375 -122.394531 40.46875 -116.113281 37.4375 -107.40625 C 34.414062 -98.695312 32.90625 -87.195312 32.90625 -72.90625 C 32.90625 -58.613281 34.414062 -47.109375 37.4375 -38.390625 C 40.46875 -29.679688 44.84375 -23.398438 50.5625 -19.546875 C 56.28125 -15.691406 63.328125 -13.765625 71.703125 -13.765625 Z M 71.703125 -13.765625 "/></g></g></g><g fill="#1f3a68" fill-opacity="1"><g transform="translate(638.202434, 1001.987004)"><g><path d="M 10.375 0 L 10.375 -14.15625 L 50.171875 -14.15625 L 50.171875 -125.65625 L 47.875 -126.265625 C 41.425781 -123.066406 35.773438 -120.617188 30.921875 -118.921875 C 26.066406 -117.234375 19.847656 -115.59375 12.265625 -114 L 12.265625 -129.75 C 19.773438 -131.34375 27.203125 -133.503906 34.546875 -136.234375 C 41.898438 -138.960938 48.566406 -142.15625 54.546875 -145.8125 L 66.921875 -145.8125 L 66.921875 -14.15625 L 102.53125 -14.15625 L 102.53125 0 Z M 10.375 0 "/></g></g></g><g fill="#1f3a68" fill-opacity="1"><g transform="translate(746.896868, 1001.987004)"><g><path d="M 71.703125 2.09375 C 61.003906 2.09375 51.398438 -0.476562 42.890625 -5.625 C 34.378906 -10.78125 27.59375 -18.957031 22.53125 -30.15625 C 17.476562 -41.363281 14.953125 -55.613281 14.953125 -72.90625 C 14.953125 -90.1875 17.476562 -104.425781 22.53125 -115.625 C 27.59375 -126.832031 34.378906 -135.015625 42.890625 -140.171875 C 51.398438 -145.328125 61.003906 -147.90625 71.703125 -147.90625 C 82.410156 -147.90625 92.019531 -145.328125 100.53125 -140.171875 C 109.039062 -135.015625 115.804688 -126.832031 120.828125 -115.625 C 125.847656 -104.425781 128.359375 -90.1875 128.359375 -72.90625 C 128.359375 -55.613281 125.847656 -41.363281 120.828125 -30.15625 C 115.804688 -18.957031 109.039062 -10.78125 100.53125 -5.625 C 92.019531 -0.476562 82.410156 2.09375 71.703125 2.09375 Z M 71.703125 -13.765625 C 84.398438 -13.765625 94.023438 -18.332031 100.578125 -27.46875 C 107.128906 -36.613281 110.40625 -51.757812 110.40625 -72.90625 C 110.40625 -94.050781 107.128906 -109.191406 100.578125 -118.328125 C 94.023438 -127.472656 84.398438 -132.046875 71.703125 -132.046875 C 63.328125 -132.046875 56.28125 -130.113281 50.5625 -126.25 C 44.84375 -122.394531 40.46875 -116.113281 37.4375 -107.40625 C 34.414062 -98.695312 32.90625 -87.195312 32.90625 -72.90625 C 32.90625 -58.613281 34.414062 -47.109375 37.4375 -38.390625 C 40.46875 -29.679688 44.84375 -23.398438 50.5625 -19.546875 C 56.28125 -15.691406 63.328125 -13.765625 71.703125 -13.765625 Z M 71.703125 -13.765625 "/></g></g></g><g fill="#1f3a68" fill-opacity="1"><g transform="translate(890.293745, 1001.987004)"><g><path d="M 10.375 0 L 10.375 -14.15625 L 50.171875 -14.15625 L 50.171875 -125.65625 L 47.875 -126.265625 C 41.425781 -123.066406 35.773438 -120.617188 30.921875 -118.921875 C 26.066406 -117.234375 19.847656 -115.59375 12.265625 -114 L 12.265625 -129.75 C 19.773438 -131.34375 27.203125 -133.503906 34.546875 -136.234375 C 41.898438 -138.960938 48.566406 -142.15625 54.546875 -145.8125 L 66.921875 -145.8125 L 66.921875 -14.15625 L 102.53125 -14.15625 L 102.53125 0 Z M 10.375 0 "/></g></g></g><g fill="#1f3a68" fill-opacity="1"><g transform="translate(998.988179, 1001.987004)"><g><path d="M 71.703125 2.09375 C 61.003906 2.09375 51.398438 -0.476562 42.890625 -5.625 C 34.378906 -10.78125 27.59375 -18.957031 22.53125 -30.15625 C 17.476562 -41.363281 14.953125 -55.613281 14.953125 -72.90625 C 14.953125 -90.1875 17.476562 -104.425781 22.53125 -115.625 C 27.59375 -126.832031 34.378906 -135.015625 42.890625 -140.171875 C 51.398438 -145.328125 61.003906 -147.90625 71.703125 -147.90625 C 82.410156 -147.90625 92.019531 -145.328125 100.53125 -140.171875 C 109.039062 -135.015625 115.804688 -126.832031 120.828125 -115.625 C 125.847656 -104.425781 128.359375 -90.1875 128.359375 -72.90625 C 128.359375 -55.613281 125.847656 -41.363281 120.828125 -30.15625 C 115.804688 -18.957031 109.039062 -10.78125 100.53125 -5.625 C 92.019531 -0.476562 82.410156 2.09375 71.703125 2.09375 Z M 71.703125 -13.765625 C 84.398438 -13.765625 94.023438 -18.332031 100.578125 -27.46875 C 107.128906 -36.613281 110.40625 -51.757812 110.40625 -72.90625 C 110.40625 -94.050781 107.128906 -109.191406 100.578125 -118.328125 C 94.023438 -127.472656 84.398438 -132.046875 71.703125 -132.046875 C 63.328125 -132.046875 56.28125 -130.113281 50.5625 -126.25 C 44.84375 -122.394531 40.46875 -116.113281 37.4375 -107.40625 C 34.414062 -98.695312 32.90625 -87.195312 32.90625 -72.90625 C 32.90625 -58.613281 34.414062 -47.109375 37.4375 -38.390625 C 40.46875 -29.679688 44.84375 -23.398438 50.5625 -19.546875 C 56.28125 -15.691406 63.328125 -13.765625 71.703125 -13.765625 Z M 71.703125 -13.765625 "/></g></g></g><g fill="#1f3a68" fill-opacity="1"><g transform="translate(1142.385055, 1001.987004)"><g><path d="M 10.375 0 L 10.375 -14.15625 L 50.171875 -14.15625 L 50.171875 -125.65625 L 47.875 -126.265625 C 41.425781 -123.066406 35.773438 -120.617188 30.921875 -118.921875 C 26.066406 -117.234375 19.847656 -115.59375 12.265625 -114 L 12.265625 -129.75 C 19.773438 -131.34375 27.203125 -133.503906 34.546875 -136.234375 C 41.898438 -138.960938 48.566406 -142.15625 54.546875 -145.8125 L 66.921875 -145.8125 L 66.921875 -14.15625 L 102.53125 -14.15625 L 102.53125 0 Z M 10.375 0 "/></g></g></g><g fill="#1f3a68" fill-opacity="1"><g transform="translate(1251.07949, 1001.987004)"><g><path d="M 10.375 0 L 10.375 -14.15625 L 50.171875 -14.15625 L 50.171875 -125.65625 L 47.875 -126.265625 C 41.425781 -123.066406 35.773438 -120.617188 30.921875 -118.921875 C 26.066406 -117.234375 19.847656 -115.59375 12.265625 -114 L 12.265625 -129.75 C 19.773438 -131.34375 27.203125 -133.503906 34.546875 -136.234375 C 41.898438 -138.960938 48.566406 -142.15625 54.546875 -145.8125 L 66.921875 -145.8125 L 66.921875 -14.15625 L 102.53125 -14.15625 L 102.53125 0 Z M 10.375 0 "/></g></g></g><g fill="#1f3a68" fill-opacity="1"><g transform="translate(1359.773924, 1001.987004)"><g><path d="M 10.375 0 L 10.375 -14.15625 L 50.171875 -14.15625 L 50.171875 -125.65625 L 47.875 -126.265625 C 41.425781 -123.066406 35.773438 -120.617188 30.921875 -118.921875 C 26.066406 -117.234375 19.847656 -115.59375 12.265625 -114 L 12.265625 -129.75 C 19.773438 -131.34375 27.203125 -133.503906 34.546875 -136.234375 C 41.898438 -138.960938 48.566406 -142.15625 54.546875 -145.8125 L 66.921875 -145.8125 L 66.921875 -14.15625 L 102.53125 -14.15625 L 102.53125 0 Z M 10.375 0 "/></g></g></g><g fill="#1f3a68" fill-opacity="1"><g transform="translate(1468.468358, 1001.987004)"><g><path d="M 71.703125 2.09375 C 61.003906 2.09375 51.398438 -0.476562 42.890625 -5.625 C 34.378906 -10.78125 27.59375 -18.957031 22.53125 -30.15625 C 17.476562 -41.363281 14.953125 -55.613281 14.953125 -72.90625 C 14.953125 -90.1875 17.476562 -104.425781 22.53125 -115.625 C 27.59375 -126.832031 34.378906 -135.015625 42.890625 -140.171875 C 51.398438 -145.328125 61.003906 -147.90625 71.703125 -147.90625 C 82.410156 -147.90625 92.019531 -145.328125 100.53125 -140.171875 C 109.039062 -135.015625 115.804688 -126.832031 120.828125 -115.625 C 125.847656 -104.425781 128.359375 -90.1875 128.359375 -72.90625 C 128.359375 -55.613281 125.847656 -41.363281 120.828125 -30.15625 C 115.804688 -18.957031 109.039062 -10.78125 100.53125 -5.625 C 92.019531 -0.476562 82.410156 2.09375 71.703125 2.09375 Z M 71.703125 -13.765625 C 84.398438 -13.765625 94.023438 -18.332031 100.578125 -27.46875 C 107.128906 -36.613281 110.40625 -51.757812 110.40625 -72.90625 C 110.40625 -94.050781 107.128906 -109.191406 100.578125 -118.328125 C 94.023438 -127.472656 84.398438 -132.046875 71.703125 -132.046875 C 63.328125 -132.046875 56.28125 -130.113281 50.5625 -126.25 C 44.84375 -122.394531 40.46875 -116.113281 37.4375 -107.40625 C 34.414062 -98.695312 32.90625 -87.195312 32.90625 -72.90625 C 32.90625 -58.613281 34.414062 -47.109375 37.4375 -38.390625 C 40.46875 -29.679688 44.84375 -23.398438 50.5625 -19.546875 C 56.28125 -15.691406 63.328125 -13.765625 71.703125 -13.765625 Z M 71.703125 -13.765625 "/></g></g></g><g fill="#1f3a68" fill-opacity="1"><g transform="translate(1611.865235, 1001.987004)"><g><path d="M 71.703125 2.09375 C 61.003906 2.09375 51.398438 -0.476562 42.890625 -5.625 C 34.378906 -10.78125 27.59375 -18.957031 22.53125 -30.15625 C 17.476562 -41.363281 14.953125 -55.613281 14.953125 -72.90625 C 14.953125 -90.1875 17.476562 -104.425781 22.53125 -115.625 C 27.59375 -126.832031 34.378906 -135.015625 42.890625 -140.171875 C 51.398438 -145.328125 61.003906 -147.90625 71.703125 -147.90625 C 82.410156 -147.90625 92.019531 -145.328125 100.53125 -140.171875 C 109.039062 -135.015625 115.804688 -126.832031 120.828125 -115.625 C 125.847656 -104.425781 128.359375 -90.1875 128.359375 -72.90625 C 128.359375 -55.613281 125.847656 -41.363281 120.828125 -30.15625 C 115.804688 -18.957031 109.039062 -10.78125 100.53125 -5.625 C 92.019531 -0.476562 82.410156 2.09375 71.703125 2.09375 Z M 71.703125 -13.765625 C 84.398438 -13.765625 94.023438 -18.332031 100.578125 -27.46875 C 107.128906 -36.613281 110.40625 -51.757812 110.40625 -72.90625 C 110.40625 -94.050781 107.128906 -109.191406 100.578125 -118.328125 C 94.023438 -127.472656 84.398438 -132.046875 71.703125 -132.046875 C 63.328125 -132.046875 56.28125 -130.113281 50.5625 -126.25 C 44.84375 -122.394531 40.46875 -116.113281 37.4375 -107.40625 C 34.414062 -98.695312 32.90625 -87.195312 32.90625 -72.90625 C 32.90625 -58.613281 34.414062 -47.109375 37.4375 -38.390625 C 40.46875 -29.679688 44.84375 -23.398438 50.5625 -19.546875 C 56.28125 -15.691406 63.328125 -13.765625 71.703125 -13.765625 Z M 71.703125 -13.765625 "/></g></g></g><g fill="#1f3a68" fill-opacity="1"><g transform="translate(1755.262111, 1001.987004)"><g><path d="M 10.375 0 L 10.375 -14.15625 L 50.171875 -14.15625 L 50.171875 -125.65625 L 47.875 -126.265625 C 41.425781 -123.066406 35.773438 -120.617188 30.921875 -118.921875 C 26.066406 -117.234375 19.847656 -115.59375 12.265625 -114 L 12.265625 -129.75 C 19.773438 -131.34375 27.203125 -133.503906 34.546875 -136.234375 C 41.898438 -138.960938 48.566406 -142.15625 54.546875 -145.8125 L 66.921875 -145.8125 L 66.921875 -14.15625 L 102.53125 -14.15625 L 102.53125 0 Z M 10.375 0 "/></g></g></g><g fill="#1f3a68" fill-opacity="1"><g transform="translate(1863.956546, 1001.987004)"><g><path d="M 71.703125 2.09375 C 61.003906 2.09375 51.398438 -0.476562 42.890625 -5.625 C 34.378906 -10.78125 27.59375 -18.957031 22.53125 -30.15625 C 17.476562 -41.363281 14.953125 -55.613281 14.953125 -72.90625 C 14.953125 -90.1875 17.476562 -104.425781 22.53125 -115.625 C 27.59375 -126.832031 34.378906 -135.015625 42.890625 -140.171875 C 51.398438 -145.328125 61.003906 -147.90625 71.703125 -147.90625 C 82.410156 -147.90625 92.019531 -145.328125 100.53125 -140.171875 C 109.039062 -135.015625 115.804688 -126.832031 120.828125 -115.625 C 125.847656 -104.425781 128.359375 -90.1875 128.359375 -72.90625 C 128.359375 -55.613281 125.847656 -41.363281 120.828125 -30.15625 C 115.804688 -18.957031 109.039062 -10.78125 100.53125 -5.625 C 92.019531 -0.476562 82.410156 2.09375 71.703125 2.09375 Z M 71.703125 -13.765625 C 84.398438 -13.765625 94.023438 -18.332031 100.578125 -27.46875 C 107.128906 -36.613281 110.40625 -51.757812 110.40625 -72.90625 C 110.40625 -94.050781 107.128906 -109.191406 100.578125 -118.328125 C 94.023438 -127.472656 84.398438 -132.046875 71.703125 -132.046875 C 63.328125 -132.046875 56.28125 -130.113281 50.5625 -126.25 C 44.84375 -122.394531 40.46875 -116.113281 37.4375 -107.40625 C 34.414062 -98.695312 32.90625 -87.195312 32.90625 -72.90625 C 32.90625 -58.613281 34.414062 -47.109375 37.4375 -38.390625 C 40.46875 -29.679688 44.84375 -23.398438 50.5625 -19.546875 C 56.28125 -15.691406 63.328125 -13.765625 71.703125 -13.765625 Z M 71.703125 -13.765625 "/></g></g></g><g fill="#1f3a68" fill-opacity="1"><g transform="translate(225.358786, 1247.613516)"><g><path d="M 71.703125 2.09375 C 61.003906 2.09375 51.398438 -0.476562 42.890625 -5.625 C 34.378906 -10.78125 27.59375 -18.957031 22.53125 -30.15625 C 17.476562 -41.363281 14.953125 -55.613281 14.953125 -72.90625 C 14.953125 -90.1875 17.476562 -104.425781 22.53125 -115.625 C 27.59375 -126.832031 34.378906 -135.015625 42.890625 -140.171875 C 51.398438 -145.328125 61.003906 -147.90625 71.703125 -147.90625 C 82.410156 -147.90625 92.019531 -145.328125 100.53125 -140.171875 C 109.039062 -135.015625 115.804688 -126.832031 120.828125 -115.625 C 125.847656 -104.425781 128.359375 -90.1875 128.359375 -72.90625 C 128.359375 -55.613281 125.847656 -41.363281 120.828125 -30.15625 C 115.804688 -18.957031 109.039062 -10.78125 100.53125 -5.625 C 92.019531 -0.476562 82.410156 2.09375 71.703125 2.09375 Z M 71.703125 -13.765625 C 84.398438 -13.765625 94.023438 -18.332031 100.578125 -27.46875 C 107.128906 -36.613281 110.40625 -51.757812 110.40625 -72.90625 C 110.40625 -94.050781 107.128906 -109.191406 100.578125 -118.328125 C 94.023438 -127.472656 84.398438 -132.046875 71.703125 -132.046875 C 63.328125 -132.046875 56.28125 -130.113281 50.5625 -126.25 C 44.84375 -122.394531 40.46875 -116.113281 37.4375 -107.40625 C 34.414062 -98.695312 32.90625 -87.195312 32.90625 -72.90625 C 32.90625 -58.613281 34.414062 -47.109375 37.4375 -38.390625 C 40.46875 -29.679688 44.84375 -23.398438 50.5625 -19.546875 C 56.28125 -15.691406 63.328125 -13.765625 71.703125 -13.765625 Z M 71.703125 -13.765625 "/></g></g></g><g fill="#1f3a68" fill-opacity="1"><g transform="translate(368.755663, 1247.613516)"><g><path d="M 10.375 0 L 10.375 -14.15625 L 50.171875 -14.15625 L 50.171875 -125.65625 L 47.875 -126.265625 C 41.425781 -123.066406 35.773438 -120.617188 30.921875 -118.921875 C 26.066406 -117.234375 19.847656 -115.59375 12.265625 -114 L 12.265625 -129.75 C 19.773438 -131.34375 27.203125 -133.503906 34.546875 -136.234375 C 41.898438 -138.960938 48.566406 -142.15625 54.546875 -145.8125 L 66.921875 -145.8125 L 66.921875 -14.15625 L 102.53125 -14.15625 L 102.53125 0 Z M 10.375 0 "/></g></g></g><g fill="#1f3a68" fill-opacity="1"><g transform="translate(477.450097, 1247.613516)"><g><path d="M 71.703125 2.09375 C 61.003906 2.09375 51.398438 -0.476562 42.890625 -5.625 C 34.378906 -10.78125 27.59375 -18.957031 22.53125 -30.15625 C 17.476562 -41.363281 14.953125 -55.613281 14.953125 -72.90625 C 14.953125 -90.1875 17.476562 -104.425781 22.53125 -115.625 C 27.59375 -126.832031 34.378906 -135.015625 42.890625 -140.171875 C 51.398438 -145.328125 61.003906 -147.90625 71.703125 -147.90625 C 82.410156 -147.90625 92.019531 -145.328125 100.53125 -140.171875 C 109.039062 -135.015625 115.804688 -126.832031 120.828125 -115.625 C 125.847656 -104.425781 128.359375 -90.1875 128.359375 -72.90625 C 128.359375 -55.613281 125.847656 -41.363281 120.828125 -30.15625 C 115.804688 -18.957031 109.039062 -10.78125 100.53125 -5.625 C 92.019531 -0.476562 82.410156 2.09375 71.703125 2.09375 Z M 71.703125 -13.765625 C 84.398438 -13.765625 94.023438 -18.332031 100.578125 -27.46875 C 107.128906 -36.613281 110.40625 -51.757812 110.40625 -72.90625 C 110.40625 -94.050781 107.128906 -109.191406 100.578125 -118.328125 C 94.023438 -127.472656 84.398438 -132.046875 71.703125 -132.046875 C 63.328125 -132.046875 56.28125 -130.113281 50.5625 -126.25 C 44.84375 -122.394531 40.46875 -116.113281 37.4375 -107.40625 C 34.414062 -98.695312 32.90625 -87.195312 32.90625 -72.90625 C 32.90625 -58.613281 34.414062 -47.109375 37.4375 -38.390625 C 40.46875 -29.679688 44.84375 -23.398438 50.5625 -19.546875 C 56.28125 -15.691406 63.328125 -13.765625 71.703125 -13.765625 Z M 71.703125 -13.765625 "/></g></g></g><g fill="#1f3a68" fill-opacity="1"><g transform="translate(620.846973, 1247.613516)"><g><path d="M 10.375 0 L 10.375 -14.15625 L 50.171875 -14.15625 L 50.171875 -125.65625 L 47.875 -126.265625 C 41.425781 -123.066406 35.773438 -120.617188 30.921875 -118.921875 C 26.066406 -117.234375 19.847656 -115.59375 12.265625 -114 L 12.265625 -129.75 C 19.773438 -131.34375 27.203125 -133.503906 34.546875 -136.234375 C 41.898438 -138.960938 48.566406 -142.15625 54.546875 -145.8125 L 66.921875 -145.8125 L 66.921875 -14.15625 L 102.53125 -14.15625 L 102.53125 0 Z M 10.375 0 "/></g></g></g><g fill="#1f3a68" fill-opacity="1"><g transform="translate(729.541408, 1247.613516)"><g><path d="M 71.703125 2.09375 C 61.003906 2.09375 51.398438 -0.476562 42.890625 -5.625 C 34.378906 -10.78125 27.59375 -18.957031 22.53125 -30.15625 C 17.476562 -41.363281 14.953125 -55.613281 14.953125 -72.90625 C 14.953125 -90.1875 17.476562 -104.425781 22.53125 -115.625 C 27.59375 -126.832031 34.378906 -135.015625 42.890625 -140.171875 C 51.398438 -145.328125 61.003906 -147.90625 71.703125 -147.90625 C 82.410156 -147.90625 92.019531 -145.328125 100.53125 -140.171875 C 109.039062 -135.015625 115.804688 -126.832031 120.828125 -115.625 C 125.847656 -104.425781 128.359375 -90.1875 128.359375 -72.90625 C 128.359375 -55.613281 125.847656 -41.363281 120.828125 -30.15625 C 115.804688 -18.957031 109.039062 -10.78125 100.53125 -5.625 C 92.019531 -0.476562 82.410156 2.09375 71.703125 2.09375 Z M 71.703125 -13.765625 C 84.398438 -13.765625 94.023438 -18.332031 100.578125 -27.46875 C 107.128906 -36.613281 110.40625 -51.757812 110.40625 -72.90625 C 110.40625 -94.050781 107.128906 -109.191406 100.578125 -118.328125 C 94.023438 -127.472656 84.398438 -132.046875 71.703125 -132.046875 C 63.328125 -132.046875 56.28125 -130.113281 50.5625 -126.25 C 44.84375 -122.394531 40.46875 -116.113281 37.4375 -107.40625 C 34.414062 -98.695312 32.90625 -87.195312 32.90625 -72.90625 C 32.90625 -58.613281 34.414062 -47.109375 37.4375 -38.390625 C 40.46875 -29.679688 44.84375 -23.398438 50.5625 -19.546875 C 56.28125 -15.691406 63.328125 -13.765625 71.703125 -13.765625 Z M 71.703125 -13.765625 "/></g></g></g><g fill="#1f3a68" fill-opacity="1"><g transform="translate(872.938284, 1247.613516)"><g><path d="M 10.375 0 L 10.375 -14.15625 L 50.171875 -14.15625 L 50.171875 -125.65625 L 47.875 -126.265625 C 41.425781 -123.066406 35.773438 -120.617188 30.921875 -118.921875 C 26.066406 -117.234375 19.847656 -115.59375 12.265625 -114 L 12.265625 -129.75 C 19.773438 -131.34375 27.203125 -133.503906 34.546875 -136.234375 C 41.898438 -138.960938 48.566406 -142.15625 54.546875 -145.8125 L 66.921875 -145.8125 L 66.921875 -14.15625 L 102.53125 -14.15625 L 102.53125 0 Z M 10.375 0 "/></g></g></g><g fill="#1f3a68" fill-opacity="1"><g transform="translate(981.632719, 1247.613516)"><g><path d="M 71.703125 2.09375 C 61.003906 2.09375 51.398438 -0.476562 42.890625 -5.625 C 34.378906 -10.78125 27.59375 -18.957031 22.53125 -30.15625 C 17.476562 -41.363281 14.953125 -55.613281 14.953125 -72.90625 C 14.953125 -90.1875 17.476562 -104.425781 22.53125 -115.625 C 27.59375 -126.832031 34.378906 -135.015625 42.890625 -140.171875 C 51.398438 -145.328125 61.003906 -147.90625 71.703125 -147.90625 C 82.410156 -147.90625 92.019531 -145.328125 100.53125 -140.171875 C 109.039062 -135.015625 115.804688 -126.832031 120.828125 -115.625 C 125.847656 -104.425781 128.359375 -90.1875 128.359375 -72.90625 C 128.359375 -55.613281 125.847656 -41.363281 120.828125 -30.15625 C 115.804688 -18.957031 109.039062 -10.78125 100.53125 -5.625 C 92.019531 -0.476562 82.410156 2.09375 71.703125 2.09375 Z M 71.703125 -13.765625 C 84.398438 -13.765625 94.023438 -18.332031 100.578125 -27.46875 C 107.128906 -36.613281 110.40625 -51.757812 110.40625 -72.90625 C 110.40625 -94.050781 107.128906 -109.191406 100.578125 -118.328125 C 94.023438 -127.472656 84.398438 -132.046875 71.703125 -132.046875 C 63.328125 -132.046875 56.28125 -130.113281 50.5625 -126.25 C 44.84375 -122.394531 40.46875 -116.113281 37.4375 -107.40625 C 34.414062 -98.695312 32.90625 -87.195312 32.90625 -72.90625 C 32.90625 -58.613281 34.414062 -47.109375 37.4375 -38.390625 C 40.46875 -29.679688 44.84375 -23.398438 50.5625 -19.546875 C 56.28125 -15.691406 63.328125 -13.765625 71.703125 -13.765625 Z M 71.703125 -13.765625 "/></g></g></g><g fill="#1f3a68" fill-opacity="1"><g transform="translate(1125.029595, 1247.613516)"><g><path d="M 10.375 0 L 10.375 -14.15625 L 50.171875 -14.15625 L 50.171875 -125.65625 L 47.875 -126.265625 C 41.425781 -123.066406 35.773438 -120.617188 30.921875 -118.921875 C 26.066406 -117.234375 19.847656 -115.59375 12.265625 -114 L 12.265625 -129.75 C 19.773438 -131.34375 27.203125 -133.503906 34.546875 -136.234375 C 41.898438 -138.960938 48.566406 -142.15625 54.546875 -145.8125 L 66.921875 -145.8125 L 66.921875 -14.15625 L 102.53125 -14.15625 L 102.53125 0 Z M 10.375 0 "/></g></g></g><g fill="#1f3a68" fill-opacity="1"><g transform="translate(1233.724029, 1247.613516)"><g><path d="M 10.375 0 L 10.375 -14.15625 L 50.171875 -14.15625 L 50.171875 -125.65625 L 47.875 -126.265625 C 41.425781 -123.066406 35.773438 -120.617188 30.921875 -118.921875 C 26.066406 -117.234375 19.847656 -115.59375 12.265625 -114 L 12.265625 -129.75 C 19.773438 -131.34375 27.203125 -133.503906 34.546875 -136.234375 C 41.898438 -138.960938 48.566406 -142.15625 54.546875 -145.8125 L 66.921875 -145.8125 L 66.921875 -14.15625 L 102.53125 -14.15625 L 102.53125 0 Z M 10.375 0 "/></g></g></g><g fill="#1f3a68" fill-opacity="1"><g transform="translate(1342.418464, 1247.613516)"><g><path d="M 71.703125 2.09375 C 61.003906 2.09375 51.398438 -0.476562 42.890625 -5.625 C 34.378906 -10.78125 27.59375 -18.957031 22.53125 -30.15625 C 17.476562 -41.363281 14.953125 -55.613281 14.953125 -72.90625 C 14.953125 -90.1875 17.476562 -104.425781 22.53125 -115.625 C 27.59375 -126.832031 34.378906 -135.015625 42.890625 -140.171875 C 51.398438 -145.328125 61.003906 -147.90625 71.703125 -147.90625 C 82.410156 -147.90625 92.019531 -145.328125 100.53125 -140.171875 C 109.039062 -135.015625 115.804688 -126.832031 120.828125 -115.625 C 125.847656 -104.425781 128.359375 -90.1875 128.359375 -72.90625 C 128.359375 -55.613281 125.847656 -41.363281 120.828125 -30.15625 C 115.804688 -18.957031 109.039062 -10.78125 100.53125 -5.625 C 92.019531 -0.476562 82.410156 2.09375 71.703125 2.09375 Z M 71.703125 -13.765625 C 84.398438 -13.765625 94.023438 -18.332031 100.578125 -27.46875 C 107.128906 -36.613281 110.40625 -51.757812 110.40625 -72.90625 C 110.40625 -94.050781 107.128906 -109.191406 100.578125 -118.328125 C 94.023438 -127.472656 84.398438 -132.046875 71.703125 -132.046875 C 63.328125 -132.046875 56.28125 -130.113281 50.5625 -126.25 C 44.84375 -122.394531 40.46875 -116.113281 37.4375 -107.40625 C 34.414062 -98.695312 32.90625 -87.195312 32.90625 -72.90625 C 32.90625 -58.613281 34.414062 -47.109375 37.4375 -38.390625 C 40.46875 -29.679688 44.84375 -23.398438 50.5625 -19.546875 C 56.28125 -15.691406 63.328125 -13.765625 71.703125 -13.765625 Z M 71.703125 -13.765625 "/></g></g></g><g fill="#1f3a68" fill-opacity="1"><g transform="translate(1485.81534, 1247.613516)"><g><path d="M 71.703125 2.09375 C 61.003906 2.09375 51.398438 -0.476562 42.890625 -5.625 C 34.378906 -10.78125 27.59375 -18.957031 22.53125 -30.15625 C 17.476562 -41.363281 14.953125 -55.613281 14.953125 -72.90625 C 14.953125 -90.1875 17.476562 -104.425781 22.53125 -115.625 C 27.59375 -126.832031 34.378906 -135.015625 42.890625 -140.171875 C 51.398438 -145.328125 61.003906 -147.90625 71.703125 -147.90625 C 82.410156 -147.90625 92.019531 -145.328125 100.53125 -140.171875 C 109.039062 -135.015625 115.804688 -126.832031 120.828125 -115.625 C 125.847656 -104.425781 128.359375 -90.1875 128.359375 -72.90625 C 128.359375 -55.613281 125.847656 -41.363281 120.828125 -30.15625 C 115.804688 -18.957031 109.039062 -10.78125 100.53125 -5.625 C 92.019531 -0.476562 82.410156 2.09375 71.703125 2.09375 Z M 71.703125 -13.765625 C 84.398438 -13.765625 94.023438 -18.332031 100.578125 -27.46875 C 107.128906 -36.613281 110.40625 -51.757812 110.40625 -72.90625 C 110.40625 -94.050781 107.128906 -109.191406 100.578125 -118.328125 C 94.023438 -127.472656 84.398438 -132.046875 71.703125 -132.046875 C 63.328125 -132.046875 56.28125 -130.113281 50.5625 -126.25 C 44.84375 -122.394531 40.46875 -116.113281 37.4375 -107.40625 C 34.414062 -98.695312 32.90625 -87.195312 32.90625 -72.90625 C 32.90625 -58.613281 34.414062 -47.109375 37.4375 -38.390625 C 40.46875 -29.679688 44.84375 -23.398438 50.5625 -19.546875 C 56.28125 -15.691406 63.328125 -13.765625 71.703125 -13.765625 Z M 71.703125 -13.765625 "/></g></g></g><g fill="#1f3a68" fill-opacity="1"><g transform="translate(1629.212217, 1247.613516)"><g><path d="M 71.703125 2.09375 C 61.003906 2.09375 51.398438 -0.476562 42.890625 -5.625 C 34.378906 -10.78125 27.59375 -18.957031 22.53125 -30.15625 C 17.476562 -41.363281 14.953125 -55.613281 14.953125 -72.90625 C 14.953125 -90.1875 17.476562 -104.425781 22.53125 -115.625 C 27.59375 -126.832031 34.378906 -135.015625 42.890625 -140.171875 C 51.398438 -145.328125 61.003906 -147.90625 71.703125 -147.90625 C 82.410156 -147.90625 92.019531 -145.328125 100.53125 -140.171875 C 109.039062 -135.015625 115.804688 -126.832031 120.828125 -115.625 C 125.847656 -104.425781 128.359375 -90.1875 128.359375 -72.90625 C 128.359375 -55.613281 125.847656 -41.363281 120.828125 -30.15625 C 115.804688 -18.957031 109.039062 -10.78125 100.53125 -5.625 C 92.019531 -0.476562 82.410156 2.09375 71.703125 2.09375 Z M 71.703125 -13.765625 C 84.398438 -13.765625 94.023438 -18.332031 100.578125 -27.46875 C 107.128906 -36.613281 110.40625 -51.757812 110.40625 -72.90625 C 110.40625 -94.050781 107.128906 -109.191406 100.578125 -118.328125 C 94.023438 -127.472656 84.398438 -132.046875 71.703125 -132.046875 C 63.328125 -132.046875 56.28125 -130.113281 50.5625 -126.25 C 44.84375 -122.394531 40.46875 -116.113281 37.4375 -107.40625 C 34.414062 -98.695312 32.90625 -87.195312 32.90625 -72.90625 C 32.90625 -58.613281 34.414062 -47.109375 37.4375 -38.390625 C 40.46875 -29.679688 44.84375 -23.398438 50.5625 -19.546875 C 56.28125 -15.691406 63.328125 -13.765625 71.703125 -13.765625 Z M 71.703125 -13.765625 "/></g></g></g><g fill="#1f3a68" fill-opacity="1"><g transform="translate(1772.609093, 1247.613516)"><g><path d="M 10.375 0 L 10.375 -14.15625 L 50.171875 -14.15625 L 50.171875 -125.65625 L 47.875 -126.265625 C 41.425781 -123.066406 35.773438 -120.617188 30.921875 -118.921875 C 26.066406 -117.234375 19.847656 -115.59375 12.265625 -114 L 12.265625 -129.75 C 19.773438 -131.34375 27.203125 -133.503906 34.546875 -136.234375 C 41.898438 -138.960938 48.566406 -142.15625 54.546875 -145.8125 L 66.921875 -145.8125 L 66.921875 -14.15625 L 102.53125 -14.15625 L 102.53125 0 Z M 10.375 0 "/></g></g></g><g fill="#1f3a68" fill-opacity="1"><g transform="translate(1881.303528, 1247.613516)"><g><path d="M 71.703125 2.09375 C 61.003906 2.09375 51.398438 -0.476562 42.890625 -5.625 C 34.378906 -10.78125 27.59375 -18.957031 22.53125 -30.15625 C 17.476562 -41.363281 14.953125 -55.613281 14.953125 -72.90625 C 14.953125 -90.1875 17.476562 -104.425781 22.53125 -115.625 C 27.59375 -126.832031 34.378906 -135.015625 42.890625 -140.171875 C 51.398438 -145.328125 61.003906 -147.90625 71.703125 -147.90625 C 82.410156 -147.90625 92.019531 -145.328125 100.53125 -140.171875 C 109.039062 -135.015625 115.804688 -126.832031 120.828125 -115.625 C 125.847656 -104.425781 128.359375 -90.1875 128.359375 -72.90625 C 128.359375 -55.613281 125.847656 -41.363281 120.828125 -30.15625 C 115.804688 -18.957031 109.039062 -10.78125 100.53125 -5.625 C 92.019531 -0.476562 82.410156 2.09375 71.703125 2.09375 Z M 71.703125 -13.765625 C 84.398438 -13.765625 94.023438 -18.332031 100.578125 -27.46875 C 107.128906 -36.613281 110.40625 -51.757812 110.40625 -72.90625 C 110.40625 -94.050781 107.128906 -109.191406 100.578125 -118.328125 C 94.023438 -127.472656 84.398438 -132.046875 71.703125 -132.046875 C 63.328125 -132.046875 56.28125 -130.113281 50.5625 -126.25 C 44.84375 -122.394531 40.46875 -116.113281 37.4375 -107.40625 C 34.414062 -98.695312 32.90625 -87.195312 32.90625 -72.90625 C 32.90625 -58.613281 34.414062 -47.109375 37.4375 -38.390625 C 40.46875 -29.679688 44.84375 -23.398438 50.5625 -19.546875 C 56.28125 -15.691406 63.328125 -13.765625 71.703125 -13.765625 Z M 71.703125 -13.765625 "/></g></g></g><g fill="#1f3a68" fill-opacity="1"><g transform="translate(225.358786, 528.322371)"><g><path d="M 71.703125 2.09375 C 61.003906 2.09375 51.398438 -0.476562 42.890625 -5.625 C 34.378906 -10.78125 27.59375 -18.957031 22.53125 -30.15625 C 17.476562 -41.363281 14.953125 -55.613281 14.953125 -72.90625 C 14.953125 -90.1875 17.476562 -104.425781 22.53125 -115.625 C 27.59375 -126.832031 34.378906 -135.015625 42.890625 -140.171875 C 51.398438 -145.328125 61.003906 -147.90625 71.703125 -147.90625 C 82.410156 -147.90625 92.019531 -145.328125 100.53125 -140.171875 C 109.039062 -135.015625 115.804688 -126.832031 120.828125 -115.625 C 125.847656 -104.425781 128.359375 -90.1875 128.359375 -72.90625 C 128.359375 -55.613281 125.847656 -41.363281 120.828125 -30.15625 C 115.804688 -18.957031 109.039062 -10.78125 100.53125 -5.625 C 92.019531 -0.476562 82.410156 2.09375 71.703125 2.09375 Z M 71.703125 -13.765625 C 84.398438 -13.765625 94.023438 -18.332031 100.578125 -27.46875 C 107.128906 -36.613281 110.40625 -51.757812 110.40625 -72.90625 C 110.40625 -94.050781 107.128906 -109.191406 100.578125 -118.328125 C 94.023438 -127.472656 84.398438 -132.046875 71.703125 -132.046875 C 63.328125 -132.046875 56.28125 -130.113281 50.5625 -126.25 C 44.84375 -122.394531 40.46875 -116.113281 37.4375 -107.40625 C 34.414062 -98.695312 32.90625 -87.195312 32.90625 -72.90625 C 32.90625 -58.613281 34.414062 -47.109375 37.4375 -38.390625 C 40.46875 -29.679688 44.84375 -23.398438 50.5625 -19.546875 C 56.28125 -15.691406 63.328125 -13.765625 71.703125 -13.765625 Z M 71.703125 -13.765625 "/></g></g></g><g fill="#1f3a68" fill-opacity="1"><g transform="translate(368.755663, 528.322371)"><g><path d="M 10.375 0 L 10.375 -14.15625 L 50.171875 -14.15625 L 50.171875 -125.65625 L 47.875 -126.265625 C 41.425781 -123.066406 35.773438 -120.617188 30.921875 -118.921875 C 26.066406 -117.234375 19.847656 -115.59375 12.265625 -114 L 12.265625 -129.75 C 19.773438 -131.34375 27.203125 -133.503906 34.546875 -136.234375 C 41.898438 -138.960938 48.566406 -142.15625 54.546875 -145.8125 L 66.921875 -145.8125 L 66.921875 -14.15625 L 102.53125 -14.15625 L 102.53125 0 Z M 10.375 0 "/></g></g></g><g fill="#1f3a68" fill-opacity="1"><g transform="translate(477.450097, 528.322371)"><g><path d="M 71.703125 2.09375 C 61.003906 2.09375 51.398438 -0.476562 42.890625 -5.625 C 34.378906 -10.78125 27.59375 -18.957031 22.53125 -30.15625 C 17.476562 -41.363281 14.953125 -55.613281 14.953125 -72.90625 C 14.953125 -90.1875 17.476562 -104.425781 22.53125 -115.625 C 27.59375 -126.832031 34.378906 -135.015625 42.890625 -140.171875 C 51.398438 -145.328125 61.003906 -147.90625 71.703125 -147.90625 C 82.410156 -147.90625 92.019531 -145.328125 100.53125 -140.171875 C 109.039062 -135.015625 115.804688 -126.832031 120.828125 -115.625 C 125.847656 -104.425781 128.359375 -90.1875 128.359375 -72.90625 C 128.359375 -55.613281 125.847656 -41.363281 120.828125 -30.15625 C 115.804688 -18.957031 109.039062 -10.78125 100.53125 -5.625 C 92.019531 -0.476562 82.410156 2.09375 71.703125 2.09375 Z M 71.703125 -13.765625 C 84.398438 -13.765625 94.023438 -18.332031 100.578125 -27.46875 C 107.128906 -36.613281 110.40625 -51.757812 110.40625 -72.90625 C 110.40625 -94.050781 107.128906 -109.191406 100.578125 -118.328125 C 94.023438 -127.472656 84.398438 -132.046875 71.703125 -132.046875 C 63.328125 -132.046875 56.28125 -130.113281 50.5625 -126.25 C 44.84375 -122.394531 40.46875 -116.113281 37.4375 -107.40625 C 34.414062 -98.695312 32.90625 -87.195312 32.90625 -72.90625 C 32.90625 -58.613281 34.414062 -47.109375 37.4375 -38.390625 C 40.46875 -29.679688 44.84375 -23.398438 50.5625 -19.546875 C 56.28125 -15.691406 63.328125 -13.765625 71.703125 -13.765625 Z M 71.703125 -13.765625 "/></g></g></g><g fill="#1f3a68" fill-opacity="1"><g transform="translate(620.846973, 528.322371)"><g><path d="M 71.703125 2.09375 C 61.003906 2.09375 51.398438 -0.476562 42.890625 -5.625 C 34.378906 -10.78125 27.59375 -18.957031 22.53125 -30.15625 C 17.476562 -41.363281 14.953125 -55.613281 14.953125 -72.90625 C 14.953125 -90.1875 17.476562 -104.425781 22.53125 -115.625 C 27.59375 -126.832031 34.378906 -135.015625 42.890625 -140.171875 C 51.398438 -145.328125 61.003906 -147.90625 71.703125 -147.90625 C 82.410156 -147.90625 92.019531 -145.328125 100.53125 -140.171875 C 109.039062 -135.015625 115.804688 -126.832031 120.828125 -115.625 C 125.847656 -104.425781 128.359375 -90.1875 128.359375 -72.90625 C 128.359375 -55.613281 125.847656 -41.363281 120.828125 -30.15625 C 115.804688 -18.957031 109.039062 -10.78125 100.53125 -5.625 C 92.019531 -0.476562 82.410156 2.09375 71.703125 2.09375 Z M 71.703125 -13.765625 C 84.398438 -13.765625 94.023438 -18.332031 100.578125 -27.46875 C 107.128906 -36.613281 110.40625 -51.757812 110.40625 -72.90625 C 110.40625 -94.050781 107.128906 -109.191406 100.578125 -118.328125 C 94.023438 -127.472656 84.398438 -132.046875 71.703125 -132.046875 C 63.328125 -132.046875 56.28125 -130.113281 50.5625 -126.25 C 44.84375 -122.394531 40.46875 -116.113281 37.4375 -107.40625 C 34.414062 -98.695312 32.90625 -87.195312 32.90625 -72.90625 C 32.90625 -58.613281 34.414062 -47.109375 37.4375 -38.390625 C 40.46875 -29.679688 44.84375 -23.398438 50.5625 -19.546875 C 56.28125 -15.691406 63.328125 -13.765625 71.703125 -13.765625 Z M 71.703125 -13.765625 "/></g></g></g><g fill="#1f3a68" fill-opacity="1"><g transform="translate(764.24385, 528.322371)"><g><path d="M 10.375 0 L 10.375 -14.15625 L 50.171875 -14.15625 L 50.171875 -125.65625 L 47.875 -126.265625 C 41.425781 -123.066406 35.773438 -120.617188 30.921875 -118.921875 C 26.066406 -117.234375 19.847656 -115.59375 12.265625 -114 L 12.265625 -129.75 C 19.773438 -131.34375 27.203125 -133.503906 34.546875 -136.234375 C 41.898438 -138.960938 48.566406 -142.15625 54.546875 -145.8125 L 66.921875 -145.8125 L 66.921875 -14.15625 L 102.53125 -14.15625 L 102.53125 0 Z M 10.375 0 "/></g></g></g><g fill="#1f3a68" fill-opacity="1"><g transform="translate(872.938284, 528.322371)"><g><path d="M 71.703125 2.09375 C 61.003906 2.09375 51.398438 -0.476562 42.890625 -5.625 C 34.378906 -10.78125 27.59375 -18.957031 22.53125 -30.15625 C 17.476562 -41.363281 14.953125 -55.613281 14.953125 -72.90625 C 14.953125 -90.1875 17.476562 -104.425781 22.53125 -115.625 C 27.59375 -126.832031 34.378906 -135.015625 42.890625 -140.171875 C 51.398438 -145.328125 61.003906 -147.90625 71.703125 -147.90625 C 82.410156 -147.90625 92.019531 -145.328125 100.53125 -140.171875 C 109.039062 -135.015625 115.804688 -126.832031 120.828125 -115.625 C 125.847656 -104.425781 128.359375 -90.1875 128.359375 -72.90625 C 128.359375 -55.613281 125.847656 -41.363281 120.828125 -30.15625 C 115.804688 -18.957031 109.039062 -10.78125 100.53125 -5.625 C 92.019531 -0.476562 82.410156 2.09375 71.703125 2.09375 Z M 71.703125 -13.765625 C 84.398438 -13.765625 94.023438 -18.332031 100.578125 -27.46875 C 107.128906 -36.613281 110.40625 -51.757812 110.40625 -72.90625 C 110.40625 -94.050781 107.128906 -109.191406 100.578125 -118.328125 C 94.023438 -127.472656 84.398438 -132.046875 71.703125 -132.046875 C 63.328125 -132.046875 56.28125 -130.113281 50.5625 -126.25 C 44.84375 -122.394531 40.46875 -116.113281 37.4375 -107.40625 C 34.414062 -98.695312 32.90625 -87.195312 32.90625 -72.90625 C 32.90625 -58.613281 34.414062 -47.109375 37.4375 -38.390625 C 40.46875 -29.679688 44.84375 -23.398438 50.5625 -19.546875 C 56.28125 -15.691406 63.328125 -13.765625 71.703125 -13.765625 Z M 71.703125 -13.765625 "/></g></g></g><g fill="#1f3a68" fill-opacity="1"><g transform="translate(1016.335161, 528.322371)"><g><path d="M 10.375 0 L 10.375 -14.15625 L 50.171875 -14.15625 L 50.171875 -125.65625 L 47.875 -126.265625 C 41.425781 -123.066406 35.773438 -120.617188 30.921875 -118.921875 C 26.066406 -117.234375 19.847656 -115.59375 12.265625 -114 L 12.265625 -129.75 C 19.773438 -131.34375 27.203125 -133.503906 34.546875 -136.234375 C 41.898438 -138.960938 48.566406 -142.15625 54.546875 -145.8125 L 66.921875 -145.8125 L 66.921875 -14.15625 L 102.53125 -14.15625 L 102.53125 0 Z M 10.375 0 "/></g></g></g><g fill="#1f3a68" fill-opacity="1"><g transform="translate(1125.029595, 528.322371)"><g><path d="M 71.703125 2.09375 C 61.003906 2.09375 51.398438 -0.476562 42.890625 -5.625 C 34.378906 -10.78125 27.59375 -18.957031 22.53125 -30.15625 C 17.476562 -41.363281 14.953125 -55.613281 14.953125 -72.90625 C 14.953125 -90.1875 17.476562 -104.425781 22.53125 -115.625 C 27.59375 -126.832031 34.378906 -135.015625 42.890625 -140.171875 C 51.398438 -145.328125 61.003906 -147.90625 71.703125 -147.90625 C 82.410156 -147.90625 92.019531 -145.328125 100.53125 -140.171875 C 109.039062 -135.015625 115.804688 -126.832031 120.828125 -115.625 C 125.847656 -104.425781 128.359375 -90.1875 128.359375 -72.90625 C 128.359375 -55.613281 125.847656 -41.363281 120.828125 -30.15625 C 115.804688 -18.957031 109.039062 -10.78125 100.53125 -5.625 C 92.019531 -0.476562 82.410156 2.09375 71.703125 2.09375 Z M 71.703125 -13.765625 C 84.398438 -13.765625 94.023438 -18.332031 100.578125 -27.46875 C 107.128906 -36.613281 110.40625 -51.757812 110.40625 -72.90625 C 110.40625 -94.050781 107.128906 -109.191406 100.578125 -118.328125 C 94.023438 -127.472656 84.398438 -132.046875 71.703125 -132.046875 C 63.328125 -132.046875 56.28125 -130.113281 50.5625 -126.25 C 44.84375 -122.394531 40.46875 -116.113281 37.4375 -107.40625 C 34.414062 -98.695312 32.90625 -87.195312 32.90625 -72.90625 C 32.90625 -58.613281 34.414062 -47.109375 37.4375 -38.390625 C 40.46875 -29.679688 44.84375 -23.398438 50.5625 -19.546875 C 56.28125 -15.691406 63.328125 -13.765625 71.703125 -13.765625 Z M 71.703125 -13.765625 "/></g></g></g><g fill="#1f3a68" fill-opacity="1"><g transform="translate(1268.426472, 528.322371)"><g><path d="M 10.375 0 L 10.375 -14.15625 L 50.171875 -14.15625 L 50.171875 -125.65625 L 47.875 -126.265625 C 41.425781 -123.066406 35.773438 -120.617188 30.921875 -118.921875 C 26.066406 -117.234375 19.847656 -115.59375 12.265625 -114 L 12.265625 -129.75 C 19.773438 -131.34375 27.203125 -133.503906 34.546875 -136.234375 C 41.898438 -138.960938 48.566406 -142.15625 54.546875 -145.8125 L 66.921875 -145.8125 L 66.921875 -14.15625 L 102.53125 -14.15625 L 102.53125 0 Z M 10.375 0 "/></g></g></g><g fill="#1f3a68" fill-opacity="1"><g transform="translate(1377.120906, 528.322371)"><g><path d="M 10.375 0 L 10.375 -14.15625 L 50.171875 -14.15625 L 50.171875 -125.65625 L 47.875 -126.265625 C 41.425781 -123.066406 35.773438 -120.617188 30.921875 -118.921875 C 26.066406 -117.234375 19.847656 -115.59375 12.265625 -114 L 12.265625 -129.75 C 19.773438 -131.34375 27.203125 -133.503906 34.546875 -136.234375 C 41.898438 -138.960938 48.566406 -142.15625 54.546875 -145.8125 L 66.921875 -145.8125 L 66.921875 -14.15625 L 102.53125 -14.15625 L 102.53125 0 Z M 10.375 0 "/></g></g></g><g fill="#1f3a68" fill-opacity="1"><g transform="translate(1485.81534, 528.322371)"><g><path d="M 71.703125 2.09375 C 61.003906 2.09375 51.398438 -0.476562 42.890625 -5.625 C 34.378906 -10.78125 27.59375 -18.957031 22.53125 -30.15625 C 17.476562 -41.363281 14.953125 -55.613281 14.953125 -72.90625 C 14.953125 -90.1875 17.476562 -104.425781 22.53125 -115.625 C 27.59375 -126.832031 34.378906 -135.015625 42.890625 -140.171875 C 51.398438 -145.328125 61.003906 -147.90625 71.703125 -147.90625 C 82.410156 -147.90625 92.019531 -145.328125 100.53125 -140.171875 C 109.039062 -135.015625 115.804688 -126.832031 120.828125 -115.625 C 125.847656 -104.425781 128.359375 -90.1875 128.359375 -72.90625 C 128.359375 -55.613281 125.847656 -41.363281 120.828125 -30.15625 C 115.804688 -18.957031 109.039062 -10.78125 100.53125 -5.625 C 92.019531 -0.476562 82.410156 2.09375 71.703125 2.09375 Z M 71.703125 -13.765625 C 84.398438 -13.765625 94.023438 -18.332031 100.578125 -27.46875 C 107.128906 -36.613281 110.40625 -51.757812 110.40625 -72.90625 C 110.40625 -94.050781 107.128906 -109.191406 100.578125 -118.328125 C 94.023438 -127.472656 84.398438 -132.046875 71.703125 -132.046875 C 63.328125 -132.046875 56.28125 -130.113281 50.5625 -126.25 C 44.84375 -122.394531 40.46875 -116.113281 37.4375 -107.40625 C 34.414062 -98.695312 32.90625 -87.195312 32.90625 -72.90625 C 32.90625 -58.613281 34.414062 -47.109375 37.4375 -38.390625 C 40.46875 -29.679688 44.84375 -23.398438 50.5625 -19.546875 C 56.28125 -15.691406 63.328125 -13.765625 71.703125 -13.765625 Z M 71.703125 -13.765625 "/></g></g></g><g fill="#1f3a68" fill-opacity="1"><g transform="translate(1629.212217, 528.322371)"><g><path d="M 71.703125 2.09375 C 61.003906 2.09375 51.398438 -0.476562 42.890625 -5.625 C 34.378906 -10.78125 27.59375 -18.957031 22.53125 -30.15625 C 17.476562 -41.363281 14.953125 -55.613281 14.953125 -72.90625 C 14.953125 -90.1875 17.476562 -104.425781 22.53125 -115.625 C 27.59375 -126.832031 34.378906 -135.015625 42.890625 -140.171875 C 51.398438 -145.328125 61.003906 -147.90625 71.703125 -147.90625 C 82.410156 -147.90625 92.019531 -145.328125 100.53125 -140.171875 C 109.039062 -135.015625 115.804688 -126.832031 120.828125 -115.625 C 125.847656 -104.425781 128.359375 -90.1875 128.359375 -72.90625 C 128.359375 -55.613281 125.847656 -41.363281 120.828125 -30.15625 C 115.804688 -18.957031 109.039062 -10.78125 100.53125 -5.625 C 92.019531 -0.476562 82.410156 2.09375 71.703125 2.09375 Z M 71.703125 -13.765625 C 84.398438 -13.765625 94.023438 -18.332031 100.578125 -27.46875 C 107.128906 -36.613281 110.40625 -51.757812 110.40625 -72.90625 C 110.40625 -94.050781 107.128906 -109.191406 100.578125 -118.328125 C 94.023438 -127.472656 84.398438 -132.046875 71.703125 -132.046875 C 63.328125 -132.046875 56.28125 -130.113281 50.5625 -126.25 C 44.84375 -122.394531 40.46875 -116.113281 37.4375 -107.40625 C 34.414062 -98.695312 32.90625 -87.195312 32.90625 -72.90625 C 32.90625 -58.613281 34.414062 -47.109375 37.4375 -38.390625 C 40.46875 -29.679688 44.84375 -23.398438 50.5625 -19.546875 C 56.28125 -15.691406 63.328125 -13.765625 71.703125 -13.765625 Z M 71.703125 -13.765625 "/></g></g></g><g fill="#1f3a68" fill-opacity="1"><g transform="translate(1772.609093, 528.322371)"><g><path d="M 10.375 0 L 10.375 -14.15625 L 50.171875 -14.15625 L 50.171875 -125.65625 L 47.875 -126.265625 C 41.425781 -123.066406 35.773438 -120.617188 30.921875 -118.921875 C 26.066406 -117.234375 19.847656 -115.59375 12.265625 -114 L 12.265625 -129.75 C 19.773438 -131.34375 27.203125 -133.503906 34.546875 -136.234375 C 41.898438 -138.960938 48.566406 -142.15625 54.546875 -145.8125 L 66.921875 -145.8125 L 66.921875 -14.15625 L 102.53125 -14.15625 L 102.53125 0 Z M 10.375 0 "/></g></g></g><g fill="#1f3a68" fill-opacity="1"><g transform="translate(1881.303528, 528.322371)"><g><path d="M 71.703125 2.09375 C 61.003906 2.09375 51.398438 -0.476562 42.890625 -5.625 C 34.378906 -10.78125 27.59375 -18.957031 22.53125 -30.15625 C 17.476562 -41.363281 14.953125 -55.613281 14.953125 -72.90625 C 14.953125 -90.1875 17.476562 -104.425781 22.53125 -115.625 C 27.59375 -126.832031 34.378906 -135.015625 42.890625 -140.171875 C 51.398438 -145.328125 61.003906 -147.90625 71.703125 -147.90625 C 82.410156 -147.90625 92.019531 -145.328125 100.53125 -140.171875 C 109.039062 -135.015625 115.804688 -126.832031 120.828125 -115.625 C 125.847656 -104.425781 128.359375 -90.1875 128.359375 -72.90625 C 128.359375 -55.613281 125.847656 -41.363281 120.828125 -30.15625 C 115.804688 -18.957031 109.039062 -10.78125 100.53125 -5.625 C 92.019531 -0.476562 82.410156 2.09375 71.703125 2.09375 Z M 71.703125 -13.765625 C 84.398438 -13.765625 94.023438 -18.332031 100.578125 -27.46875 C 107.128906 -36.613281 110.40625 -51.757812 110.40625 -72.90625 C 110.40625 -94.050781 107.128906 -109.191406 100.578125 -118.328125 C 94.023438 -127.472656 84.398438 -132.046875 71.703125 -132.046875 C 63.328125 -132.046875 56.28125 -130.113281 50.5625 -126.25 C 44.84375 -122.394531 40.46875 -116.113281 37.4375 -107.40625 C 34.414062 -98.695312 32.90625 -87.195312 32.90625 -72.90625 C 32.90625 -58.613281 34.414062 -47.109375 37.4375 -38.390625 C 40.46875 -29.679688 44.84375 -23.398438 50.5625 -19.546875 C 56.28125 -15.691406 63.328125 -13.765625 71.703125 -13.765625 Z M 71.703125 -13.765625 "/></g></g></g><g fill="#1f3a68" fill-opacity="1"><g transform="translate(225.358786, 765.154672)"><g><path d="M 71.703125 2.09375 C 61.003906 2.09375 51.398438 -0.476562 42.890625 -5.625 C 34.378906 -10.78125 27.59375 -18.957031 22.53125 -30.15625 C 17.476562 -41.363281 14.953125 -55.613281 14.953125 -72.90625 C 14.953125 -90.1875 17.476562 -104.425781 22.53125 -115.625 C 27.59375 -126.832031 34.378906 -135.015625 42.890625 -140.171875 C 51.398438 -145.328125 61.003906 -147.90625 71.703125 -147.90625 C 82.410156 -147.90625 92.019531 -145.328125 100.53125 -140.171875 C 109.039062 -135.015625 115.804688 -126.832031 120.828125 -115.625 C 125.847656 -104.425781 128.359375 -90.1875 128.359375 -72.90625 C 128.359375 -55.613281 125.847656 -41.363281 120.828125 -30.15625 C 115.804688 -18.957031 109.039062 -10.78125 100.53125 -5.625 C 92.019531 -0.476562 82.410156 2.09375 71.703125 2.09375 Z M 71.703125 -13.765625 C 84.398438 -13.765625 94.023438 -18.332031 100.578125 -27.46875 C 107.128906 -36.613281 110.40625 -51.757812 110.40625 -72.90625 C 110.40625 -94.050781 107.128906 -109.191406 100.578125 -118.328125 C 94.023438 -127.472656 84.398438 -132.046875 71.703125 -132.046875 C 63.328125 -132.046875 56.28125 -130.113281 50.5625 -126.25 C 44.84375 -122.394531 40.46875 -116.113281 37.4375 -107.40625 C 34.414062 -98.695312 32.90625 -87.195312 32.90625 -72.90625 C 32.90625 -58.613281 34.414062 -47.109375 37.4375 -38.390625 C 40.46875 -29.679688 44.84375 -23.398438 50.5625 -19.546875 C 56.28125 -15.691406 63.328125 -13.765625 71.703125 -13.765625 Z M 71.703125 -13.765625 "/></g></g></g><g fill="#1f3a68" fill-opacity="1"><g transform="translate(368.755663, 765.154672)"><g><path d="M 10.375 0 L 10.375 -14.15625 L 50.171875 -14.15625 L 50.171875 -125.65625 L 47.875 -126.265625 C 41.425781 -123.066406 35.773438 -120.617188 30.921875 -118.921875 C 26.066406 -117.234375 19.847656 -115.59375 12.265625 -114 L 12.265625 -129.75 C 19.773438 -131.34375 27.203125 -133.503906 34.546875 -136.234375 C 41.898438 -138.960938 48.566406 -142.15625 54.546875 -145.8125 L 66.921875 -145.8125 L 66.921875 -14.15625 L 102.53125 -14.15625 L 102.53125 0 Z M 10.375 0 "/></g></g></g><g fill="#1f3a68" fill-opacity="1"><g transform="translate(477.450097, 765.154672)"><g><path d="M 71.703125 2.09375 C 61.003906 2.09375 51.398438 -0.476562 42.890625 -5.625 C 34.378906 -10.78125 27.59375 -18.957031 22.53125 -30.15625 C 17.476562 -41.363281 14.953125 -55.613281 14.953125 -72.90625 C 14.953125 -90.1875 17.476562 -104.425781 22.53125 -115.625 C 27.59375 -126.832031 34.378906 -135.015625 42.890625 -140.171875 C 51.398438 -145.328125 61.003906 -147.90625 71.703125 -147.90625 C 82.410156 -147.90625 92.019531 -145.328125 100.53125 -140.171875 C 109.039062 -135.015625 115.804688 -126.832031 120.828125 -115.625 C 125.847656 -104.425781 128.359375 -90.1875 128.359375 -72.90625 C 128.359375 -55.613281 125.847656 -41.363281 120.828125 -30.15625 C 115.804688 -18.957031 109.039062 -10.78125 100.53125 -5.625 C 92.019531 -0.476562 82.410156 2.09375 71.703125 2.09375 Z M 71.703125 -13.765625 C 84.398438 -13.765625 94.023438 -18.332031 100.578125 -27.46875 C 107.128906 -36.613281 110.40625 -51.757812 110.40625 -72.90625 C 110.40625 -94.050781 107.128906 -109.191406 100.578125 -118.328125 C 94.023438 -127.472656 84.398438 -132.046875 71.703125 -132.046875 C 63.328125 -132.046875 56.28125 -130.113281 50.5625 -126.25 C 44.84375 -122.394531 40.46875 -116.113281 37.4375 -107.40625 C 34.414062 -98.695312 32.90625 -87.195312 32.90625 -72.90625 C 32.90625 -58.613281 34.414062 -47.109375 37.4375 -38.390625 C 40.46875 -29.679688 44.84375 -23.398438 50.5625 -19.546875 C 56.28125 -15.691406 63.328125 -13.765625 71.703125 -13.765625 Z M 71.703125 -13.765625 "/></g></g></g><g fill="#1f3a68" fill-opacity="1"><g transform="translate(620.846973, 765.154672)"><g><path d="M 71.703125 2.09375 C 61.003906 2.09375 51.398438 -0.476562 42.890625 -5.625 C 34.378906 -10.78125 27.59375 -18.957031 22.53125 -30.15625 C 17.476562 -41.363281 14.953125 -55.613281 14.953125 -72.90625 C 14.953125 -90.1875 17.476562 -104.425781 22.53125 -115.625 C 27.59375 -126.832031 34.378906 -135.015625 42.890625 -140.171875 C 51.398438 -145.328125 61.003906 -147.90625 71.703125 -147.90625 C 82.410156 -147.90625 92.019531 -145.328125 100.53125 -140.171875 C 109.039062 -135.015625 115.804688 -126.832031 120.828125 -115.625 C 125.847656 -104.425781 128.359375 -90.1875 128.359375 -72.90625 C 128.359375 -55.613281 125.847656 -41.363281 120.828125 -30.15625 C 115.804688 -18.957031 109.039062 -10.78125 100.53125 -5.625 C 92.019531 -0.476562 82.410156 2.09375 71.703125 2.09375 Z M 71.703125 -13.765625 C 84.398438 -13.765625 94.023438 -18.332031 100.578125 -27.46875 C 107.128906 -36.613281 110.40625 -51.757812 110.40625 -72.90625 C 110.40625 -94.050781 107.128906 -109.191406 100.578125 -118.328125 C 94.023438 -127.472656 84.398438 -132.046875 71.703125 -132.046875 C 63.328125 -132.046875 56.28125 -130.113281 50.5625 -126.25 C 44.84375 -122.394531 40.46875 -116.113281 37.4375 -107.40625 C 34.414062 -98.695312 32.90625 -87.195312 32.90625 -72.90625 C 32.90625 -58.613281 34.414062 -47.109375 37.4375 -38.390625 C 40.46875 -29.679688 44.84375 -23.398438 50.5625 -19.546875 C 56.28125 -15.691406 63.328125 -13.765625 71.703125 -13.765625 Z M 71.703125 -13.765625 "/></g></g></g><g fill="#1f3a68" fill-opacity="1"><g transform="translate(764.24385, 765.154672)"><g><path d="M 10.375 0 L 10.375 -14.15625 L 50.171875 -14.15625 L 50.171875 -125.65625 L 47.875 -126.265625 C 41.425781 -123.066406 35.773438 -120.617188 30.921875 -118.921875 C 26.066406 -117.234375 19.847656 -115.59375 12.265625 -114 L 12.265625 -129.75 C 19.773438 -131.34375 27.203125 -133.503906 34.546875 -136.234375 C 41.898438 -138.960938 48.566406 -142.15625 54.546875 -145.8125 L 66.921875 -145.8125 L 66.921875 -14.15625 L 102.53125 -14.15625 L 102.53125 0 Z M 10.375 0 "/></g></g></g><g fill="#1f3a68" fill-opacity="1"><g transform="translate(872.938284, 765.154672)"><g><path d="M 71.703125 2.09375 C 61.003906 2.09375 51.398438 -0.476562 42.890625 -5.625 C 34.378906 -10.78125 27.59375 -18.957031 22.53125 -30.15625 C 17.476562 -41.363281 14.953125 -55.613281 14.953125 -72.90625 C 14.953125 -90.1875 17.476562 -104.425781 22.53125 -115.625 C 27.59375 -126.832031 34.378906 -135.015625 42.890625 -140.171875 C 51.398438 -145.328125 61.003906 -147.90625 71.703125 -147.90625 C 82.410156 -147.90625 92.019531 -145.328125 100.53125 -140.171875 C 109.039062 -135.015625 115.804688 -126.832031 120.828125 -115.625 C 125.847656 -104.425781 128.359375 -90.1875 128.359375 -72.90625 C 128.359375 -55.613281 125.847656 -41.363281 120.828125 -30.15625 C 115.804688 -18.957031 109.039062 -10.78125 100.53125 -5.625 C 92.019531 -0.476562 82.410156 2.09375 71.703125 2.09375 Z M 71.703125 -13.765625 C 84.398438 -13.765625 94.023438 -18.332031 100.578125 -27.46875 C 107.128906 -36.613281 110.40625 -51.757812 110.40625 -72.90625 C 110.40625 -94.050781 107.128906 -109.191406 100.578125 -118.328125 C 94.023438 -127.472656 84.398438 -132.046875 71.703125 -132.046875 C 63.328125 -132.046875 56.28125 -130.113281 50.5625 -126.25 C 44.84375 -122.394531 40.46875 -116.113281 37.4375 -107.40625 C 34.414062 -98.695312 32.90625 -87.195312 32.90625 -72.90625 C 32.90625 -58.613281 34.414062 -47.109375 37.4375 -38.390625 C 40.46875 -29.679688 44.84375 -23.398438 50.5625 -19.546875 C 56.28125 -15.691406 63.328125 -13.765625 71.703125 -13.765625 Z M 71.703125 -13.765625 "/></g></g></g><g fill="#1f3a68" fill-opacity="1"><g transform="translate(1016.335161, 765.154672)"><g><path d="M 10.375 0 L 10.375 -14.15625 L 50.171875 -14.15625 L 50.171875 -125.65625 L 47.875 -126.265625 C 41.425781 -123.066406 35.773438 -120.617188 30.921875 -118.921875 C 26.066406 -117.234375 19.847656 -115.59375 12.265625 -114 L 12.265625 -129.75 C 19.773438 -131.34375 27.203125 -133.503906 34.546875 -136.234375 C 41.898438 -138.960938 48.566406 -142.15625 54.546875 -145.8125 L 66.921875 -145.8125 L 66.921875 -14.15625 L 102.53125 -14.15625 L 102.53125 0 Z M 10.375 0 "/></g></g></g><g fill="#1f3a68" fill-opacity="1"><g transform="translate(1125.029595, 765.154672)"><g><path d="M 71.703125 2.09375 C 61.003906 2.09375 51.398438 -0.476562 42.890625 -5.625 C 34.378906 -10.78125 27.59375 -18.957031 22.53125 -30.15625 C 17.476562 -41.363281 14.953125 -55.613281 14.953125 -72.90625 C 14.953125 -90.1875 17.476562 -104.425781 22.53125 -115.625 C 27.59375 -126.832031 34.378906 -135.015625 42.890625 -140.171875 C 51.398438 -145.328125 61.003906 -147.90625 71.703125 -147.90625 C 82.410156 -147.90625 92.019531 -145.328125 100.53125 -140.171875 C 109.039062 -135.015625 115.804688 -126.832031 120.828125 -115.625 C 125.847656 -104.425781 128.359375 -90.1875 128.359375 -72.90625 C 128.359375 -55.613281 125.847656 -41.363281 120.828125 -30.15625 C 115.804688 -18.957031 109.039062 -10.78125 100.53125 -5.625 C 92.019531 -0.476562 82.410156 2.09375 71.703125 2.09375 Z M 71.703125 -13.765625 C 84.398438 -13.765625 94.023438 -18.332031 100.578125 -27.46875 C 107.128906 -36.613281 110.40625 -51.757812 110.40625 -72.90625 C 110.40625 -94.050781 107.128906 -109.191406 100.578125 -118.328125 C 94.023438 -127.472656 84.398438 -132.046875 71.703125 -132.046875 C 63.328125 -132.046875 56.28125 -130.113281 50.5625 -126.25 C 44.84375 -122.394531 40.46875 -116.113281 37.4375 -107.40625 C 34.414062 -98.695312 32.90625 -87.195312 32.90625 -72.90625 C 32.90625 -58.613281 34.414062 -47.109375 37.4375 -38.390625 C 40.46875 -29.679688 44.84375 -23.398438 50.5625 -19.546875 C 56.28125 -15.691406 63.328125 -13.765625 71.703125 -13.765625 Z M 71.703125 -13.765625 "/></g></g></g><g fill="#1f3a68" fill-opacity="1"><g transform="translate(1268.426472, 765.154672)"><g><path d="M 10.375 0 L 10.375 -14.15625 L 50.171875 -14.15625 L 50.171875 -125.65625 L 47.875 -126.265625 C 41.425781 -123.066406 35.773438 -120.617188 30.921875 -118.921875 C 26.066406 -117.234375 19.847656 -115.59375 12.265625 -114 L 12.265625 -129.75 C 19.773438 -131.34375 27.203125 -133.503906 34.546875 -136.234375 C 41.898438 -138.960938 48.566406 -142.15625 54.546875 -145.8125 L 66.921875 -145.8125 L 66.921875 -14.15625 L 102.53125 -14.15625 L 102.53125 0 Z M 10.375 0 "/></g></g></g><g fill="#1f3a68" fill-opacity="1"><g transform="translate(1377.120906, 765.154672)"><g><path d="M 10.375 0 L 10.375 -14.15625 L 50.171875 -14.15625 L 50.171875 -125.65625 L 47.875 -126.265625 C 41.425781 -123.066406 35.773438 -120.617188 30.921875 -118.921875 C 26.066406 -117.234375 19.847656 -115.59375 12.265625 -114 L 12.265625 -129.75 C 19.773438 -131.34375 27.203125 -133.503906 34.546875 -136.234375 C 41.898438 -138.960938 48.566406 -142.15625 54.546875 -145.8125 L 66.921875 -145.8125 L 66.921875 -14.15625 L 102.53125 -14.15625 L 102.53125 0 Z M 10.375 0 "/></g></g></g><g fill="#1f3a68" fill-opacity="1"><g transform="translate(1485.81534, 765.154672)"><g><path d="M 71.703125 2.09375 C 61.003906 2.09375 51.398438 -0.476562 42.890625 -5.625 C 34.378906 -10.78125 27.59375 -18.957031 22.53125 -30.15625 C 17.476562 -41.363281 14.953125 -55.613281 14.953125 -72.90625 C 14.953125 -90.1875 17.476562 -104.425781 22.53125 -115.625 C 27.59375 -126.832031 34.378906 -135.015625 42.890625 -140.171875 C 51.398438 -145.328125 61.003906 -147.90625 71.703125 -147.90625 C 82.410156 -147.90625 92.019531 -145.328125 100.53125 -140.171875 C 109.039062 -135.015625 115.804688 -126.832031 120.828125 -115.625 C 125.847656 -104.425781 128.359375 -90.1875 128.359375 -72.90625 C 128.359375 -55.613281 125.847656 -41.363281 120.828125 -30.15625 C 115.804688 -18.957031 109.039062 -10.78125 100.53125 -5.625 C 92.019531 -0.476562 82.410156 2.09375 71.703125 2.09375 Z M 71.703125 -13.765625 C 84.398438 -13.765625 94.023438 -18.332031 100.578125 -27.46875 C 107.128906 -36.613281 110.40625 -51.757812 110.40625 -72.90625 C 110.40625 -94.050781 107.128906 -109.191406 100.578125 -118.328125 C 94.023438 -127.472656 84.398438 -132.046875 71.703125 -132.046875 C 63.328125 -132.046875 56.28125 -130.113281 50.5625 -126.25 C 44.84375 -122.394531 40.46875 -116.113281 37.4375 -107.40625 C 34.414062 -98.695312 32.90625 -87.195312 32.90625 -72.90625 C 32.90625 -58.613281 34.414062 -47.109375 37.4375 -38.390625 C 40.46875 -29.679688 44.84375 -23.398438 50.5625 -19.546875 C 56.28125 -15.691406 63.328125 -13.765625 71.703125 -13.765625 Z M 71.703125 -13.765625 "/></g></g></g><g fill="#1f3a68" fill-opacity="1"><g transform="translate(1629.212217, 765.154672)"><g><path d="M 71.703125 2.09375 C 61.003906 2.09375 51.398438 -0.476562 42.890625 -5.625 C 34.378906 -10.78125 27.59375 -18.957031 22.53125 -30.15625 C 17.476562 -41.363281 14.953125 -55.613281 14.953125 -72.90625 C 14.953125 -90.1875 17.476562 -104.425781 22.53125 -115.625 C 27.59375 -126.832031 34.378906 -135.015625 42.890625 -140.171875 C 51.398438 -145.328125 61.003906 -147.90625 71.703125 -147.90625 C 82.410156 -147.90625 92.019531 -145.328125 100.53125 -140.171875 C 109.039062 -135.015625 115.804688 -126.832031 120.828125 -115.625 C 125.847656 -104.425781 128.359375 -90.1875 128.359375 -72.90625 C 128.359375 -55.613281 125.847656 -41.363281 120.828125 -30.15625 C 115.804688 -18.957031 109.039062 -10.78125 100.53125 -5.625 C 92.019531 -0.476562 82.410156 2.09375 71.703125 2.09375 Z M 71.703125 -13.765625 C 84.398438 -13.765625 94.023438 -18.332031 100.578125 -27.46875 C 107.128906 -36.613281 110.40625 -51.757812 110.40625 -72.90625 C 110.40625 -94.050781 107.128906 -109.191406 100.578125 -118.328125 C 94.023438 -127.472656 84.398438 -132.046875 71.703125 -132.046875 C 63.328125 -132.046875 56.28125 -130.113281 50.5625 -126.25 C 44.84375 -122.394531 40.46875 -116.113281 37.4375 -107.40625 C 34.414062 -98.695312 32.90625 -87.195312 32.90625 -72.90625 C 32.90625 -58.613281 34.414062 -47.109375 37.4375 -38.390625 C 40.46875 -29.679688 44.84375 -23.398438 50.5625 -19.546875 C 56.28125 -15.691406 63.328125 -13.765625 71.703125 -13.765625 Z M 71.703125 -13.765625 "/></g></g></g><g fill="#1f3a68" fill-opacity="1"><g transform="translate(1772.609093, 765.154672)"><g><path d="M 10.375 0 L 10.375 -14.15625 L 50.171875 -14.15625 L 50.171875 -125.65625 L 47.875 -126.265625 C 41.425781 -123.066406 35.773438 -120.617188 30.921875 -118.921875 C 26.066406 -117.234375 19.847656 -115.59375 12.265625 -114 L 12.265625 -129.75 C 19.773438 -131.34375 27.203125 -133.503906 34.546875 -136.234375 C 41.898438 -138.960938 48.566406 -142.15625 54.546875 -145.8125 L 66.921875 -145.8125 L 66.921875 -14.15625 L 102.53125 -14.15625 L 102.53125 0 Z M 10.375 0 "/></g></g></g><g fill="#1f3a68" fill-opacity="1"><g transform="translate(1881.303528, 765.154672)"><g><path d="M 71.703125 2.09375 C 61.003906 2.09375 51.398438 -0.476562 42.890625 -5.625 C 34.378906 -10.78125 27.59375 -18.957031 22.53125 -30.15625 C 17.476562 -41.363281 14.953125 -55.613281 14.953125 -72.90625 C 14.953125 -90.1875 17.476562 -104.425781 22.53125 -115.625 C 27.59375 -126.832031 34.378906 -135.015625 42.890625 -140.171875 C 51.398438 -145.328125 61.003906 -147.90625 71.703125 -147.90625 C 82.410156 -147.90625 92.019531 -145.328125 100.53125 -140.171875 C 109.039062 -135.015625 115.804688 -126.832031 120.828125 -115.625 C 125.847656 -104.425781 128.359375 -90.1875 128.359375 -72.90625 C 128.359375 -55.613281 125.847656 -41.363281 120.828125 -30.15625 C 115.804688 -18.957031 109.039062 -10.78125 100.53125 -5.625 C 92.019531 -0.476562 82.410156 2.09375 71.703125 2.09375 Z M 71.703125 -13.765625 C 84.398438 -13.765625 94.023438 -18.332031 100.578125 -27.46875 C 107.128906 -36.613281 110.40625 -51.757812 110.40625 -72.90625 C 110.40625 -94.050781 107.128906 -109.191406 100.578125 -118.328125 C 94.023438 -127.472656 84.398438 -132.046875 71.703125 -132.046875 C 63.328125 -132.046875 56.28125 -130.113281 50.5625 -126.25 C 44.84375 -122.394531 40.46875 -116.113281 37.4375 -107.40625 C 34.414062 -98.695312 32.90625 -87.195312 32.90625 -72.90625 C 32.90625 -58.613281 34.414062 -47.109375 37.4375 -38.390625 C 40.46875 -29.679688 44.84375 -23.398438 50.5625 -19.546875 C 56.28125 -15.691406 63.328125 -13.765625 71.703125 -13.765625 Z M 71.703125 -13.765625 "/></g></g></g></svg>